<?xml version="1.0" encoding="UTF-8"?>
<svg id="katman_1" xmlns="http://www.w3.org/2000/svg" version="1.1" viewBox="0 0 612 792">
  <!-- Generator: Adobe Illustrator 29.1.0, SVG Export Plug-In . SVG Version: 2.1.0 Build 142)  -->
  <defs>
    <style>
      .st0 {
        fill: #1d1d1b;
      }
    </style>
  </defs>
  <path class="st0" d="M307.1,118.9l-1.1-.64-240.53,138.87v277.74l239.42,138.23,1.1.64,240.53-138.87v-277.74l-239.42-138.23ZM542.11,525.05l-74.23-129.05,74.23-129.06v258.11ZM69.89,266.95l74.23,129.06-74.23,129.05v-258.11ZM228.54,393.93v-40.1l69.46,40.1h-69.46ZM297.52,398.34l-68.99,39.83v-39.83h68.99ZM314.47,398.34h68.99v39.83l-68.99-39.83ZM314,393.93l69.46-40.1v40.1h-69.46ZM312.04,389.96l34.57-59.76,34.49,19.89-69.06,39.87ZM308.21,387.78v-79.73l34.58,19.95-34.58,59.78ZM303.79,387.78l-34.58-59.78,34.58-19.95v79.73ZM299.96,389.96l-69.06-39.87,34.49-19.89,34.57,59.76ZM224.12,393.93h-69.22l69.22-39.93v39.93ZM224.12,398.34v39.84l-69.2-39.84h69.2ZM299.96,402.04l-34.63,59.87-34.58-19.91,69.21-39.96ZM303.79,404.22v79.83l-34.64-19.94,34.64-59.88ZM308.21,404.22l34.64,59.88-34.64,19.94v-79.83ZM312.04,402.04l69.21,39.96-34.58,19.91-34.63-59.87ZM387.88,398.34h69.2l-69.2,39.84v-39.84ZM387.88,393.93v-39.93l69.22,39.93h-69.22ZM348.82,326.38l34.64-59.89v79.87l-34.64-19.98ZM345,324.17l-34.58-19.95,69.21-39.92-34.63,59.87ZM267,324.17l-34.63-59.87,69.21,39.92-34.58,19.95ZM263.18,326.38l-34.64,19.98v-79.87l34.64,59.89ZM147.53,393.09l-74.08-128.8,148.62,85.81-74.54,43ZM147.41,399.12l74.49,42.88-148.46,85.71,73.96-128.6ZM263.12,465.73l-34.58,59.78v-79.69l34.58,19.91ZM266.94,467.93l34.63,19.94-69.22,39.85,34.58-59.78ZM345.06,467.93l34.58,59.78-69.22-39.85,34.63-19.94ZM348.88,465.73l34.58-19.91v79.69l-34.58-59.78ZM464.59,399.12l73.97,128.6-148.46-85.71,74.49-42.88ZM464.47,393.09l-74.54-43,148.62-85.81-74.08,128.8ZM387.88,346.18v-85.7h148.44l-148.44,85.7ZM308.21,300.4v-171.64l74.45,128.7-74.45,42.94ZM303.79,300.4l-74.45-42.94,74.45-128.7v171.64ZM224.12,346.18l-148.44-85.7h148.44v85.7ZM224.12,445.82v85.7H75.68l148.44-85.7ZM303.79,491.68v171.56l-74.44-128.7,74.44-42.86ZM308.21,491.68l74.44,42.86-74.44,128.7v-171.56ZM387.88,445.82l148.44,85.7h-148.44v-85.7ZM386.94,256.06l-74.67-129.08,223.57,129.08h-148.9ZM225.06,256.06H76.15l223.57-129.08-74.67,129.08ZM225.06,535.94l74.67,129.08-223.57-129.08h148.9ZM386.94,535.94h148.9l-223.57,129.08,74.67-129.08Z"/>
</svg>