<?xml version="1.0" encoding="UTF-8"?>
<svg id="katman_1" xmlns="http://www.w3.org/2000/svg" version="1.1" viewBox="0 0 612 792">
  <!-- Generator: Adobe Illustrator 29.1.0, SVG Export Plug-In . SVG Version: 2.1.0 Build 142)  -->
  <defs>
    <style>
      .st0 {
        fill: #1d1d1b;
      }
    </style>
  </defs>
  <path class="st0" d="M306,124.81c-149.53,0-271.19,121.65-271.19,271.19s121.65,271.19,271.19,271.19,271.19-121.65,271.19-271.19S455.53,124.81,306,124.81ZM313.53,387.42l44.72-77c15.05,8.78,29.05,18.61,42.06,29.12l-85.69,48.98c-.34-.39-.7-.76-1.09-1.1ZM309.72,385.21c-.49-.17-.98-.34-1.51-.45l.02-98.09c15.59,5.9,31.09,13,46.21,21.54l-44.72,77ZM303.8,384.76c-.52.1-1.02.28-1.51.45l-44.72-77c15.13-8.54,30.65-15.65,46.25-21.55l-.02,98.1ZM298.47,387.42c-.39.34-.75.71-1.09,1.1l-85.7-48.98c13.01-10.51,27.01-20.34,42.07-29.12l44.72,77ZM298.47,404.58l-44.72,77c-15.05-8.78-29.06-18.61-42.07-29.12l85.7-48.98c.34.39.7.76,1.09,1.1ZM302.28,406.79c.49.17.98.34,1.51.45l-.02,98.09c-15.59-5.9-31.09-13-46.21-21.54l44.72-77ZM308.2,407.24c.52-.1,1.02-.28,1.51-.45l44.72,77c-15.13,8.54-30.65,15.64-46.25,21.55l.02-98.1ZM313.53,404.58c.39-.34.75-.71,1.09-1.1l85.7,48.98c-13.01,10.51-27.01,20.34-42.07,29.12l-44.72-77ZM402.04,448.35l-85.23-48.71c.39-1.15.65-2.36.65-3.64s-.26-2.49-.65-3.64l85.23-48.71c2.68,16.95,4.24,34.45,4.24,52.35s-1.56,35.4-4.24,52.36ZM360.47,306.61l21.97-37.82c7.38,20.3,13.7,42.17,17.97,65.16-12.41-9.84-25.72-19.05-39.93-27.34ZM356.65,304.39c-14.52-8.2-29.39-15.08-44.35-20.87,22.36-7.84,44.76-13.27,66.32-16.96l-21.97,37.83ZM255.35,304.39l-21.97-37.83c21.56,3.69,43.96,9.12,66.32,16.96-14.96,5.79-29.83,12.67-44.35,20.87ZM251.53,306.61c-14.22,8.29-27.52,17.5-39.93,27.34,4.27-22.99,10.58-44.86,17.97-65.16l21.97,37.82ZM209.96,343.65l85.23,48.71c-.39,1.15-.65,2.36-.65,3.64s.26,2.49.65,3.64l-85.23,48.71c-2.68-16.95-4.24-34.45-4.24-52.35s1.56-35.4,4.24-52.35ZM251.53,485.39l-21.97,37.82c-7.38-20.3-13.7-42.17-17.97-65.16,12.41,9.84,25.72,19.05,39.94,27.34ZM255.35,487.6c14.53,8.2,29.4,15.07,44.37,20.86-22.37,7.84-44.77,13.28-66.34,16.97l21.97-37.83ZM356.65,487.6l21.97,37.83c-21.56-3.69-43.98-9.13-66.34-16.97,14.97-5.79,29.84-12.66,44.37-20.86ZM360.47,485.39c14.22-8.29,27.52-17.5,39.94-27.34-4.27,22.99-10.58,44.86-17.97,65.16l-21.97-37.82ZM406.68,447.25c2.54-16.62,4.02-33.74,4.02-51.25s-1.48-34.63-4.02-51.24c19.06,16.13,35.84,33.64,50.49,51.25-14.65,17.61-31.43,35.12-50.49,51.25ZM460.01,399.45c43.97,53.91,67.85,107.83,74.74,124.75l-126.69-72.41c19.63-16.44,36.91-34.32,51.95-52.34ZM408.05,340.21l126.69-72.41c-6.88,16.91-30.76,70.84-74.73,124.75-15.04-18.02-32.32-35.9-51.96-52.34ZM405.33,336.68c-4.44-25.26-11.33-49.2-19.47-71.28,68.62-10.62,127.32-3.94,146.24-1.17l-126.77,72.46ZM308.23,280.35l.03-146.23c11.62,14.84,46.71,62.65,71.6,127.79-23.23,3.87-47.46,9.77-71.63,18.44ZM303.82,280.37c-24.18-8.68-48.42-14.58-71.67-18.46,24.96-65.34,60.18-113.23,71.7-127.92l-.03,146.38ZM206.67,336.69l-126.77-72.46c18.91-2.77,77.61-9.45,146.24,1.17-8.14,22.08-15.02,46.03-19.47,71.28ZM203.94,340.21c-19.63,16.44-36.91,34.32-51.95,52.34-43.97-53.91-67.85-107.83-74.73-124.75l126.68,72.41ZM205.32,344.75c-2.54,16.62-4.02,33.74-4.02,51.25s1.48,34.64,4.02,51.25c-19.07-16.13-35.85-33.64-50.5-51.25,14.65-17.61,31.43-35.12,50.5-51.25ZM203.94,451.79l-126.69,72.41c6.88-16.92,30.76-70.84,74.73-124.75,15.04,18.02,32.32,35.9,51.95,52.34ZM206.67,455.31c4.44,25.25,11.32,49.2,19.47,71.28-68.62,10.62-127.32,3.94-146.24,1.18l126.77-72.46ZM303.77,511.69l-.03,146.19c-11.62-14.84-46.71-62.64-71.6-127.79,23.23-3.87,47.47-9.73,71.62-18.4ZM308.18,511.67c24.18,8.68,48.42,14.54,71.67,18.42-24.96,65.33-60.18,113.23-71.7,127.92l.03-146.34ZM405.33,455.32l126.77,72.46c-18.92,2.77-77.62,9.44-146.23-1.18,8.14-22.08,15.02-46.02,19.47-71.28ZM462.88,396c46.62-56.94,71-114.03,76.78-128.57,21.08,38.16,33.12,81.98,33.12,128.57s-12.04,90.42-33.12,128.57c-5.78-14.54-30.16-71.63-76.78-128.57ZM535.54,260.28c-15.64-2.45-77.91-10.57-151.25.92-26.39-69.48-64.37-119.58-74.19-131.87,95.85,1.46,179.58,53.68,225.44,130.95ZM301.9,129.33c-9.82,12.29-47.79,62.39-74.19,131.87-73.34-11.49-135.61-3.37-151.25-.92,45.86-77.27,129.59-129.49,225.44-130.95ZM72.35,267.43c5.78,14.54,30.16,71.63,76.78,128.57-46.62,56.94-71,114.03-76.78,128.57-21.08-38.16-33.12-81.98-33.12-128.57s12.04-90.41,33.12-128.57ZM76.46,531.72c9.56,1.49,36.35,5.1,72.42,5.1,23.16,0,50.17-1.54,78.83-6.03,26.39,69.49,64.37,119.59,74.19,131.88-95.85-1.46-179.57-53.68-225.44-130.95ZM310.1,662.67c9.82-12.3,47.8-62.39,74.19-131.88,28.66,4.49,55.66,6.03,78.83,6.03,36.07,0,62.86-3.6,72.42-5.1-45.86,77.27-129.59,129.49-225.44,130.95Z"/>
</svg>