<?xml version="1.0" encoding="UTF-8"?>
<svg id="katman_1" xmlns="http://www.w3.org/2000/svg" version="1.1" viewBox="0 0 612 792">
  <!-- Generator: Adobe Illustrator 29.1.0, SVG Export Plug-In . SVG Version: 2.1.0 Build 142)  -->
  <defs>
    <style>
      .st0 {
        fill: #1d1d1b;
      }
    </style>
  </defs>
  <path class="st0" d="M506.83,464.17l39.16-67.98-39.42-67.91,41.44-71.49h-82.93l-39.55-68.15h-78.39l-41.14-70.99-41.14,70.99h-79.29l-39.25,68.15H63.99l41.29,71.24-38.63,67.07-.64,1.1,39.16,67.98-41.18,71.05h82.1l39.47,68.53h79.51l40.92,70.6,40.92-70.6h79.52l39.47-68.53h82.1l-41.18-71.05ZM538.14,526.99l-50.69-29.16,16.84-29.24,33.85,58.4ZM422.07,197.88l.13,58.9h-34.08l33.95-58.9ZM310.99,390.58l14.4-24.98,7.24,12.53-21.64,12.45ZM334.83,381.96l6.83,11.83h-27.41l20.57-11.83ZM308.21,386.58v-22.25h12.83l-12.83,22.25ZM303.79,386.57l-12.83-22.25h12.83v22.25ZM301.01,390.58l-21.45-12.34,7.16-12.45,14.29,24.79ZM297.74,393.79h-27.12l6.74-11.72,20.38,11.72ZM297.73,398.21l-20.64,11.88-6.85-11.88h27.49ZM298.98,402.59l-13.1,22.73-6.58-11.41,19.68-11.32ZM303.79,403.07v24.54h-14.15l14.15-24.54ZM308.21,403.07l14.15,24.55h-14.15v-24.55ZM313.02,402.59l19.57,11.26-6.54,11.35-13.03-22.6ZM314.27,398.21h27.34l-6.81,11.81-20.53-11.81ZM345.46,400.36l13.66,23.65-20.5-11.79,6.84-11.86ZM338.66,379.76l20.32-11.69-13.52,23.46-6.8-11.77ZM336.45,375.93l-6.71-11.61h26.9l-20.19,11.61ZM308.21,359.91v-24.05l13.89,24.05h-13.89ZM303.79,359.91h-13.69l13.69-23.81v23.81ZM275.73,376.04l-20.38-11.72h27.11l-6.74,11.72ZM273.53,379.87l-6.92,12.04-13.82-23.97,20.74,11.93ZM273.26,412.28l-19.83,11.41,13.19-22.94,6.65,11.53ZM275.47,416.11l6.63,11.5h-26.62l19.99-11.5ZM303.79,432.03v24.38l-14.05-24.38h14.05ZM308.21,432.03h13.91l-13.91,24.12v-24.12ZM336.42,416.05l20.11,11.57h-26.77l6.67-11.57ZM349.32,398.21h13.62v23.57l-13.62-23.57ZM349.24,393.79l13.69-23.74v23.74h-13.69ZM358.26,359.91h-29.59l7.37-12.79,22.21,12.79ZM338.25,343.29l6.54-11.34,13.02,22.6-19.56-11.26ZM325.38,356.77l-13.67-23.67,20.51,11.81-6.84,11.86ZM286.71,356.95l-6.94-12.04,20.73-11.94-13.79,23.99ZM283.33,359.91h-29.62l22.24-12.8,7.38,12.8ZM262.6,393.79h-13.69v-23.74l13.69,23.74ZM262.99,398.21l-14.07,24.48v-24.48h14.07ZM282.01,432.03l-7.09,12.31-21.37-12.31h28.46ZM285.87,434.16l14.23,24.68-21.36-12.3,7.13-12.38ZM326.05,434.03l7.2,12.5-21.57,12.42,14.36-24.92ZM329.99,432.03h28.44l-21.35,12.29-7.09-12.29ZM367.35,398.21h13.88l-13.88,24.09v-24.09ZM367.35,393.79v-22.68l13.06,22.68h-13.06ZM362.93,354.61l-14.4-25h14.4v25ZM367.35,329.6h13.81l-13.81,23.95v-23.95ZM348.68,325.19l14.25-24.72v24.72h-14.25ZM334.42,341.09l-19.94-11.49h26.57l-6.62,11.49ZM277.57,341.08l-6.61-11.47h26.54l-19.92,11.47ZM273.74,343.28l-20.72,11.93,13.77-23.98,6.94,12.05ZM244.5,393.79h-13.64l13.64-23.74v23.74ZM244.5,398.21v25.15l-14.45-25.15h14.45ZM272.71,448.16l-6.99,12.14-13.87-24.15,20.87,12.02ZM276.53,450.36l23.35,13.45h-31.1l7.75-13.45ZM335.46,450.35l7.76,13.46h-31.13l23.37-13.46ZM339.28,448.14l19.71-11.35-13.12,22.78-6.59-11.43ZM371.01,424.78l13.62-23.65,6.84,11.87-20.46,11.78ZM393.67,416.82l6.22,10.79h-24.96l18.74-10.79ZM388.05,398.21h29.1l-21.85,12.58-7.25-12.58ZM388.86,393.79l7.03-12.21,21.21,12.21h-28.24ZM384.64,392.28l-14.81-25.72,22.25,12.81-7.43,12.9ZM374.77,364.32h25.98l-6.47,11.23-19.5-11.23ZM373.17,359.91l21.2-12.19,7.07,12.19h-28.26ZM370.99,356.06l14.07-24.4,7.09,12.23-21.16,12.17ZM388.97,329.6h28.02l-21.02,12.09-7.01-12.09ZM367.35,325.19v-24.09l13.96,24.09h-13.96ZM344.79,323.11l-6.77-11.75,20.28-11.68-13.51,23.43ZM340.89,325.19h-26.89l20.19-11.63,6.7,11.63ZM312.5,320.96l12.97-22.55,6.53,11.33-19.49,11.23ZM308.21,319.57v-23.65h13.6l-13.6,23.65ZM303.79,319.39l-13.56-23.47h13.56v23.47ZM299.67,321.07l-20.31-11.7,6.76-11.77,13.55,23.46ZM297.97,325.19h-27.7l6.89-11.99,20.82,11.99ZM266.79,322.38l-13.07-22.68,19.61,11.29-6.54,11.39ZM263.32,325.19h-14.4v-24.98l14.4,24.98ZM262.65,329.6l-13.73,23.9v-23.9h13.73ZM244.5,353.56l-13.81-23.95h13.81v23.95ZM240.78,355.93l-20.93-12.04,7.01-12.1,13.92,24.14ZM238.83,359.91h-28.26l7.07-12.19,21.2,12.19ZM237.21,364.32l-20,11.52-6.61-11.52h26.61ZM241.05,367.2l-14.4,25.07-7.24-12.61,21.64-12.47ZM222.43,393.79h-27.56l20.71-11.93,6.85,11.93ZM223.24,398.21l-7.06,12.3-21.35-12.3h28.42ZM226.65,401.14l13.22,23.01-19.86-11.44,6.65-11.57ZM237.04,427.61h-25.59l6.36-11.08,19.23,11.08ZM238.95,432.03l-21.48,12.36-7.16-12.36h28.64ZM241.44,435.68l-14.45,25.14-7.31-12.62,21.76-12.52ZM244.5,439.22v24.59h-14.14l14.14-24.59ZM248.92,439.91l13.73,23.9h-13.73v-23.9ZM261.14,468.22l-12.23,21.21v-21.21h12.23ZM265.71,469.14l7.03,12.24-21.08,12.14,14.05-24.37ZM270.27,468.22h25.31l-19.02,10.95-6.29-10.95ZM299.67,470.96l-13.94,24.18-6.97-12.14,20.91-12.04ZM303.79,472.64v23.83h-13.74l13.74-23.83ZM308.21,472.9l13.59,23.57h-13.59v-23.57ZM312.12,470.85l20.47,11.79-6.83,11.86-13.63-23.65ZM316.39,468.22h24.5l-6.1,10.59-18.4-10.59ZM345.88,468.42l14.48,25.12-21.74-12.52,7.26-12.6ZM350.86,468.22h12.08v20.95l-12.08-20.95ZM348.53,463.81l14.4-25v25h-14.4ZM367.35,438.25l14.76,25.56h-14.76v-25.56ZM371.16,436.03l21.16,12.17-7.07,12.21-14.08-24.38ZM373.05,432.03h28.64l-7.16,12.36-21.48-12.36ZM404.61,435.8l12.38,21.5-18.63-10.72,6.25-10.78ZM397.5,414.62l21.44-12.35-14.32,24.71-7.12-12.36ZM398.1,377.76l6.82-11.84,13.72,23.66-20.53-11.83ZM398.19,345.51l20.02-11.51-13.3,23.1-6.71-11.58ZM388.79,325.19l6.8-11.8,20.44,11.8h-27.24ZM385.05,322.84l-13.54-23.36,20.26,11.7-6.72,11.66ZM335.82,307.53l-6.69-11.62h26.86l-20.17,11.62ZM308.21,291.5v-23.05l13.28,23.05h-13.28ZM303.79,291.5h-14.17l14.17-24.68v24.68ZM275.53,307.17l-19.54-11.25h26.01l-6.46,11.25ZM244.5,325.19h-13.81l13.81-23.84v23.84ZM216.02,341.69l-21.02-12.09h28.02l-7.01,12.09ZM213.81,345.51l-7.04,12.15-13.89-24.19,20.93,12.04ZM213.38,378.04l-20,11.52,13.37-23.07,6.63,11.55ZM213.98,414.33l-6.93,12.07-13.98-24.11,20.91,12.04ZM213.64,446.58l-19.55,11.25,12.98-22.59,6.58,11.35ZM215.85,450.4l7.77,13.4h-31.07l23.3-13.4ZM244.5,468.22v22.81l-13.22-22.81h13.22ZM274.93,485.2l6.47,11.27h-26.04l19.57-11.27ZM303.79,500.88v25.7l-14.76-25.7h14.76ZM308.21,500.88h13.87l-13.87,24.08v-24.08ZM336.41,484.84l20.19,11.63h-26.89l6.7-11.63ZM367.35,468.22h13.37l-13.37,23.07v-23.07ZM396.15,450.4l23.3,13.4h-31.07l7.77-13.4ZM422.64,458.25l-15.11-26.23h15.05l.06,26.23ZM426.99,432.03h14.35l-14.29,24.66-.05-24.66ZM409.36,427.61l13.17-22.72.05,22.72h-13.22ZM409.09,364.32h13.34l.05,23.1-13.39-23.1ZM408.38,359.91l13.99-24.28.05,24.28h-14.04ZM397.8,309.56l7.14-12.39,14.39,24.82-21.53-12.43ZM393.98,307.36l-19.82-11.44h26.41l-6.6,11.44ZM329.43,291.5l7.04-12.25,21.21,12.25h-28.25ZM325.46,289.56l-14.38-24.96,21.57,12.45-7.19,12.51ZM286.1,288.76l-6.76-11.71,20.18-11.65-13.42,23.36ZM282.59,291.5h-28.28l21.2-12.24,7.07,12.24ZM226.87,322.97l-6.76-11.72,20.37-11.76-13.61,23.48ZM223.06,325.19h-27.09l20.33-11.74,6.77,11.74ZM192.67,321.99l14.31-24.69,7.11,12.33-21.42,12.37ZM202.97,359.91h-13.39l.05-23.23,13.34,23.23ZM202.91,364.32l-13.39,23.1.05-23.1h13.34ZM202.64,427.61h-13.21l.05-22.71,13.16,22.71ZM203.82,432.03l-14.45,25.16.05-25.16h14.4ZM198.06,468.22h24.67l-6.14,10.67-18.54-10.67ZM214.4,482.72l-7.15,12.44-14.4-24.85,21.55,12.41ZM227.01,469.65l13.26,22.87-19.84-11.43,6.58-11.45ZM282.42,500.88l-6.89,11.95-20.75-11.95h27.63ZM285.72,503.99l12.63,21.99-19-10.94,6.37-11.05ZM297.9,530.81h-27.63l6.89-11.95,20.75,11.95ZM312.26,526.77l13.5-23.43,6.78,11.76-20.27,11.67ZM334.74,518.92l6.85,11.88h-27.48l20.63-11.88ZM329.43,500.88h27.78l-20.86,12.01-6.92-12.01ZM385.24,469.22l6.73,11.65-20.23,11.65,13.5-23.3ZM389.76,468.22h24.18l-18.15,10.45-6.04-10.45ZM419.15,470.31l-14.12,24.36-7.04-12.18,21.15-12.18ZM444.84,434.8l6.79,11.72-20.39,11.74,13.6-23.46ZM448.33,432.03h28.46l-21.34,12.29-7.12-12.29ZM426.99,427.61l-.05-23.7,13.74,23.7h-13.69ZM426.85,364.32h14.09l-14.04,24.22-.05-24.22ZM426.84,359.91l-.05-25.06,14.52,25.06h-14.47ZM409.32,295.92h12.96l.05,22.45-13.01-22.45ZM408.21,291.5l14.01-24.3.05,24.3h-14.06ZM404.94,288.35l-6.75-11.65,20.15-11.61-13.4,23.25ZM401.66,291.5h-29.17l21.87-12.59,7.3,12.59ZM370.31,287.67l14.52-25.19,7.31,12.62-21.84,12.57ZM338.68,275.43l6.87-11.95,13.86,23.92-20.74-11.97ZM334.85,273.22l-20.83-12.03h27.75l-6.92,12.03ZM277.13,273.23l-6.95-12.04h27.8l-20.85,12.04ZM273.31,275.44l-20.72,11.96,13.84-23.88,6.88,11.92ZM217.91,307.42l-6.63-11.51h26.56l-19.93,11.51ZM202.68,295.92l-13.01,22.45.05-22.45h12.96ZM189.73,291.5l.05-24.04,13.86,24.04h-13.91ZM185.16,359.91h-14.47l14.52-25.06-.05,25.06ZM185.15,364.32l-.05,24.22-14.04-24.22h14.09ZM185.01,427.61h-13.69l13.74-23.71-.05,23.71ZM185.01,432.03l-.05,24.66-14.29-24.66h14.35ZM202.9,496.47h-13.63l.05-23.42,13.57,23.42ZM203.95,500.88l-14.74,25.64.06-25.64h14.69ZM218.22,484.92l20.05,11.55h-26.69l6.64-11.55ZM273.33,516.66l-6.97,12.09-14.01-24.16,20.97,12.08ZM270.11,535.22h27.48l-20.6,11.87-6.88-11.87ZM273.16,549.29l-20.29,11.68,13.49-23.41,6.8,11.72ZM341.89,535.22l-6.88,11.86-20.6-11.86h27.48ZM345.56,537.69l13.34,23.15-20.06-11.55,6.72-11.59ZM338.56,516.72l21.08-12.14-14.08,24.29-7-12.15ZM394.17,484.7l6.8,11.77h-27.25l20.45-11.77ZM409.09,496.47l13.58-23.42.05,23.42h-13.63ZM422.73,500.88l.05,24.52-14.16-24.52h14.11ZM453.84,450.34l8.32,14.35-8.11,13.93-24.67-14.19,24.47-14.09ZM457.67,448.13l21.26-12.25-14.21,24.41-7.05-12.16ZM449,427.61l6.71-11.58,20.11,11.58h-26.82ZM444.84,426l-14.12-24.36,21.17,12.19-7.05,12.17ZM433.61,398.21h27.33l-6.84,11.8-20.49-11.8ZM433.66,393.79l20.46-11.78,6.83,11.78h-27.29ZM431.03,390.21l13.92-24.02,6.95,12-20.87,12.02ZM448.96,364.32h27.03l-20.26,11.67-6.76-11.67ZM448.59,359.91l6.91-11.93,20.66,11.93h-27.58ZM444.95,357.39l-13.51-23.31,20.25,11.69-6.74,11.62ZM429.19,327.68l24.2-13.92,8.46,14.48-7.94,13.71-24.71-14.27ZM457.21,311.56l21.45-12.34-14.27,24.63-7.18-12.29ZM454.98,307.75l-6.91-11.83h27.48l-20.57,11.83ZM451.16,309.95l-24.4,14.04-.06-28.07h16.26l8.2,14.03ZM426.69,291.5l-.05-23.53,13.75,23.53h-13.69ZM395.97,272.89l-6.78-11.69h27.08l-20.31,11.69ZM367.35,283.98v-22.78h13.13l-13.13,22.78ZM362.93,284.68l-13.61-23.48h13.61v23.48ZM349.4,256.78l13.53-23.54v23.54h-13.53ZM345.53,254.65l-6.87-11.85,20.47-11.82-13.61,23.66ZM341.66,256.78h-27.21l20.39-11.77,6.82,11.77ZM308.21,255.29v-28.11h16.3l8.12,14.01-24.42,14.1ZM308.21,222.77v-23.72l13.74,23.72h-13.74ZM303.79,222.77h-13.74l13.74-23.72v23.72ZM303.79,227.18v28.11l-24.42-14.1,8.12-14.01h16.3ZM297.54,256.78h-27.21l6.82-11.77,20.39,11.77ZM266.43,254.71l-13.77-23.84,20.67,11.93-6.9,11.91ZM262.53,256.78h-13.61v-23.57l13.61,23.57ZM262.67,261.19l-13.76,23.74v-23.74h13.76ZM244.5,283.71l-12.98-22.52h12.98v22.52ZM241.7,287.69l-21.86-12.59,7.32-12.63,14.54,25.22ZM239.48,291.5h-29.14l7.29-12.58,21.85,12.58ZM206.99,288.48l-13.54-23.49,20.36,11.72-6.82,11.76ZM185.31,291.5h-13.55l13.6-23.29-.05,23.29ZM185.3,295.92l-.06,28.07-24.29-13.98,8.23-14.09h16.12ZM157.12,307.81l-20.67-11.89h27.62l-6.95,11.89ZM154.89,311.62l-7.21,12.35-14.34-24.75,21.56,12.4ZM158.72,313.83l24.09,13.86-24.71,14.27-7.87-13.59,8.49-14.54ZM180.56,334.08l-13.51,23.31-6.74-11.62,20.25-11.69ZM163.4,359.91h-27.58l20.66-11.93,6.91,11.93ZM163.03,364.32l-6.77,11.68-20.28-11.68h27.05ZM167.05,366.2l13.93,24.04-20.89-12.03,6.96-12.01ZM178.32,393.79h-27.26l6.82-11.77,20.44,11.77ZM178.36,398.21l-20.47,11.79-6.83-11.79h27.31ZM181.29,401.61l-14.13,24.38-7.06-12.18,21.19-12.2ZM163,427.61h-26.85l20.13-11.59,6.72,11.59ZM163.67,432.03l-7.12,12.29-21.34-12.29h28.46ZM167.16,434.8l13.59,23.46-20.39-11.74,6.79-11.72ZM182.62,464.42l-24.31,13.98-8.21-14.17,8.06-13.9,24.47,14.09ZM154.49,480.61l-20.81,11.97,13.88-23.94,6.94,11.97ZM156.7,484.43l6.98,12.04h-27.91l20.93-12.04ZM160.53,482.23l24.35-14.01h.04l-.06,28.25h-16.08l-8.26-14.24ZM184.85,500.88l-.05,23.21-13.46-23.21h13.51ZM207.26,503.99l6.56,11.32-19.53,11.25,12.97-22.56ZM210.56,500.88h28.29l-21.21,12.22-7.08-12.22ZM239.64,505.53l-13.16,22.83-6.63-11.43,19.78-11.39ZM244.5,505.93v24.88h-14.34l14.34-24.88ZM248.92,507.45l13.53,23.35h-13.53v-23.35ZM262.62,535.22l-13.71,23.78v-23.78h13.71ZM275.38,553.11l6.76,11.67h-27.03l20.26-11.67ZM279.2,550.9l24.59-14.16v28.03h-16.55l-8.04-13.87ZM303.79,569.19v24.14l-13.99-24.14h13.99ZM308.21,569.19h13.99l-13.99,24.14v-24.14ZM308.21,564.78v-28.03l24.59,14.16-8.04,13.87h-16.55ZM336.62,553.11l20.26,11.67h-27.03l6.76-11.67ZM349.22,535.22h13.71v23.78l-13.71-23.78ZM349.55,530.81l13.38-23.09v23.09h-13.38ZM367.35,505.67l14.49,25.14h-14.49v-25.14ZM372.37,505.55l19.76,11.38-6.62,11.42-13.14-22.8ZM373.11,500.88h28.32l-7.09,12.23-21.23-12.23ZM405.03,503.49l13.65,23.64-20.51-11.81,6.86-11.83ZM427.15,500.88h13.94l-13.88,23.84-.05-23.84ZM427.14,496.47l-.06-28.25h.04l24.71,14.21-8.17,14.04h-16.52ZM455.65,484.63l20.58,11.84h-27.47l6.89-11.84ZM457.87,480.82l6.83-11.73,13.62,23.5-20.45-11.77ZM467.26,464.69l15.52-26.64-.24,53.01-15.28-26.36ZM457.93,412.21l6.85-11.81,13.71,23.65-20.55-11.84ZM457.94,379.81l20.51-11.81-13.68,23.6-6.83-11.79ZM457.72,344.16l6.68-11.53,13.57,23.22-20.25-11.69ZM466.95,328.23l15.21-26.24-.26,51.83-14.95-25.59ZM445.49,291.5l-15.62-26.74,46.31,26.74h-30.68ZM367.35,256.78v-24.48l14.19,24.48h-14.19ZM336.45,238.99l-6.84-11.8h27.29l-20.45,11.8ZM327.05,222.77l-15-25.88,44.85,25.88h-29.85ZM284.95,222.77h-29.98l44.99-25.9-15.01,25.9ZM282.39,227.18l-6.84,11.8-20.45-11.8h27.29ZM244.5,256.78h-14.04l14.04-24.22v24.22ZM216.02,272.9l-20.33-11.71h27.11l-6.78,11.71ZM166.65,291.5h-30.76l46.24-26.49-15.48,26.49ZM145.12,328.36l-15.05,25.76-.23-52.14,15.28,26.37ZM147.66,332.75l6.61,11.41-20.03,11.57,13.42-22.97ZM154.05,379.82l-6.83,11.78-13.66-23.58,20.49,11.8ZM154.07,412.2l-20.53,11.82,13.69-23.62,6.84,11.8ZM154.33,448.13l-6.78,11.71-13.59-23.44,20.38,11.73ZM145,464.24l-15.2,26.23v-52.44l15.2,26.22ZM166.24,500.88l15.16,26.15-45.54-26.15h30.38ZM216.03,519.12l6.77,11.68h-27.06l20.29-11.68ZM244.5,535.22v24.22l-14.04-24.22h14.04ZM284.7,569.19l14.95,25.79-44.69-25.79h29.75ZM327.3,569.19h29.58l-44.39,25.55,14.81-25.55ZM367.35,535.22h14.19l-14.19,24.48v-24.48ZM395.96,519.13l20.27,11.67h-27.03l6.76-11.67ZM446.19,500.88h30.56l-45.91,26.36,15.35-26.36ZM487.19,439.08l14.55,25.1-14.77,25.65.23-50.74ZM468.6,398.21h66.92l-50.17,28.89-16.74-28.89ZM468.6,393.79l16.61-28.67,49.65,28.67h-66.27ZM486.57,302.61l14.9,25.67-15.16,26.15.26-51.82ZM432.52,261.19h30.02l15.13,26.08-45.15-26.08ZM384.82,253.65l-16.28-28.1,48.68-28.1-32.39,56.2ZM314.24,193.05h30.36l15.26,26.33-45.62-26.33ZM252.21,219.26l15.19-26.21h30.34l-45.54,26.21ZM227.17,253.65l-32.39-56.2,48.68,28.1-16.28,28.1ZM223.88,256.78h-34.08l.13-58.9,33.95,58.9ZM133.58,287.74l15.29-26.54h31.04l-46.33,26.54ZM125.65,354.38l-15.28-26.36,15.04-26.12.24,52.48ZM143.4,393.79h-66.27l49.65-28.67,16.61,28.67ZM143.4,398.21l-16.74,28.89-50.17-28.89h66.91ZM125.38,490.42l-15.12-26.25,15.12-26.09v52.33ZM179.11,530.81h-30.47l-15.06-26.14,45.52,26.14ZM222.52,535.22l-33.46,58.05.13-58.05h33.33ZM226.49,537.17l16.94,29.23-50.58,29.13,33.64-58.36ZM298.36,599.34h-30.73l-15.45-26.65,46.18,26.65ZM359.91,572.54l-15.53,26.8h-31.02l46.55-26.8ZM385.51,537.17l33.64,58.36-50.59-29.13,16.94-29.23ZM389.48,535.22h33.33l.13,58.05-33.46-58.05ZM478.11,505.19l-14.75,25.61h-29.86l44.61-25.61ZM487.56,430.92l49.87-28.72-33.16,57.56-16.72-28.84ZM537.38,390.14l-49.95-28.84,16.59-28.63,33.35,57.47ZM486.95,294.46l51.19-29.45-34.12,58.87-17.07-29.42ZM535.91,261.19l-51.18,29.44-17.09-29.44h68.27ZM426.61,256.78l-.13-57.71,33.49,57.71h-33.37ZM416.02,193.05l-49.69,28.69-16.63-28.69h66.32ZM308.21,188.64v-58.38l33.83,58.38h-33.83ZM303.79,130.26v58.38h-33.83l33.83-58.38ZM245.67,221.74l-49.69-28.69h66.32l-16.63,28.69ZM185.52,197.56l-.13,59.22h-33.98l34.11-59.22ZM126.93,290.44l-50.84-29.25h67.69l-16.85,29.25ZM73.86,265.01l50.86,29.26-16.9,29.34-33.96-58.6ZM124.57,361.31l-49.99,28.86,33.26-57.74,16.74,28.88ZM74.57,402.2l49.87,28.72-16.72,28.84-33.16-57.56ZM124.55,497.83l-50.69,29.16,33.85-58.4,16.84,29.24ZM76.09,530.81l50.67-29.15,16.79,29.15h-67.46ZM184.78,535.22l-.13,58.1-33.47-58.1h33.59ZM195.1,599.34l50.55-29.11,16.87,29.11h-67.42ZM303.79,603.75v57.99l-33.61-57.99h33.61ZM308.21,661.74v-57.99h33.61l-33.61,57.99ZM366.35,570.22l50.55,29.11h-67.43l16.87-29.11ZM427.35,593.32l-.13-58.1h33.59l-33.47,58.1ZM485.24,501.66l50.67,29.15h-67.46l16.79-29.15Z"/>
</svg>