<?xml version="1.0" encoding="UTF-8"?>
<svg id="Layer_14" data-name="Layer 14" xmlns="http://www.w3.org/2000/svg" viewBox="0 0 1065.52 1065.52">
  <defs>
    <style>
      .cls-1 {
        fill: #231f20;
      }
    </style>
  </defs>
  <path class="cls-1" d="M715.89,349.08c-.5,0-1,.01-1.5.02-.49,0-.98-.02-1.47-.02-1.31,0-2.61.02-3.92.05-1.25-.03-2.5-.05-3.75-.05-2.33,0-4.64.06-6.95.16-2.13-.1-4.27-.16-6.41-.16-3.36,0-6.69.13-9.99.37-2.92-.24-5.85-.37-8.81-.37-4.1,0-8.15.24-12.17.69-3.37-.45-6.78-.69-10.23-.69-5.01,0-9.96.49-14.81,1.43-3.77-.94-7.62-1.43-11.52-1.43-5.87,0-11.6,1.11-17.17,3.21-3.87-2.11-7.84-3.21-11.87-3.21-7.02,0-13.86,3.29-20.3,9.59-3.28-6.23-6.82-9.59-10.51-9.59-14.72,0-26.85,53.29-30.88,128.54,0-28.35-.01-53.72-.02-74.23,0-16.56-.02-29.95-.03-39.21,0-4.63-.01-8.22-.02-10.66,0-1.33,0-2.26-.03-2.91,0-.45,0-.7,0-.76h-.05c-.08-.76-.26-.76-.66-.76s-.58,0-.66.75h-.05c0,.06,0,.32,0,.77-.02.65-.02,1.58-.03,2.91,0,2.44-.01,6.03-.02,10.66-.01,9.26-.02,22.66-.03,39.21-.01,21.18-.02,47.53-.02,76.98-3.88-76.69-16.12-131.29-31.02-131.29-3.7,0-7.23,3.36-10.51,9.59-6.44-6.31-13.28-9.59-20.3-9.59-4.03,0-8,1.09-11.87,3.21-5.56-2.1-11.3-3.21-17.17-3.21-3.9,0-7.74.49-11.52,1.43-4.85-.94-9.79-1.43-14.81-1.43-3.45,0-6.86.24-10.23.69-4.01-.45-8.07-.69-12.17-.69-2.96,0-5.9.13-8.81.37-3.31-.24-6.63-.37-9.99-.37-2.15,0-4.29.06-6.41.16-2.31-.1-4.62-.16-6.95-.16-1.25,0-2.5.02-3.75.05-1.3-.03-2.61-.05-3.92-.05-.49,0-.98.01-1.47.02-.5,0-1-.02-1.5-.02-101.28,0-183.68,82.4-183.68,183.68s82.4,183.68,183.68,183.68c.5,0,1-.01,1.5-.02.49,0,.98.02,1.47.02,1.31,0,2.61-.02,3.92-.05,1.25.03,2.5.05,3.75.05,2.33,0,4.64-.06,6.95-.16,2.13.1,4.27.16,6.41.16,3.36,0,6.69-.13,9.99-.37,2.92.24,5.85.37,8.81.37,4.1,0,8.15-.24,12.17-.69,3.37.45,6.78.69,10.23.69,5.01,0,9.96-.49,14.81-1.43,3.77.94,7.62,1.43,11.52,1.43,5.87,0,11.6-1.11,17.17-3.21,3.87,2.11,7.84,3.21,11.87,3.21,7.02,0,13.86-3.29,20.3-9.59,3.28,6.23,6.82,9.59,10.51,9.59,14.9,0,27.14-54.59,31.02-131.29,0,29.46.01,55.81.02,76.98,0,16.55.02,29.95.03,39.21,0,4.63.01,8.22.02,10.66,0,1.33,0,2.26.03,2.91,0,.45,0,.7,0,.76h.05c.08.76.26.76.66.76s.58,0,.66-.75h.05c0-.06,0-.32,0-.77.02-.65.02-1.58.03-2.91,0-2.44.01-6.03.02-10.66.01-9.26.02-22.66.03-39.21,0-20.52.02-45.89.02-74.23,4.03,75.25,16.15,128.54,30.88,128.54,3.7,0,7.23-3.36,10.51-9.59,6.44,6.31,13.28,9.59,20.3,9.59,4.03,0,8-1.09,11.87-3.21,5.56,2.1,11.3,3.21,17.17,3.21,3.9,0,7.74-.49,11.52-1.43,4.85.94,9.79,1.43,14.81,1.43,3.45,0,6.86-.24,10.23-.69,4.01.45,8.07.69,12.17.69,2.96,0,5.9-.13,8.81-.37,3.31.24,6.63.37,9.99.37,2.15,0,4.29-.06,6.41-.16,2.31.1,4.62.16,6.95.16,1.25,0,2.5-.02,3.75-.05,1.3.03,2.61.05,3.92.05.49,0,.98-.01,1.47-.02.5,0,1,.02,1.5.02,101.28,0,183.68-82.4,183.68-183.68s-82.4-183.68-183.68-183.68ZM574.65,704.47c-17.92-18.89-32.04-61.61-37.97-115.18,7.17,44.1,22.5,80.93,42.42,103.42-1.43,4.6-2.92,8.54-4.45,11.76ZM486.42,692.71c19.92-22.48,35.25-59.32,42.42-103.42-5.93,53.58-20.05,96.3-37.98,115.18-1.53-3.22-3.01-7.16-4.45-11.76ZM490.87,361.05c17.92,18.89,32.04,61.61,37.98,115.18-7.17-44.1-22.5-80.93-42.42-103.42,1.43-4.6,2.92-8.54,4.45-11.76ZM579.1,372.81c-19.92,22.48-35.25,59.32-42.42,103.42,5.93-53.58,20.05-96.3,37.97-115.18,1.53,3.22,3.02,7.16,4.45,11.76ZM350.43,532.76c0-79.07,25.2-146.53,60.31-171.7,9.65,3.45,18.93,7.68,27.76,12.63-4.74,8-9.14,17.86-13.1,29.46-11.81,34.63-18.32,80.66-18.32,129.61s6.5,94.98,18.32,129.61c3.96,11.6,8.36,21.46,13.1,29.46-8.83,4.95-18.1,9.19-27.76,12.63-35.11-25.18-60.31-92.63-60.31-171.7ZM409.16,705.02c-6.45,2.24-13.07,4.12-19.83,5.63-52.32-18.17-91.55-91.02-91.55-177.88s39.23-159.71,91.55-177.88c6.76,1.51,13.37,3.39,19.83,5.63-35.09,25.98-60.16,93.39-60.16,172.26s25.07,146.28,60.16,172.26ZM408.51,532.76c0-67.75,12.58-126.98,31.2-158.39,13.98,7.98,26.81,17.77,38.17,29.03-5.7,32.96-9.17,78.43-9.17,129.36s3.47,96.4,9.17,129.36c-11.36,11.26-24.19,21.05-38.17,29.03-18.62-31.41-31.2-90.64-31.2-158.39ZM531.89,532.76c0,49.87-20.14,95.12-52.7,128.06-5.83-34.38-9.04-79.78-9.04-128.06s3.21-93.68,9.04-128.06c32.56,32.94,52.7,78.19,52.7,128.06ZM586.34,404.7c5.83,34.38,9.04,79.78,9.04,128.06s-3.21,93.68-9.04,128.06c-32.56-32.94-52.7-78.19-52.7-128.06s20.14-95.12,52.7-128.06ZM596.81,532.76c0-50.93-3.47-96.4-9.17-129.36,11.36-11.26,24.19-21.05,38.17-29.03,18.62,31.41,31.2,90.64,31.2,158.39s-12.58,126.98-31.2,158.39c-13.98-7.98-26.81-17.77-38.17-29.03,5.7-32.96,9.17-78.43,9.17-129.36ZM640.12,662.37c11.81-34.63,18.32-80.66,18.32-129.61s-6.5-94.98-18.32-129.61c-3.96-11.6-8.36-21.46-13.1-29.46,8.83-4.95,18.1-9.19,27.76-12.63,35.11,25.18,60.31,92.63,60.31,171.7s-25.2,146.53-60.31,171.7c-9.65-3.45-18.93-7.68-27.76-12.63,4.74-8,9.14-17.86,13.1-29.46ZM716.52,532.76c0-78.87-25.07-146.28-60.16-172.26,6.45-2.24,13.07-4.12,19.83-5.63,52.32,18.17,91.55,91.02,91.55,177.88s-39.23,159.71-91.55,177.88c-6.76-1.51-13.37-3.39-19.83-5.63,35.09-25.98,60.16-93.39,60.16-172.26ZM296.35,532.76c0,86.28,38.57,158.84,90.39,178.45-4.23.88-8.52,1.61-12.86,2.18-68.15-11.89-120.89-88.36-120.89-180.63s52.74-168.74,120.89-180.63c4.33.58,8.62,1.31,12.86,2.18-51.81,19.61-90.39,92.17-90.39,178.45ZM769.17,532.76c0-86.28-38.57-158.84-90.39-178.45,4.23-.88,8.52-1.61,12.86-2.18,68.15,11.89,120.89,88.36,120.89,180.63s-52.74,168.74-120.89,180.63c-4.33-.58-8.62-1.31-12.86-2.18,51.81-19.61,90.39-92.17,90.39-178.45ZM587.2,400.94c-.02-.1-.04-.2-.05-.29,11.11-11.21,23.63-20.85,37.24-28.6.1.16.2.31.3.46-13.69,7.82-26.28,17.4-37.48,28.43ZM585.91,402.23c-3.71,3.73-7.27,7.63-10.65,11.68,3.37-4.15,6.91-8.13,10.61-11.93.02.09.03.17.05.26ZM585.55,400.23c-13.17,13.41-24.35,29-33.02,46.23,8.49-18.11,19.57-34.39,32.66-48.18.12.65.24,1.29.36,1.95ZM480.33,398.28c13.09,13.79,24.17,30.07,32.66,48.18-8.67-17.22-19.85-32.82-33.02-46.23.12-.66.24-1.31.36-1.95ZM490.26,413.91c-3.39-4.05-6.94-7.94-10.65-11.68.02-.09.03-.17.05-.26,3.7,3.81,7.24,7.79,10.61,11.93ZM478.32,400.94c-11.2-11.04-23.79-20.61-37.48-28.43.1-.16.2-.31.3-.46,13.61,7.75,26.13,17.39,37.24,28.6-.02.1-.04.2-.05.29ZM369.29,351.57c-66.71,14.44-117.73,90.18-117.73,181.19s51.03,166.75,117.73,181.19c-2.26.24-4.53.44-6.81.6-82.08-6.61-147.1-85.62-147.1-181.79s65.02-175.18,147.1-181.79c2.28.16,4.55.36,6.81.6ZM478.32,664.58c.02.1.04.2.05.29-11.11,11.21-23.63,20.85-37.24,28.6-.1-.16-.2-.31-.3-.46,13.69-7.82,26.28-17.4,37.48-28.43ZM479.61,663.29c3.71-3.73,7.27-7.63,10.65-11.68-3.37,4.15-6.91,8.12-10.61,11.93-.02-.09-.03-.17-.05-.26ZM479.97,665.29c13.17-13.41,24.35-29,33.02-46.23-8.49,18.11-19.57,34.39-32.66,48.18-.12-.65-.24-1.29-.36-1.95ZM585.19,667.24c-13.09-13.79-24.17-30.07-32.66-48.18,8.67,17.22,19.85,32.82,33.02,46.23-.12.66-.24,1.31-.36,1.95ZM575.25,651.61c3.39,4.05,6.94,7.94,10.65,11.68-.02.09-.03.17-.05.26-3.7-3.81-7.24-7.79-10.61-11.93ZM587.2,664.58c11.2,11.04,23.79,20.61,37.48,28.43-.1.16-.2.31-.3.46-13.61-7.75-26.13-17.39-37.24-28.6.02-.1.04-.2.05-.29ZM696.23,713.95c66.71-14.44,117.73-90.18,117.73-181.19s-51.03-166.75-117.73-181.19c2.26-.24,4.53-.44,6.81-.6,82.08,6.61,147.1,85.62,147.1,181.79s-65.02,175.18-147.1,181.79c-2.28-.16-4.55-.36-6.81-.6ZM654.27,359.01c-.09-.07-.19-.13-.28-.2,4.39-1.46,8.86-2.74,13.4-3.83-4.44,1.18-8.82,2.52-13.12,4.03ZM652.65,359.59c-9.29,3.35-18.24,7.45-26.76,12.23-.1-.15-.19-.31-.29-.46,8.52-4.76,17.45-8.78,26.73-11.98.11.07.21.14.32.21ZM624.83,370.16c-.4-.61-.8-1.22-1.21-1.81,8.09-4.47,16.56-8.18,25.34-11.03.61.35,1.22.71,1.83,1.08-9,3.18-17.68,7.12-25.96,11.75ZM623.62,370.84c-13.41,7.65-25.77,17.12-36.77,28.1-.12-.67-.25-1.33-.38-1.98,10.76-11.09,22.84-20.52,35.94-27.92.41.59.81,1.19,1.21,1.8ZM586.13,395.26c-.27-1.36-.54-2.7-.82-4.01,10.2-10.82,21.58-19.81,33.85-26.56.81,1.01,1.62,2.08,2.41,3.19-12.89,7.3-24.8,16.54-35.45,27.39ZM584.86,396.56c-17.04,17.73-30.74,39.61-39.89,64.25,8.78-26.6,22.27-49.95,39.1-68.23.27,1.3.53,2.63.79,3.98ZM541.39,467.52c8.25-33.37,22.62-62.05,40.97-82.65.46,1.93.91,3.93,1.35,6.01-18.79,20.15-33.51,46.51-42.32,76.65ZM520.55,460.81c-9.15-24.64-22.86-46.52-39.89-64.25.26-1.35.53-2.68.79-3.98,16.83,18.28,30.32,41.63,39.1,68.23ZM481.81,390.87c.44-2.08.89-4.08,1.35-6.01,18.35,20.61,32.73,49.28,40.97,82.65-8.81-30.14-23.53-56.5-42.32-76.65ZM479.39,395.26c-10.65-10.85-22.56-20.09-35.45-27.39.79-1.11,1.6-2.18,2.41-3.19,12.27,6.75,23.66,15.74,33.85,26.56-.28,1.31-.55,2.65-.82,4.01ZM479.05,396.96c-.13.66-.25,1.32-.38,1.98-11.01-10.98-23.36-20.45-36.77-28.1.4-.61.8-1.21,1.21-1.8,13.1,7.4,25.18,16.83,35.94,27.92ZM440.69,370.16c-8.28-4.63-16.96-8.58-25.96-11.75.61-.37,1.21-.74,1.83-1.08,8.78,2.85,17.25,6.56,25.34,11.03-.4.59-.81,1.19-1.21,1.81ZM439.92,371.37c-.1.15-.19.31-.29.46-8.53-4.78-17.47-8.88-26.76-12.23.11-.07.21-.14.32-.21,9.28,3.2,18.22,7.22,26.73,11.98ZM411.25,359.01c-4.3-1.5-8.68-2.85-13.12-4.03,4.54,1.09,9.01,2.36,13.4,3.83-.09.06-.19.13-.28.2ZM213.95,532.76c0,93,60.4,170.07,138.44,182.05-90.99-4.39-163.74-84.36-163.74-182.05s72.75-177.66,163.74-182.05c-78.04,11.99-138.44,89.05-138.44,182.05ZM411.25,706.51c.09.07.19.13.28.2-4.39,1.46-8.86,2.74-13.4,3.83,4.44-1.18,8.82-2.52,13.12-4.03ZM412.87,705.93c9.29-3.35,18.24-7.45,26.76-12.23.1.15.19.31.29.46-8.52,4.76-17.45,8.78-26.73,11.98-.11-.07-.21-.14-.32-.21ZM440.69,695.36c.4.61.8,1.22,1.21,1.81-8.09,4.47-16.56,8.18-25.34,11.03-.61-.35-1.22-.71-1.83-1.08,9-3.18,17.68-7.12,25.96-11.75ZM441.91,694.68c13.41-7.65,25.77-17.12,36.77-28.1.12.67.25,1.33.38,1.98-10.76,11.09-22.84,20.52-35.94,27.92-.41-.59-.81-1.19-1.21-1.8ZM479.39,670.26c.27,1.36.54,2.7.82,4.01-10.2,10.82-21.58,19.81-33.85,26.56-.81-1.01-1.62-2.08-2.41-3.19,12.89-7.3,24.8-16.54,35.45-27.39ZM480.66,668.96c17.04-17.73,30.74-39.61,39.89-64.25-8.78,26.6-22.27,49.95-39.1,68.23-.27-1.3-.53-2.63-.79-3.98ZM524.13,598c-8.25,33.37-22.62,62.04-40.97,82.65-.46-1.93-.91-3.93-1.35-6.01,18.79-20.15,33.51-46.51,42.32-76.65ZM544.97,604.71c9.15,24.64,22.86,46.52,39.89,64.25-.26,1.35-.53,2.68-.79,3.98-16.83-18.28-30.32-41.63-39.1-68.23ZM583.71,674.65c-.44,2.08-.89,4.08-1.35,6.01-18.35-20.61-32.73-49.28-40.97-82.65,8.81,30.14,23.53,56.5,42.32,76.65ZM586.13,670.26c10.65,10.85,22.56,20.09,35.45,27.39-.79,1.11-1.6,2.18-2.41,3.19-12.27-6.75-23.66-15.74-33.85-26.56.28-1.31.55-2.65.82-4.01ZM586.47,668.56c.13-.66.25-1.32.38-1.98,11.01,10.98,23.36,20.45,36.77,28.1-.4.61-.8,1.21-1.21,1.8-13.1-7.4-25.18-16.83-35.94-27.92ZM624.83,695.36c8.28,4.63,16.96,8.58,25.96,11.75-.61.37-1.21.74-1.83,1.08-8.78-2.85-17.25-6.56-25.34-11.03.4-.59.81-1.19,1.21-1.81ZM625.6,694.15c.1-.15.19-.31.29-.46,8.53,4.78,17.47,8.88,26.76,12.23-.11.07-.21.14-.32.21-9.28-3.2-18.22-7.22-26.73-11.98ZM654.27,706.51c4.3,1.5,8.68,2.85,13.12,4.03-4.54-1.09-9.01-2.36-13.4-3.83.09-.06.19-.13.28-.2ZM851.57,532.76c0-93-60.4-170.07-138.44-182.05,90.99,4.39,163.74,84.36,163.74,182.05s-72.75,177.66-163.74,182.05c78.04-11.99,138.44-89.05,138.44-182.05ZM680.26,351c-2.48.38-4.95.82-7.39,1.32-.38-.11-.76-.23-1.14-.34,2.82-.41,5.67-.74,8.53-.98ZM669.82,352.96c-5.9,1.31-11.69,2.94-17.35,4.87-.57-.36-1.14-.72-1.72-1.06,5.7-1.77,11.52-3.19,17.45-4.22.54.13,1.08.27,1.62.41ZM649.07,355.79c-1.12-.62-2.25-1.2-3.39-1.74,4.98-1.3,10.07-2.25,15.23-2.84,1.21.16,2.42.36,3.62.58-5.24,1.05-10.4,2.39-15.45,4.01ZM647.25,356.39c-8.46,2.84-16.63,6.45-24.45,10.78-.79-1.1-1.58-2.15-2.38-3.16,7.42-3.97,15.16-7.13,23.15-9.39,1.24.54,2.47,1.12,3.69,1.76ZM619.51,362.89c-1.24-1.48-2.49-2.84-3.76-4.09,6.48-3.16,13.2-5.47,20.1-6.83,1.88.48,3.73,1.08,5.57,1.79-7.56,2.27-14.88,5.35-21.92,9.13ZM618.25,363.57c-12.04,6.66-23.23,15.46-33.29,26-.45-2.08-.92-4.09-1.39-6.03,9.38-10.25,19.76-18.42,30.86-24.07,1.29,1.25,2.56,2.61,3.82,4.1ZM583.16,381.91c-.8-3.16-1.62-6.12-2.47-8.87,8.12-8.99,16.99-15.56,26.38-19.21,2.13,1.22,4.21,2.75,6.26,4.6-10.83,5.59-20.97,13.55-30.17,23.47ZM581.97,383.21c-19.87,22.01-35.19,53.3-43.31,89.74,7.27-41.93,21.96-76.93,40.91-98.63.82,2.74,1.62,5.71,2.4,8.89ZM526.86,472.95c-8.12-36.44-23.44-67.73-43.31-89.74.78-3.18,1.58-6.15,2.4-8.89,18.94,21.7,33.63,56.7,40.91,98.63ZM482.36,381.91c-9.2-9.92-19.34-17.88-30.17-23.47,2.04-1.85,4.13-3.38,6.26-4.6,9.39,3.65,18.26,10.21,26.38,19.21-.85,2.74-1.67,5.71-2.47,8.87ZM481.96,383.54c-.47,1.94-.94,3.95-1.39,6.03-10.06-10.55-21.25-19.34-33.29-26,1.25-1.49,2.53-2.85,3.82-4.1,11.11,5.65,21.49,13.81,30.86,24.07ZM446.01,362.89c-7.04-3.79-14.36-6.86-21.92-9.13,1.84-.71,3.69-1.31,5.57-1.79,6.91,1.37,13.62,3.67,20.1,6.83-1.27,1.25-2.52,2.61-3.76,4.09ZM445.1,364.02c-.8,1.01-1.6,2.06-2.38,3.16-7.82-4.33-15.99-7.95-24.45-10.78,1.22-.64,2.45-1.22,3.69-1.76,7.99,2.26,15.73,5.42,23.15,9.39ZM416.45,355.79c-5.05-1.62-10.21-2.96-15.45-4.01,1.2-.22,2.41-.41,3.62-.58,5.16.59,10.24,1.54,15.23,2.84-1.14.54-2.27,1.12-3.39,1.74ZM414.77,356.77c-.58.34-1.15.7-1.72,1.06-5.66-1.93-11.45-3.56-17.35-4.87.54-.14,1.08-.28,1.62-.41,5.93,1.03,11.75,2.45,17.45,4.22ZM392.66,352.32c-2.45-.49-4.91-.93-7.39-1.32,2.86.24,5.71.56,8.53.98-.38.11-.76.23-1.14.34ZM187.22,532.76c0,89.96,61.25,165.01,141.8,180.67-87.75-11.77-155.7-88.31-155.7-180.67s67.95-168.9,155.7-180.67c-80.55,15.66-141.8,90.71-141.8,180.67ZM385.27,714.52c2.48-.38,4.95-.82,7.39-1.32.38.11.76.23,1.14.34-2.82.41-5.67.74-8.53.98ZM395.7,712.56c5.9-1.31,11.69-2.94,17.35-4.87.57.36,1.14.72,1.72,1.06-5.7,1.77-11.52,3.19-17.45,4.22-.54-.13-1.08-.27-1.62-.41ZM416.45,709.73c1.12.62,2.25,1.2,3.39,1.74-4.98,1.3-10.07,2.25-15.23,2.84-1.21-.16-2.42-.36-3.62-.58,5.24-1.05,10.4-2.39,15.45-4.01ZM418.27,709.13c8.46-2.84,16.63-6.45,24.45-10.78.79,1.1,1.58,2.15,2.38,3.16-7.42,3.97-15.16,7.13-23.15,9.39-1.24-.54-2.47-1.12-3.69-1.76ZM446.01,702.63c1.24,1.48,2.49,2.84,3.76,4.09-6.48,3.16-13.2,5.47-20.1,6.83-1.88-.48-3.73-1.09-5.57-1.79,7.56-2.27,14.88-5.35,21.92-9.13ZM447.27,701.95c12.04-6.66,23.23-15.46,33.29-26,.45,2.08.92,4.09,1.39,6.03-9.38,10.25-19.76,18.42-30.86,24.07-1.29-1.25-2.56-2.61-3.82-4.1ZM482.36,683.61c.8,3.16,1.62,6.12,2.47,8.87-8.12,8.99-16.99,15.56-26.38,19.21-2.13-1.22-4.21-2.75-6.26-4.6,10.83-5.59,20.97-13.55,30.17-23.47ZM483.55,682.31c19.87-22.01,35.19-53.3,43.31-89.74-7.27,41.93-21.96,76.93-40.91,98.63-.82-2.74-1.62-5.71-2.4-8.89ZM538.66,592.57c8.12,36.44,23.44,67.73,43.31,89.74-.78,3.18-1.58,6.15-2.4,8.89-18.94-21.7-33.63-56.7-40.91-98.63ZM583.16,683.61c9.2,9.92,19.34,17.88,30.17,23.47-2.04,1.85-4.13,3.38-6.26,4.6-9.39-3.65-18.26-10.21-26.38-19.21.85-2.74,1.67-5.71,2.47-8.87ZM583.57,681.98c.47-1.94.94-3.95,1.39-6.03,10.06,10.55,21.25,19.34,33.29,26-1.25,1.49-2.53,2.85-3.82,4.1-11.11-5.65-21.49-13.81-30.86-24.07ZM619.51,702.63c7.04,3.79,14.36,6.86,21.92,9.13-1.84.71-3.69,1.31-5.57,1.79-6.91-1.37-13.62-3.67-20.1-6.83,1.27-1.25,2.52-2.61,3.76-4.09ZM620.42,701.5c.8-1.01,1.6-2.06,2.38-3.16,7.82,4.33,15.99,7.95,24.45,10.78-1.22.64-2.45,1.22-3.69,1.76-7.99-2.26-15.73-5.42-23.15-9.39ZM649.07,709.73c5.05,1.62,10.21,2.96,15.45,4.01-1.2.22-2.4.41-3.62.58-5.16-.59-10.24-1.54-15.23-2.84,1.14-.54,2.27-1.12,3.39-1.74ZM650.75,708.75c.58-.34,1.15-.7,1.72-1.06,5.66,1.93,11.45,3.56,17.35,4.87-.54.14-1.08.28-1.62.41-5.93-1.03-11.75-2.45-17.45-4.22ZM672.86,713.2c2.45.49,4.91.93,7.39,1.32-2.86-.24-5.71-.56-8.53-.98.38-.11.76-.23,1.14-.34ZM878.3,532.76c0-89.96-61.25-165.01-141.8-180.67,87.75,11.77,155.7,88.31,155.7,180.67s-67.95,168.9-155.7,180.67c80.55-15.66,141.8-90.71,141.8-180.67ZM671.78,350.53c-1.19.17-2.37.36-3.55.57-.58-.13-1.16-.26-1.74-.38,1.76-.11,3.52-.17,5.29-.19ZM650.69,350.51c1.36,0,2.72.05,4.08.12-3.76.64-7.47,1.48-11.13,2.5-1.52-.65-3.06-1.22-4.61-1.72,3.84-.59,7.73-.9,11.67-.9ZM624.36,350.51c2.74,0,5.44.26,8.12.74-6.1,1.47-12.05,3.66-17.81,6.52-1.93-1.79-3.9-3.31-5.9-4.56,5.07-1.77,10.27-2.7,15.59-2.7ZM595.32,350.51c3.45,0,6.83.85,10.12,2.47-8.95,3.74-17.43,10.07-25.22,18.58-1.45-4.49-2.96-8.37-4.54-11.58,6.17-6.14,12.77-9.47,19.64-9.47ZM564.5,350.51c3.21,0,6.42,3.17,9.49,9.19-8.75,9.06-16.75,23.76-23.47,43.45-7.2,21.12-12.43,46.49-15.41,74.18,1.51-27.56,4.14-52.8,7.77-73.82,5.81-33.68,13.7-53,21.63-53ZM501.02,350.51c7.93,0,15.82,19.32,21.63,53,3.63,21.02,6.26,46.27,7.77,73.82-2.98-27.68-8.21-53.05-15.41-74.18-6.72-19.7-14.72-34.39-23.47-43.45,3.06-6.02,6.27-9.19,9.49-9.19ZM470.2,350.51c6.86,0,13.47,3.33,19.64,9.47-1.58,3.21-3.09,7.09-4.54,11.58-7.8-8.51-16.27-14.85-25.22-18.58,3.3-1.61,6.68-2.47,10.12-2.47ZM441.16,350.51c5.31,0,10.52.93,15.59,2.7-2,1.24-3.96,2.77-5.9,4.56-5.76-2.86-11.71-5.05-17.81-6.52,2.68-.48,5.38-.74,8.12-.74ZM414.83,350.51c3.94,0,7.83.31,11.67.9-1.55.5-3.09,1.07-4.61,1.72-3.66-1.02-7.37-1.86-11.13-2.5,1.35-.07,2.71-.12,4.08-.12ZM399.03,350.72c-.58.12-1.16.25-1.74.38-1.18-.2-2.36-.39-3.55-.57,1.77.02,3.54.08,5.29.19ZM167.38,532.76c0-78.62,50.04-145.76,119.93-171.27-67.48,26.66-115.43,93.38-115.43,171.27s47.96,144.61,115.43,171.27c-69.9-25.51-119.93-92.66-119.93-171.27ZM393.74,714.99c1.19-.17,2.37-.36,3.55-.57.58.13,1.16.26,1.74.38-1.76.11-3.52.17-5.29.19ZM414.83,715.01c-1.36,0-2.72-.05-4.08-.12,3.76-.64,7.47-1.48,11.13-2.5,1.52.65,3.06,1.22,4.61,1.72-3.84.59-7.73.9-11.67.9ZM441.16,715.01c-2.74,0-5.44-.26-8.12-.74,6.1-1.47,12.05-3.66,17.81-6.52,1.93,1.79,3.9,3.31,5.9,4.56-5.07,1.77-10.27,2.7-15.59,2.7ZM470.2,715.01c-3.45,0-6.83-.85-10.12-2.47,8.95-3.74,17.43-10.07,25.22-18.58,1.45,4.49,2.96,8.37,4.54,11.58-6.17,6.14-12.77,9.47-19.64,9.47ZM501.02,715.01c-3.21,0-6.42-3.17-9.49-9.19,8.75-9.06,16.75-23.76,23.47-43.45,7.2-21.12,12.43-46.5,15.41-74.18-1.51,27.56-4.14,52.8-7.77,73.83-5.81,33.68-13.7,53-21.63,53ZM564.5,715.01c-7.93,0-15.82-19.32-21.63-53-3.63-21.02-6.26-46.27-7.77-73.82,2.98,27.68,8.21,53.05,15.41,74.18,6.72,19.7,14.72,34.39,23.47,43.45-3.06,6.02-6.27,9.19-9.49,9.19ZM595.32,715.01c-6.86,0-13.47-3.33-19.64-9.47,1.58-3.21,3.09-7.09,4.54-11.58,7.8,8.51,16.27,14.85,25.22,18.58-3.3,1.61-6.68,2.47-10.12,2.47ZM624.36,715.01c-5.31,0-10.52-.93-15.59-2.7,2-1.24,3.96-2.77,5.9-4.56,5.76,2.86,11.71,5.05,17.81,6.52-2.68.48-5.38.74-8.12.74ZM650.69,715.01c-3.94,0-7.83-.31-11.67-.9,1.55-.5,3.09-1.07,4.61-1.72,3.66,1.02,7.37,1.86,11.13,2.5-1.35.07-2.71.12-4.08.12ZM666.49,714.8c.58-.12,1.16-.25,1.74-.38,1.18.2,2.36.39,3.55.57-1.77-.02-3.54-.08-5.29-.19ZM778.2,704.03c67.48-26.66,115.43-93.38,115.43-171.27s-47.96-144.61-115.43-171.27c69.9,25.51,119.93,92.66,119.93,171.27s-50.04,145.76-119.93,171.27Z"/>
</svg>