<?xml version="1.0" encoding="UTF-8"?>
<svg id="Layer_2" data-name="Layer 2" xmlns="http://www.w3.org/2000/svg" viewBox="0 0 512 512">
  <defs>
    <style>
      .cls-1 {
        fill: #201600;
      }
    </style>
  </defs>
  <g id="Layer_2_copy_2" data-name="Layer 2 copy 2" transform="translate(34, 0) scale(5.163)">
    <path class="cls-1" d="M85.95,24.79c-.09-.16-.26-.26-.44-.26h-28.04L43.45,.26s-.02-.01-.03-.03c-.09-.14-.24-.23-.42-.23s-.32,.09-.42,.23c0,.01-.02,.01-.03,.03l-14.02,24.28H.51c-.18,0-.35,.1-.44,.26s-.09,.35,0,.51l14.02,24.28L.07,73.87s0,.03-.01,.04c-.03,.06-.04,.11-.05,.17,0,.02,0,.04,0,.07,0,.08,.02,.16,.06,.23,.05,.08,.11,.14,.19,.19,.07,.04,.15,.06,.23,.06,0,0,.02,0,.03,0H28.55l14.02,24.28c.09,.16,.26,.26,.44,.26s.35-.1,.44-.26l14.02-24.28h28.04s.02,0,.02,0c.08,0,.16-.02,.23-.06,.08-.04,.14-.11,.19-.19,.04-.07,.06-.15,.06-.23,0-.02,0-.04,0-.07,0-.06-.02-.12-.05-.17,0-.01,0-.03-.01-.04l-14.02-24.28,14.02-24.28c.09-.16,.09-.35,0-.51Zm-43.45,24.5l-19.34,11.17L42.5,26.96v22.33Zm.51,.89l19.34,11.17H23.67l19.34-11.17Zm.51-.89V26.96l19.34,33.5-19.34-11.17Zm0-46.87l12.77,22.12h-12.77V2.42Zm-1.02,0V24.54h-12.77L42.5,2.42Zm-13.66,23.14h13.28L21.76,60.83l-6.64-11.5s0,0,0,0L1.4,25.56H28.85Zm-7.78,36.11L1.91,72.73l12.77-22.12,6.38,11.06ZM2.42,73.61l19.15-11.06,6.38,11.06H2.42Zm40.59,24.03l-13.72-23.77s0,0,0,0l-6.64-11.5H63.38l-3.01,5.21-3.63,6.3h0s-13.72,23.77-13.72,23.77Zm21.44-35.09l19.15,11.06h-25.54l6.38-11.06Zm19.67,10.17l-19.15-11.06,.59-1.03,5.79-10.03,12.77,22.12Zm-19.85-11.89L43.9,25.56h40.73l-20.36,35.27Z"/>
  </g>
</svg>
