<?xml version="1.0" encoding="UTF-8"?>
<svg id="katman_1" xmlns="http://www.w3.org/2000/svg" version="1.1" viewBox="0 0 612 792">
  <!-- Generator: Adobe Illustrator 29.1.0, SVG Export Plug-In . SVG Version: 2.1.0 Build 142)  -->
  <path d="M306,120.71c-151.79,0-275.29,123.49-275.29,275.29s123.49,275.29,275.29,275.29,275.29-123.49,275.29-275.29S457.79,120.71,306,120.71ZM306,400.47c45.69,81.83,45.69,182.31,0,264.14-45.69-81.83-45.69-182.31,0-264.14ZM306,391.53c-45.69-81.83-45.69-182.31,0-264.14,45.69,81.83,45.69,182.31,0,264.14ZM340.4,396c83.33-10.57,158.43-59.08,201.98-132.06,21.93,39.1,34.49,84.13,34.49,132.06s-12.57,92.96-34.49,132.06c-43.55-72.98-118.64-121.48-201.98-132.06ZM538.63,530.31c-93.71-1.35-180.73-51.59-228.76-132.07,93.71,1.35,180.73,51.59,228.76,132.07ZM309.87,393.76c48.02-80.48,135.05-130.72,228.76-132.07-48.02,80.48-135.05,130.72-228.76,132.07ZM538.56,257.32c-84.98,1.22-164.54,42.01-215.37,108.89,32.52-77.47,28.05-166.78-13.39-240.99,97.12,1.35,182.02,54.02,228.76,132.1ZM302.2,125.22c-41.44,74.21-45.91,163.52-13.39,240.99-50.82-66.89-130.38-107.67-215.37-108.89,46.74-78.08,131.65-130.75,228.76-132.1ZM302.13,393.76c-93.71-1.35-180.73-51.59-228.75-132.07,93.71,1.35,180.73,51.59,228.75,132.07ZM69.62,263.94c43.55,72.98,118.64,121.48,201.98,132.06-83.33,10.57-158.42,59.08-201.98,132.06-21.93-39.1-34.49-84.13-34.49-132.06s12.56-92.96,34.49-132.06ZM302.13,398.24c-48.02,80.48-135.04,130.72-228.75,132.07,48.02-80.48,135.05-130.72,228.75-132.07ZM73.44,534.68c84.98-1.22,164.54-42.01,215.37-108.89-32.52,77.47-28.05,166.78,13.39,240.99-97.11-1.35-182.02-54.02-228.76-132.1ZM309.8,666.78c41.45-74.21,45.91-163.52,13.39-240.99,50.82,66.89,130.39,107.67,215.37,108.89-46.74,78.08-131.65,130.75-228.76,132.1Z"/>
</svg>