<?xml version="1.0" encoding="UTF-8" standalone="no"?><!DOCTYPE svg PUBLIC "-//W3C//DTD SVG 1.1//EN" "http://www.w3.org/Graphics/SVG/1.1/DTD/svg11.dtd"><svg width="100%" height="100%" viewBox="0 0 666 754" version="1.1" xmlns="http://www.w3.org/2000/svg" xmlns:xlink="http://www.w3.org/1999/xlink" xml:space="preserve" xmlns:serif="http://www.serif.com/" style="fill-rule:evenodd;clip-rule:evenodd;"><g><circle cx="333.3" cy="67.633" r="61.191" style="fill:none;stroke:#000;stroke-width:3.13px;"/><circle cx="333.3" cy="190.611" r="61.191" style="fill:none;stroke:#000;stroke-width:3.13px;"/><circle cx="333.3" cy="313.586" r="61.191" style="fill:none;stroke:#000;stroke-width:3.13px;"/><circle cx="333.3" cy="436.561" r="61.191" style="fill:none;stroke:#000;stroke-width:3.13px;"/><circle cx="333.3" cy="559.539" r="61.191" style="fill:none;stroke:#000;stroke-width:3.13px;"/><circle cx="333.3" cy="682.514" r="61.191" style="fill:none;stroke:#000;stroke-width:3.13px;"/><circle cx="333.3" cy="129.12" r="61.191" style="fill:none;stroke:#000;stroke-width:3.13px;"/><circle cx="333.3" cy="252.095" r="61.191" style="fill:none;stroke:#000;stroke-width:3.13px;"/><circle cx="333.3" cy="375.074" r="61.191" style="fill:none;stroke:#000;stroke-width:3.13px;"/><circle cx="333.3" cy="498.049" r="61.191" style="fill:none;stroke:#000;stroke-width:3.13px;"/><circle cx="333.3" cy="621.027" r="61.191" style="fill:none;stroke:#000;stroke-width:3.13px;"/><circle cx="385.238" cy="98.077" r="61.188" style="fill:none;stroke:#000;stroke-width:3.13px;"/><circle cx="385.238" cy="221.055" r="61.188" style="fill:none;stroke:#000;stroke-width:3.13px;"/><circle cx="385.238" cy="344.03" r="61.188" style="fill:none;stroke:#000;stroke-width:3.13px;"/><circle cx="385.238" cy="467.005" r="61.188" style="fill:none;stroke:#000;stroke-width:3.13px;"/><circle cx="385.238" cy="589.983" r="61.188" style="fill:none;stroke:#000;stroke-width:3.13px;"/><circle cx="385.238" cy="159.567" r="61.188" style="fill:none;stroke:#000;stroke-width:3.13px;"/><circle cx="385.238" cy="282.542" r="61.188" style="fill:none;stroke:#000;stroke-width:3.13px;"/><circle cx="385.238" cy="405.52" r="61.188" style="fill:none;stroke:#000;stroke-width:3.13px;"/><circle cx="385.238" cy="528.495" r="61.188" style="fill:none;stroke:#000;stroke-width:3.13px;"/><circle cx="385.238" cy="651.47" r="61.188" style="fill:none;stroke:#000;stroke-width:3.13px;"/><circle cx="279.572" cy="98.077" r="61.191" style="fill:none;stroke:#000;stroke-width:3.13px;"/><circle cx="279.572" cy="221.055" r="61.191" style="fill:none;stroke:#000;stroke-width:3.13px;"/><circle cx="279.572" cy="344.03" r="61.191" style="fill:none;stroke:#000;stroke-width:3.13px;"/><circle cx="279.572" cy="467.005" r="61.191" style="fill:none;stroke:#000;stroke-width:3.13px;"/><circle cx="279.572" cy="589.983" r="61.191" style="fill:none;stroke:#000;stroke-width:3.13px;"/><circle cx="279.572" cy="159.567" r="61.191" style="fill:none;stroke:#000;stroke-width:3.13px;"/><circle cx="279.572" cy="282.542" r="61.191" style="fill:none;stroke:#000;stroke-width:3.13px;"/><circle cx="279.572" cy="405.52" r="61.191" style="fill:none;stroke:#000;stroke-width:3.13px;"/><circle cx="279.572" cy="528.495" r="61.191" style="fill:none;stroke:#000;stroke-width:3.13px;"/><circle cx="279.572" cy="651.47" r="61.191" style="fill:none;stroke:#000;stroke-width:3.13px;"/><circle cx="491.882" cy="222.052" r="61.191" style="fill:none;stroke:#000;stroke-width:3.13px;"/><circle cx="491.882" cy="345.027" r="61.191" style="fill:none;stroke:#000;stroke-width:3.13px;"/><circle cx="491.882" cy="468.002" r="61.191" style="fill:none;stroke:#000;stroke-width:3.13px;"/><circle cx="491.882" cy="590.977" r="61.191" style="fill:none;stroke:#000;stroke-width:3.13px;"/><circle cx="491.882" cy="160.561" r="61.191" style="fill:none;stroke:#000;stroke-width:3.13px;"/><circle cx="491.882" cy="283.536" r="61.191" style="fill:none;stroke:#000;stroke-width:3.13px;"/><circle cx="491.882" cy="406.514" r="61.191" style="fill:none;stroke:#000;stroke-width:3.13px;"/><circle cx="491.882" cy="529.489" r="61.191" style="fill:none;stroke:#000;stroke-width:3.13px;"/><circle cx="543.816" cy="252.492" r="61.191" style="fill:none;stroke:#000;stroke-width:3.13px;"/><circle cx="543.816" cy="375.47" r="61.191" style="fill:none;stroke:#000;stroke-width:3.13px;"/><circle cx="543.816" cy="498.445" r="61.191" style="fill:none;stroke:#000;stroke-width:3.13px;"/><circle cx="543.816" cy="191.008" r="61.191" style="fill:none;stroke:#000;stroke-width:3.13px;"/><circle cx="543.816" cy="313.983" r="61.191" style="fill:none;stroke:#000;stroke-width:3.13px;"/><circle cx="543.816" cy="436.961" r="61.191" style="fill:none;stroke:#000;stroke-width:3.13px;"/><circle cx="543.816" cy="559.936" r="61.191" style="fill:none;stroke:#000;stroke-width:3.13px;"/><circle cx="597.544" cy="284.136" r="61.188" style="fill:none;stroke:#000;stroke-width:3.13px;"/><circle cx="597.544" cy="407.108" r="61.188" style="fill:none;stroke:#000;stroke-width:3.13px;"/><circle cx="597.544" cy="530.086" r="61.188" style="fill:none;stroke:#000;stroke-width:3.13px;"/><circle cx="597.544" cy="222.649" r="61.188" style="fill:none;stroke:#000;stroke-width:3.13px;"/><circle cx="597.544" cy="345.624" r="61.188" style="fill:none;stroke:#000;stroke-width:3.13px;"/><circle cx="597.544" cy="468.599" r="61.188" style="fill:none;stroke:#000;stroke-width:3.13px;"/><circle cx="438.154" cy="129.517" r="61.187" style="fill:none;stroke:#000;stroke-width:3.13px;"/><circle cx="438.154" cy="252.492" r="61.187" style="fill:none;stroke:#000;stroke-width:3.13px;"/><circle cx="438.154" cy="375.47" r="61.187" style="fill:none;stroke:#000;stroke-width:3.13px;"/><circle cx="438.154" cy="498.445" r="61.187" style="fill:none;stroke:#000;stroke-width:3.13px;"/><circle cx="438.154" cy="621.424" r="61.187" style="fill:none;stroke:#000;stroke-width:3.13px;"/><circle cx="438.154" cy="191.008" r="61.187" style="fill:none;stroke:#000;stroke-width:3.13px;"/><circle cx="438.154" cy="313.983" r="61.187" style="fill:none;stroke:#000;stroke-width:3.13px;"/><circle cx="438.154" cy="436.961" r="61.187" style="fill:none;stroke:#000;stroke-width:3.13px;"/><circle cx="438.154" cy="559.936" r="61.187" style="fill:none;stroke:#000;stroke-width:3.13px;"/><circle cx="173.522" cy="222.052" r="61.187" style="fill:none;stroke:#000;stroke-width:3.13px;"/><circle cx="173.522" cy="345.027" r="61.187" style="fill:none;stroke:#000;stroke-width:3.13px;"/><circle cx="173.522" cy="468.002" r="61.187" style="fill:none;stroke:#000;stroke-width:3.13px;"/><circle cx="173.522" cy="590.977" r="61.187" style="fill:none;stroke:#000;stroke-width:3.13px;"/><circle cx="173.522" cy="160.561" r="61.187" style="fill:none;stroke:#000;stroke-width:3.13px;"/><circle cx="173.522" cy="283.536" r="61.187" style="fill:none;stroke:#000;stroke-width:3.13px;"/><circle cx="173.522" cy="406.514" r="61.187" style="fill:none;stroke:#000;stroke-width:3.13px;"/><circle cx="173.522" cy="529.489" r="61.187" style="fill:none;stroke:#000;stroke-width:3.13px;"/><circle cx="121.585" cy="252.492" r="61.191" style="fill:none;stroke:#000;stroke-width:3.13px;"/><circle cx="121.585" cy="375.47" r="61.191" style="fill:none;stroke:#000;stroke-width:3.13px;"/><circle cx="121.585" cy="498.445" r="61.191" style="fill:none;stroke:#000;stroke-width:3.13px;"/><circle cx="121.585" cy="191.008" r="61.191" style="fill:none;stroke:#000;stroke-width:3.13px;"/><circle cx="121.585" cy="313.983" r="61.191" style="fill:none;stroke:#000;stroke-width:3.13px;"/><circle cx="121.585" cy="436.961" r="61.191" style="fill:none;stroke:#000;stroke-width:3.13px;"/><circle cx="121.585" cy="559.936" r="61.191" style="fill:none;stroke:#000;stroke-width:3.13px;"/><circle cx="67.857" cy="284.136" r="61.191" style="fill:none;stroke:#000;stroke-width:3.13px;"/><circle cx="67.857" cy="407.108" r="61.191" style="fill:none;stroke:#000;stroke-width:3.13px;"/><circle cx="67.857" cy="530.086" r="61.191" style="fill:none;stroke:#000;stroke-width:3.13px;"/><circle cx="67.857" cy="222.649" r="61.191" style="fill:none;stroke:#000;stroke-width:3.13px;"/><circle cx="67.857" cy="345.624" r="61.191" style="fill:none;stroke:#000;stroke-width:3.13px;"/><circle cx="67.857" cy="468.599" r="61.191" style="fill:none;stroke:#000;stroke-width:3.13px;"/><circle cx="227.247" cy="129.517" r="61.191" style="fill:none;stroke:#000;stroke-width:3.13px;"/><circle cx="227.247" cy="252.492" r="61.191" style="fill:none;stroke:#000;stroke-width:3.13px;"/><circle cx="227.247" cy="375.47" r="61.191" style="fill:none;stroke:#000;stroke-width:3.13px;"/><circle cx="227.247" cy="498.445" r="61.191" style="fill:none;stroke:#000;stroke-width:3.13px;"/><circle cx="227.247" cy="621.424" r="61.191" style="fill:none;stroke:#000;stroke-width:3.13px;"/><circle cx="227.247" cy="191.008" r="61.191" style="fill:none;stroke:#000;stroke-width:3.13px;"/><circle cx="227.247" cy="313.983" r="61.191" style="fill:none;stroke:#000;stroke-width:3.13px;"/><circle cx="227.247" cy="436.961" r="61.191" style="fill:none;stroke:#000;stroke-width:3.13px;"/><circle cx="227.247" cy="559.936" r="61.191" style="fill:none;stroke:#000;stroke-width:3.13px;"/></g></svg>