<?xml version="1.0" encoding="UTF-8" standalone="no"?><!DOCTYPE svg PUBLIC "-//W3C//DTD SVG 1.1//EN" "http://www.w3.org/Graphics/SVG/1.1/DTD/svg11.dtd"><svg width="100%" height="100%" viewBox="0 0 810 807" version="1.1" xmlns="http://www.w3.org/2000/svg" xmlns:xlink="http://www.w3.org/1999/xlink" xml:space="preserve" xmlns:serif="http://www.serif.com/" style="fill-rule:evenodd;clip-rule:evenodd;"><path d="M390.079,7.745c-0.063,-0.278 27.931,-0.215 30.843,-0.084c10.344,0.456 20.663,1.284 30.935,2.509c18.903,2.257 37.637,5.875 56.009,10.872c36.85,10.022 72.113,25.382 104.575,45.491c71.316,44.169 126.278,110.206 158.509,187.481c32.225,77.263 37.582,165.738 17.032,246.706c-19.125,75.369 -60.813,144.529 -118.607,196.575c-62.187,56.007 -141.112,91.169 -224.34,99.86c-79.756,8.337 -161.485,-8.022 -231.719,-46.81c-37.637,-20.784 -72.466,-47.59 -101.219,-79.643c-12.443,-13.866 -24.34,-28.041 -34.715,-43.607c-12.225,-18.34 -22.828,-37.103 -32.397,-56.953c-36.672,-75.997 -45.672,-165.337 -28.675,-247.665c7.659,-37.075 20.884,-73.266 38.844,-106.591c20.321,-37.706 46.896,-73.069 78.618,-101.956c15.082,-13.738 30.616,-26.731 47.578,-38.031c18.294,-12.185 37.138,-22.757 56.969,-32.213c39.206,-18.687 81.635,-29.325 124.653,-34.272c8.928,-1.034 18.107,-1.89 27.107,-1.669m2.796,2.794c-20.653,1.131 -40.159,8.685 -57.746,19.135c-8.919,5.296 -18.447,12.334 -25.047,20.462c-3.728,3.278 -7.575,7.7 -10.266,11.859c-0.487,0.757 -7.747,10.45 -7.241,10.863c0.241,0.025 0.479,0.047 0.713,0.072c20.947,-0.619 41.316,-5.86 59.637,-16.085c9.882,-5.512 18.813,-12.131 27.172,-19.743c8.203,-7.472 16.182,-17.01 21.175,-26.963c-2.778,0.15 -6.234,-0.365 -8.397,0.4m14.397,0.8c22.916,37.435 64.294,60.566 107.991,61.591c0.131,-0.066 0.262,-0.131 0.394,-0.197c0.003,-0.313 -1.675,-2.556 -2,-2.603c-0.497,-2.01 -2.557,-4.391 -3.797,-6.028c-3.703,-4.885 -7.575,-9.56 -11.669,-14.135c-7.647,-8.547 -17.787,-16.347 -27.766,-21.881c-19.525,-10.831 -40.931,-18.203 -63.553,-17.95c-0.018,0.556 0.191,0.884 0.4,1.203m-325.556,166.785c-0.341,-0.075 -0.378,0.153 -0.403,0.396c-0.581,0.244 0.044,0.482 0,0c0.506,0.11 3.266,-3.109 3.822,-3.618c1.734,-1.591 3.503,-3.144 5.309,-4.653c3.935,-3.304 8.044,-6.41 12.319,-9.263c8.047,-5.366 16.703,-9.759 25.716,-13.269c8.54,-3.331 17.421,-5.765 26.478,-7.187c4.872,-0.763 9.778,-1.241 14.7,-1.466c2.575,-0.115 4.968,0.553 6.609,-1.675c1.466,-1.981 2.713,-4.162 4.1,-6.2c20.909,-30.784 54.544,-51.719 91.522,-56.853c4.906,-0.681 9.847,-1.109 14.8,-1.312c1.641,-0.069 2.319,0.353 3.234,-1.116c0.638,-1.022 1.288,-2.038 1.953,-3.044c1.529,-2.337 3.122,-4.628 4.779,-6.878c5.831,-7.922 12.462,-15.262 19.85,-21.772c15.815,-13.937 34.15,-22.34 53.971,-28.872c-44.043,3.994 -87,14.875 -127.421,32.913c-19.307,8.612 -37.863,18.947 -55.519,30.572c-18.672,12.297 -35.675,26.465 -52.416,41.218c-5.156,4.538 -9.809,9.857 -14.637,14.741c-4.86,4.922 -9.638,9.944 -13.975,15.341c-4.769,5.284 -8.891,11.1 -13.572,16.425c-3.969,4.522 -8.566,10.147 -11.219,15.572m644.719,0c-0.044,0.2 0.497,0.656 0.619,0.646c-0.707,0.06 -5.669,-7.881 -6.619,-9.046c-2.463,-4.469 -6.194,-8.622 -9.441,-12.525c-7.19,-8.629 -14.369,-17.075 -22.147,-25.188c-15.493,-16.144 -32.175,-31.606 -50.381,-44.672c-8.716,-6.256 -17.472,-12.256 -26.522,-18.034c-9.306,-5.935 -19.037,-11.285 -28.834,-16.416c-19.903,-10.428 -41.135,-18.965 -62.635,-25.465c-13.671,-4.135 -27.509,-7.829 -41.565,-10.394c-7.019,-1.285 -14.013,-2.513 -21.078,-3.419c-6.678,-0.853 -13.4,-2.216 -20.16,-1.869c19.094,4.716 36.913,14.113 51.957,26.753c8.19,6.879 14.9,14.804 21.621,23.054c2.304,2.831 5.344,6.678 6.7,10.062c0.832,2.069 3.51,1.397 5.372,1.497c3.041,0.166 6.075,0.412 9.097,0.753c19.581,2.209 40.15,8.534 56.435,19.872c9.04,5.116 16.671,12.203 24.287,19.169c2.966,2.709 5.659,6.381 8.197,9.543c2.925,3.629 6.237,7.51 8.487,11.594c0.725,1.313 1.313,2.76 2.372,3.853c1.66,1.722 4.594,1.078 6.803,1.185c5.004,0.234 9.988,0.753 14.925,1.572c8.85,1.462 17.51,3.918 25.897,7.1c17.425,6.609 33.341,17.312 46.613,30.375m-323.163,-165.182c-10.003,18.428 -15.075,38.807 -15.559,59.744c-0.269,11.7 1.516,23.434 4.216,34.794c1.321,5.562 3.334,11.459 5.746,16.65c0.872,2.397 1.872,5.344 3.322,7.394c1.203,1.696 1.282,4.556 3.478,5.406c10.26,-19.541 16.419,-41.535 15.979,-63.725c-0.225,-11.575 -1.763,-23.125 -4.925,-34.272c-1.444,-5.097 -3.216,-10.097 -5.3,-14.972c-0.575,-1.334 -5.072,-12.453 -6.157,-12.219c-0.559,0.103 -0.453,0.875 -0.8,1.2m-9.197,12.794c-0.596,0 -2.015,2.528 -2.562,3.125c-1.475,1.6 -2.956,3.191 -4.456,4.766c-2.997,3.147 -6.057,6.24 -9.225,9.222c-6.416,6.037 -14.407,11.318 -22.097,15.587c-14.419,8.016 -30.203,13.303 -46.447,16.097c17.337,2.647 34.169,8.303 49.209,17.387c6.803,4.11 13.207,8.872 19.163,14.132c2.94,2.6 5.781,5.318 8.512,8.134c1.369,1.409 2.707,2.844 4.025,4.297c0.538,0.597 3.472,4.744 4.103,4.691c-1.428,0.118 -5.578,-18.438 -6.034,-20.479c-1.969,-8.896 -2.822,-17.64 -2.972,-26.721c-0.144,-8.619 0.272,-17.022 1.872,-25.516c0.781,-4.15 1.759,-8.266 2.922,-12.322c0.587,-2.084 1.309,-4.125 2.019,-6.175c0.547,-1.562 2.347,-4.944 2.225,-6.444c-0.172,-0.109 -0.25,-0.037 -0.257,0.219m20,0c-0.065,1.103 0.841,2.447 1.207,3.538c0.668,1.99 1.29,3.993 1.868,6.012c1.207,4.197 2.219,8.444 3.069,12.728c1.669,8.419 2.572,16.975 2.65,25.563c0.075,8.322 -0.437,16.687 -1.919,24.884c-1.506,8.381 -4.437,16.331 -6.871,24.463c-0.588,0.243 0.037,0.481 0,0c5.296,-6.129 10.815,-13.082 17.384,-17.894c6.347,-4.66 12.375,-10.213 19.362,-13.919c7.354,-3.897 14.916,-7.928 22.822,-10.587c8.228,-2.772 16.738,-4.616 25.219,-6.397c-38.581,-5.81 -64.528,-24.263 -84.791,-48.391c-0.246,-0.578 -0.484,0.044 0,0m-132.384,50.397c-11.547,0.419 -22.712,3.041 -33.7,6.456c-5.153,1.6 -10.978,3.76 -15.494,6.741c-5.222,2.184 -9.478,5.425 -14.303,8.225c-9.522,5.531 -18.15,13.681 -25.422,21.869c-3.218,3.625 -6.656,7.459 -9.228,11.571c-0.747,1.188 -2.05,4.154 -3.44,4.732c0.043,0.693 -2.35,3.581 -0.8,3.2c10.809,-0.572 21.715,-1.835 32.109,-4.978c4.878,-1.472 9.678,-2.988 14.387,-4.947c5.547,-2.31 10.638,-4.982 15.95,-7.822c18.682,-10.013 35.369,-27.097 45.941,-45.447c-2.069,0.066 -4.519,-0.247 -6,0.4m11.597,0.8c23.109,37.834 64.084,60.147 107.987,61.994c1.15,-1.007 -5.287,-8.81 -5.962,-9.807c-3.463,-5.143 -7.791,-9.69 -12.034,-14.193c-7.857,-8.869 -18.047,-15.791 -28.175,-21.769c-8.869,-5.231 -18.35,-9.388 -28.241,-12.256c-5.45,-1.582 -11.009,-2.782 -16.619,-3.625c-2.803,-0.419 -5.619,-0.757 -8.44,-1.007c-1.863,-0.168 -7.713,-1.515 -9.229,-0.456c-0.337,0.231 0.585,0.856 0.713,1.119m215.975,-0.8c-41.028,1.625 -82.819,26.759 -102.791,62.794c44.522,-1.553 86.175,-24.65 109.188,-63.194c-2.178,0.087 -4.81,-0.278 -6.397,0.4m12,0.8c0.959,2.359 2.734,4.219 3.994,6.4c1.547,2.031 2.747,4.406 4.803,5.997c0.778,2.109 2.756,3.322 3.94,5.156c1.45,2.259 3.96,4.091 5.86,6.044c8.069,8.303 17.265,14.99 27.194,20.897c18.85,11.212 40.384,16.553 62.19,17.503c0.928,-0.819 -5.325,-8.866 -6.009,-9.756c-3.878,-5.038 -7.872,-9.922 -12.328,-14.472c-8.491,-8.688 -18.185,-15.957 -28.7,-22.022c-9.269,-5.344 -19.185,-9.528 -29.51,-12.335c-5.925,-1.609 -11.965,-2.775 -18.056,-3.537c-3.291,-0.409 -6.597,-0.706 -9.9,-0.897c-0.881,-0.05 -3.469,-0.6 -4.2,-0.091c-0.228,0.154 0.5,1.063 0.722,1.113m-231.975,1.6c-10.059,18.884 -15.141,39.703 -15.575,61.072c-0.45,22.003 6.022,43.875 15.975,63.312c1.341,-0.343 2.397,-3.078 2.969,-4.228c1.059,-2.125 2.068,-4.347 2.972,-6.569c2.203,-5.415 4.012,-10.925 6.056,-16.4c3.156,-11.346 4.653,-23.175 4.728,-34.943c0.075,-11.8 -1.406,-23.563 -4.534,-34.944c-1.513,-5.5 -3.382,-10.9 -5.6,-16.156c-0.563,-1.328 -5.06,-12.588 -6.191,-12.347c-0.097,0.572 -0.659,0.678 -0.8,1.203m227.978,0c-10.162,19.047 -15.425,39.878 -15.597,61.469c-0.097,12.1 1.941,24 4.794,35.722c2.022,5.418 3.459,11.134 5.991,16.353c1.018,2.112 1.953,4.209 2.975,6.272c0.559,1.118 1.509,4.328 3.034,4.565c10.191,-19.89 16.553,-42.144 15.95,-64.647c-0.322,-11.878 -2.072,-23.703 -5.441,-35.103c-1.5,-5.069 -3.312,-10.037 -5.378,-14.9c-0.659,-1.55 -4.128,-11.325 -5.931,-10.934c0.016,0.553 -0.191,0.881 -0.397,1.203m-217.181,13.197c-0.191,1.078 1.147,3.215 1.5,4.228c0.597,1.716 1.159,3.45 1.687,5.191c1.2,3.978 2.207,8.018 3.041,12.093c1.822,8.982 2.75,18.128 2.969,27.285c-0.685,8.759 -0.538,17.934 -3.197,26.397c-0.397,4.393 -1.778,8.75 -3.035,12.965c-0.456,1.556 -1.218,2.994 -1.365,4.631c-0.519,1.213 -2.322,3.397 -1.603,4.797c2.143,-3.375 5.084,-6.115 7.6,-9.197c3.197,-2.381 5.318,-5.965 8.797,-8.003c2.859,-3.347 6.681,-5.64 10.09,-8.34c3.35,-2.657 7.266,-5.307 11.038,-7.26c8.756,-4.534 17.434,-8.615 26.834,-11.625c4.341,-1.387 8.972,-2.025 13.231,-3.568c0.857,0.162 6.585,-0.632 6.4,-1.6c-16.122,-1.722 -31.328,-8.066 -45.55,-15.525c-7.387,-3.879 -14.137,-9.097 -20.49,-14.422c-6.435,-5.403 -12.088,-11.928 -17.947,-18.047c0.387,-1.663 -1.194,-0.078 0,0m191.978,16.4c-18.634,16.39 -43.075,28.94 -67.991,31.597c-0.184,0.934 4.535,1.528 5.357,1.64c3.903,0.522 7.912,1.535 11.718,2.722c9.028,2.806 17.478,6.319 25.891,10.619c16.241,8.303 29.653,20.825 41.422,34.612c-6.253,-15.775 -9.156,-32.668 -9.597,-49.593c0.497,-9.069 0.716,-18.744 3.131,-27.544c1.131,-4.131 1.969,-8.366 3.291,-12.428c0.462,-1.435 0.859,-2.969 1.406,-4.369c0.456,-1.184 2.009,-3.109 1.369,-4.453c-4.478,6.578 -10.369,11.762 -15.997,17.197m-211.972,-16.4c-0.859,0 -2.169,2.362 -2.728,3.015c-1.534,1.8 -3.119,3.563 -4.75,5.282c-2.975,3.15 -6.109,6.159 -9.384,9c-6.985,6.056 -14.622,11.14 -22.65,15.7c-7.757,4.4 -16.113,8.075 -24.635,10.697c-1.984,0.612 -19.925,4.321 -19.847,5.096c17.603,1.929 33.207,9.35 48.794,17.197c6.903,5.3 14.7,9.488 20.713,15.763c2.618,2.734 5.39,5.394 8.106,7.997c0.819,0.79 6.475,7.812 6.556,7.781c0.463,-0.188 0.297,-0.713 -0.178,-0.744c-1.991,-6.95 -4.469,-13.85 -5.947,-21.019c-1.791,-8.687 -2.756,-17.556 -2.844,-26.425c-0.093,-8.84 0.782,-17.671 2.472,-26.346c1.538,-7.866 4.21,-15.329 6.322,-22.994c0.581,-0.244 -0.044,-0.481 0,0m247.969,0c-0.075,1.294 1.103,3.094 1.544,4.39c0.628,1.838 1.212,3.694 1.753,5.557c1.134,3.915 2.084,7.887 2.865,11.89c1.663,8.563 2.547,17.285 2.632,26.01c0.081,8.731 -0.8,17.45 -2.482,26.012c-1.543,7.841 -4.187,15.297 -6.312,22.928c-1.197,0.082 0.381,1.66 0,0c11.534,-12.634 23.519,-23.99 38.494,-32.497c14.065,-7.993 29.615,-13.056 45.496,-15.893c-17.028,-2.841 -33.603,-8.653 -48.393,-17.6c-6.932,-4.194 -14.107,-8.991 -19.803,-14.594c-2.257,-2.216 -7.154,-4.809 -8.222,-7.813c-0.588,-1.643 -2.447,-2.353 -3.572,-3.587c-1.441,-1.584 -2.319,-3.356 -4,-4.803c-0.244,-0.581 -0.488,0.044 0,0m-355.96,49.997c-20.918,0.497 -40.868,6.14 -59.19,16.168c-9.797,5.36 -18.591,12.185 -26.838,19.682c-8.253,7.497 -16.047,17.015 -21.159,26.94c21.753,-0.603 42.903,-6.103 61.762,-17.04c10.369,-6.016 19.475,-13.185 28.229,-21.353c4.253,-4.432 8.146,-9.147 11.821,-14.01c1.55,-2.056 3.15,-4.115 4.454,-6.344c0.746,-1.275 1.478,-2.587 2.528,-3.643c-0.41,-1.378 -0.569,-0.222 -1.607,-0.4m463.144,0.797c4.291,9.571 12.488,18.046 19.903,25.259c7.841,7.631 16.66,14.628 26.285,19.859c18.978,10.319 40.078,16.747 61.793,16.872c-10.403,-19.987 -29.04,-35.869 -48.368,-46.812c-18.453,-10.457 -39.328,-15.441 -60.413,-16.378c-0.015,0.69 0.31,1.025 0.8,1.2m-455.544,0.403c4.644,9.897 13.247,18.762 21.06,26.234c8.022,7.675 17.184,14.303 26.962,19.553c18.457,9.916 38.603,15.328 59.569,15.806c0.841,-0.743 -4.678,-8.071 -5.319,-8.906c-3.578,-4.678 -7.206,-9.275 -11.275,-13.537c-7.828,-8.2 -17.012,-16.35 -27.018,-21.763c-9.81,-5.312 -19.525,-10.484 -30.369,-13.484c-11.253,-3.122 -22.691,-5.213 -34.41,-5.097c-0.018,0.681 0.307,1.019 0.8,1.194m212.775,-0.8c-20.306,1.728 -39.728,8.112 -56.978,18.978c-9.462,5.962 -17.728,12.909 -25.809,20.615c-3.478,4.279 -7.306,8.26 -10.534,12.722c-0.575,0.791 -6.975,9.675 -6.575,9.997c0.24,0.028 0.478,0.056 0.712,0.081c20.984,-0.537 41.272,-5.89 59.625,-16.1c9.894,-5.503 18.819,-12.112 27.184,-19.728c4.354,-3.968 7.875,-8.603 11.91,-12.868c1.759,-1.857 3.106,-4.313 4.628,-6.397c1.744,-2.388 3.691,-4.869 4.637,-7.697c-2.906,0.153 -6.512,-0.385 -8.8,0.397m14.797,0.8c22.725,37.312 64.45,60.728 107.991,61.59c0.131,-0.068 0.262,-0.134 0.394,-0.203c0.003,-0.728 -2,-2.859 -2.35,-3.547c-1.025,-2.05 -2.713,-4.131 -4.088,-5.978c-3.459,-4.65 -7.237,-9.003 -11.103,-13.325c-7.634,-8.525 -17.744,-16.262 -27.681,-21.806c-19.488,-10.869 -40.966,-18.209 -63.563,-17.934c-0.018,0.553 0.191,0.878 0.4,1.203m213.172,-0.8c-22.565,1.381 -43.481,10.078 -62.262,22.178c-3.778,2.434 -6.957,5.965 -10.647,8.325c-4.238,2.709 -8.138,7.184 -11.46,10.909c-3.556,3.988 -7.271,8.063 -10.184,12.525c-1.247,1.913 -2.681,3.669 -3.834,5.653c-0.157,0.457 -2.41,3.197 -0.797,2.8c20.959,-0.612 41.234,-5.981 59.6,-16.118c19.372,-10.691 37.987,-26.829 48.381,-46.675c-2.903,0.159 -6.506,-0.379 -8.797,0.403m-445.137,2.4c-10.053,18.759 -15.485,39.75 -15.228,61.068c0.14,11.454 1.012,22.585 4.203,33.641c1.54,5.325 3.318,10.469 5.062,15.731c1.485,4.491 4.022,10.353 7.163,13.944c10.5,-20.022 16.431,-42.394 15.962,-65.069c-0.244,-12.122 -2.169,-24.2 -5.647,-35.815c-1.506,-5.05 -3.309,-10.016 -5.397,-14.857c-0.978,-2.268 -2.018,-4.509 -3.121,-6.721c-0.535,-1.066 -0.969,-2.175 -1.835,-2.891c-0.809,-0.681 -0.765,0.587 -1.162,0.969m245.165,61.59c-0.19,-12.009 -1.703,-24.018 -4.947,-35.597c-1.431,-5.106 -3.193,-10.121 -5.271,-15c-0.575,-1.343 -5.066,-12.431 -6.185,-12.193c-0.934,0.175 -2.259,3.928 -2.659,4.718c-1.075,2.097 -2.081,4.225 -3.038,6.382c-2.112,4.8 -3.912,9.74 -5.39,14.778c-3.213,10.969 -4.844,22.353 -5.225,33.772c-0.41,12.109 1.268,24.356 4.143,36.103c1.369,5.569 3.285,11.462 5.769,16.637c0.75,2.372 1.91,5.4 3.322,7.391c1.203,1.7 1.281,4.556 3.478,5.406c9.081,-17.056 15.635,-36.634 16.003,-62.397m210.775,-61.59c-21.675,37.215 -20.518,87.353 0.794,124.384c10.6,-18.984 16.95,-41.887 16.372,-63.725c-0.303,-11.616 -1.847,-23.216 -4.969,-34.422c-1.431,-5.147 -3.19,-10.197 -5.256,-15.119c-0.572,-1.35 -5.034,-12.55 -6.15,-12.318c-0.494,0.159 -0.809,0.515 -0.791,1.2m-465.54,13.597c-5.728,5.887 -11.282,11.668 -17.297,17.246c-6.328,5.869 -13.675,10.554 -21.144,14.838c-14.153,8.125 -29.925,13.1 -45.953,15.909c33.934,4.694 63.303,22.844 85.194,48.797c-6.266,-15.825 -9.36,-33.122 -9.194,-50.131c0.091,-9.009 1.084,-18.016 2.934,-26.831c0.81,-3.853 1.791,-7.672 2.953,-11.438c0.55,-1.762 1.138,-3.515 1.766,-5.25c0.178,-0.475 1.966,-4.522 1.134,-4.344c-0.015,0.513 -0.512,0.557 -0.393,1.204m20.397,-0.797c-0.072,1.256 1.04,2.993 1.471,4.25c0.588,1.731 1.141,3.468 1.657,5.218c1.193,3.979 2.209,8.013 3.05,12.085c1.759,8.522 2.722,17.2 2.987,25.9c0.503,16.722 -3.428,34.119 -9.165,49.734c-1.2,0.081 0.381,1.663 0,0c3.053,-3.012 5.909,-6.381 8.665,-9.656c2.325,-2.766 5.538,-4.65 7.728,-7.541c3.428,-2.103 6.078,-5.237 9.6,-7.2c2.916,-2.653 6.588,-4.268 9.6,-6.803c7.685,-4.106 15.691,-8.444 23.975,-11.194c8.244,-2.734 16.732,-4.65 25.219,-6.403c-38.553,-5.843 -64.481,-24.309 -84.787,-48.39c-0.25,-0.585 -0.482,0.037 0,0m207.971,0c-0.587,0 -1.925,2.393 -2.465,2.981c-1.385,1.497 -2.753,3.003 -4.131,4.497c-2.76,2.99 -5.591,5.931 -8.694,8.569c-6.625,5.625 -13.297,11.203 -21.103,15.146c-2.741,2.457 -6.391,3.529 -9.491,5.413c-3.425,2.078 -7.619,3.4 -11.334,4.916c-8.66,3.525 -18.047,5.365 -27.166,7.268c17.409,2.747 34.303,8.513 49.378,17.713c6.831,4.172 13.25,8.997 19.219,14.328c2.947,2.637 5.787,5.387 8.525,8.247c1.369,1.428 2.706,2.884 4.025,4.359c0.453,0.51 2.931,4.038 3.459,3.994c0.113,-0.163 0.044,-0.244 -0.218,-0.25c-1.997,-6.844 -4.413,-13.663 -5.885,-20.728c-1.775,-8.525 -2.74,-17.222 -2.912,-25.931c-0.166,-8.566 0.447,-17.154 1.922,-25.591c0.756,-4.306 1.796,-8.538 3.034,-12.728c0.603,-2.047 1.25,-4.085 1.903,-6.119c0.481,-1.516 2.3,-4.897 2.184,-6.303c-0.165,-0.116 -0.243,-0.044 -0.25,0.219m20,0c-0.084,1.356 1.129,3.29 1.582,4.659c0.647,1.997 1.25,4.009 1.815,6.031c1.182,4.257 2.178,8.563 3,12.903c1.6,8.441 2.403,17.007 2.403,25.597c0,16.763 -4.215,32.1 -8.796,47.994c-0.588,0.247 0.037,0.481 0,0c11.218,-12.975 23.59,-24.381 38.668,-32.7c6.688,-3.687 13.641,-7.225 20.894,-9.703c8.216,-2.809 16.747,-4.591 25.225,-6.388c-38.575,-5.828 -64.519,-24.275 -84.791,-48.393c-0.246,-0.585 -0.484,0.037 0,0m207.975,0c-0.875,0 -2.162,2.387 -2.715,3.05c-1.275,1.528 -2.581,3.015 -3.935,4.475c-2.696,2.912 -5.531,5.684 -8.487,8.331c-6.284,5.609 -13.097,10.609 -20.225,15.097c-15.128,9.522 -32.194,14.044 -49.428,17.84c16.362,2.279 32.084,7.688 46.4,15.944c7.487,4.322 14.559,9.116 21.065,14.831c3.435,3.019 6.76,5.991 9.847,9.372c0.828,0.9 7.682,8.982 7.65,8.991c0.235,-0.091 -2.34,-7.009 -2.672,-8.072c-1.262,-4.016 -2.353,-8.081 -3.265,-12.191c-2.003,-9.037 -3.106,-18.256 -3.403,-27.503c-0.285,-9.156 0.987,-18.597 2.772,-27.559c0.818,-4.109 1.818,-8.184 2.981,-12.206c0.515,-1.766 1.062,-3.525 1.634,-5.272c0.403,-1.225 2.122,-4.241 2.025,-5.341c-0.162,-0.122 -0.244,-0.05 -0.244,0.213m19.997,0.797c6.332,15.087 8.744,32.103 8.788,48.371c0.031,8.863 -0.744,17.785 -2.791,26.422c-0.619,4.15 -1.7,8.507 -3.169,12.432c-0.625,1.671 -1.365,3.54 -1.681,5.234c-0.228,1.206 -1.856,3.1 -1.147,4.331c4.538,-6.428 10.325,-11.8 16,-17.2c6.666,-5.384 13.475,-9.962 20.594,-14.678c14.366,-9.516 31.503,-13.991 48.194,-17.319c-38.838,-5.822 -64.85,-24.475 -85.188,-48.793c-0.018,0.553 0.185,0.878 0.4,1.2m-576.731,50.393c11.2,17.891 27.091,34.669 45.903,44.588c9.688,5.1 19.525,9.865 30.172,12.631c10.569,2.741 21.388,4.428 32.313,4.775c-9.86,-18.728 -27.538,-35.381 -45.91,-45.622c-19.422,-10.815 -40.581,-17.019 -62.881,-17.572c-0.013,0.553 0.191,0.878 0.403,1.2m215.975,-0.803c-21.028,1.294 -41.012,7.706 -58.981,18.663c-9.669,5.897 -18.156,13.003 -26.21,20.934c-4.196,4.513 -8.24,9.166 -11.781,14.219c-1.431,2.044 -2.956,4.015 -4.219,6.178c-0.162,0.456 -2.409,3.203 -0.8,2.8c43.707,-2.075 86.341,-24.441 108.388,-63.194c-2.184,0.091 -4.806,-0.272 -6.397,0.4m11.997,0.803c23.084,37.878 64.094,60.122 107.987,61.994c1.188,-1.037 -5.3,-8.825 -5.962,-9.806c-3.45,-5.128 -7.719,-9.778 -12.034,-14.191c-7.794,-8.934 -18.06,-15.781 -28.169,-21.775c-8.856,-5.247 -18.335,-9.406 -28.225,-12.269c-5.453,-1.581 -11.016,-2.778 -16.631,-3.618c-2.8,-0.422 -5.619,-0.753 -8.444,-1.007c-1.869,-0.162 -7.706,-1.503 -9.235,-0.45c-0.337,0.229 0.585,0.863 0.713,1.122m215.975,-0.803c-41.116,1.506 -82.744,26.791 -102.791,62.794c44.482,-1.569 86.244,-24.597 109.188,-63.194c-2.178,0.091 -4.81,-0.272 -6.397,0.4m12,0.803c1.784,4.391 5.522,7.741 7.875,11.778c2.887,4.96 8.181,9.404 12.294,13.416c8.228,8.034 17.393,14.622 27.381,20.291c18.481,10.49 39.278,15.65 60.437,16.509c0.91,-0.8 -5.3,-8.909 -6.003,-9.766c-3.937,-4.843 -7.797,-9.596 -11.99,-14.231c-8.591,-8.44 -17.807,-15.659 -28.191,-21.753c-8.872,-5.216 -18.347,-9.387 -28.228,-12.269c-5.441,-1.587 -11.003,-2.793 -16.603,-3.64c-1.769,-0.266 -17.891,-1.691 -17.766,-1.135c0.519,0.003 0.353,0.7 0.794,0.8m215.569,-0.803c-40.841,1.622 -82.647,26.822 -102.385,62.794c10.919,-0.353 21.735,-2.05 32.303,-4.781c11.235,-2.907 21.663,-7.953 31.782,-13.522c9.387,-5.169 18.725,-12.538 25.9,-20.494c1.743,-1.334 3.24,-2.953 4.556,-4.7c1.541,-2.059 3.569,-3.644 4.9,-5.894c2.834,-4.784 6.772,-8.715 9.337,-13.803c-2.175,0.091 -4.8,-0.272 -6.393,0.4m-675.113,2.403c-3.337,4.219 -5.437,10.188 -7.269,15.197c-2.015,5.519 -3.753,11.1 -5.165,16.803c-2.541,10.238 -3.347,20.944 -3.219,31.469c0.119,10.319 1.109,20.85 4.044,30.778c1.619,5.469 3.459,10.778 5.247,16.194c0.725,2.197 1.825,4.722 3.009,6.725c1.369,2.337 1.925,5.462 4.156,7.222c10.619,-19.431 16.213,-41.569 15.991,-63.716c-0.116,-11.653 -1.728,-23.297 -4.847,-34.528c-1.406,-5.075 -3.125,-10.066 -5.169,-14.919c-0.581,-1.365 -5.156,-12.687 -6.378,-12.428c-0.022,0.513 -0.515,0.56 -0.4,1.203m227.569,0c-10.072,18.882 -15.153,39.7 -15.575,61.066c-0.441,22.012 6.019,43.875 15.975,63.322c1.4,-0.366 2.872,-3.791 3.328,-5.072c0.8,-2.272 2.078,-4.488 3.034,-6.738c2.407,-5.675 4.741,-11.634 6.194,-17.631c2.966,-12.24 4.585,-24.803 4.153,-37.409c-0.381,-11.288 -2.134,-22.516 -5.397,-33.331c-1.503,-4.982 -3.321,-9.869 -5.387,-14.644c-0.591,-1.36 -4.331,-11.016 -5.531,-10.766c-0.091,0.575 -0.653,0.678 -0.794,1.203m227.978,0c-10.062,18.569 -15.169,39.069 -15.575,60.166c-0.228,12.112 1.597,24.169 4.494,35.903c1.394,5.628 3.669,11.331 5.925,16.672c1.028,2.422 2.172,4.759 3.322,7.075c0.559,1.122 1.509,4.328 3.034,4.572c10.184,-19.894 16.553,-42.147 15.95,-64.65c-0.325,-11.881 -2.066,-23.71 -5.437,-35.11c-1.5,-5.062 -3.307,-10.034 -5.379,-14.896c-0.662,-1.557 -4.121,-11.319 -5.934,-10.935c0.013,0.553 -0.194,0.881 -0.4,1.203m227.969,0c-10.95,18.694 -15.8,41.45 -15.619,62.969c0.091,11.019 1.431,22.131 4.494,32.731c1.522,5.275 2.965,10.6 5.525,15.491c0.494,2.444 1.784,4.55 2.8,6.794c1.287,2.062 1.769,4.7 3.594,6.403c11.025,-19.222 16.2,-41.644 15.996,-63.722c-0.109,-11.684 -1.643,-23.384 -4.74,-34.656c-1.391,-5.072 -3.103,-10.053 -5.169,-14.885c-0.587,-1.375 -5.216,-12.593 -6.484,-12.325c0.018,0.55 -0.188,0.878 -0.397,1.2m-673.119,12.797c5.106,16.425 9.556,32.756 9.178,50.156c-0.353,16.291 -3.753,32.11 -9.178,47.432c-0.584,0.243 0.041,0.484 0,0c10.744,-13.163 23.991,-24.919 38.944,-33.088c8.147,-4.45 16.584,-8.109 25.415,-10.937c4.341,-1.391 8.969,-2.028 13.232,-3.566c0.859,0.163 6.587,-0.637 6.397,-1.603c-33,-3.613 -63.204,-23.222 -83.988,-48.394c-0.247,-0.581 -0.481,0.041 0,0m227.969,0c2.562,7.806 5.025,15.66 6.678,23.719c1.659,8.069 2.087,16.328 2.172,24.544c0.084,8.647 -0.678,17.053 -2.231,25.565c-1.488,8.138 -4.204,15.875 -6.619,23.763c-0.585,0.244 0.044,0.484 0,0c19.928,-24.338 46.369,-42.156 83.994,-48.794c-37.697,-6.566 -64.054,-24.475 -83.994,-48.797c-0.244,-0.581 -0.481,0.041 0,0m207.975,0c-0.613,0 -2.141,2.619 -2.738,3.263c-1.368,1.478 -2.637,3.028 -4.037,4.484c-3.381,3.538 -6.838,7.088 -10.563,10.256c-6.697,5.697 -13.906,10.822 -21.578,15.113c-8.084,4.519 -16.565,8.194 -25.403,10.95c-1.85,0.578 -19.744,4.394 -19.669,5.128c16.285,2.2 31.807,7.731 46.016,15.95c7.259,4.203 14.153,8.881 20.5,14.384c3.322,2.875 6.484,5.919 9.519,9.097c1.375,1.441 2.725,2.913 4.056,4.406c0.531,0.6 3.5,4.854 4.119,4.804c-0.653,0.056 -3.053,-9.097 -3.366,-10.182c-1.256,-4.272 -2.372,-8.581 -3.244,-12.947c-1.753,-8.746 -2.637,-17.525 -2.525,-26.446c0.097,-8.038 0.75,-16.075 2.191,-23.985c0.728,-4.028 1.675,-8.009 2.834,-11.931c0.607,-2.066 1.266,-4.125 1.928,-6.172c0.494,-1.534 2.335,-4.953 2.21,-6.394c-0.163,-0.112 -0.25,-0.037 -0.25,0.222m227.975,0c-0.61,0 -1.841,2.366 -2.381,2.963c-1.322,1.462 -2.66,2.918 -4.016,4.347c-2.978,3.143 -6.056,6.203 -9.272,9.115c-6.559,5.941 -13.666,10.816 -21.262,15.322c-14.479,8.594 -30.366,14.356 -47.063,16.647c-0.059,1.144 5.909,1.753 6.797,1.603c4.231,1.3 8.581,2.188 12.812,3.488c8.55,2.628 17.013,6.346 24.844,10.693c7.288,4.047 14.219,8.875 20.638,14.194c3.4,2.816 6.762,5.884 9.828,9.075c1.712,1.781 3.356,3.638 4.99,5.491c0.563,0.643 3.591,4.959 4.304,4.9c-1.5,0.125 -5.7,-18.547 -6.16,-20.597c-1.997,-9.022 -3.094,-18.231 -3.244,-27.475c-0.153,-9.144 0.966,-18.406 2.804,-27.344c0.84,-4.066 1.853,-8.087 3.018,-12.069c0.516,-1.756 1.06,-3.497 1.622,-5.234c0.403,-1.234 2.081,-4.219 1.994,-5.338c-0.169,-0.115 -0.253,-0.04 -0.253,0.219m-455.944,0.397c-0.866,0 -2.162,2.375 -2.722,3.028c-1.531,1.81 -3.106,3.575 -4.734,5.297c-2.981,3.153 -6.113,6.163 -9.391,9c-6.99,6.047 -14.637,11.122 -22.665,15.678c-7.719,4.385 -16.11,8.166 -24.607,10.728c-4.103,1.238 -8.278,2.16 -12.434,3.178c-0.956,0.232 -7.55,0.857 -7.441,1.891c16.703,1.931 31.838,8.45 46.619,16.088c3.863,2.003 7.447,4.715 11.066,7.15c3.284,2.209 5.993,5.262 9.272,7.39c3.625,2.36 6.637,6.194 9.631,9.328c0.806,0.844 7.762,8.7 7.581,8.775c0.456,-0.184 0.297,-0.706 -0.178,-0.74c-2.003,-6.944 -4.469,-13.841 -5.944,-21.01c-1.794,-8.69 -2.759,-17.559 -2.847,-26.431c-0.093,-8.844 0.782,-17.681 2.469,-26.356c1.541,-7.866 4.213,-15.328 6.325,-22.994c0.581,-0.241 -0.044,-0.481 0,0m247.969,0c-0.075,1.297 1.106,3.097 1.544,4.394c0.631,1.834 1.215,3.69 1.759,5.55c1.134,3.919 2.087,7.884 2.859,11.887c1.669,8.566 2.55,17.288 2.632,26.013c0.081,8.734 -0.8,17.453 -2.482,26.025c-1.543,7.831 -4.187,15.287 -6.312,22.922c-1.197,0.078 0.381,1.659 0,0c5.925,-6.369 11.622,-12.778 18.269,-18.422c6.246,-5.3 13.046,-9.981 20.159,-14.044c14.072,-8.031 29.641,-13.131 45.562,-15.931c-17.018,-2.856 -33.606,-8.647 -48.393,-17.597c-6.932,-4.197 -14.103,-8.991 -19.803,-14.597c-2.257,-2.216 -7.154,-4.809 -8.222,-7.812c-0.588,-1.641 -2.447,-2.354 -3.572,-3.591c-1.441,-1.578 -2.319,-3.35 -4,-4.797c-0.244,-0.575 -0.488,0.041 0,0m-480.338,13.603c-1.506,0 -5.034,10.738 -5.75,12.456c-2.084,4.972 -4.103,9.982 -6.025,15.022c-3.803,9.969 -7.231,20.082 -10.122,30.35c-5.631,20.007 -9.918,40.497 -12.309,61.147c-5,43.156 -3.287,86.856 5.734,129.378c3.179,14.985 7.225,29.8 12.132,44.31c1.209,3.575 15.418,41.284 16.522,40.831c-0.288,0.116 -3.966,-23.122 -4.15,-25.581c-0.769,-10.094 -0.641,-20.372 1.165,-30.35c1.485,-10.057 4.247,-19.857 8.041,-29.275c1.687,-4.191 3.562,-8.303 5.559,-12.353c0.491,-0.991 0.991,-1.994 1.494,-2.982c0.709,-1.387 0.122,-1.647 -0.581,-2.95c-1.313,-2.415 -2.528,-4.884 -3.669,-7.387c-9.053,-19.863 -13.594,-41.594 -12.269,-63.413c0.641,-10.484 2.5,-20.812 5.381,-30.912c1.416,-4.944 3.241,-9.763 5.3,-14.475c0.994,-2.278 2.044,-4.528 3.113,-6.775c0.944,-1.972 3.747,-5.7 2.694,-7.641c-8.413,-15.54 -13.897,-32.49 -15.928,-50.065c-1.032,-8.929 -0.925,-17.982 -0.104,-26.925c0.21,-2.266 3.75,-23.232 3.95,-23.15c-0.34,0.075 -0.403,0.321 -0.178,0.74m712.707,0c0,4.035 1.878,8.478 2.55,12.506c0.831,4.985 1.35,10.022 1.612,15.069c0.531,9.91 0.156,19.956 -1.587,29.735c-1.838,10.237 -4.894,20.209 -8.922,29.79c-1.813,4.3 -3.8,8.513 -5.925,12.669c-0.878,1.722 1.003,3.784 1.859,5.459c1.116,2.178 2.169,4.391 3.166,6.632c8.172,18.462 12.209,38.771 11.587,58.962c-0.665,21.491 -7.175,41.359 -16.615,60.506c-1.144,2.319 3.334,8.51 4.475,10.978c1.756,3.816 3.343,7.71 4.74,11.672c3.019,8.572 4.86,17.369 6.269,26.338c2.719,17.259 0.987,35.55 -3.203,52.437c-1.197,0.088 0.384,1.663 0,0c36.556,-76.265 45.794,-164.737 28.712,-247.331c-2.918,-14.116 -6.481,-28.175 -11.243,-41.794c-5.122,-14.65 -10.066,-29.94 -17.475,-43.628c0.384,-1.662 -1.197,-0.084 0,0m-595.925,36.794c-19.797,1.625 -38.607,7.887 -55.616,18.087c-8.934,5.35 -17.403,11.819 -24.666,19.304c-7.034,7.237 -15.315,15.559 -19.312,25.003c21.95,-0.532 42.912,-6.441 62.062,-17.107c10.397,-5.793 19.785,-13.443 28.328,-21.687c3.919,-4.366 7.716,-8.763 11.257,-13.428c0.597,-0.785 7.422,-10.194 7.05,-10.491c-0.232,-0.025 -0.469,-0.053 -0.703,-0.075c-2.779,0.144 -6.235,-0.372 -8.4,0.394m15.196,0.8c4.632,9.866 13.232,18.816 21.094,26.209c8.094,7.616 17.138,14.322 26.935,19.572c18.468,9.888 38.6,15.325 59.562,15.816c0.841,-0.744 -4.678,-8.06 -5.306,-8.922c-3.363,-4.631 -7.091,-8.988 -10.969,-13.2c-7.822,-8.509 -17.466,-16.713 -27.587,-22.338c-10.047,-5.575 -20.047,-10.481 -31.185,-13.528c-10.906,-2.987 -21.99,-4.965 -33.344,-4.806c-0.018,0.688 0.307,1.022 0.8,1.197m212.379,-0.8c-20.491,1.847 -40.104,8.359 -57.422,19.503c-9.138,5.881 -18.672,12.653 -25.741,21.025c-3.297,3.897 -6.772,7.656 -9.762,11.788c-0.575,0.793 -6.975,9.675 -6.575,9.996c0.24,0.025 0.478,0.057 0.712,0.079c20.934,-0.644 41.322,-5.86 59.638,-16.085c9.909,-5.528 18.715,-12.2 27.14,-19.772c8.219,-7.387 16.263,-17.012 21.21,-26.934c-3.035,0.166 -6.794,-0.391 -9.2,0.4m15.193,0.8c22.925,37.431 64.3,60.544 107.991,61.594c0.131,-0.069 0.262,-0.135 0.394,-0.2c0.003,-0.313 -1.675,-2.557 -2,-2.6c-0.5,-2.041 -2.575,-4.347 -3.785,-6.038c-3.347,-4.665 -7.056,-9.006 -10.897,-13.269c-7.64,-8.471 -17.531,-16.765 -27.5,-22.325c-19.79,-11.037 -41.678,-18.715 -64.603,-18.362c-0.018,0.55 0.191,0.878 0.4,1.2m212.778,-0.8c-11.012,0.725 -21.646,3.469 -32.106,6.847c-4.731,1.525 -9.794,3.69 -14.112,6.162c-2.516,1.444 -5.166,2.635 -7.682,4.082c-2.431,1.406 -4.615,3.256 -7.071,4.562c-3.972,2.109 -6.957,6.091 -11.019,7.944c-4.188,4.284 -8.81,8.137 -12.744,12.656c-3.281,3.775 -6.697,7.506 -9.425,11.688c-1.25,1.909 -2.678,3.671 -3.834,5.653c-0.157,0.456 -2.41,3.197 -0.797,2.8c21.659,-0.628 42.506,-6.369 61.337,-17.091c4.753,-2.706 9.332,-5.653 13.675,-8.981c4.763,-3.647 8.925,-7.928 13.625,-11.616c1.632,-1.275 3.041,-3.344 4.585,-4.872c1.672,-1.656 3.325,-3.69 4.753,-5.562c3.597,-4.716 7.247,-9.375 10.009,-14.672c-3.028,0.166 -6.787,-0.391 -9.194,0.4m15.194,0.8c22.847,37.509 64.319,60.494 107.985,61.594c-10.429,-20.266 -29.51,-36.266 -49.113,-47.172c-8.687,-4.831 -17.897,-8.691 -27.491,-11.294c-5.118,-1.391 -10.331,-2.428 -15.59,-3.134c-1.656,-0.225 -16.719,-1.378 -16.588,-0.791c0.447,0.081 0.622,0.441 0.797,0.797m-459.54,1.203c-5.825,8.588 -8.904,19.219 -11.497,29.109c-2.885,10.994 -4.385,22.319 -4.5,33.682c0.403,10.822 1.843,21.575 4.262,32.128c1.197,5.206 3.203,10.578 5.247,15.522c1.981,4.797 3.95,10.303 7.291,14.343c10.053,-20.537 16.231,-41.571 15.962,-64.603c-0.131,-11.615 -1.678,-23.165 -4.94,-34.315c-1.475,-5.035 -3.257,-9.972 -5.307,-14.797c-0.559,-1.303 -5.04,-12.5 -6.118,-12.269c-0.022,0.509 -0.516,0.55 -0.4,1.2m455.543,0c-21.312,37.553 -20.803,87.522 0.794,124.784c10.588,-19.115 17.084,-42.156 16.366,-64.118c-0.382,-11.653 -1.928,-23.294 -5.072,-34.528c-1.447,-5.154 -3.222,-10.216 -5.347,-15.132c-0.591,-1.359 -5.178,-12.459 -6.341,-12.209c0.016,0.55 -0.19,0.878 -0.4,1.203m-225.568,121.581c1.215,-1.331 1.865,-3.387 2.671,-4.978c1.197,-2.334 2.138,-4.878 3.097,-7.312c2.135,-5.385 4.047,-11.013 5.338,-16.657c2.647,-11.587 4.075,-23.634 3.534,-35.528c-0.497,-11.053 -2.19,-22.065 -5.356,-32.678c-1.413,-4.74 -3.116,-9.394 -5.094,-13.928c-0.544,-1.256 -4.762,-11.528 -5.797,-11.306c-0.928,0.172 -2.256,3.909 -2.656,4.687c-1.069,2.085 -2.078,4.203 -3.025,6.341c-2.109,4.775 -3.903,9.687 -5.375,14.694c-3.322,11.309 -4.956,23.072 -5.291,34.847c-0.628,22.462 5.46,44.862 15.95,64.612c1.26,-0.334 1.657,-1.534 2.004,-2.794m-255.575,-91.587c-9.754,7.962 -19.96,15.131 -31.388,20.534c-11.831,5.585 -24.556,9.106 -37.406,11.463c38.84,5.818 64.809,24.518 85.194,48.793c-6.235,-15.834 -9.36,-33.118 -9.194,-50.131c0.09,-9.009 1.084,-18.015 2.934,-26.831c0.81,-3.853 1.785,-7.675 2.953,-11.438c0.547,-1.765 1.138,-3.515 1.766,-5.253c0.178,-0.475 1.966,-4.518 1.134,-4.34c-4.54,6.525 -10.334,11.793 -15.993,17.203m36,-16.797c11.787,31.45 11.828,65.737 0,97.184c-0.585,0.247 0.037,0.485 0,0c2.856,-2.759 5.14,-6.04 7.996,-8.797c2.135,-2.943 5.291,-4.887 7.704,-7.568c5.206,-5.791 12.853,-9.41 18.99,-14.094c6.672,-5.094 15.928,-8.472 23.703,-11.534c8.566,-3.054 17.513,-4.913 26.397,-6.797c-16.009,-2.194 -31.44,-7.363 -45.472,-15.385c-7.44,-4.256 -14.625,-8.897 -21.081,-14.556c-6.591,-5.778 -12.272,-12.059 -18.237,-18.453c-0.25,-0.581 -0.482,0.041 0,0m207.971,0c-0.596,0 -2.018,2.519 -2.568,3.119c-1.478,1.597 -2.96,3.181 -4.463,4.756c-3.3,3.459 -6.669,6.856 -10.162,10.122c-6.763,4.759 -12.953,10.056 -20.172,14.153c-14.678,8.331 -30.819,13.762 -47.425,16.644c17.35,2.622 34.194,8.265 49.24,17.353c6.81,4.106 13.207,8.875 19.157,14.134c2.94,2.606 5.775,5.328 8.506,8.147c1.362,1.416 2.7,2.85 4.012,4.309c0.541,0.597 3.466,4.75 4.097,4.694c0.113,-0.159 0.044,-0.244 -0.218,-0.247c-2.147,-7.353 -4.7,-14.662 -6.197,-22.268c-1.716,-8.729 -2.597,-17.629 -2.597,-26.522c0,-8.675 0.9,-17.347 2.584,-25.857c1.516,-7.706 4.138,-15.028 6.206,-22.537c0.579,-0.247 -0.037,-0.488 0,0m20,0c-0.081,1.353 1.129,3.291 1.582,4.659c0.647,1.997 1.25,4.007 1.815,6.035c1.182,4.253 2.178,8.562 3,12.9c1.6,8.44 2.403,17.009 2.403,25.603c0,16.756 -4.215,32.103 -8.796,47.987c-0.588,0.247 0.037,0.485 0,0c10.028,-12.297 22.168,-22.75 35.596,-31.19c7.722,-4.172 15.644,-8.347 23.966,-11.213c8.209,-2.825 16.741,-4.615 25.225,-6.387c-38.575,-5.825 -64.519,-24.278 -84.791,-48.394c-0.246,-0.581 -0.484,0.041 0,0m207.975,0c-1.612,0 -6.006,6.75 -7.293,8.137c-2.678,2.882 -5.51,5.632 -8.453,8.238c-5.975,5.281 -12.438,9.987 -19.216,14.187c-15.45,9.569 -32.191,14.535 -49.825,18.232c16.369,2.259 32.112,7.628 46.406,15.931c7.485,4.353 14.55,9.112 21.06,14.841c3.112,2.737 6.181,5.415 9.018,8.456c1.407,1.506 2.782,3.047 4.157,4.578c0.578,0.653 3.631,4.897 4.362,4.834c-1.622,0.135 -5.741,-18.431 -6.191,-20.506c-1.925,-8.931 -2.956,-18.05 -3.19,-27.181c-0.238,-9.103 0.975,-18.447 2.756,-27.363c0.816,-4.078 1.809,-8.115 2.981,-12.103c0.516,-1.753 1.06,-3.49 1.638,-5.222c0.4,-1.2 2.137,-4.2 2.04,-5.278c-0.168,-0.112 -0.25,-0.044 -0.25,0.219m19.997,0.8c6.341,15.078 8.747,32.103 8.788,48.372c0.025,8.862 -0.744,17.781 -2.791,26.415c-0.619,4.15 -1.7,8.51 -3.169,12.435c-0.625,1.672 -1.365,3.54 -1.681,5.234c-0.228,1.213 -1.856,3.097 -1.147,4.335c9.6,-13.772 23.538,-23.485 37.353,-32.491c13.991,-9.119 31.2,-13.713 47.435,-16.703c-38.788,-5.878 -64.847,-24.481 -85.188,-48.797c-0.018,0.55 0.185,0.878 0.4,1.2m-576.731,50.394c22.956,37.187 64.234,61.078 107.991,61.59c0.128,-0.065 0.262,-0.134 0.397,-0.197c0.003,-0.809 -2.035,-2.737 -2.375,-3.521c-0.91,-2.091 -2.691,-4.163 -4.066,-6.004c-3.466,-4.662 -7.256,-8.971 -11.116,-13.315c-7.543,-8.51 -17.668,-15.916 -27.393,-21.681c-19.257,-11.416 -41.472,-17.588 -63.844,-18.075c-0.01,0.553 0.194,0.878 0.406,1.203m215.572,-0.8c-20.009,1.253 -39.031,7.287 -56.375,17.272c-18.413,10.609 -35.194,26.509 -45.613,45.118c22.125,0.163 43.129,-6.75 62.369,-17.047c4.613,-2.468 9.41,-5.675 13.431,-9.046c3.972,-3.325 8.16,-6.313 11.766,-10.097c7.928,-8.319 15.488,-16.513 21.225,-26.603c-2.303,0.106 -5.097,-0.297 -6.803,0.403m12.4,0.8c22.766,37.365 64.303,61 107.987,61.59c-4.978,-10.481 -13.615,-19.653 -21.956,-27.565c-8.044,-7.638 -17.231,-14.347 -27.019,-19.56c-8.656,-4.615 -17.746,-8.397 -27.203,-11.015c-5.187,-1.444 -10.475,-2.541 -15.809,-3.303c-2.856,-0.413 -5.725,-0.725 -8.606,-0.95c-1.653,-0.132 -6.753,-1.26 -8.107,-0.322c-0.337,0.237 0.585,0.865 0.713,1.125m215.572,-0.8c-19.975,1.306 -39.128,7.153 -56.413,17.237c-9.543,5.572 -17.987,12.385 -26.109,19.844c-7.519,6.903 -14.944,16.144 -19.466,25.312c44.185,0.322 86.307,-25.453 108.791,-62.793c-2.3,0.103 -5.1,-0.3 -6.803,0.4m12.403,0.8c11.05,18.347 26.406,32.39 44.428,43.693c9.013,5.65 18.663,9.707 28.803,12.613c11.275,3.231 22.963,5.644 34.753,5.281c-10.493,-19.537 -29.159,-36.553 -48.606,-46.847c-10.047,-5.318 -20.375,-9.597 -31.434,-12.24c-5.453,-1.3 -10.96,-2.347 -16.532,-2.978c-3.018,-0.341 -6.056,-0.566 -9.09,-0.666c-0.613,-0.022 -2.506,-0.353 -3.044,0.019c-0.228,0.165 0.5,1.075 0.722,1.125m215.569,-0.8c-20.782,0.715 -41.278,8.053 -58.975,18.609c-9.447,5.641 -17.941,12.928 -25.813,20.584c-3.619,4.263 -7.719,8.282 -10.834,12.938c-0.656,0.975 -7.185,9.772 -6.681,10.187c0.243,0.025 0.478,0.05 0.715,0.072c21.028,-0.381 41.338,-5.715 59.656,-16.065c19.213,-10.847 38.188,-26.707 48.329,-46.728c-2.179,0.084 -4.804,-0.272 -6.397,0.403m-675.516,2.397c-10.197,19.768 -15.959,41.387 -15.425,63.709c0.272,11.153 1.831,22.372 5.022,33.081c0.934,5.144 3.297,9.825 4.8,14.797c2.494,4.113 3.431,9.234 6.803,12.8c10.725,-19.741 16.4,-42.15 15.972,-64.634c-0.228,-11.947 -2.009,-23.878 -5.347,-35.357c-1.447,-4.987 -3.194,-9.884 -5.25,-14.65c-0.594,-1.381 -4.494,-11.221 -5.781,-10.95c-0.091,0.575 -0.65,0.679 -0.794,1.204m227.972,0c-9.934,18.59 -15.028,39.087 -15.556,60.134c-0.294,11.659 1.643,23.447 4.228,34.784c1.281,5.619 3.54,11.335 5.728,16.669c1.222,2.044 1.616,4.569 3.197,6.4c0.95,2.203 1.628,4.847 3.6,6.4c10.297,-19.072 15.878,-40.722 16,-62.394c0.062,-11.881 -1.575,-23.762 -4.744,-35.209c-1.441,-5.197 -3.197,-10.297 -5.275,-15.272c-0.575,-1.372 -5.187,-12.966 -6.384,-12.716c-0.553,0.11 -0.45,0.885 -0.794,1.204m227.978,0c-21.041,37.378 -21.087,87.35 0.794,124.387c11.009,-19.359 16.922,-42.356 16.356,-64.65c-0.303,-11.887 -2.05,-23.716 -5.431,-35.119c-1.5,-5.059 -3.316,-10.025 -5.388,-14.884c-0.662,-1.553 -4.125,-11.316 -5.934,-10.934c0.016,0.553 -0.191,0.881 -0.397,1.2m227.969,0c-10.95,18.693 -15.8,41.45 -15.619,62.968c0.091,11.016 1.431,22.128 4.494,32.732c1.515,5.24 2.925,10.653 5.525,15.487c0.494,2.444 1.784,4.55 2.8,6.8c1.287,2.059 1.769,4.697 3.594,6.4c11.109,-19.55 16.39,-42.222 15.978,-64.647c-0.222,-11.981 -1.907,-23.962 -5.228,-35.481c-1.438,-4.981 -3.182,-9.869 -5.26,-14.616c-0.615,-1.393 -4.531,-11.134 -5.89,-10.85c-0.019,0.519 -0.507,0.563 -0.394,1.207m-673.119,12.8c-0.078,1.243 1.022,2.984 1.444,4.24c0.575,1.713 1.122,3.438 1.64,5.16c1.182,3.928 2.21,7.903 3.063,11.915c1.8,8.41 2.797,16.991 3.006,25.591c0.431,17.259 -3.425,34.487 -9.156,50.678c-0.584,0.247 0.041,0.481 0,0c10.844,-13.175 23.934,-24.847 38.931,-33.1c8.131,-4.481 16.603,-8.103 25.428,-10.925c4.375,-1.4 8.807,-2.366 13.232,-3.569c0.859,0.119 6.587,-0.634 6.396,-1.606c-33.203,-4.431 -62.778,-22.847 -83.984,-48.384c-0.247,-0.582 -0.481,0.04 0,0m207.975,0.403c-1.609,0 -5.669,6.184 -6.909,7.525c-2.703,2.912 -5.532,5.712 -8.478,8.378c-5.96,5.394 -12.425,10.228 -19.288,14.406c-15.084,9.181 -31.969,15.013 -49.316,18.081c15.735,2.622 30.872,7.9 44.91,15.444c7.575,4.075 14.165,9.422 20.962,14.631c3.588,2.753 6.688,5.975 9.813,9.263c0.897,0.95 8.587,9.756 8.484,9.8c0.456,-0.188 0.297,-0.713 -0.178,-0.741c-1.978,-6.95 -4.462,-13.844 -5.944,-21.009c-1.793,-8.691 -2.759,-17.563 -2.847,-26.431c-0.093,-8.844 0.782,-17.682 2.469,-26.357c1.538,-7.865 4.191,-15.34 6.322,-22.99c1.197,-0.085 -0.378,-1.663 0,0m19.994,-0.403c5.528,15.959 9.131,32.371 8.919,49.321c-0.097,8.035 -0.757,16.079 -2.191,23.988c-1.509,8.312 -4.256,16.219 -6.725,24.281c-0.584,0.247 0.044,0.481 0,0c2.859,-3.184 5.834,-6.375 8.6,-9.597c1.837,-2.14 4.519,-5.481 6.987,-6.868c1.6,-0.9 2.782,-2.432 4.222,-3.641c1.841,-1.544 3.813,-2.925 5.791,-4.291c2.934,-2.665 7.094,-5.587 10.656,-7.265c7.428,-3.482 14.51,-8.347 22.45,-10.647c8.363,-2.425 16.56,-5.31 25.291,-6.081c0.053,-1.075 -4.891,-1.522 -5.763,-1.641c-4.284,-0.578 -8.634,-1.816 -12.784,-3.169c-8.8,-2.872 -17.247,-6.228 -25.397,-10.656c-15.478,-8.4 -28.937,-20.134 -40.056,-33.734c-0.244,-0.582 -0.481,0.04 0,0m207.975,0c-1.075,0 -5.413,6.321 -6.435,7.409c-2.89,3.075 -5.906,6.222 -9.078,9.037c-6.543,5.8 -13.997,11.741 -21.781,15.707c-14.731,7.509 -29.909,14.765 -46.694,16.237c-0.056,1.103 5.932,1.769 6.8,1.606c4.125,1.397 8.4,2.085 12.55,3.482c9.125,3.065 17.669,6.668 26.157,11.278c4.231,2.3 8.15,5.006 12.175,7.684c3.128,2.078 6.709,4.738 9.231,7.538c2.356,2.606 5.425,4.947 7.959,7.531c1.675,1.7 3.328,3.347 4.922,5.162c0.566,0.638 3.759,5.219 4.416,5.16c-1.478,0.122 -5.707,-18.835 -6.16,-20.919c-1.984,-9.025 -3.034,-18.112 -2.99,-27.353c0.047,-8.469 0.687,-16.947 2.206,-25.284c0.728,-4.029 1.675,-8.01 2.834,-11.932c0.61,-2.065 1.266,-4.118 1.928,-6.168c0.494,-1.535 2.335,-4.963 2.21,-6.394c-0.16,-0.113 -0.25,-0.041 -0.25,0.219m20,0.403c-0.075,1.29 1.106,3.087 1.553,4.381c0.631,1.837 1.222,3.687 1.762,5.55c1.138,3.909 2.085,7.878 2.86,11.881c1.662,8.569 2.537,17.294 2.615,26.022c0.082,8.734 -0.8,17.456 -2.481,26.022c-1.544,7.837 -4.187,15.297 -6.312,22.928c-1.197,0.078 0.381,1.663 0,0c5.925,-6.416 11.618,-12.741 18.262,-18.425c6.706,-5.734 14.038,-10.681 21.766,-14.925c8.1,-4.45 16.678,-8.131 25.537,-10.75c1.766,-0.525 18.513,-3.875 18.425,-4.694c-16.906,-2.15 -32.756,-8.193 -47.472,-16.665c-3.925,-2.253 -7.656,-4.791 -11.315,-7.46c-3.035,-2.209 -5.885,-5.165 -8.863,-7.153c-1.609,-1.075 -2.856,-2.612 -4.256,-3.925c-1.406,-1.331 -3.831,-2.534 -4.509,-4.428c-0.569,-1.566 -2.457,-2.712 -3.578,-3.878c-1.372,-1.444 -2.332,-3.344 -3.994,-4.481c0.381,-1.663 -1.197,-0.085 0,0m207.975,-0.403c-0.585,0 -1.941,2.384 -2.488,2.965c-1.393,1.485 -2.759,2.991 -4.134,4.497c-3.025,3.297 -6.119,6.563 -9.613,9.375c-6.721,5.413 -13.234,10.491 -20.693,14.909c-14.491,8.582 -30.344,14.394 -47.063,16.641c-0.053,1.078 4.888,1.522 5.76,1.644c4.775,0.64 9.518,2.244 14.168,3.622c8.785,2.6 17.697,6.343 25.569,11.109c7.072,4.281 14.388,8.672 20.5,14.331c3.281,3.044 6.697,5.96 9.775,9.238c1.406,1.503 2.778,3.05 4.134,4.603c0.566,0.644 3.591,4.959 4.304,4.897c-1.5,0.125 -5.7,-18.547 -6.16,-20.597c-1.997,-9.022 -3.094,-18.234 -3.244,-27.475c-0.153,-9.122 0.963,-18.375 2.791,-27.297c0.834,-4.056 1.85,-8.075 3.013,-12.047c0.515,-1.759 1.056,-3.512 1.625,-5.256c0.409,-1.244 2.1,-4.253 2.012,-5.378c-0.172,-0.113 -0.256,-0.041 -0.256,0.219m-605.125,93.59c17.778,-10.884 31.984,-25.344 42.794,-43.197c-1.363,0 -2.75,-0.031 -4.647,0.003c-2.894,0.054 -5.782,0.257 -8.65,0.619c-5.388,0.678 -10.897,1.619 -16.132,3.044c-10.521,2.866 -20.871,6.466 -30.393,11.891c-9.7,5.521 -19.019,11.862 -27.103,19.643c-4.2,4.047 -8.188,8.325 -11.882,12.844c-3.681,4.509 -7.64,9.384 -9.987,14.747c27.74,-0.794 48.465,-8.597 66,-19.594m155.181,16.394c-1.053,-0.441 -2.403,-2.897 -2.912,-3.831c-1.069,-1.95 -2.55,-3.607 -3.888,-5.369c-3.362,-4.353 -7.216,-8.059 -10.809,-12.156c-6.832,-7.794 -15.485,-12.966 -23.732,-18.947c-7.403,-5.372 -16.634,-9.022 -25.19,-12.131c-8.997,-3.266 -18.353,-5.494 -27.875,-6.5c-2.531,-0.272 -5.072,-0.457 -7.619,-0.56c-1.35,-0.059 -4.059,-0.734 -5.084,-0.022c-0.603,0.419 6.634,10.353 7.4,11.35c6.047,7.803 12.972,15.078 20.54,21.425c15.335,12.85 33.91,22 53.363,26.566c8.856,2.078 17.9,3.247 27,3.369c0.869,-0.757 -1.4,-1.766 -1.194,-3.194m300.759,-16.394c8.675,-5.319 16.591,-11.834 23.747,-19.053c7.022,-7.078 14.257,-15.106 18.65,-24.147c-21.922,0 -43.778,6.403 -62.956,17.475c-10.597,6.116 -20.284,13.872 -28.712,22.735c-4.063,4.271 -7.997,8.843 -11.441,13.628c-1.038,1.447 -2.322,5.022 -4.078,5.753c0.044,0.694 -2.35,3.587 -0.797,3.197c27.559,-0.828 47.962,-8.822 65.587,-19.588m147.985,6.797c-12.866,-15.466 -27.716,-28.156 -45.838,-37.081c-7.878,-3.885 -16.109,-7.028 -24.625,-9.185c-4.868,-1.237 -9.822,-2.15 -14.812,-2.768c-2.463,-0.303 -4.938,-0.532 -7.422,-0.694c-1.609,-0.106 -6.169,-1.038 -7.288,-0.266c-0.246,0 2.188,3.991 2.563,4.572c1.522,2.381 3.128,4.703 4.822,6.966c3.337,4.465 6.994,8.69 10.94,12.634c7.672,7.666 16.657,15.313 26.15,20.591c19.694,10.944 41.25,17.769 63.904,18.028c-2.141,-4.919 -5.479,-8.65 -8.394,-12.797m-342.756,-49.597c-20.844,1.885 -40.838,8.51 -58.319,20.075c-4.028,2.669 -8.163,5.21 -11.822,8.406c-3.831,3.347 -7.472,6.944 -11.316,10.322c-4.181,3.669 -7.159,8.613 -10.872,12.688c-0.718,0.787 -7.581,10.497 -7.175,10.834c0.241,0.022 0.479,0.05 0.713,0.069c20.934,-0.656 41.312,-5.881 59.634,-16.084c9.907,-5.513 18.703,-12.222 27.141,-19.772c8.234,-7.369 16.219,-17.041 21.212,-26.932c-3.031,0.166 -6.79,-0.393 -9.196,0.394m15.193,0.803c22.978,37.441 64.272,60.482 107.991,61.591c0.131,-0.066 0.262,-0.131 0.394,-0.197c0.003,-0.728 -2,-2.862 -2.35,-3.547c-1.025,-2.05 -2.685,-4.169 -4.063,-6.012c-3.456,-4.65 -7.247,-8.994 -11.128,-13.297c-7.641,-8.472 -17.553,-16.091 -27.434,-21.7c-19.413,-11.022 -41.213,-18.381 -63.81,-18.038c-0.018,0.55 0.191,0.875 0.4,1.2m-231.568,1.197c-5.91,8.572 -8.894,19.197 -11.497,29.11c-2.885,10.993 -4.388,22.325 -4.5,33.681c0.403,10.815 1.843,21.578 4.262,32.131c1.2,5.234 3.306,10.494 5.272,15.494c1.878,4.803 3.972,10.347 7.266,14.365c10.409,-20.962 16.64,-43.187 15.94,-66.753c-0.334,-11.147 -2.078,-22.256 -5.193,-32.968c-1.46,-5.019 -3.216,-9.957 -5.279,-14.76c-0.543,-1.259 -4.796,-11.737 -5.868,-11.503c-0.025,0.516 -0.519,0.559 -0.403,1.203m455.543,0c-21.328,37.569 -20.775,87.506 0.794,124.785c10.519,-19.175 17.103,-42.11 16.363,-64.116c-0.391,-11.65 -1.929,-23.291 -5.066,-34.531c-1.441,-5.157 -3.216,-10.222 -5.341,-15.141c-0.587,-1.356 -5.184,-12.45 -6.35,-12.197c0.016,0.55 -0.19,0.881 -0.4,1.2m-225.568,121.588c1.365,-1.497 2.34,-4.088 3.137,-5.941c1.059,-2.484 2.15,-4.997 3.091,-7.522c2.025,-5.447 3.878,-10.978 5.118,-16.647c2.544,-11.65 3.869,-23.631 3.247,-35.55c-0.572,-10.818 -2.287,-21.59 -5.425,-31.965c-1.403,-4.647 -3.09,-9.213 -5.04,-13.657c-0.71,-1.6 -4.36,-11.346 -6.128,-11.1c-0.079,1.76 -1.929,4.022 -2.713,5.575c-1.059,2.097 -2.047,4.229 -2.981,6.385c-2.081,4.806 -3.841,9.75 -5.275,14.79c-3.125,10.997 -4.666,22.397 -4.981,33.816c-0.616,22.481 5.518,44.831 15.95,64.619c1.256,-0.341 1.653,-1.544 2,-2.803m-255.575,-91.588c-9.791,7.991 -19.997,15.253 -31.538,20.531c-6.031,2.76 -11.937,4.95 -18.25,6.954c-6.259,1.99 -12.634,2.896 -19.006,4.515c38.784,5.869 64.85,24.475 85.194,48.785c-6.238,-15.832 -9.36,-33.119 -9.194,-50.125c0.09,-9.01 1.078,-18.022 2.928,-26.838c0.809,-3.853 1.787,-7.672 2.959,-11.437c0.544,-1.76 1.135,-3.513 1.769,-5.247c0.178,-0.478 1.969,-4.516 1.134,-4.338c-4.575,6.481 -10.321,11.803 -15.996,17.2m36,-16.797c11.828,31.45 11.796,65.728 0,97.188c-0.585,0.25 0.037,0.478 0,0c10.968,-12.3 22.881,-24.528 37.678,-32.169c6.837,-3.531 13.793,-6.491 20.715,-9.831c8.557,-3.072 17.513,-4.935 26.397,-6.797c-16.003,-2.216 -31.428,-7.388 -45.465,-15.394c-7.466,-4.253 -14.557,-8.937 -21.069,-14.569c-6.628,-5.721 -12.306,-12.031 -18.256,-18.428c-0.25,-0.581 -0.482,0.038 0,0m207.971,0c-0.878,0 -2.153,2.391 -2.706,3.053c-1.272,1.529 -2.578,3.025 -3.931,4.482c-2.691,2.915 -5.528,5.69 -8.491,8.328c-6.284,5.609 -13.106,10.597 -20.231,15.087c-15.184,9.569 -32.159,13.95 -49.431,17.85c17.356,2.61 34.209,8.241 49.262,17.328c6.807,4.104 13.203,8.872 19.153,14.138c2.941,2.606 5.769,5.325 8.497,8.156c1.363,1.413 2.7,2.85 4.013,4.316c0.531,0.587 3.465,4.753 4.087,4.7c0.113,-0.169 0.044,-0.25 -0.218,-0.25c-2.147,-7.353 -4.697,-14.663 -6.194,-22.272c-1.716,-8.728 -2.6,-17.628 -2.6,-26.522c0,-8.675 0.9,-17.35 2.584,-25.859c1.516,-7.707 4.138,-15.032 6.206,-22.535c0.579,-0.247 -0.037,-0.484 0,0m20,0c-0.075,1.235 1.057,2.913 1.497,4.141c0.6,1.697 1.16,3.412 1.675,5.137c1.091,3.629 1.997,7.307 2.757,11.016c1.696,8.313 2.637,16.778 2.865,25.263c0.231,8.687 -0.287,17.418 -1.725,26.003c-1.478,8.809 -4.553,17.097 -7.069,25.625c-0.587,0.25 0.038,0.478 0,0c20.107,-24.419 46.822,-42.232 84.788,-48.794c-38.556,-5.834 -64.475,-24.316 -84.788,-48.391c-0.246,-0.581 -0.484,0.038 0,0m233.969,75.191c-0.525,4.281 -1.809,8.437 -3.031,12.566c-0.497,1.687 -0.938,3.753 -1.659,5.312c-0.55,1.175 -1.954,3.156 -1.307,4.516c9.753,-13.941 24.016,-24.332 38.416,-32.953c14.153,-8.472 30.241,-13.282 46.372,-16.238c-38.813,-5.85 -64.819,-24.506 -85.188,-48.791c7.947,19.185 12.544,50.566 6.397,75.588m-25.994,21.997c0.135,0.312 0.225,0.34 0.269,0.112c-12.5,-29.625 -12.844,-66.672 -0.269,-96.5l0,-0.643c-0.103,-0.182 -4.306,4.796 -4.884,5.362c-2.766,2.709 -5.181,5.603 -8.094,8.191c-6.75,5.978 -13.587,11.934 -21.487,16.453c-7.747,4.431 -15.36,8.753 -23.931,11.431c-8.25,3.959 -17.579,5.125 -26.394,7.206c16,2.197 31.447,7.344 45.469,15.375c7.434,4.263 14.625,8.903 21.078,14.557c6.59,5.775 12.272,12.068 18.243,18.456m-556.734,-45.997c23.122,37.206 64.113,60.972 107.991,61.591c0.128,-0.066 0.262,-0.135 0.397,-0.197c0.003,-0.738 -2.004,-2.86 -2.35,-3.547c-1.029,-2.056 -2.707,-4.141 -4.119,-5.95c-3.572,-4.578 -7.194,-9.019 -11.072,-13.356c-7.647,-8.525 -17.666,-15.763 -27.422,-21.622c-19.106,-11.466 -41.566,-17.719 -63.825,-18.119c-0.016,0.55 0.188,0.878 0.4,1.2m215.178,-0.8c-10.137,0.416 -19.95,2.7 -29.65,5.528c-5.228,1.516 -10.072,3.753 -15.087,5.831c-5.469,2.266 -10.45,5.494 -15.644,8.366c-4.434,2.456 -8.947,6.169 -12.816,9.475c-2.903,2.994 -6.575,5.328 -9.353,8.437c-6.997,7.844 -13.884,15.441 -19.044,24.754c43.525,0.318 87.075,-25.179 108.791,-62.791c-2.422,0.119 -5.387,-0.319 -7.197,0.4m12.794,0.8c22.766,37.291 64.331,61.037 107.987,61.591c-4.921,-10.491 -13.65,-19.657 -21.943,-27.579c-8.025,-7.668 -17.244,-14.325 -27.028,-19.55c-8.65,-4.612 -17.735,-8.409 -27.185,-11.031c-5.19,-1.44 -10.478,-2.537 -15.815,-3.297c-2.86,-0.406 -5.732,-0.718 -8.61,-0.94c-1.675,-0.132 -6.744,-1.257 -8.119,-0.313c-0.337,0.228 0.585,0.856 0.713,1.119m215.172,-0.8c-9.75,0.375 -19.219,2.494 -28.563,5.2c-10.934,3.166 -20.772,8.225 -30.615,13.834c-9.21,5.247 -16.925,12.785 -24.813,19.763c-6.319,7.522 -13.209,14.694 -17.597,23.594c44.285,0.318 85.978,-25.566 108.791,-62.791c-2.422,0.119 -5.388,-0.319 -7.203,0.4m12.803,0.8c22.644,37.491 64.347,60.944 107.984,61.591c-10.468,-18.404 -26.809,-34.441 -45.187,-44.891c-9.575,-5.45 -19.694,-10.281 -30.394,-13.084c-5.303,-1.379 -10.647,-2.6 -16.056,-3.447c-1.703,-0.266 -17.306,-1.685 -17.147,-0.972c0.525,0.012 0.359,0.706 0.8,0.803m215.169,-0.8c-20.31,1.487 -39.95,7.403 -57.335,18.072c-9.553,5.865 -17.928,12.525 -26.084,20.2c-4,3.769 -8.259,8.575 -11.241,13.184c-0.487,0.756 -7.74,10.46 -7.243,10.863c0.243,0.028 0.478,0.05 0.715,0.072c21.019,-0.416 41.328,-5.741 59.656,-16.063c19.238,-10.856 38.107,-26.744 48.329,-46.728c-2.294,0.1 -5.097,-0.3 -6.797,0.4m-675.116,2.406c-10.219,19.747 -15.959,41.391 -15.419,63.7c0.263,10.781 1.741,21.606 4.7,31.991c1.428,5.003 3.091,9.825 4.75,14.756c1.516,4.522 4.01,10.306 7.172,13.938c10.591,-19.45 16.206,-41.566 15.991,-63.722c-0.113,-11.653 -1.722,-23.297 -4.841,-34.525c-1.409,-5.072 -3.128,-10.063 -5.175,-14.91c-0.578,-1.368 -5.175,-12.697 -6.378,-12.431c-0.097,0.569 -0.656,0.675 -0.8,1.203m227.972,0c-9.938,18.588 -15.028,39.078 -15.556,60.128c-0.294,11.657 1.643,23.447 4.228,34.785c1.275,5.587 3.537,11.375 5.728,16.665c1.222,2.047 1.616,4.572 3.197,6.407c0.95,2.203 1.628,4.85 3.6,6.4c10.137,-20.135 16.115,-41.266 15.928,-63.925c-0.1,-11.707 -1.569,-23.357 -4.853,-34.607c-1.472,-5.043 -3.26,-10 -5.328,-14.831c-0.563,-1.3 -5.063,-12.459 -6.147,-12.222c-0.556,0.1 -0.453,0.875 -0.797,1.2m227.978,0c-20.447,37.622 -21.566,87.219 0.794,124.385c10.825,-19.007 16.859,-41.81 16.378,-63.729c-0.259,-11.631 -1.806,-23.234 -4.959,-34.44c-1.444,-5.131 -3.216,-10.175 -5.291,-15.091c-0.566,-1.334 -5.053,-12.559 -6.128,-12.325c-0.56,0.1 -0.456,0.875 -0.794,1.2m227.969,0c-10.753,18.313 -15.6,40.591 -15.619,61.691c-0.028,21.278 4.844,44.559 16.416,62.694c10.878,-19.197 16.168,-41.329 15.997,-63.341c-0.088,-11.344 -1.347,-22.691 -4.294,-33.663c-1.41,-5.268 -3.206,-10.409 -5.335,-15.431c-0.725,-1.712 -4.943,-13.556 -6.765,-13.153c-0.025,0.506 -0.513,0.556 -0.4,1.203m-673.119,12.794c-0.078,1.247 1.022,2.981 1.45,4.234c0.575,1.716 1.119,3.435 1.641,5.163c1.184,3.931 2.209,7.897 3.062,11.912c1.794,8.422 2.785,16.997 3,25.6c0.435,17.272 -3.453,34.469 -9.156,50.669c-0.584,0.253 0.041,0.484 0,0c2.925,-3.075 5.85,-6.387 8.603,-9.597c1.831,-2.14 4.516,-5.469 6.981,-6.859c1.6,-0.9 2.772,-2.447 4.219,-3.644c1.856,-1.528 3.844,-2.884 5.794,-4.291c2.828,-2.662 7.169,-5.646 10.669,-7.25c7.434,-3.415 14.515,-8.39 22.443,-10.662c8.369,-2.394 16.547,-5.319 25.282,-6.084c0.056,-1.029 -4.866,-1.588 -5.744,-1.647c-4.244,-0.322 -8.638,-1.966 -12.738,-3.213c-8.859,-2.715 -17.253,-6.256 -25.428,-10.628c-8.04,-4.303 -15.712,-9.775 -22.687,-15.647c-6.457,-5.456 -11.619,-11.922 -17.391,-18.056c-0.247,-0.578 -0.481,0.041 0,0m207.975,0.397c-1.612,0 -5.681,6.181 -6.928,7.515c-2.703,2.907 -5.531,5.704 -8.478,8.369c-5.966,5.391 -12.422,10.225 -19.291,14.41c-15.075,9.193 -31.95,15.034 -49.294,18.103c15.766,2.537 30.841,7.931 44.9,15.45c7.5,4.015 14.375,9.24 21.038,14.503c3.384,2.678 6.419,5.75 9.394,8.875c1.481,1.556 2.937,3.144 4.375,4.734c0.587,0.656 3.8,5.141 4.493,5.085c0.116,-0.166 0.047,-0.257 -0.212,-0.257c-1.978,-6.95 -4.463,-13.84 -5.944,-21.006c-1.794,-8.694 -2.759,-17.559 -2.847,-26.434c-0.093,-8.841 0.782,-17.675 2.469,-26.353c1.541,-7.863 4.194,-15.335 6.325,-22.994c1.197,-0.075 -0.378,-1.66 0,0m19.994,-0.397c2.4,7.934 5.144,15.681 6.637,23.862c1.572,8.594 2.338,17.129 2.216,25.866c-0.113,8.153 -0.45,16.488 -2.206,24.469c-1.741,7.925 -4.078,15.703 -6.647,23.381c-0.585,0.253 0.044,0.484 0,0c11.334,-13.106 23.662,-24.575 38.922,-33.112c8.062,-4.5 16.553,-8.247 25.378,-10.969c1.862,-0.575 19.769,-4.372 19.694,-5.11c-32.913,-3.74 -63.344,-23.056 -83.994,-48.387c-0.244,-0.578 -0.481,0.041 0,0m207.975,0c-0.631,0 -2.191,2.578 -2.775,3.225c-1.36,1.491 -2.597,3.056 -4,4.516c-3.116,3.246 -6.322,6.396 -9.622,9.453c-6.581,5.622 -13.622,10.812 -21.131,15.131c-14.35,8.256 -30.197,13.575 -46.46,16.469c17.288,3.009 34.075,8.847 49.082,18.003c6.837,4.165 13.265,8.984 19.228,14.325c2.94,2.64 5.768,5.403 8.487,8.278c1.36,1.441 2.688,2.906 3.991,4.4c0.437,0.503 2.9,4.081 3.419,4.031c-1.466,0.125 -5.71,-18.837 -6.16,-20.919c-1.981,-9.018 -3.037,-18.106 -2.99,-27.343c0.04,-8.478 0.69,-16.957 2.206,-25.3c0.728,-4.032 1.675,-8.013 2.828,-11.941c0.6,-2.069 1.253,-4.116 1.912,-6.166c0.497,-1.525 2.357,-4.959 2.232,-6.384c-0.157,-0.112 -0.247,-0.037 -0.247,0.222m20,0.397c-0.075,1.297 1.106,3.087 1.553,4.384c0.631,1.835 1.222,3.681 1.762,5.547c1.138,3.913 2.085,7.881 2.86,11.881c1.662,8.575 2.537,17.3 2.615,26.032c0.082,8.731 -0.809,17.446 -2.49,26.006c-1.538,7.85 -4.178,15.303 -6.303,22.934c-0.585,0.25 0.037,0.488 0,0c11.043,-13.106 23.937,-24.3 38.903,-32.728c8.012,-4.509 16.562,-8.303 25.362,-10.984c4.41,-1.344 8.91,-2.238 13.332,-3.478c0.806,-0.013 6.5,-0.619 6.393,-1.604c-17.19,-2.237 -33.522,-8.384 -48.393,-17.196c-3.988,-2.363 -7.944,-4.804 -11.629,-7.625c-2.471,-1.897 -5.012,-5.716 -7.987,-6.775c-1.575,-0.56 -2.394,-2.513 -3.581,-3.6c-0.719,-0.657 -1.703,-0.922 -2.403,-1.597c-0.704,-0.688 -0.935,-1.685 -1.6,-2.403c-0.925,-0.991 -7.697,-8.975 -8.394,-8.794c0.381,-1.66 -1.197,-0.075 0,0m207.975,-0.397c-0.878,0 -2.16,2.387 -2.71,3.056c-1.528,1.828 -3.109,3.616 -4.734,5.356c-2.991,3.182 -6.147,6.2 -9.45,9.05c-6.975,6.032 -14.578,11.454 -22.666,15.888c-7.837,4.3 -16.103,8.1 -24.675,10.662c-4.093,1.216 -8.293,2.032 -12.375,3.235c-0.931,0.278 -7.6,0.844 -7.381,1.94c16.303,2.191 31.76,7.813 46.003,15.963c7.278,4.169 14.157,8.884 20.507,14.381c3.321,2.881 6.484,5.925 9.521,9.091c1.375,1.45 2.732,2.915 4.057,4.409c0.528,0.6 3.5,4.86 4.122,4.8c-1.494,0.128 -5.722,-18.634 -6.182,-20.703c-1.984,-8.991 -3.059,-18.159 -3.218,-27.366c-0.16,-8.878 0.915,-17.918 2.628,-26.628c0.818,-4.147 1.828,-8.262 3.028,-12.318c0.525,-1.775 1.084,-3.541 1.681,-5.294c0.547,-1.628 1.844,-3.819 1.844,-5.522c0.578,-0.244 -0.038,-0.484 0,0m-565.531,49.994c-20.41,0.847 -41.875,7.118 -59.541,17.49c-18.238,10.713 -36.359,26.578 -46.05,45.697c43.856,-1.144 86.909,-24.537 108.791,-63.187l-3.2,0m8.8,1.2c5.456,9.512 12.609,17.906 20.481,25.493c3.647,3.519 7.44,7.082 11.481,10.035c3.684,2.694 7.678,4.89 11.359,7.572c8.86,6.45 20.61,10.915 31.094,13.815c10.96,3.028 22.185,4.925 33.572,5.072c1.125,-0.981 -5.831,-9.65 -6.597,-10.715c-3.609,-5.047 -7.859,-9.769 -12.265,-14.147c-8.697,-8.644 -18.463,-15.91 -29.154,-21.913c-9.2,-5.162 -19.021,-9.184 -29.228,-11.909c-5.65,-1.503 -11.403,-2.613 -17.2,-3.366c-3.331,-0.428 -6.675,-0.74 -10.025,-0.947c-0.878,-0.056 -3.506,-0.625 -4.237,-0.109c-0.235,0.159 0.497,1.069 0.719,1.119m219.971,-1.2c-10.906,0.447 -21.925,2.506 -32.465,5.528c-5.516,1.584 -10.7,3.75 -16,5.906c-5.603,2.284 -10.575,5.603 -15.95,8.375c-2.41,1.238 -4.528,3.219 -6.778,4.766c-2.225,1.54 -4.478,3.097 -6.397,5.018c-4.606,3.291 -8.694,7.51 -12.581,11.585c-3.472,3.647 -6.507,7.665 -9.682,11.522c-0.653,0.79 -7.172,10.15 -6.843,10.415c0.24,0.028 0.478,0.057 0.712,0.072c22.463,-0.74 44.244,-6.684 63.472,-18.419c10.469,-6.384 19.806,-13.718 28.284,-22.612c4.247,-4.453 7.81,-9.306 11.538,-14.166c1.365,-1.775 2.484,-3.587 3.534,-5.45c0.203,-0.362 2.406,-2.953 0.76,-2.54l-1.604,0m7.997,1.2c9.935,18.597 27.216,33.625 44.969,44.272c18.825,11.296 41.106,17.378 63.022,17.715c0.131,-0.062 0.262,-0.134 0.394,-0.197c0.003,-0.806 -2.035,-2.743 -2.378,-3.522c-1.041,-2.409 -3.097,-4.806 -4.694,-6.915c-3.622,-4.763 -7.488,-9.306 -11.678,-13.569c-8.285,-8.431 -17.694,-15.65 -27.916,-21.569c-9.072,-5.268 -18.769,-9.412 -28.856,-12.281c-5.56,-1.581 -11.231,-2.778 -16.947,-3.625c-1.675,-0.25 -16.828,-1.644 -16.716,-1.112c0.532,0.006 0.372,0.703 0.8,0.803m217.578,-0.803c-42.45,2.209 -82.778,25.993 -104.387,62.79c23.484,-0.265 45.425,-7.522 65.728,-18.987c9.806,-5.538 18.866,-13.757 26.544,-21.913c3.984,-4.234 7.365,-8.719 10.984,-13.194c1.366,-1.693 2.491,-4.721 4.331,-5.896c-0.046,-0.694 2.35,-3.585 0.8,-3.197c-1.55,-0.082 -2.956,-0.013 -4,0.397m10.394,0.803c2.119,4.693 5.666,8.481 8.4,12.793c3.791,3.885 6.96,8.329 10.891,12.072c8.165,7.785 17.231,14.594 27.003,20.16c18.747,10.675 40.087,16.609 61.687,16.962c-4.962,-10.122 -13.043,-19.215 -21.128,-26.969c-8.187,-7.859 -17.397,-14.253 -27.24,-19.846c-18.453,-10.475 -39.303,-15.507 -60.413,-16.372c-0.015,0.69 0.31,1.018 0.8,1.2m-459.54,1.6c-2.957,3.793 -4.175,8.593 -6.4,12.797c-1.685,4.912 -3.741,9.693 -4.8,14.803c-3.407,10.612 -4.188,21.984 -4.738,33.062c-1.106,22.353 6.584,43.885 15.938,63.722c1.606,-0.1 1.806,-2.409 2.528,-3.472c1.215,-1.794 2.24,-4.225 3.072,-6.24c2.206,-5.357 4.225,-10.735 6.003,-16.25c3.587,-11.132 4.978,-23.185 5.143,-34.85c0.172,-12.229 -1.321,-24.447 -4.575,-36.25c-1.512,-5.497 -3.384,-10.9 -5.593,-16.163c-0.56,-1.322 -5.06,-12.603 -6.182,-12.359c-0.018,0.509 -0.512,0.553 -0.396,1.2m455.543,0c-10.756,19.256 -15.856,41.828 -15.543,63.806c0.159,11.247 1.628,22.562 4.74,33.387c1.716,5.275 3.625,10.416 5.61,15.585c0.925,2.415 2.178,4.647 3.321,6.897c0.829,1.618 1.157,3.972 3.072,4.709c4.972,-10.559 9.682,-21.066 12.366,-32.487c2.691,-11.438 4.097,-23.772 3.397,-35.513c-0.65,-10.997 -2.356,-21.956 -5.513,-32.522c-1.409,-4.728 -3.112,-9.381 -5.128,-13.887c-0.559,-1.263 -4.844,-11.413 -5.925,-11.175c0.019,0.553 -0.187,0.875 -0.397,1.2m-210.775,62.397c-0.084,-17.097 -3.303,-33.929 -9.69,-49.785c-1.4,-3.478 -2.935,-6.912 -4.569,-10.294c-0.488,-1.018 -0.909,-2.825 -2.144,-3.125c-1.044,0.347 -2.15,3.685 -2.669,4.707c-3.478,6.759 -6.315,13.85 -8.443,21.143c-5.041,17.25 -6.419,35.575 -4.116,53.382c1.163,8.987 3.284,17.487 6.138,26.062c1.446,4.35 3.425,8.45 5.078,12.719c0.575,1.487 2.54,6.925 4.418,7.178c8.985,-17.009 15.535,-36.453 15.997,-61.987m-234.368,-49.197c5.756,15.656 8.843,32.106 9.196,48.793c-0.178,8.841 -1.128,17.654 -2.931,26.31c-1.569,7.537 -4.15,14.744 -6.269,22.081c-0.584,0.244 0.038,0.484 0,0c11.413,-13.094 24.047,-25.103 39.504,-33.359c14.153,-7.566 29.481,-12.713 45.287,-15.435c-16.003,-2.231 -31.394,-7.456 -45.45,-15.403c-7.469,-4.225 -14.591,-8.937 -21.087,-14.556c-6.622,-5.725 -12.25,-12.088 -18.25,-18.431c0.381,-1.669 -1.2,-0.085 0,0m435.946,0c-1.628,0 -6.018,6.715 -7.315,8.112c-2.688,2.878 -5.519,5.625 -8.469,8.235c-5.962,5.278 -12.419,10 -19.181,14.215c-15.363,9.566 -32.26,14.569 -49.825,18.235c17.337,2.64 34.181,8.287 49.225,17.368c6.806,4.107 13.206,8.869 19.162,14.128c2.941,2.607 5.775,5.329 8.51,8.144c1.365,1.413 2.7,2.853 4.015,4.313c0.541,0.587 3.469,4.743 4.094,4.69c-0.694,0.063 -3,-8.518 -3.312,-9.575c-1.191,-3.997 -2.216,-8.047 -3.06,-12.128c-1.872,-8.997 -2.856,-18.159 -3.047,-27.34c0.228,-9.319 1.25,-18.61 3.182,-27.729c0.878,-4.128 1.937,-8.228 3.178,-12.275c0.353,-1.153 3.209,-9.056 3.022,-9.134c-0.338,0.072 -0.4,0.316 -0.179,0.741m-471.946,16.793c-9.85,7.957 -19.972,15.26 -31.544,20.532c-5.872,2.668 -11.613,5.156 -17.828,6.884c-6.413,1.778 -12.903,3.253 -19.422,4.584c38.85,5.81 64.847,24.482 85.194,48.794c-6.232,-15.837 -9.36,-33.119 -9.194,-50.131c0.09,-9.013 1.072,-18.025 2.928,-26.834c0.806,-3.857 1.784,-7.682 2.953,-11.441c0.55,-1.759 1.138,-3.513 1.775,-5.247c0.172,-0.478 1.966,-4.516 1.134,-4.341c-4.593,6.475 -10.312,11.819 -15.996,17.2m243.971,-16.793c-0.871,0 -2.153,2.39 -2.709,3.05c-1.272,1.528 -2.581,3.022 -3.934,4.478c-2.691,2.912 -5.535,5.687 -8.494,8.328c-6.294,5.6 -13.109,10.587 -20.228,15.094c-7.569,4.79 -16.131,8.343 -24.5,11.468c-3.713,1.385 -7.613,2.194 -11.328,3.575c-4.394,0.916 -8.907,1.435 -13.197,2.804c17.253,2.693 34.015,8.343 48.987,17.4c6.782,4.103 13.16,8.856 19.091,14.106c2.928,2.594 5.75,5.315 8.462,8.134c1.36,1.413 2.688,2.844 3.997,4.303c0.535,0.594 3.447,4.753 4.069,4.7c-1.566,0.132 -5.891,-19.662 -6.347,-21.834c-1.978,-9.356 -2.956,-18.838 -2.812,-28.403c0.128,-8.616 1.047,-17.228 2.812,-25.666c1.535,-7.353 4.153,-14.356 6.131,-21.537c0.579,-0.25 -0.037,-0.488 0,0m20,0c-0.075,1.237 1.06,2.912 1.497,4.137c0.603,1.7 1.163,3.41 1.682,5.135c1.09,3.625 2,7.303 2.759,11.015c1.697,8.316 2.641,16.778 2.862,25.269c0.235,8.687 -0.29,17.425 -1.731,26.006c-1.484,8.813 -4.553,17.091 -7.069,25.622c-0.587,0.244 0.038,0.484 0,0c20.104,-24.422 46.822,-42.225 84.788,-48.794c-38.553,-5.84 -64.444,-24.34 -84.788,-48.39c-0.246,-0.588 -0.484,0.037 0,0m227.972,0.793c6.369,15.069 8.75,32.104 8.785,48.379c0.022,8.493 -0.694,17.025 -2.541,25.325c-1.003,4.509 -1.797,9.19 -3.416,13.521c-0.625,1.675 -1.343,3.535 -1.681,5.232c-0.244,1.256 -1.944,3.031 -1.147,4.334c4.622,-6.706 10.797,-12.812 16.997,-18.062c3.256,-2.766 6.544,-5.572 10.135,-7.854c3.053,-1.943 6.425,-3.84 9.315,-5.946c6.419,-4.694 14.466,-7.063 21.541,-10.532c8.778,-2.847 17.725,-5.131 26.797,-6.803c-33.938,-4.728 -63.291,-22.825 -85.188,-48.794c-0.015,0.554 0.188,0.882 0.403,1.2m-576.331,50.4c2.016,4.76 5.756,8.41 8.4,12.797c3.903,4.257 7.472,8.957 11.797,12.791c7.934,7.034 16.078,13.234 25.091,18.803c18.646,11.513 41.009,16.644 62.696,17.6c-21.265,-38.434 -65.381,-62.547 -108.79,-63.197c-0.01,0.694 0.315,1.031 0.806,1.206m213.975,-0.803c-19.669,1.607 -38.662,7.394 -55.609,17.538c-18.15,10.862 -35.05,26.037 -45.182,44.856c43.438,0.116 87.163,-25.041 108.791,-62.8c-2.662,0.147 -5.959,-0.347 -8,0.406m13.597,0.803c22.856,37.3 64.262,60.972 107.987,61.591c-2.128,-5.041 -5.8,-9.559 -9.187,-13.809c-3.691,-4.628 -7.613,-9.172 -11.981,-13.163c-8.35,-7.634 -17.328,-14.237 -27.21,-19.75c-8.484,-4.725 -17.456,-8.565 -26.806,-11.231c-5.134,-1.472 -10.366,-2.578 -15.65,-3.372c-2.828,-0.422 -5.669,-0.75 -8.522,-0.997c-1.887,-0.156 -7.8,-1.475 -9.344,-0.387c-0.337,0.231 0.585,0.85 0.713,1.118m214.375,-0.803c-20.05,1.569 -39.294,7.625 -56.488,18.075c-9.075,5.513 -17.621,11.75 -25.046,19.372c-7,7.21 -15.394,15.488 -19.257,24.947c44.078,0.322 86.25,-25.528 108.791,-62.8c-2.663,0.147 -5.953,-0.347 -8,0.406m13.6,0.803c22.631,37.475 64.369,60.91 107.984,61.591c-11.059,-19.456 -27.79,-34.584 -46.865,-45.897c-9.519,-5.65 -20.21,-9.937 -30.941,-12.647c-5.762,-1.453 -11.587,-2.675 -17.487,-3.409c-2.991,-0.372 -5.994,-0.622 -9.01,-0.753c-0.928,-0.041 -3.628,-0.553 -4.4,-0.006c-0.231,0.162 0.497,1.068 0.719,1.121m214.772,-0.803c-9.978,0.057 -20.9,2.507 -30.272,5.825c-9.566,3.385 -18.716,7.316 -27.453,12.497c-17.531,10.41 -34.36,26.228 -43.863,44.469c10.9,-0.478 21.732,-2.081 32.3,-4.781c11.713,-2.994 22.372,-8.453 32.925,-14.185c4.113,-2.228 7.882,-5.456 11.66,-8.24c4.006,-2.944 7.981,-6.303 11.503,-9.863c7.822,-7.89 15.025,-16.34 20.39,-26.125c-2.406,0.122 -5.378,-0.312 -7.19,0.403m-446.747,2.4c-9.928,18.594 -15.038,39.082 -15.556,60.132c-0.291,11.668 1.675,23.431 4.231,34.775c1.256,5.587 3.531,11.381 5.722,16.678c1.222,2.047 1.615,4.572 3.197,6.4c0.95,2.203 1.628,4.853 3.6,6.4c9.887,-20.363 16.147,-41.097 15.968,-63.925c-0.09,-11.703 -1.665,-23.344 -4.925,-34.591c-1.465,-5.047 -3.234,-10.006 -5.284,-14.844c-0.562,-1.315 -5.034,-12.459 -6.159,-12.225c-0.553,0.107 -0.45,0.878 -0.794,1.2m227.978,0c-21.056,37.541 -20.972,87.172 0.794,124.385c10.787,-19.019 16.859,-41.81 16.378,-63.728c-0.259,-11.625 -1.806,-23.232 -4.959,-34.438c-1.444,-5.137 -3.216,-10.172 -5.291,-15.087c-0.569,-1.354 -5.041,-12.566 -6.128,-12.335c-0.56,0.11 -0.456,0.881 -0.794,1.203m-237.175,13.194c-1.612,0 -5.681,6.175 -6.931,7.516c-2.71,2.909 -5.538,5.693 -8.488,8.362c-5.968,5.385 -12.431,10.222 -19.297,14.403c-15.075,9.175 -31.943,15.025 -49.278,18.116c15.753,2.569 30.85,7.925 44.903,15.456c7.569,4.047 14.225,9.366 20.991,14.6c3.419,2.641 6.428,5.675 9.413,8.803c1.484,1.557 2.943,3.135 4.387,4.722c0.591,0.65 3.816,5.125 4.509,5.063c0.116,-0.166 0.047,-0.253 -0.212,-0.253c-2.003,-6.938 -4.463,-13.841 -5.941,-21.013c-1.793,-8.687 -2.759,-17.556 -2.85,-26.422c-0.093,-8.85 0.778,-17.684 2.469,-26.362c1.538,-7.86 4.194,-15.332 6.325,-22.991c1.197,-0.075 -0.378,-1.659 0,0m19.994,-0.397c5.15,16.35 9.806,33.194 9.156,50.541c-0.594,15.931 -3.509,31.728 -9.156,46.647c-1.197,0.081 0.384,1.662 0,0c2.94,-2.672 5.206,-5.982 8,-8.791c3.053,-1.966 4.822,-5.637 7.869,-7.528c3.709,-2.313 6.831,-5.856 10.459,-8.419c3.766,-2.662 7.778,-4.925 11.694,-7.35c7.722,-4.784 16.278,-8.24 24.868,-11.119c4.197,-1.403 8.497,-2.503 12.816,-3.478c1.144,-0.259 8.619,-1.078 8.691,-2.103c-33.225,-4.04 -63.391,-22.772 -84.397,-48.4c-0.244,-0.578 -0.481,0.041 0,0m191.978,16.794c-9.572,7.837 -19.628,15.556 -31.075,20.453c-5.791,2.475 -11.506,5 -17.506,6.922c-6.466,2.075 -13.172,3.266 -19.813,4.625c38.216,6.447 64.663,24.662 84.791,49.191c-6.3,-15.754 -9.172,-32.669 -9.597,-49.588c0.331,-8.95 1.244,-17.9 3.025,-26.675c0.847,-4.184 1.891,-8.322 3.172,-12.397c0.55,-1.775 1.153,-3.534 1.8,-5.265c0.181,-0.494 2.019,-4.638 1.203,-4.466c-4.606,6.462 -10.306,11.831 -16,17.2m35.997,-16.397c-0.075,1.294 1.106,3.094 1.553,4.391c0.631,1.837 1.222,3.684 1.762,5.543c1.138,3.916 2.085,7.879 2.86,11.888c1.662,8.566 2.537,17.297 2.615,26.022c0.082,8.731 -0.809,17.45 -2.487,26.015c-1.541,7.838 -4.159,15.3 -6.306,22.929c-0.585,0.246 0.037,0.484 0,0c11.062,-13.116 23.922,-24.291 38.903,-32.732c8.012,-4.506 16.565,-8.293 25.362,-10.981c4.41,-1.344 8.91,-2.234 13.332,-3.478c0.781,0.106 6.487,-0.678 6.393,-1.6c-17.253,-2.291 -34.815,-8.381 -49.456,-17.906c-3.331,-2.172 -6.578,-4.641 -9.844,-6.591c-1.553,-0.937 -2.54,-2.253 -3.937,-3.169c-1.672,-1.1 -2.903,-3.287 -4.797,-3.959c-1.553,-0.55 -2.697,-2.459 -3.856,-3.572c0.256,0.25 -1.335,-1.619 -1.3,-1.597c-0.928,-0.412 -0.528,0.653 -1.363,-0.772c-1.175,-2.012 -2.897,-3.506 -4.487,-5.19c-1.572,-1.669 -2.991,-3.988 -4.947,-5.241c0.381,-1.659 -1.197,-0.075 0,0m-446.747,10.006c-0.275,1.275 5.175,7.872 6.403,8.8c2.459,4.466 6.191,8.616 9.441,12.522c7.184,8.631 14.368,17.075 22.147,25.188c15.493,16.147 32.168,31.612 50.375,44.675c17.668,12.681 35.737,24.303 55.096,34.287c20.107,10.353 41.241,19.085 62.907,25.625c13.675,4.128 27.512,7.828 41.575,10.375c7.018,1.275 14,2.535 21.075,3.425c6.675,0.847 13.39,2.206 20.147,1.878c-19.097,-4.712 -36.91,-14.106 -51.96,-26.747c-8.19,-6.875 -14.9,-14.803 -21.619,-23.05c-2.303,-2.831 -5.34,-6.681 -6.7,-10.071c-0.815,-2.025 -3.359,-1.388 -5.19,-1.488c-2.913,-0.162 -5.825,-0.403 -8.725,-0.722c-37.494,-4.112 -71.288,-23.812 -93.656,-54.034c-1.3,-1.753 -2.675,-3.569 -3.844,-5.394c-0.972,-1.522 -1.556,-3.325 -2.825,-4.637c-1.663,-1.716 -4.594,-1.082 -6.803,-1.191c-2.969,-0.144 -5.941,-0.388 -8.897,-0.728c-9.869,-1.153 -19.553,-3.506 -28.913,-6.831c-9.578,-3.41 -18.543,-7.904 -27.081,-13.422c-4.412,-2.844 -8.666,-5.935 -12.744,-9.26c-1.862,-1.518 -3.681,-3.081 -5.462,-4.684c-0.95,-0.866 -3.691,-4.419 -4.747,-4.516c-0.244,-0.59 -0.484,0.035 0,0m645.522,0c-0.494,-0.109 -3.256,3.119 -3.813,3.628c-1.731,1.591 -3.503,3.138 -5.306,4.647c-3.941,3.303 -8.062,6.391 -12.341,9.232c-8.062,5.35 -16.696,9.778 -25.715,13.284c-8.547,3.322 -17.419,5.759 -26.485,7.191c-4.862,0.756 -9.765,1.237 -14.687,1.468c-2.75,0.122 -4.869,-0.497 -6.628,1.8c-1.553,2.038 -2.838,4.257 -4.228,6.413c-20.119,31.131 -55.86,51.797 -92.335,56.634c-5.015,0.666 -10.062,1.069 -15.118,1.25c-2.275,0.075 -3.425,3.378 -4.66,5.219c-1.365,2.031 -2.775,4.034 -4.228,6.006c-5.994,8.088 -12.809,15.591 -20.412,22.197c-15.635,13.591 -33.732,21.797 -53.21,28.213c78.994,-7.213 154.841,-37.31 216.103,-87.997c14.553,-12.041 28.241,-25.05 41.047,-38.95c6.575,-7.135 12.988,-14.585 18.81,-22.353c2.509,-3.357 5.606,-6.5 7.756,-10.085c0.956,-1.603 2.187,-3 3.281,-4.5c0.441,-0.587 2.459,-2.959 2.416,-3.512c-0.163,-0.119 -0.247,-0.044 -0.247,0.215m-547.531,40.794c22.459,37.909 64.471,60.481 107.987,61.988c0.913,-0.8 -5.287,-8.997 -5.941,-9.825c-3.843,-4.91 -7.825,-9.575 -12.053,-14.169c-8.568,-8.438 -17.862,-15.728 -28.259,-21.794c-9.059,-5.284 -18.772,-9.416 -28.869,-12.266c-5.565,-1.578 -11.237,-2.762 -16.956,-3.615c-1.672,-0.244 -16.816,-1.635 -16.709,-1.122c0.525,0.003 0.359,0.706 0.8,0.803m219.571,-1.2c-21.318,0.784 -42.618,7.347 -60.971,18.203c-10.138,6.006 -20.26,13.325 -28.091,22.206c-3.569,4.05 -6.978,8.141 -10.391,12.285c-0.625,0.762 -7.122,10.2 -6.843,10.422c0.24,0.022 0.478,0.056 0.712,0.068c22.45,-0.784 44.241,-6.706 63.472,-18.418c10.456,-6.372 19.856,-13.707 28.259,-22.635c4.232,-4.493 7.825,-9.272 11.563,-14.137c1.347,-1.756 2.512,-3.653 3.534,-5.46c0.203,-0.353 2.406,-2.946 0.76,-2.537c-0.669,0.003 -1.335,0.003 -2.004,0.003m8.397,1.2c10.057,18.759 27.488,33.806 45.466,44.559c18.684,11.179 40.825,17.01 62.525,17.429c0.131,-0.063 0.262,-0.122 0.394,-0.197c0.003,-0.722 -2,-2.86 -2.35,-3.547c-1.025,-2.047 -2.685,-4.16 -4.063,-6.006c-3.709,-4.991 -7.759,-9.685 -11.981,-14.244c-8.869,-8.578 -18.406,-16.166 -29.15,-22.272c-8.825,-5.019 -18.225,-8.997 -27.991,-11.775c-5.559,-1.584 -11.218,-2.784 -16.94,-3.634c-1.669,-0.247 -16.822,-1.65 -16.71,-1.116c0.532,0.003 0.372,0.706 0.8,0.803m219.578,-1.2c-43.128,1.575 -84.496,25.963 -106.387,63.188c11.509,-0.154 22.828,-2.1 33.919,-5.091c5.665,-1.519 11.034,-3.822 16.484,-5.966c5.703,-2.259 10.922,-5.737 16.381,-8.534c4.319,-3.519 9.053,-6.5 13.407,-9.994c4.643,-3.715 8.903,-7.887 12.956,-12.244c3.928,-4.221 7.269,-8.609 10.747,-13.159c1.372,-1.8 2.918,-3.859 3.831,-5.794c0.194,-0.406 2.287,-2.815 0.659,-2.406l-1.997,0m-206.378,65.191c-0.065,-17.097 -3.343,-33.891 -9.715,-49.75c-1.403,-3.485 -2.932,-6.922 -4.553,-10.322c-0.485,-1.006 -0.897,-2.831 -2.132,-3.116c-1.047,0.331 -2.137,3.691 -2.656,4.713c-3.45,6.775 -6.284,13.862 -8.428,21.159c-5.047,17.219 -6.516,35.591 -4.169,53.372c1.178,8.956 3.275,17.491 6.166,26.025c1.378,4.078 3.156,7.887 4.834,11.825c0.71,1.666 2.481,7.744 4.656,8.078c8.891,-17.1 15.638,-36.356 15.997,-61.984m-26.397,-49.197c-0.871,0 -2.153,2.397 -2.709,3.059c-1.275,1.519 -2.587,3.013 -3.937,4.469c-2.7,2.906 -5.544,5.678 -8.507,8.316c-6.29,5.6 -13.106,10.584 -20.212,15.109c-15.085,9.587 -32.222,13.978 -49.425,17.85c17.356,2.609 34.209,8.244 49.265,17.328c6.807,4.103 13.207,8.875 19.15,14.141c2.941,2.603 5.769,5.334 8.497,8.15c1.363,1.418 2.7,2.859 4.013,4.318c0.531,0.591 3.469,4.754 4.087,4.7c-1.397,0.122 -6.187,-20.446 -6.653,-22.628c-1.69,-7.959 -2.272,-16.09 -2.394,-24.222c-0.137,-8.731 0.557,-17.196 2.057,-25.796c0.725,-4.191 1.637,-8.325 2.85,-12.397c0.615,-2.082 1.29,-4.15 1.959,-6.21c0.506,-1.54 2.331,-4.95 2.209,-6.397c-0.165,-0.115 -0.243,-0.05 -0.25,0.21m20,0c-0.075,1.237 1.057,2.912 1.491,4.14c0.597,1.7 1.153,3.419 1.672,5.138c1.084,3.637 1.997,7.312 2.753,11.022c1.703,8.315 2.653,16.79 2.888,25.269c0.24,8.696 -0.279,17.421 -1.729,26.003c-1.496,8.797 -4.546,17.093 -7.075,25.622c-0.587,0.243 0.038,0.475 0,0c20.107,-24.422 46.816,-42.241 84.788,-48.804c-38.509,-5.875 -64.438,-24.346 -84.788,-48.39c-0.246,-0.581 -0.484,0.044 0,0m-120.787,51.197c22.95,37.325 64.212,60.887 107.987,61.59c-4.418,-10.143 -13.275,-19.05 -21.018,-26.725c-8.113,-8.05 -17.785,-14.959 -27.85,-20.343c-8.497,-4.535 -17.413,-8.304 -26.691,-10.929c-5.075,-1.443 -10.247,-2.55 -15.472,-3.334c-2.797,-0.425 -5.603,-0.744 -8.422,-0.981c-1.887,-0.163 -7.697,-1.466 -9.247,-0.397c-0.337,0.234 0.585,0.859 0.713,1.119m214.375,-0.8c-20.009,1.625 -39.372,7.525 -56.509,18.043c-9.019,5.538 -17.541,11.741 -24.95,19.338c-7.063,7.237 -15.338,15.525 -19.332,25.006c44.391,-0.84 85.788,-24.787 108.791,-62.79c-2.663,0.143 -5.953,-0.354 -8,0.403" style="stroke:#000;stroke-width:3.13px;"/></svg>