<?xml version="1.0" encoding="UTF-8"?>
<svg id="Layer_1" data-name="Layer 1" xmlns="http://www.w3.org/2000/svg" viewBox="0 0 572.70102 572.70163">
  <path d="M478.76001,93.94162C427.36594,42.54693,359.03351,14.24314,286.35051,14.24314S145.3357,42.54693,93.94162,93.94162C42.54693,145.3357,14.24314,213.66812,14.24314,286.35051s28.30379,141.01481,79.69848,192.40888c51.39407,51.39407,119.7265,79.69848,192.40888,79.69848s141.01543-28.30441,192.4095-79.69848c51.39407-51.39407,79.69848-119.7265,79.69848-192.40888s-28.30441-141.01481-79.69848-192.40888Zm-35.17081,283.20001c29.83358,.79922,57.45382,16.74783,73.00282,42.15227-29.77296-.76458-57.3932-16.71319-73.00282-42.15227Zm60.20781,43.44761c-21.46399,3.63981-41.04251,14.95267-54.94728,31.74998,7.59387-20.42723,7.58768-43.06655-.02103-63.52595,13.90601,16.81216,33.49442,28.13492,54.96831,31.77596Zm-137.70657-1.29534c15.54652-25.4032,43.16924-41.35057,73.00158-42.15227-15.60838,25.43908-43.22862,41.38769-73.00158,42.15227Zm67.76208-30.47939c-7.60748,20.4594-7.6149,43.09872-.0198,63.52471-13.90477-16.79732-33.48452-28.11017-54.94728-31.74998,21.47389-3.64105,41.06231-14.9638,54.96707-31.77473Zm-145.25342,75.22233c15.60838-25.43661,43.2311-41.38769,73.00282-42.15227-15.54776,25.40197-43.17048,41.35057-73.00282,42.15227Zm67.72744-30.42248c-7.58149,20.41115-7.57407,43.02325,.02103,63.46656-13.8924-16.7936-33.50061-28.10522-55.02275-31.74503,21.51101-3.63857,41.11056-14.94277,55.00172-31.72153Zm-69.97603,118.62169c-14.22273-26.16779-14.22211-58.06623,0-84.3033,14.22211,26.23707,14.22334,58.13552,0,84.3033Zm7.48809-73.92947c13.90601,16.81216,33.49318,28.13368,54.96831,31.77473-21.46399,3.63981-41.04375,14.95267-54.94728,31.74998,7.59634-20.42847,7.58892-43.06408-.02103-63.52471Zm-160.2296-14.26974c15.60838-25.43661,43.22986-41.38769,73.0022-42.15227-15.54714,25.40197-43.17048,41.35057-73.0022,42.15227Zm67.72682-30.42124c-7.58088,20.40991-7.57469,43.02201,.02041,63.46533-13.89178-16.7936-33.49875-28.10522-55.02151-31.74503,21.51101-3.63857,41.11056-14.94277,55.0011-31.72029Zm-62.4663,18.72362c7.59387-20.42723,7.58768-43.06532-.02103-63.52471,13.90539,16.81216,33.49318,28.13368,54.96769,31.77473-21.46337,3.63981-41.04313,14.95267-54.94666,31.74998Zm-5.26053-75.19759c29.83172,.8017,57.45444,16.74907,73.0022,42.15227-29.77357-.76458-57.39444-16.71319-73.0022-42.15227Zm-77.5,42.15227c15.54776-25.4032,43.17109-41.35057,73.00282-42.15227-15.60838,25.43908-43.22924,41.38769-73.00282,42.15227Zm67.7627-30.47939c-7.60809,20.45816-7.61428,43.09748-.02041,63.52471-13.90415-16.79732-33.4839-28.11017-54.94728-31.74998,21.47451-3.64105,41.06231-14.9638,54.96769-31.77473Zm5.2395-193.25512c-29.83172-.8017-57.45444-16.74968-73.0022-42.15165,29.77357,.76458,57.39444,16.71257,73.0022,42.15165Zm-60.20719-43.44761c21.47513-3.64167,41.06292-14.96318,54.96831-31.77473-7.60933,20.46001-7.61614,43.09686-.02041,63.52471-13.90477-16.79917-33.48267-28.11017-54.9479-31.74998Zm47.4827,44.74604c-21.52276,3.64043-41.13097,14.95329-55.02275,31.74565,7.5951-20.44269,7.60129-43.05542,.02041-63.46594,13.89054,16.77814,33.49133,28.08234,55.00233,31.72029Zm12.72511,1.29843c-15.609,25.43723-43.23048,41.38769-73.00282,42.15227,15.54776-25.40197,43.17048-41.34995,73.00282-42.15227Zm77.49938-44.74851c-15.54714,25.40197-43.16986,41.34995-73.00158,42.15165,15.60714-25.43908,43.22739-41.38707,73.00158-42.15165Zm-67.74167,30.45341c7.5951-20.42785,7.5883-43.06346-.02103-63.52347,13.90539,16.81154,33.49256,28.13244,54.96769,31.77411-21.46337,3.63919-41.04313,14.95267-54.94666,31.74937Zm145.23239-75.19697c-15.609,25.43661-43.23048,41.38707-73.0022,42.15165,15.54714-25.40197,43.16986-41.35057,73.0022-42.15165Zm-67.74724,30.4466c7.59449-20.44269,7.60067-43.05542,.02041-63.46594,13.88992,16.77814,33.49071,28.08234,55.00172,31.72091-21.52276,3.63981-41.13097,14.95205-55.02213,31.74503ZM286.35051,20.46991c14.22211,26.23707,14.22334,58.13613,0,84.30392-14.22334-26.16717-14.22211-58.06623,0-84.30392Zm-7.5085,73.89916c-13.90477-16.79917-33.48267-28.11017-54.94728-31.74998,21.47451-3.64167,41.06231-14.96318,54.96769-31.77473-7.60933,20.46001-7.61614,43.09686-.02041,63.52471Zm160.25001,14.2951c-15.60961,25.43661-43.2311,41.38707-73.00158,42.15165,15.54652-25.40197,43.16924-41.35057,73.00158-42.15165Zm-67.74724,30.4466c7.59387-20.44146,7.60005-43.05665,.02103-63.46594,13.88992,16.77814,33.48947,28.08234,55.00172,31.72091-21.5209,3.63981-41.13159,14.95452-55.02275,31.74503Zm62.50898-18.77434c-7.60995,20.46063-7.61737,43.09686-.02227,63.52533-13.90353-16.7967-33.48329-28.11079-54.94604-31.74998,21.47389-3.64167,41.06231-14.9638,54.96831-31.77535Zm5.23826,75.22295c-29.83234-.8017-57.45506-16.74968-73.00158-42.15165,29.77419,.76458,57.3932,16.71257,73.00158,42.15165Zm77.5-42.15165c-15.54899,25.40382-43.17171,41.35243-73.00282,42.15165,15.60961-25.43908,43.22986-41.38707,73.00282-42.15165Zm-67.74229,30.45465c7.5951-20.42847,7.58892-43.0647-.0198-63.52533,13.90477,16.81216,33.49195,28.13306,54.96707,31.77473-21.46523,3.63981-41.04375,14.95143-54.94728,31.7506Zm-5.25929,190.68239c15.60838-25.43661,43.22986-41.38769,73.00158-42.15227-15.54776,25.4032-43.17048,41.35057-73.00158,42.15227Zm67.72621-30.42248c-7.58149,20.41115-7.57407,43.02325,.02103,63.46656-13.8924-16.79237-33.50061-28.10522-55.02275-31.74627,21.51101-3.63734,41.11056-14.94153,55.00172-31.72029Zm-62.46815,18.72609c7.59634-20.4297,7.59016-43.06532-.01856-63.52595,13.90477,16.81216,33.49195,28.13368,54.96707,31.77473-21.46523,3.63981-41.04375,14.95143-54.94852,31.75122Zm-5.25805-75.19945c29.8311,.80108,57.45382,16.74968,73.00158,42.15289-29.77172-.76458-57.39444-16.71566-73.00158-42.15289Zm12.72449-1.29843c21.51101-3.63857,41.11056-14.94215,55.00172-31.72029-7.58026,20.40991-7.57407,43.02325,.02103,63.46656-13.8924-16.7936-33.49937-28.10646-55.02275-31.74627Zm-12.72573-1.29843c15.60961-25.43908,43.22986-41.38707,73.00282-42.15165-15.54776,25.40197-43.17171,41.35057-73.00282,42.15165Zm5.26053-11.697c7.5951-20.42847,7.58892-43.0647-.0198-63.52533,13.90477,16.81216,33.49195,28.13306,54.96707,31.77473-21.46523,3.63981-41.04375,14.95143-54.94728,31.7506Zm-5.25929-75.19883c29.8311,.80232,57.45382,16.7503,73.00158,42.15227-29.77296-.76458-57.39444-16.71504-73.00158-42.15227Zm12.72449-1.29843c21.51101-3.63795,41.11056-14.94215,55.00172-31.72029-7.58026,20.41053-7.57407,43.02387,.02103,63.46656-13.8924-16.79299-33.50061-28.10584-55.02275-31.74627Zm-14.9737,86.9014c-14.22273-26.16717-14.22149-58.06623,0-84.30454,14.22149,26.23769,14.22273,58.13675,0,84.30454Zm-75.25079,48.63328c29.77172,.76458,57.3932,16.71566,73.00034,42.15227-29.8311-.8017-57.45382-16.74907-73.00034-42.15227Zm60.27585,43.45008c-21.5209,3.64105-41.13035,14.95514-55.02027,31.74503,7.59263-20.44084,7.60005-43.05542,.0198-63.46409,13.88992,16.77752,33.48947,28.08172,55.00048,31.71905Zm-137.76595-1.29781c15.60714-25.43661,43.22862-41.38769,73.00158-42.15227-15.54776,25.4032-43.17048,41.35057-73.00158,42.15227Zm67.72621-30.42248c-7.58149,20.41115-7.57407,43.02325,.02103,63.46656-13.8924-16.79237-33.50061-28.10522-55.02275-31.74627,21.51101-3.63734,41.11056-14.94153,55.00172-31.72029Zm-145.22682,75.17161c15.54714-25.4032,43.17048-41.35057,73.0022-42.15227-15.60838,25.43908-43.22924,41.38769-73.0022,42.15227Zm67.7627-30.47939c-7.60809,20.45816-7.6149,43.09872-.02103,63.52471-13.90415-16.79732-33.4839-28.11017-54.94666-31.74998,21.47389-3.64105,41.06231-14.9638,54.96769-31.77473Zm-145.2528-14.26974c15.60776-25.43661,43.22924-41.38769,73.00158-42.15227-15.54776,25.4032-43.16986,41.35057-73.00158,42.15227Zm67.72621-30.42124c-7.58088,20.40991-7.57469,43.02201,.02041,63.46533-13.89116-16.7936-33.49875-28.10522-55.02151-31.74627,21.51101-3.63734,41.11056-14.94153,55.0011-31.71905Zm-62.4663,18.72362c7.5951-20.42847,7.5883-43.06408-.02041-63.52471,13.90477,16.81216,33.49195,28.13368,54.96707,31.77473-21.46337,3.63981-41.04313,14.95267-54.94666,31.74998Zm-5.26053-75.19821c29.83234,.80108,57.45506,16.74968,73.0022,42.15289-29.77234-.76458-57.39382-16.71566-73.0022-42.15289Zm73.0022-44.74851c-15.54776,25.40197-43.17048,41.35057-73.00158,42.15165,15.60714-25.43908,43.22739-41.38707,73.00158-42.15165Zm-67.74167,30.45403c7.5951-20.42847,7.5883-43.06408-.02103-63.52471,13.90539,16.81216,33.49256,28.13306,54.96769,31.77473-21.46337,3.63919-41.04313,14.95329-54.94666,31.74998Zm62.4663-18.72424c-7.58026,20.41053-7.57407,43.02325,.02041,63.46533-13.89116-16.79237-33.49875-28.10522-55.02151-31.74503,21.51101-3.63857,41.11056-14.94215,55.0011-31.72029Zm7.51964-10.43383c14.22334,26.16717,14.22211,58.06561,0,84.30392-14.22211-26.23831-14.22334-58.13675,0-84.30392Zm75.24646-46.04014c-15.609,25.43723-43.23048,41.38769-73.0022,42.15227,15.54714-25.40197,43.16986-41.34995,73.0022-42.15227Zm-67.74724,30.44722c7.59449-20.44269,7.60067-43.05542,.02041-63.46594,13.88992,16.77814,33.49071,28.08234,55.00172,31.72029-21.52276,3.64043-41.13097,14.95329-55.02213,31.74565Zm145.24724-75.19573c-15.54776,25.40197-43.17048,41.34995-73.00282,42.15165,15.60838-25.43908,43.22862-41.38707,73.00282-42.15165Zm-67.74229,30.45341c7.5951-20.42847,7.58892-43.06408-.02103-63.52409,13.90601,16.81216,33.49318,28.13306,54.96831,31.77473-21.46399,3.63919-41.04375,14.95267-54.94728,31.74937Zm62.46691-18.72362c-7.58026,20.41053-7.57407,43.02325,.02103,63.46656-13.8924-16.79299-33.50061-28.10584-55.02398-31.74627,21.51101-3.63795,41.11179-14.94215,55.00295-31.72029Zm5.27537,75.17099c-29.77172-.76458-57.39444-16.71504-73.00282-42.15227,29.83234,.80232,57.45506,16.7503,73.00282,42.15227Zm-73.00282,44.74356c15.60838-25.43908,43.22862-41.38707,73.00282-42.15165-15.54776,25.40197-43.17048,41.35057-73.00282,42.15165Zm67.72744-30.42186c-7.58026,20.40991-7.57407,43.02325,.02103,63.46656-13.8924-16.7936-33.50061-28.10646-55.02275-31.74627,21.51101-3.63857,41.11056-14.94277,55.00172-31.72029Zm-62.46691,18.72362c7.5951-20.42847,7.58892-43.06408-.02103-63.52471,13.90601,16.81216,33.49318,28.13368,54.96831,31.77535-21.46399,3.63919-41.04375,14.95267-54.94728,31.74937Zm-7.50912,10.40538c-14.22273-26.16779-14.22211-58.06685,0-84.30454,14.22211,26.23707,14.22334,58.13613,0,84.30454Zm-75.25079,46.04261c15.54714-25.4032,43.16986-41.35181,73.0022-42.15289-15.609,25.43723-43.23048,41.38831-73.0022,42.15289Zm67.7627-30.47939c-7.60933,20.4594-7.61614,43.09624-.02041,63.52471-13.90415-16.79608-33.4839-28.11017-54.94728-31.74998,21.47451-3.64105,41.06231-14.96256,54.96769-31.77473Zm-62.50774,18.77311c7.59449-20.44208,7.60067-43.0548,.02041-63.46533,13.89054,16.77814,33.49009,28.08172,55.0011,31.72029-21.52276,3.63981-41.13035,14.95267-55.02151,31.74503Zm62.48733-44.74109c-13.90415-16.79917-33.48267-28.11017-54.94728-31.74998,21.47451-3.64167,41.06231-14.96318,54.96769-31.77535-7.60871,20.46063-7.61614,43.09748-.02041,63.52533Zm5.25929,11.69762c-29.83172-.80108-57.45382-16.74968-73.00158-42.15165,29.77357,.76458,57.39382,16.71257,73.00158,42.15165Zm0,89.49269c-29.83172-.8017-57.45382-16.74907-73.00158-42.15227,29.77172,.76458,57.3932,16.71566,73.00158,42.15227Zm-12.72511,1.29781c-21.52276,3.64105-41.12973,14.95267-55.02151,31.74627,7.59325-20.44208,7.60067-43.05665,.02041-63.46533,13.89054,16.77752,33.49009,28.08172,55.0011,31.71905Zm14.97432-86.89521c14.22211,26.23707,14.22334,58.13552,0,84.30454-14.22273-26.16779-14.22211-58.06747,0-84.30454Zm7.48809,10.37507c13.90601,16.81216,33.49318,28.13368,54.96831,31.77473-21.46399,3.63981-41.04375,14.95267-54.94728,31.74998,7.5951-20.4297,7.58892-43.06532-.02103-63.52471Zm-5.2395-11.6735c29.83234,.80108,57.45506,16.74968,73.00282,42.15289-29.77172-.76458-57.39444-16.71566-73.00282-42.15289Zm75.24708-43.45256c14.22273,26.16717,14.22149,58.06561,0,84.30392-14.22273-26.23954-14.22396-58.13737,0-84.30392Zm7.51964,10.43383c13.88992,16.77814,33.48947,28.08172,55.00048,31.72029-21.5209,3.63981-41.13035,14.9539-55.02151,31.74503,7.59387-20.44084,7.60005-43.05665,.02103-63.46533Zm7.51964,76.46695c21.47389-3.64105,41.06231-14.9638,54.96707-31.77596-7.60871,20.46063-7.61614,43.09748-.02103,63.52595-13.90353-16.79732-33.48329-28.11017-54.94604-31.74998Zm-12.79501-1.29534c15.54652-25.4032,43.16924-41.35181,73.00158-42.15289-15.60838,25.43723-43.2311,41.38831-73.00158,42.15289Zm0-86.9014c29.77419,.76458,57.3932,16.71257,73.00158,42.15165-29.83234-.8017-57.45506-16.74968-73.00158-42.15165Zm73.00158-44.74418c-15.60961,25.43723-43.22986,41.38769-73.00158,42.15227,15.54652-25.40197,43.16924-41.34995,73.00158-42.15227Zm-67.74724,30.4466c7.59387-20.44084,7.60005-43.05604,.02103-63.46533,13.88992,16.77814,33.48947,28.08172,55.00295,31.72029-21.52338,3.63919-41.13159,14.95329-55.02398,31.74503Zm62.50898-18.77434c-7.60995,20.46125-7.61737,43.09748-.02227,63.52595-13.90353-16.7967-33.48329-28.11079-54.94604-31.74998,21.47389-3.64167,41.06231-14.9638,54.96831-31.77596Zm-70.00758,29.1791c-14.22273-26.23892-14.22396-58.13675,0-84.30392,14.22273,26.16779,14.22149,58.06623,0,84.30392Zm-75.24708-130.34344c29.83234,.80108,57.45506,16.74968,73.00282,42.15165-29.77172-.76458-57.3932-16.71504-73.00282-42.15165Zm12.72449-1.29843c21.51224-3.63857,41.11179-14.94277,55.00295-31.72091-7.58026,20.41053-7.57407,43.02325,.02103,63.46656-13.8924-16.79299-33.50061-28.10584-55.02398-31.74565Zm-12.72449-1.29843c15.60838-25.43908,43.22862-41.38769,73.00282-42.15227-15.54776,25.40197-43.17048,41.34995-73.00282,42.15227Zm5.26053-11.69886c7.59634-20.42847,7.58892-43.06346-.02103-63.52409,13.90601,16.81216,33.49318,28.13306,54.96831,31.77473-21.46399,3.63919-41.04375,14.95267-54.94728,31.74937Zm-7.50912,99.89807c-14.22273-26.16779-14.22211-58.06685,0-84.30392,14.22211,26.23707,14.22334,58.13552,0,84.30392Zm-7.5085-10.40476c-13.90415-16.7967-33.48452-28.11079-54.94728-31.74998,21.47451-3.64167,41.06231-14.96318,54.96769-31.77473-7.60933,20.46001-7.61614,43.09686-.02041,63.52471Zm5.25929,11.69762c-29.83172-.8017-57.45444-16.74968-73.00158-42.15165,29.77357,.76458,57.39382,16.71257,73.00158,42.15165Zm-75.24584,43.44823c-14.22211-26.23831-14.22334-58.13613,0-84.30392,14.22334,26.16779,14.22211,58.06561,0,84.30392Zm-7.49922-10.40414c-13.89116-16.79237-33.49937-28.10522-55.02213-31.74565,21.51101-3.63795,41.11179-14.94215,55.00172-31.72029-7.58026,20.41053-7.57407,43.02325,.02041,63.46594Zm5.25496,11.70505c-29.77234-.76458-57.39382-16.71504-73.0022-42.15227,29.83234,.80232,57.45506,16.7503,73.0022,42.15227Zm-75.25079,43.4507c-14.22273-26.16779-14.22211-58.06685,0-84.30454,14.22211,26.23769,14.22273,58.13675,0,84.30454Zm-7.5085-10.40476c-13.90477-16.79917-33.48267-28.11017-54.9479-31.74998,21.47513-3.64167,41.06292-14.96318,54.96831-31.77535-7.60871,20.46063-7.61614,43.09748-.02041,63.52533Zm5.25929,11.69762c-29.8311-.80108-57.45382-16.74968-73.0022-42.15165,29.77357,.76458,57.39444,16.71257,73.0022,42.15165Zm-12.72511,1.29843c-21.52276,3.63981-41.13035,14.95267-55.02213,31.74503,7.5951-20.44208,7.60129-43.0548,.02041-63.46533,13.89116,16.77814,33.49071,28.08172,55.00172,31.72029Zm12.72573,1.29843c-15.609,25.43723-43.23048,41.38831-73.00282,42.15289,15.54776-25.4032,43.17048-41.35181,73.00282-42.15289Zm-5.2395,11.6735c-7.60933,20.4594-7.61614,43.09624-.02041,63.52471-13.90415-16.79608-33.48452-28.11017-54.9479-31.74998,21.47513-3.64105,41.06292-14.96256,54.96831-31.77473Zm5.23888,75.22233c-29.8311-.8017-57.45382-16.74907-73.0022-42.15227,29.77234,.76458,57.39382,16.71566,73.0022,42.15227Zm-12.72511,1.29781c-21.52214,3.64105-41.13035,14.95267-55.02213,31.74627,7.59572-20.44331,7.60129-43.05542,.02103-63.46656,13.89054,16.77876,33.49009,28.08296,55.0011,31.72029Zm14.97432-86.89521c14.22211,26.23707,14.22273,58.13675,0,84.30454-14.22273-26.16779-14.22211-58.06747,0-84.30454Zm77.49505,44.74171c14.22334,26.16779,14.22211,58.065,0,84.3033-14.22211-26.23831-14.22334-58.13552,0-84.3033Zm75.24646,130.34777c-29.83172-.8017-57.45506-16.7503-73.0022-42.15227,29.77172,.76458,57.3932,16.71566,73.0022,42.15227Zm-12.72573,1.29905c-21.52276,3.63981-41.12973,14.95143-55.02151,31.74503,7.59325-20.44208,7.60067-43.05665,.02041-63.46533,13.89054,16.77752,33.49009,28.08172,55.0011,31.72029Zm12.72573,1.29781c-15.609,25.43661-43.23048,41.38769-73.0022,42.15227,15.54776-25.4032,43.17048-41.35057,73.0022-42.15227Zm-5.2395,11.67288c-7.60871,20.46063-7.61614,43.09748-.02041,63.52471-13.90477-16.79855-33.48267-28.11017-54.94728-31.74998,21.47451-3.64105,41.06231-14.96256,54.96769-31.77473Zm7.48809-99.86714c14.22458,26.23831,14.22458,58.13552,0,84.30454-14.22458-26.16902-14.22458-58.065,0-84.30454Zm7.48932,10.37507c13.90477,16.81216,33.49195,28.13368,54.96707,31.77473-21.46399,3.63981-41.04375,14.95267-54.94728,31.74998,7.59387-20.42723,7.58768-43.06532-.0198-63.52471Zm-5.24073-11.67288c29.83234,.8017,57.45506,16.74907,73.00282,42.15227-29.77419-.76458-57.39444-16.71319-73.00282-42.15227Zm75.24708-43.45256c14.22396,26.16779,14.22149,58.06623,0,84.3033-14.22273-26.23831-14.22396-58.13675,0-84.3033Zm77.49505-44.74171c14.22149,26.23707,14.22273,58.13552,0,84.30454-14.22273-26.16779-14.22149-58.06747,0-84.30454Zm77.49505,44.74171c14.22396,26.16779,14.22149,58.06623,0,84.3033-14.22273-26.23831-14.22396-58.13675,0-84.3033Zm0-89.49269c14.22273,26.16717,14.22149,58.06561,0,84.30392-14.22273-26.23954-14.22396-58.13737,0-84.30392Zm0-89.49269c14.22273,26.16779,14.22149,58.06623,0,84.30392-14.22273-26.23892-14.22396-58.13675,0-84.30392Zm-75.24584-46.03952c29.8311,.80108,57.45382,16.74968,73.00158,42.15165-29.77172-.76458-57.3932-16.71504-73.00158-42.15165Zm-2.24921,85.60235c-14.22396-26.16717-14.22149-58.06623,0-84.30392,14.22149,26.23707,14.22273,58.13613,0,84.30392ZM366.09044,63.91504c29.77172,.76458,57.3932,16.71504,73.00158,42.15227-29.83234-.80232-57.45506-16.7503-73.00158-42.15227Zm-2.24426,85.59988c-14.22273-26.23892-14.22396-58.13675,0-84.30392,14.22273,26.16779,14.22149,58.06623,0,84.30392ZM288.5991,19.17148c29.8311,.8017,57.45506,16.74968,73.00282,42.15165-29.77172-.76458-57.3932-16.71504-73.00282-42.15165Zm-77.49938,42.15165c15.54776-25.40197,43.17048-41.34995,73.0022-42.15165-15.609,25.43661-43.23048,41.38707-73.0022,42.15165Zm73.0022,44.74418c-29.83234-.80232-57.45506-16.7503-73.0022-42.15227,29.77296,.76458,57.39382,16.71319,73.0022,42.15227Zm-75.24646,43.44761c-14.22211-26.23831-14.22334-58.13613,0-84.30392,14.22334,26.16779,14.22211,58.06561,0,84.30392Zm-7.49922-10.40414c-13.89116-16.79299-33.49937-28.10522-55.02213-31.74503,21.51101-3.63857,41.11179-14.94277,55.00172-31.72091-7.58026,20.41053-7.57407,43.02325,.02041,63.46594Zm-67.74724-33.04346c15.60838-25.43723,43.22986-41.38769,73.0022-42.15227-15.54714,25.40197-43.16986,41.34995-73.0022,42.15227Zm73.0022,44.74851c-29.77234-.76458-57.39382-16.71504-73.0022-42.15165,29.83234,.80108,57.45506,16.74968,73.0022,42.15165Zm-75.25079,43.4507c-14.22273-26.16779-14.22211-58.06685,0-84.30392,14.22211,26.23707,14.22273,58.13613,0,84.30392Zm-75.25141-43.4507c15.54776-25.40197,43.17109-41.35057,73.00282-42.15165-15.609,25.43661-43.23048,41.38707-73.00282,42.15165Zm-2.24426,88.19179c-14.22211-26.23831-14.22334-58.13613,0-84.30392,14.22396,26.16779,14.22273,58.06561,0,84.30392Zm0,89.49269c-14.22211-26.23831-14.22334-58.13737,0-84.30454,14.22396,26.16717,14.22273,58.06623,0,84.30454Zm0,89.49207c-14.22211-26.23831-14.22334-58.13552,0-84.3033,14.22396,26.16779,14.22273,58.065,0,84.3033Zm75.24708,46.04447c-29.83172-.8017-57.45506-16.7503-73.00282-42.15227,29.77234,.76458,57.39382,16.71566,73.00282,42.15227Zm2.24859-85.5974c14.22458,26.23954,14.22458,58.13552,0,84.30454-14.22458-26.16902-14.22458-58.06623,0-84.30454Zm75.25079,130.34653c-29.77234-.76458-57.39382-16.71566-73.0022-42.15227,29.83172,.8017,57.45444,16.74907,73.0022,42.15227Zm2.24426-85.60482c14.22334,26.16779,14.22211,58.065,0,84.3033-14.22211-26.23831-14.22334-58.13552,0-84.3033Zm75.24646,130.34777c-29.83234-.8017-57.45568-16.74907-73.0022-42.15227,29.77296,.76458,57.39382,16.71319,73.0022,42.15227Zm77.5-42.15227c-15.54776,25.40444-43.17171,41.35305-73.00282,42.15351,15.60838-25.44032,43.22862-41.38892,73.00282-42.15351Zm-73.00282-44.74294c29.8311,.8017,57.45506,16.74907,73.00282,42.15227-29.77172-.76458-57.3932-16.71566-73.00282-42.15227Zm75.24708-43.45256c14.22396,26.16779,14.22149,58.06623,0,84.3033-14.22273-26.23831-14.22396-58.13675,0-84.3033Zm7.51964,10.43445c13.88992,16.77752,33.48947,28.08172,55.00048,31.72029-21.5209,3.63981-41.12911,14.9539-55.02027,31.7438,7.59263-20.44084,7.59882-43.05542,.0198-63.46409Zm67.72621,33.0181c-15.60961,25.43661-43.2311,41.38769-73.00158,42.15227,15.54652-25.4032,43.17048-41.35057,73.00158-42.15227Zm-73.00158-44.74913c29.77172,.76458,57.3932,16.71566,73.00158,42.15227-29.83234-.8017-57.45506-16.7503-73.00158-42.15227Zm75.25079-43.44513c14.22396,26.23831,14.22396,58.13552,0,84.30454-14.22396-26.16779-14.2252-58.065,0-84.30454Zm75.25079,43.44513c-15.54776,25.40197-43.17048,41.35057-73.00158,42.15227,15.60714-25.43661,43.22862-41.38769,73.00158-42.15227Zm3.70291-90.78865c15.65539-27.70685,15.65539-61.85945,0-89.49207,14.61391-25.86498,15.57405-57.34441,2.90376-83.89627,20.86086,38.25389,32.72605,82.08827,32.72605,128.64292,0,46.58906-11.88367,90.45329-32.77322,128.72721,12.72171-26.63251,11.77696-58.15307-2.85659-83.98179Zm-4.52742-186.14337c-16.69881-23.90504-44.23082-38.57656-73.69758-38.84998-16.16388-27.41116-45.74012-44.4887-77.49381-44.74727-15.11304-25.69178-42.09683-42.30661-71.66348-44.49504,94.09558,2.25957,176.38891,52.97721,222.85487,128.0923ZM279.789,16.86026c-29.56712,2.18836-56.55106,18.80326-71.66348,44.49504-31.75493,.25857-61.33117,17.33611-77.49443,44.74727-29.46343,.27342-56.99297,14.94215-73.6927,38.84325C103.40519,69.8343,185.69644,19.11967,279.789,16.86026ZM49.49839,157.71563c-12.66681,26.55-11.70536,58.02533,2.9077,83.88822-15.65601,27.632-15.65539,61.78399,0,89.49207-14.63162,25.82423-15.57807,57.34-2.86193,83.97127-20.88592-38.27144-32.76726-82.13196-32.76726-128.71669,0-46.55133,11.86341-90.38285,32.72149-128.63488Zm7.43999,270.03956c16.69973,23.9011,44.22928,38.56991,73.6927,38.84387,16.16388,27.41116,45.7395,44.48685,77.49443,44.74666,15.11157,25.6917,42.09667,42.30684,71.6675,44.49512-94.09426-2.25795-176.38721-52.97303-222.85464-128.08565Zm235.97294,128.08557c29.56727-2.18859,56.55269-18.8035,71.6648-44.49504,31.7537-.25981,61.32994-17.33549,77.49381-44.74666,29.46606-.27404,56.99939-14.94602,73.69827-38.85176-46.46604,75.11601-128.76038,125.83427-222.85688,128.09346ZM488.83073,83.87029C434.74701,29.78595,362.83787,0,286.35051,0S137.95463,29.78595,83.87029,83.87029C29.78595,137.95463,0,209.86377,0,286.35051s29.78595,148.39588,83.87029,202.48084c54.08434,54.08496,125.99348,83.87029,202.48022,83.87029s148.3965-29.78533,202.48022-83.87029c54.08496-54.08496,83.87029-125.9941,83.87029-202.48084s-29.78533-148.39588-83.87029-202.48022Zm-1.79145,403.16961c-53.60617,53.60617-124.87816,83.12797-200.68877,83.12797s-147.08261-29.52181-200.68877-83.12797C32.05619,433.43373,2.53376,362.16051,2.53376,286.35051S32.05619,139.2679,85.66174,85.66174C139.2679,32.05619,210.54051,2.53376,286.35051,2.53376s147.08261,29.52242,200.68877,83.12797c53.60617,53.60617,83.12797,124.87877,83.12797,200.68877s-29.52181,147.08323-83.12797,200.68939Z"/>
</svg>