<?xml version="1.0" encoding="UTF-8"?>
<svg id="katman_1" xmlns="http://www.w3.org/2000/svg" version="1.1" viewBox="0 0 612 792">
  <!-- Generator: Adobe Illustrator 29.1.0, SVG Export Plug-In . SVG Version: 2.1.0 Build 142)  -->
  <defs>
    <style>
      .st0 {
        fill: #1d1d1b;
      }
    </style>
  </defs>
  <path class="st0" d="M306,126.41c-148.65,0-269.59,120.94-269.59,269.59s120.94,269.6,269.59,269.6,269.6-120.94,269.6-269.6S454.65,126.41,306,126.41ZM128.22,483.4c0-29.92,7.46-58.11,20.57-82.88,31.67,53.95,90.26,90.27,157.21,90.27s125.56-36.33,157.22-90.3c13.11,24.77,20.56,52.98,20.56,82.9,0,98.03-79.75,177.78-177.78,177.78s-177.78-79.75-177.78-177.78ZM306,486.38c-49.84,0-90.38-40.54-90.38-90.38s40.54-90.38,90.38-90.38,90.38,40.54,90.38,90.38-40.54,90.38-90.38,90.38ZM211.2,396c0,37.78,22.22,70.45,54.27,85.67-48.89-11.45-90.08-43.09-114.22-85.65,24.21-42.7,65.54-74.46,114.63-85.83-32.26,15.14-54.68,47.88-54.68,85.81ZM346.43,481.72c32.1-15.2,54.36-47.91,54.36-85.72s-22.3-70.52-54.42-85.71c48.98,11.42,90.22,43.12,114.38,85.76-24.16,42.59-65.39,74.26-114.32,85.68ZM306,301.21c-66.95,0-125.54,36.32-157.2,90.27-13.11-24.76-20.58-52.96-20.58-82.87,0-94.96,74.85-172.78,168.64-177.55,3.04-.1,6.07-.23,9.14-.23s6.1.13,9.14.23c93.8,4.77,168.65,82.58,168.65,177.55,0,29.92-7.46,58.11-20.57,82.88-31.67-53.95-90.26-90.27-157.21-90.27ZM40.82,396c0-122.45,83.44-225.72,196.43-256.09-66.47,27.19-113.44,92.54-113.44,168.69,0,31.65,8.13,61.44,22.38,87.4-14.26,25.96-22.38,55.75-22.38,87.4,0,76.14,46.96,141.49,113.43,168.68-112.98-30.37-196.41-133.65-196.41-256.08ZM374.64,652.15c66.54-27.16,113.55-92.56,113.55-168.75,0-31.65-8.13-61.44-22.38-87.4,14.26-25.96,22.38-55.75,22.38-87.4,0-76.05-46.84-141.36-113.18-168.61,112.86,30.45,196.17,133.66,196.17,256.01s-83.48,225.83-196.54,256.15Z"/>
</svg>