<?xml version="1.0" encoding="utf-8"?>
<!-- Generator: Adobe Illustrator 28.0.0, SVG Export Plug-In . SVG Version: 6.00 Build 0)  -->
<svg version="1.1" id="OBJECTS" xmlns="http://www.w3.org/2000/svg" xmlns:xlink="http://www.w3.org/1999/xlink" x="0px" y="0px"
	 viewBox="0 0 792 612" style="enable-background:new 0 0 792 612;" xml:space="preserve">
<path d="M478.19,522.95c0.01,0,0.02-0.01,0.03-0.01c0.01,0,0.02,0.01,0.03,0.01H579.5c0,0,0.01,0,0.01,0c0.01,0,0.01,0,0.01,0
	h166.32V356.65v-0.01V89.05h-267.6c-0.01,0-0.02,0.01-0.03,0.01c-0.01,0-0.02-0.01-0.03-0.01H46.15v433.91H478.19z M480.06,418.08
	v-2.37c2.16-30.11,25.88-54.33,55.77-57.25h3.78v36.3v12.22v11.1H480.06z M543.85,408.79h8.67v9.29h-0.73
	C547.69,417.07,544.52,413.39,543.85,408.79z M480.06,358.46h39.55c-18.42,6.67-33,21.36-39.55,39.83V358.46z M543.23,396.57h9.29
	v8.6h-9.29V396.57z M556.14,418.08v-11.1v-10.41h21.36c-0.81,11.01-9.2,19.91-19.97,21.51H556.14z M554.33,392.95h-11.1v-34.5h2.28
	c17.44,2.2,31.07,16.69,31.98,34.5H554.33z M568.04,418.08c4.03-2.43,7.37-5.88,9.68-9.99v9.99H568.04z M577.72,378.51
	c-3.91-8.79-10.87-15.92-19.53-20.06h19.53V378.51z M543.23,416.42c0.45,0.59,0.92,1.15,1.45,1.66h-1.45V416.42z M579.53,354.83
	c-0.02,0-0.03,0.01-0.05,0.01h-99.43V92.71c143.96,1.07,260.83,118.1,261.65,262.12H579.53z M476.44,356.64
	C476.44,356.64,476.44,356.65,476.44,356.64l0,63.25v99.45H50.3c1.16-234.57,191.62-425.2,426.14-426.62V356.64z M480.06,447.88
	c9.61,34.42,36.66,61.63,70.98,71.46h-70.98V447.88z M480.06,425.92v-4.22h61.34c0.01,0,0.02,0.01,0.03,0.01h12.9c0,0,0.01,0,0.01,0
	h23.36v97.63h-6.29C522.15,515.4,482.9,475.48,480.06,425.92z M581.34,519.34V419.9v-25.13v-36.31H741.7
	c-1.09,85.56-68.3,155.47-152.78,160.88H581.34z M742.23,315.35c-8.53-55.87-34.46-107.38-75.13-148.05
	c-39.94-39.94-90.33-65.65-145.03-74.64h220.16V315.35z M422.96,92.66c-94.31,12.12-181.46,54.72-249.72,122.99
	c-69.2,69.2-112.03,157.81-123.47,253.61V92.66H422.96z M614.47,519.34c64.48-14.27,115.06-65.9,127.76-130.96v130.96H614.47z"/>
</svg>
