<?xml version="1.0" encoding="UTF-8"?>
<svg id="Layer_2" data-name="Layer 2" xmlns="http://www.w3.org/2000/svg" viewBox="0 0 512 512">
  <defs>
    <style>
      .cls-1 {
        fill: #201600;
      }
    </style>
  </defs>
  <g id="Layer_2_copy_2" data-name="Layer 2 copy 2" transform="translate(17, 0) scale(5.648)">
    <path class="cls-1" d="M2.31,46.51c-.12,.24-.22,.48-.33,.72-.09,.21-.19,.42-.28,.63-.1,.25-.19,.49-.28,.74-.08,.21-.16,.43-.24,.64-.09,.25-.16,.51-.23,.77-.06,.22-.13,.43-.19,.65-.07,.27-.13,.54-.19,.8-.05,.21-.1,.42-.14,.64-.06,.29-.1,.58-.14,.86-.03,.2-.07,.4-.1,.6-.04,.32-.07,.65-.1,.98-.01,.17-.04,.33-.05,.5-.03,.49-.05,.99-.05,1.49,0,4.04,1.06,8,3.07,11.46,.01,.02,.02,.04,.04,.05,.25,.44,.52,.86,.8,1.28,.09,.13,.19,.25,.28,.38,.2,.28,.39,.56,.6,.83,.12,.15,.24,.29,.36,.43,.2,.24,.39,.48,.59,.72,.13,.15,.27,.29,.41,.43,.2,.22,.4,.44,.61,.65,.14,.14,.3,.28,.44,.42,.21,.2,.42,.4,.64,.59,.15,.13,.32,.26,.47,.39,.22,.18,.44,.37,.67,.55,.16,.12,.33,.24,.49,.36,.23,.17,.47,.34,.71,.5,.17,.11,.34,.21,.51,.32,.24,.15,.49,.31,.74,.46,.17,.1,.35,.19,.53,.29,.25,.14,.51,.28,.77,.41,.18,.09,.37,.17,.55,.25,.26,.12,.53,.25,.79,.36,.19,.08,.38,.15,.57,.22,.27,.11,.54,.21,.81,.31,.19,.07,.39,.12,.58,.18,.28,.09,.55,.18,.83,.25,.2,.06,.41,.1,.61,.15,.28,.07,.55,.14,.83,.2,.21,.04,.42,.08,.63,.11,.28,.05,.55,.1,.83,.14,.22,.03,.44,.05,.66,.07,.27,.03,.55,.06,.82,.08,.23,.02,.47,.02,.7,.03,.22,0,.44,.03,.66,.03,.1,.17,.22,.34,.33,.51,.14,.22,.27,.44,.42,.65,.13,.19,.27,.37,.4,.55,.16,.22,.32,.45,.49,.67,.13,.16,.26,.32,.39,.47,.19,.23,.38,.46,.57,.68,.12,.14,.25,.27,.38,.4,.22,.23,.43,.46,.66,.68,.12,.11,.24,.22,.36,.33,.24,.23,.49,.46,.74,.68,.11,.09,.22,.18,.33,.27,.27,.23,.55,.45,.83,.66,.1,.07,.2,.14,.3,.21,.3,.22,.6,.44,.91,.64,.09,.06,.17,.11,.26,.16,.33,.21,.66,.42,1,.61,.07,.04,.14,.07,.21,.11,.36,.2,.72,.4,1.09,.58,.05,.03,.1,.05,.16,.07,.39,.19,.79,.37,1.19,.53,.03,.01,.06,.02,.09,.03,.43,.17,.86,.34,1.29,.48,0,0,0,0,0,0,2.32,.78,4.79,1.2,7.3,1.2,1.49,0,2.96-.15,4.39-.43,.02,0,.05,0,.07-.01,.39-.08,.77-.17,1.15-.27,.1-.03,.21-.05,.31-.07,.33-.09,.66-.19,.98-.3,.15-.05,.29-.09,.44-.13,.29-.1,.58-.22,.87-.33,.17-.07,.34-.12,.51-.19,.27-.11,.53-.24,.79-.36,.18-.08,.37-.16,.56-.25,.25-.12,.49-.25,.73-.38,.19-.1,.39-.2,.58-.31,.23-.13,.45-.27,.67-.41,.2-.12,.39-.24,.59-.36,.21-.14,.42-.29,.63-.44,.19-.14,.39-.27,.58-.41,.2-.15,.39-.31,.59-.47,.19-.15,.38-.3,.56-.46,.19-.16,.37-.34,.55-.51,.18-.17,.36-.33,.54-.5,.18-.17,.35-.36,.52-.54,.17-.18,.34-.35,.51-.54,.17-.19,.32-.38,.49-.58,.16-.19,.32-.38,.47-.57,.16-.2,.3-.41,.45-.61,.14-.2,.29-.39,.43-.6,.15-.21,.28-.44,.42-.66,.11-.17,.22-.33,.32-.5,.21,0,.43-.02,.64-.03,.24,0,.48-.02,.72-.03,.26-.02,.52-.05,.77-.08,.24-.03,.48-.05,.72-.08,.25-.04,.5-.08,.75-.13,.24-.04,.48-.08,.72-.13,.25-.05,.49-.11,.73-.17,.24-.06,.47-.11,.71-.17,.24-.07,.48-.14,.72-.22,.23-.07,.47-.14,.7-.22,.23-.08,.46-.17,.7-.26,.23-.09,.46-.17,.68-.26,.23-.1,.45-.2,.67-.31,.22-.1,.45-.2,.67-.31,.22-.11,.43-.23,.65-.35,.22-.12,.44-.23,.65-.35,.21-.12,.42-.26,.63-.39,.21-.13,.42-.25,.62-.39,.21-.14,.4-.29,.61-.43,.2-.14,.4-.28,.59-.43,.2-.15,.39-.32,.59-.48,.19-.15,.38-.3,.56-.46,.19-.17,.38-.35,.57-.53,.17-.16,.35-.32,.52-.48,.19-.19,.37-.39,.55-.58,.16-.17,.32-.33,.47-.5,.19-.21,.36-.43,.54-.65,.14-.17,.28-.33,.41-.5,.19-.25,.37-.51,.56-.77,.11-.15,.22-.29,.32-.45,.28-.42,.55-.84,.8-1.28,.01-.02,.03-.04,.04-.06,2.01-3.46,3.07-7.42,3.07-11.46,0-.5-.02-.99-.05-1.49-.01-.17-.03-.33-.05-.5-.03-.33-.05-.66-.1-.98-.03-.2-.06-.39-.1-.59-.05-.29-.09-.58-.14-.87-.04-.21-.1-.42-.14-.63-.06-.27-.12-.54-.19-.81-.06-.22-.13-.43-.19-.64-.08-.26-.15-.52-.23-.77-.07-.22-.16-.43-.23-.64-.09-.25-.18-.5-.28-.74-.09-.21-.19-.42-.28-.63-.11-.24-.21-.48-.33-.72-.1-.21-.21-.41-.32-.62-.1-.19-.19-.38-.3-.57,.08-.14,.14-.28,.21-.41,.14-.26,.28-.53,.41-.8,.09-.19,.18-.39,.26-.58,.11-.25,.23-.5,.34-.76,.09-.22,.16-.44,.25-.65,.09-.24,.18-.48,.27-.72,.08-.24,.15-.48,.22-.73,.07-.23,.14-.45,.2-.68,.07-.27,.13-.54,.19-.81,.05-.21,.1-.42,.14-.63,.06-.3,.1-.61,.15-.91,.03-.18,.06-.36,.09-.54,.05-.37,.08-.74,.11-1.11,.01-.12,.03-.24,.04-.37,.03-.5,.05-.99,.05-1.49,0-2-.26-3.97-.77-5.88-.52-1.95-1.29-3.82-2.3-5.57,0,0,0,0,0,0,0,0,0,0,0,0,0-.01-.01-.02-.02-.03-.06-.11-.13-.2-.19-.31-.2-.33-.4-.66-.61-.98-.03-.05-.07-.09-.1-.14-.25-.37-.51-.73-.78-1.08-.03-.04-.07-.08-.1-.12-.28-.35-.56-.7-.86-1.03-.03-.04-.07-.07-.1-.1-.3-.34-.61-.67-.93-.98-.03-.03-.07-.06-.1-.1-.32-.32-.65-.62-.99-.92-.04-.03-.07-.06-.11-.09-.34-.29-.68-.58-1.04-.85-.04-.03-.08-.06-.12-.09-.35-.27-.71-.53-1.08-.77-.05-.03-.1-.06-.14-.09-.37-.24-.74-.47-1.11-.69-.05-.03-.11-.06-.16-.09-.38-.21-.76-.42-1.14-.61-.06-.03-.13-.06-.19-.09-.38-.18-.77-.36-1.16-.53-.07-.03-.15-.06-.22-.09-.38-.16-.77-.31-1.16-.44-.08-.03-.17-.05-.25-.08-.38-.13-.77-.25-1.16-.36-.1-.03-.2-.05-.29-.07-.38-.1-.76-.19-1.15-.27-.11-.02-.23-.04-.34-.06-.37-.07-.75-.14-1.13-.19-.13-.02-.26-.03-.39-.04-.37-.04-.73-.08-1.1-.11-.15-.01-.3-.01-.44-.02-.29-.01-.58-.04-.86-.04-.14-.23-.29-.45-.43-.67-.1-.15-.19-.3-.29-.45-.19-.28-.39-.55-.59-.82-.1-.13-.19-.27-.3-.4-.21-.27-.43-.53-.65-.79-.1-.12-.2-.24-.3-.36-.23-.26-.47-.51-.71-.75-.11-.11-.21-.22-.32-.33-.25-.24-.5-.47-.76-.7-.11-.1-.22-.21-.34-.31-.26-.22-.52-.43-.79-.64-.12-.1-.24-.2-.36-.29-.26-.2-.54-.39-.81-.58-.14-.09-.27-.19-.4-.28-.26-.17-.54-.34-.81-.5-.15-.09-.3-.19-.46-.28-.26-.15-.52-.28-.78-.42-.18-.09-.35-.19-.53-.28-.24-.12-.49-.22-.74-.33-.21-.09-.41-.19-.62-.28-.22-.09-.44-.17-.66-.25-.25-.09-.49-.19-.74-.28-.18-.06-.36-.11-.53-.16-.3-.09-.59-.19-.89-.27-.11-.03-.23-.05-.34-.08-1.81-.46-3.68-.7-5.58-.7-2.48,0-4.91,.41-7.21,1.18-.03,.01-.07,.02-.1,.03-.39,.13-.77,.28-1.16,.43-.08,.03-.16,.06-.23,.09-.34,.14-.68,.3-1.01,.45-.11,.05-.23,.1-.34,.15-.3,.15-.6,.31-.89,.47-.14,.08-.28,.15-.42,.22-.27,.15-.52,.32-.78,.48-.16,.1-.32,.2-.48,.3-.23,.15-.46,.32-.68,.48-.18,.13-.36,.25-.53,.38-.2,.15-.4,.32-.6,.48-.19,.15-.38,.3-.56,.46-.18,.15-.35,.31-.52,.47-.19,.18-.39,.35-.58,.54-.15,.15-.3,.31-.45,.46-.2,.21-.4,.41-.59,.62-.13,.15-.26,.3-.39,.46-.2,.23-.39,.46-.58,.7-.11,.15-.22,.3-.33,.45-.19,.26-.38,.51-.56,.78-.1,.14-.19,.29-.28,.44-.15,.23-.3,.45-.44,.68-.29,0-.57,.02-.85,.04-.15,0-.31,.01-.46,.02-.36,.03-.71,.07-1.06,.11-.14,.02-.29,.03-.43,.05-.36,.05-.72,.11-1.08,.18-.13,.02-.26,.04-.39,.07-.37,.08-.73,.17-1.1,.26-.12,.03-.23,.05-.35,.09-.37,.1-.74,.22-1.11,.34-.1,.03-.2,.06-.3,.1-.38,.13-.75,.28-1.12,.43-.08,.03-.17,.06-.26,.1-.38,.16-.76,.33-1.13,.51-.07,.03-.14,.06-.21,.1-.38,.19-.76,.39-1.13,.6-.06,.03-.11,.06-.17,.09-.38,.22-.76,.46-1.13,.7-.04,.03-.08,.05-.12,.08-.38,.26-.76,.52-1.12,.8-.03,.02-.05,.04-.08,.06-.38,.29-.75,.6-1.12,.91-.01,0-.02,.02-.03,.03-1.87,1.63-3.49,3.57-4.77,5.77,0,.01-.02,.02-.02,.04-2.01,3.46-3.07,7.43-3.07,11.46,0,.5,.02,1,.05,1.5,0,.05,.01,.1,.01,.15,.03,.44,.07,.89,.13,1.32,.02,.13,.04,.27,.06,.4,.05,.35,.11,.71,.17,1.06,.03,.17,.08,.34,.12,.52,.07,.31,.13,.62,.22,.92,.05,.2,.11,.39,.17,.58,.08,.28,.16,.56,.25,.83,.07,.21,.15,.42,.23,.63,.09,.25,.18,.5,.28,.75,.09,.23,.2,.45,.3,.68,.1,.22,.19,.45,.3,.66,.12,.24,.25,.48,.37,.72,.08,.16,.16,.32,.25,.47-.11,.19-.2,.38-.3,.57-.11,.2-.22,.4-.32,.61Zm21.4,31.9c-.16,0-.33,.01-.49,.02-.1-.17-.19-.35-.28-.53-.1-.2-.21-.39-.31-.59-.11-.23-.21-.46-.31-.69-.09-.2-.18-.4-.26-.6-.1-.24-.18-.48-.27-.72-.07-.2-.15-.4-.22-.61-.08-.25-.15-.49-.22-.74-.06-.2-.13-.4-.18-.61-.07-.26-.12-.52-.18-.78-.04-.2-.1-.4-.14-.6-.05-.27-.09-.55-.14-.83-.03-.19-.07-.38-.09-.57-.04-.31-.07-.62-.09-.93-.01-.16-.04-.32-.05-.47-.03-.47-.05-.95-.05-1.42s.02-.92,.04-1.37c0-.15,.03-.3,.04-.45,.03-.3,.05-.61,.09-.91,.02-.18,.05-.36,.08-.54,.04-.27,.08-.54,.13-.81,.04-.19,.08-.38,.12-.57,.06-.25,.11-.51,.17-.76,.05-.19,.11-.39,.16-.58,.07-.24,.14-.49,.22-.73,.06-.19,.13-.39,.2-.58,.08-.23,.17-.47,.26-.7,.08-.19,.16-.38,.24-.57,.1-.23,.19-.45,.3-.68,.09-.19,.18-.38,.27-.56,.06-.12,.12-.23,.18-.35,.07,.1,.14,.2,.21,.3,.12,.18,.24,.36,.36,.54,.16,.22,.32,.44,.48,.66,.13,.17,.26,.34,.39,.51,.17,.21,.35,.42,.52,.63,.14,.16,.27,.32,.42,.48,.19,.2,.38,.4,.57,.6,.14,.15,.28,.29,.43,.44,.21,.2,.42,.39,.63,.58,.14,.13,.28,.26,.43,.39,.23,.2,.48,.39,.72,.58,.13,.1,.26,.21,.4,.32,.3,.23,.61,.45,.93,.66,.08,.05,.16,.11,.24,.17,.4,.27,.81,.52,1.23,.76,.04,.02,.09,.05,.13,.07,.37,.21,.75,.41,1.14,.61,.12,.06,.25,.11,.37,.17,.31,.15,.62,.29,.94,.42,.15,.06,.3,.12,.46,.18,.29,.12,.59,.23,.89,.34,.17,.06,.33,.11,.5,.16,.29,.09,.58,.19,.88,.27,.18,.05,.36,.09,.54,.14,.29,.07,.58,.14,.87,.2,.19,.04,.37,.07,.56,.11,.29,.05,.58,.1,.87,.14,.19,.03,.39,.05,.59,.08,.29,.03,.57,.06,.86,.09,.2,.02,.41,.03,.61,.04,.11,0,.22,.02,.33,.02-.05,.08-.1,.17-.16,.26-.12,.18-.24,.37-.37,.55-.14,.2-.28,.4-.43,.6-.14,.18-.28,.37-.42,.55-.14,.18-.29,.36-.44,.54-.16,.18-.31,.36-.48,.54-.15,.16-.3,.32-.45,.48-.17,.18-.35,.36-.53,.53-.15,.15-.31,.29-.46,.43-.19,.17-.38,.34-.58,.51-.15,.13-.31,.25-.46,.38-.21,.17-.41,.33-.62,.49-.15,.11-.31,.22-.47,.33-.22,.16-.44,.31-.67,.46-.15,.1-.31,.19-.46,.29-.24,.15-.48,.3-.72,.43-.15,.08-.3,.16-.45,.24-.26,.14-.51,.28-.77,.4-.14,.07-.28,.13-.41,.19-.28,.13-.56,.26-.85,.38-.1,.04-.21,.08-.32,.12-1.16,.46-2.36,.82-3.59,1.07,0,0,0,0,0,0-.31,.06-.62,.11-.93,.16-.15,.02-.3,.05-.45,.08-.28,.04-.56,.06-.84,.09-.19,.02-.37,.04-.56,.06-.27,.02-.54,.03-.81,.04Zm-4.25-31.63c0,.16,.03,.32,.04,.48,.03,.32,.05,.64,.09,.96,.02,.19,.06,.37,.09,.56,.04,.29,.09,.57,.14,.86,.04,.2,.08,.39,.13,.59,.06,.27,.12,.54,.18,.81,.05,.2,.11,.4,.17,.6,.07,.26,.15,.52,.23,.77,.07,.2,.14,.4,.21,.6,.09,.25,.18,.5,.28,.74,.08,.2,.16,.4,.25,.6,.1,.24,.21,.48,.32,.72,.09,.2,.19,.39,.29,.59,.06,.12,.11,.23,.17,.35-.1,0-.2,0-.3-.01-.22-.01-.43-.03-.64-.05-.26-.02-.51-.05-.77-.08-.21-.03-.42-.05-.64-.09-.25-.04-.5-.08-.76-.13-.21-.04-.42-.08-.62-.13-.25-.05-.5-.11-.74-.18-.2-.05-.41-.11-.61-.16-.25-.07-.49-.15-.73-.22-.2-.06-.4-.13-.6-.2-.24-.09-.48-.18-.72-.27-.19-.08-.39-.15-.58-.23-.24-.1-.47-.21-.7-.32-.18-.09-.37-.17-.55-.26-.23-.12-.46-.24-.69-.37-.18-.1-.35-.19-.52-.29-.23-.14-.46-.28-.68-.43-.16-.1-.33-.2-.49-.31-.23-.16-.46-.33-.69-.49-.15-.11-.29-.21-.44-.32-.25-.19-.49-.39-.73-.6-.11-.1-.23-.19-.34-.28-.35-.31-.69-.62-1.02-.95,0,0,0,0,0,0-.33-.33-.65-.66-.95-1.01-.1-.11-.2-.24-.29-.35-.2-.24-.41-.48-.6-.73-.11-.14-.22-.3-.33-.44-.17-.23-.34-.46-.5-.7-.11-.16-.21-.33-.32-.5-.12-.19-.24-.38-.35-.57,.13-.21,.26-.42,.39-.62,.09-.14,.18-.29,.27-.43,.19-.28,.39-.56,.6-.83,.08-.1,.15-.21,.23-.31,.26-.34,.53-.66,.81-.98,.03-.03,.05-.07,.08-.1,.94-1.07,1.98-2.03,3.1-2.89,.06-.05,.13-.09,.19-.14,.31-.23,.62-.46,.94-.67,.09-.06,.19-.12,.29-.18,.29-.19,.59-.38,.89-.55,.12-.07,.24-.13,.35-.2,.29-.16,.58-.32,.87-.47,.13-.07,.27-.13,.4-.19,.28-.14,.57-.27,.86-.39,.14-.06,.29-.12,.44-.18,.29-.11,.57-.22,.86-.33,.15-.05,.31-.1,.46-.15,.29-.09,.58-.18,.87-.27,.16-.05,.32-.09,.48-.13,.29-.07,.58-.14,.88-.21,.17-.04,.33-.07,.5-.1,.3-.06,.59-.11,.89-.15,.17-.02,.34-.05,.51-.07,.3-.04,.6-.07,.91-.09,.17-.01,.34-.03,.5-.04,.12,0,.24,0,.36-.01-.06,.11-.11,.22-.16,.33-.1,.19-.19,.39-.28,.58-.11,.24-.22,.48-.32,.72-.08,.2-.17,.4-.25,.6-.1,.25-.19,.5-.28,.75-.07,.2-.14,.4-.21,.6-.08,.26-.16,.52-.23,.77-.06,.2-.12,.4-.17,.6-.07,.27-.13,.54-.19,.81-.04,.2-.09,.39-.13,.59-.05,.28-.1,.57-.14,.86-.03,.19-.06,.38-.09,.56-.04,.32-.07,.64-.09,.96-.01,.16-.03,.32-.04,.48-.03,.48-.05,.96-.05,1.44s.02,.96,.05,1.44Zm2.49,6.57c-.09-.23-.18-.47-.26-.71-.07-.19-.14-.38-.2-.58-.08-.24-.15-.49-.22-.73-.05-.19-.11-.38-.16-.58-.06-.25-.12-.51-.17-.76-.04-.19-.09-.38-.12-.57-.05-.27-.09-.54-.13-.81-.03-.18-.06-.36-.08-.54-.04-.3-.06-.61-.09-.91-.01-.15-.03-.3-.04-.45-.03-.46-.04-.92-.04-1.37s.02-.92,.04-1.38c0-.15,.03-.3,.04-.45,.03-.3,.05-.61,.09-.91,.02-.18,.05-.36,.08-.54,.04-.27,.08-.55,.13-.82,.04-.19,.08-.38,.12-.56,.06-.26,.11-.52,.18-.77,.05-.19,.11-.38,.16-.58,.07-.25,.14-.49,.22-.74,.06-.19,.13-.39,.2-.58,.08-.24,.17-.47,.26-.71,.08-.19,.16-.38,.24-.57,.1-.23,.2-.46,.3-.68,.09-.19,.18-.38,.27-.56,.05-.11,.11-.21,.17-.32,.09,.15,.19,.29,.29,.43,.08,.12,.15,.23,.23,.35,.25,.36,.5,.71,.77,1.05,.01,.01,.02,.03,.03,.04,.28,.36,.57,.7,.87,1.04,.09,.1,.18,.2,.27,.3,.22,.24,.44,.47,.67,.7,.1,.1,.2,.21,.31,.31,.26,.25,.52,.49,.79,.73,.07,.06,.13,.12,.2,.18,.34,.29,.69,.57,1.04,.84,.09,.07,.18,.13,.27,.2,.27,.2,.55,.4,.83,.58,.12,.08,.24,.16,.36,.24,.28,.18,.56,.35,.85,.52,.1,.06,.21,.12,.31,.18,.39,.22,.78,.43,1.18,.63,.07,.03,.14,.06,.2,.09,.34,.16,.68,.32,1.02,.46,.13,.06,.26,.11,.4,.16,.3,.12,.6,.23,.9,.34,.13,.05,.26,.09,.39,.14,.4,.13,.8,.26,1.21,.37,.03,0,.05,.02,.08,.02,.37,.1,.74,.19,1.12,.27-.38,.08-.76,.18-1.14,.28-.04,.01-.08,.02-.12,.03-.4,.11-.79,.23-1.18,.36-.13,.04-.26,.09-.39,.14-.31,.11-.61,.22-.92,.35-.13,.05-.25,.1-.38,.15-.37,.16-.74,.32-1.11,.5-.04,.02-.08,.04-.12,.05-.4,.2-.8,.41-1.19,.63-.11,.06-.21,.13-.32,.19-.29,.17-.57,.34-.85,.52-.12,.08-.23,.15-.35,.23-.3,.2-.59,.41-.88,.62-.07,.05-.15,.11-.22,.16-.36,.27-.7,.56-1.04,.85-.08,.07-.16,.14-.24,.21-.26,.23-.51,.46-.76,.71-.1,.1-.2,.2-.31,.3-.24,.24-.47,.48-.7,.73-.08,.09-.16,.18-.24,.27-.3,.34-.59,.69-.87,1.04-.05,.06-.09,.12-.14,.18-.23,.3-.45,.61-.67,.92-.08,.12-.16,.24-.24,.36-.08,.12-.17,.24-.25,.37-.06-.12-.12-.23-.18-.35-.09-.18-.18-.37-.27-.55-.11-.23-.21-.46-.3-.69-.08-.19-.16-.38-.23-.57Zm43.26-9.46c0-.16-.03-.32-.04-.47-.03-.32-.05-.64-.09-.96-.02-.19-.06-.37-.08-.56-.04-.29-.09-.58-.14-.86-.04-.2-.08-.39-.13-.59-.06-.27-.12-.55-.19-.82-.05-.2-.11-.4-.17-.59-.08-.26-.15-.53-.24-.79-.06-.2-.13-.4-.2-.59-.09-.25-.18-.51-.28-.76-.08-.2-.16-.39-.24-.59-.11-.25-.21-.49-.33-.73-.09-.19-.18-.38-.28-.58-.06-.11-.11-.22-.16-.33,.12,0,.24,0,.36,.01,.17,0,.33,.02,.5,.04,.31,.02,.61,.05,.91,.09,.17,.02,.33,.04,.5,.07,.3,.04,.6,.09,.9,.15,.16,.03,.33,.06,.49,.1,.3,.06,.59,.13,.89,.21,.16,.04,.32,.08,.48,.13,.29,.08,.58,.17,.87,.27,.15,.05,.31,.1,.46,.15,.29,.1,.58,.21,.86,.33,.15,.06,.29,.11,.44,.18,.29,.12,.57,.25,.85,.39,.14,.07,.27,.13,.41,.2,.29,.14,.57,.3,.85,.45,.12,.07,.25,.14,.37,.21,.29,.17,.57,.35,.86,.53,.11,.07,.22,.13,.32,.21,.3,.2,.59,.41,.88,.63,.08,.06,.17,.12,.25,.18,.34,.26,.66,.53,.98,.8,.03,.03,.06,.05,.09,.08,.71,.62,1.38,1.28,2,1.99,.07,.08,.14,.17,.21,.25,.23,.27,.46,.54,.68,.82,.11,.14,.21,.28,.31,.42,.17,.23,.35,.47,.51,.71,.12,.17,.22,.35,.34,.53,.11,.18,.23,.36,.34,.54-.12,.2-.24,.39-.36,.58-.1,.16-.2,.33-.31,.49-.16,.24-.34,.48-.51,.71-.11,.14-.21,.29-.31,.43-.2,.26-.41,.5-.62,.75-.09,.11-.18,.22-.28,.33-.62,.7-1.28,1.36-1.98,1.97-.11,.09-.22,.18-.33,.27-.24,.21-.49,.41-.74,.61-.14,.11-.29,.21-.43,.31-.23,.17-.46,.34-.7,.5-.16,.11-.32,.2-.48,.31-.23,.15-.46,.29-.69,.43-.17,.1-.35,.19-.52,.29-.23,.13-.46,.25-.7,.37-.18,.09-.37,.18-.55,.26-.23,.11-.47,.22-.71,.32-.19,.08-.38,.16-.57,.23-.24,.09-.48,.19-.72,.27-.2,.07-.4,.13-.59,.2-.24,.08-.49,.15-.73,.22-.2,.06-.41,.11-.61,.16-.25,.06-.49,.12-.74,.18-.21,.04-.42,.09-.62,.13-.25,.05-.5,.09-.76,.13-.21,.03-.42,.06-.64,.09-.25,.03-.51,.06-.77,.08-.21,.02-.43,.03-.64,.05-.1,0-.2,0-.3,.01,.06-.12,.11-.24,.17-.35,.1-.19,.19-.39,.29-.59,.11-.24,.22-.47,.32-.71,.09-.2,.17-.4,.25-.6,.1-.24,.18-.49,.27-.74,.07-.2,.14-.41,.21-.61,.08-.25,.15-.51,.23-.76,.06-.2,.12-.41,.17-.61,.07-.26,.12-.53,.18-.8,.04-.2,.09-.4,.13-.6,.05-.28,.09-.56,.14-.85,.03-.19,.06-.38,.09-.57,.04-.32,.07-.63,.09-.95,.01-.16,.03-.32,.04-.48,.03-.48,.05-.96,.05-1.44s-.02-.96-.05-1.44Zm-2.51-6.6c.09,.24,.18,.47,.26,.71,.07,.19,.14,.38,.2,.58,.08,.24,.15,.49,.22,.74,.05,.19,.11,.38,.16,.58,.07,.26,.12,.51,.18,.77,.04,.19,.09,.38,.12,.57,.05,.27,.09,.54,.13,.82,.03,.18,.06,.36,.08,.54,.04,.3,.06,.61,.09,.92,.01,.15,.03,.3,.04,.45,.03,.46,.04,.92,.04,1.38s-.02,.92-.04,1.38c0,.15-.03,.3-.04,.45-.03,.3-.05,.61-.09,.91-.02,.18-.05,.36-.08,.54-.04,.27-.08,.54-.13,.81-.04,.19-.08,.38-.12,.57-.06,.26-.11,.51-.18,.76-.05,.19-.11,.39-.16,.58-.07,.25-.14,.49-.22,.73-.06,.2-.13,.39-.2,.58-.08,.24-.17,.47-.26,.71-.08,.19-.16,.38-.24,.57-.1,.23-.2,.46-.31,.68-.09,.19-.18,.38-.27,.56-.05,.11-.11,.21-.17,.32-.08-.12-.16-.24-.24-.36-.08-.12-.16-.24-.24-.37-.21-.31-.43-.61-.66-.91-.05-.07-.1-.13-.15-.2-.28-.36-.57-.7-.86-1.04-.08-.09-.17-.18-.25-.28-.22-.25-.45-.49-.68-.72-.1-.1-.21-.21-.32-.31-.24-.24-.49-.47-.75-.69-.09-.08-.17-.15-.25-.23-.34-.29-.68-.57-1.04-.84-.08-.06-.16-.12-.24-.18-.28-.21-.57-.41-.86-.61-.12-.08-.24-.16-.36-.24-.27-.18-.55-.35-.83-.51-.11-.07-.22-.13-.34-.2-.39-.22-.78-.43-1.18-.63-.05-.02-.09-.04-.14-.07-.36-.17-.72-.34-1.08-.49-.13-.06-.26-.11-.39-.16-.3-.12-.6-.23-.9-.34-.13-.05-.27-.1-.4-.14-.38-.13-.76-.25-1.15-.35-.05-.01-.09-.03-.14-.04-.37-.1-.75-.19-1.13-.28,.38-.08,.76-.17,1.13-.27,.02,0,.05-.01,.07-.02,.41-.11,.81-.24,1.21-.37,.13-.04,.26-.09,.39-.14,.3-.11,.61-.22,.91-.34,.13-.05,.26-.1,.39-.16,.35-.15,.69-.3,1.03-.46,.06-.03,.13-.06,.2-.09,.4-.2,.79-.41,1.18-.63,.11-.06,.21-.12,.32-.19,.28-.17,.56-.34,.84-.52,.12-.08,.24-.16,.37-.24,.28-.19,.55-.38,.82-.58,.09-.07,.19-.13,.28-.2,.35-.27,.7-.55,1.04-.84,.07-.06,.14-.13,.21-.19,.27-.23,.53-.48,.78-.72,.11-.1,.21-.21,.31-.31,.23-.23,.45-.46,.66-.7,.09-.1,.19-.2,.28-.3,.3-.34,.59-.68,.86-1.03,.01-.02,.02-.03,.04-.05,.26-.34,.52-.69,.76-1.04,.08-.12,.16-.24,.24-.35,.09-.14,.19-.28,.28-.43,.05,.1,.11,.2,.16,.31,.09,.19,.19,.37,.27,.56,.11,.23,.21,.46,.31,.69,.08,.19,.16,.38,.24,.57ZM24.21,57c.15,0,.29-.02,.44-.03,.36-.03,.71-.06,1.06-.11,.1-.01,.2-.02,.31-.04,.45-.06,.89-.14,1.34-.22,.11-.02,.21-.05,.31-.07,.34-.07,.68-.15,1.02-.24,.14-.04,.28-.08,.42-.11,.32-.09,.64-.19,.96-.29,.12-.04,.23-.07,.35-.11,.42-.15,.84-.3,1.25-.48,.07-.03,.14-.06,.22-.1,.34-.15,.68-.3,1.01-.46,.13-.06,.26-.13,.39-.19,.29-.15,.57-.3,.85-.46,.12-.07,.24-.13,.36-.2,.38-.23,.76-.46,1.14-.7,.02-.01,.04-.03,.06-.04,.35-.24,.7-.48,1.04-.74,.11-.08,.22-.17,.33-.26,.25-.2,.5-.4,.74-.61,.11-.09,.22-.19,.33-.28,.29-.25,.57-.51,.84-.78,.05-.05,.1-.09,.15-.14,.28-.28,.55-.56,.82-.85-.11,.34-.21,.68-.3,1.03-.02,.08-.04,.15-.06,.23-.11,.43-.21,.86-.3,1.29,0,.01,0,.02,0,.03-.09,.44-.16,.88-.22,1.33-.01,.08-.02,.16-.03,.25-.05,.43-.1,.86-.13,1.3,0,.08,0,.16-.01,.25-.03,.45-.04,.9-.04,1.36,0,.49,.02,.97,.05,1.45,.01,.16,.03,.32,.04,.48,.03,.32,.05,.64,.09,.96,.02,.19,.06,.38,.09,.57,.04,.29,.09,.57,.14,.86,.04,.2,.09,.4,.13,.6,.06,.27,.12,.54,.19,.81,.05,.21,.11,.41,.17,.61,.07,.26,.15,.52,.23,.77,.07,.2,.14,.41,.21,.61,.09,.25,.18,.5,.28,.75,.08,.2,.16,.4,.25,.59,.11,.25,.22,.49,.33,.73,.09,.19,.18,.38,.28,.57,.05,.09,.09,.19,.14,.28-.1,0-.2,0-.3-.01-.21-.01-.42-.03-.62-.04-.26-.02-.51-.05-.76-.08-.21-.02-.41-.05-.62-.08-.25-.04-.5-.08-.75-.13-.2-.04-.41-.08-.61-.12-.25-.05-.49-.11-.74-.17-.2-.05-.4-.1-.6-.16-.24-.07-.49-.15-.73-.22-.19-.06-.39-.12-.58-.19-.24-.09-.48-.18-.72-.27-.19-.07-.37-.14-.55-.22-.25-.1-.49-.22-.74-.33-.17-.08-.34-.15-.5-.23-.28-.14-.55-.29-.83-.44-.12-.07-.25-.13-.38-.2-.39-.23-.78-.46-1.15-.71-.12-.08-.23-.17-.35-.25-.26-.18-.51-.35-.76-.54-.15-.11-.29-.23-.43-.34-.21-.17-.43-.34-.64-.52-.15-.13-.29-.26-.44-.39-.19-.18-.39-.35-.58-.53-.15-.14-.29-.29-.43-.43-.18-.18-.36-.37-.53-.56-.14-.15-.27-.31-.41-.46-.17-.19-.33-.39-.49-.59-.13-.16-.26-.33-.38-.49-.15-.21-.31-.41-.45-.62-.12-.17-.24-.34-.35-.52-.07-.1-.13-.2-.19-.3,.13,0,.26-.02,.38-.02Zm-.37-1c3.84-6.03,10.44-9.84,17.57-10.14-3.84,6.03-10.43,9.84-17.57,10.14Zm16.01,.53c0-3.54,.86-7.03,2.49-10.14,1.63,3.11,2.49,6.6,2.49,10.14s-.86,7.03-2.49,10.14c-1.63-3.11-2.49-6.59-2.49-10.14Zm-16-21.88c7.14,.3,13.73,4.11,17.57,10.15-7.12-.3-13.73-4.11-17.57-10.15Zm36.99,21.35c-7.14-.3-13.74-4.11-17.57-10.14,7.14,.3,13.74,4.12,17.57,10.14Zm-17.57-11.2c.24-.38,.49-.75,.75-1.11,3.91-5.39,10.12-8.76,16.82-9.04-.83,1.3-1.8,2.5-2.86,3.58-.47,.48-.96,.95-1.48,1.38-2.56,2.16-5.58,3.71-8.84,4.53-1,.25-2.02,.44-3.06,.55-.44,.05-.88,.08-1.33,.1Zm.09,22.11c.1-.19,.19-.38,.28-.57,.11-.24,.23-.49,.33-.73,.09-.2,.17-.4,.25-.6,.1-.25,.19-.5,.28-.75,.07-.2,.14-.41,.21-.61,.08-.26,.16-.51,.23-.77,.06-.2,.12-.41,.17-.61,.07-.27,.13-.53,.19-.8,.04-.2,.09-.4,.13-.6,.05-.28,.1-.57,.14-.85,.03-.19,.06-.38,.09-.57,.04-.32,.07-.64,.09-.96,.01-.16,.03-.32,.04-.49,.03-.48,.05-.97,.05-1.45,0-.45-.02-.91-.04-1.36,0-.08,0-.17-.01-.25-.03-.43-.07-.86-.13-1.29-.01-.08-.02-.17-.03-.25-.06-.44-.13-.89-.22-1.32,0-.01,0-.02,0-.03-.09-.43-.19-.86-.3-1.29-.02-.08-.04-.16-.06-.23-.09-.35-.19-.69-.3-1.03,.27,.29,.54,.58,.82,.86,.04,.04,.09,.09,.14,.13,.28,.27,.56,.54,.85,.79,.11,.09,.21,.18,.32,.28,.25,.21,.5,.42,.76,.62,.11,.08,.21,.17,.32,.25,.35,.26,.7,.52,1.06,.76,.01,0,.02,.01,.03,.02,.37,.25,.75,.48,1.14,.71,.11,.07,.23,.13,.35,.2,.28,.16,.57,.31,.86,.46,.13,.06,.25,.13,.38,.19,.34,.16,.68,.32,1.03,.47,.07,.03,.13,.06,.2,.09,.41,.17,.83,.33,1.26,.48,.11,.04,.23,.07,.35,.11,.32,.11,.64,.2,.96,.3,.14,.04,.28,.08,.42,.11,.34,.09,.68,.17,1.02,.24,.11,.02,.21,.05,.32,.07,.44,.09,.89,.16,1.34,.22,.1,.01,.21,.02,.31,.04,.35,.04,.71,.08,1.06,.11,.15,.01,.29,.02,.44,.03,.13,0,.25,.02,.38,.02-.06,.1-.12,.2-.19,.3-.11,.17-.23,.34-.34,.51-.15,.21-.3,.43-.46,.64-.12,.16-.25,.32-.37,.48-.16,.2-.33,.4-.5,.6-.13,.15-.26,.31-.4,.45-.18,.19-.36,.38-.54,.57-.14,.14-.28,.28-.42,.42-.19,.19-.39,.36-.59,.54-.14,.13-.28,.26-.43,.39-.21,.18-.43,.35-.64,.52-.14,.11-.28,.23-.42,.34-.24,.18-.5,.36-.75,.53-.12,.09-.24,.18-.37,.26-.38,.25-.76,.48-1.15,.71-.14,.08-.28,.15-.41,.22-.26,.14-.52,.29-.79,.42-.18,.09-.37,.17-.55,.26-.23,.11-.45,.21-.69,.31-.2,.08-.4,.16-.61,.24-.22,.09-.44,.17-.67,.25-.21,.07-.42,.14-.64,.21-.22,.07-.44,.14-.67,.2-.22,.06-.44,.12-.65,.17-.23,.06-.45,.11-.68,.16-.22,.05-.44,.09-.66,.13-.23,.04-.46,.08-.7,.12-.22,.03-.44,.06-.66,.09-.24,.03-.48,.05-.73,.07-.22,.02-.43,.03-.65,.05-.1,0-.2,0-.29,0,.05-.09,.09-.19,.14-.28Zm17.1-33.26c-.11,0-.23,.01-.34,.02-.08,0-.16,.01-.24,.02-.31,.03-.62,.06-.92,.1-.1,.01-.21,.02-.31,.04-.04,0-.08,0-.11,.01-.03,0-.07,.01-.1,.02-.38,.06-.75,.12-1.12,.19-.06,.01-.11,.02-.17,.03-.12,.02-.23,.05-.35,.08-.27,.06-.54,.13-.82,.2-.09,.02-.19,.05-.28,.07-.08,.02-.17,.05-.25,.07-.28,.08-.57,.17-.85,.26-.11,.03-.21,.07-.32,.1-.04,.01-.08,.03-.12,.04-.39,.14-.78,.29-1.17,.45-.03,.01-.07,.03-.1,.04-.1,.04-.21,.09-.31,.14-.28,.12-.55,.24-.82,.38-.07,.03-.14,.07-.22,.1-.08,.04-.17,.09-.25,.13-.26,.13-.52,.27-.78,.42-.09,.05-.18,.1-.27,.15-.04,.03-.09,.05-.13,.08-.37,.22-.73,.44-1.08,.67-.01,0-.02,.02-.04,.03,0,0,0,0,0,0-.07,.05-.14,.1-.21,.15-.28,.19-.56,.39-.84,.6-.05,.04-.1,.07-.15,.11-.08,.06-.15,.12-.23,.18-.24,.19-.47,.38-.7,.57-.07,.06-.15,.12-.22,.18-.05,.04-.09,.08-.13,.12-.28,.25-.56,.51-.82,.77-.04,.04-.09,.08-.13,.12,0,0-.02,.02-.02,.02-.27,.27-.54,.55-.79,.83,.11-.34,.21-.68,.3-1.02,.02-.08,.04-.16,.06-.24,.11-.42,.21-.85,.3-1.28,0-.01,0-.03,0-.04,.09-.44,.16-.88,.22-1.32,.01-.08,.02-.17,.03-.25,.05-.43,.1-.86,.13-1.3,0-.08,0-.16,.01-.25,.03-.45,.04-.91,.04-1.36,0-.49-.02-.97-.05-1.45-.01-.16-.03-.32-.04-.48-.03-.32-.05-.64-.09-.96-.02-.19-.06-.38-.09-.57-.04-.29-.09-.58-.14-.86-.04-.2-.08-.4-.13-.6-.06-.27-.12-.54-.19-.81-.05-.2-.11-.4-.17-.6-.08-.26-.15-.52-.24-.78-.07-.2-.14-.4-.21-.6-.09-.26-.19-.51-.29-.76-.08-.2-.16-.39-.24-.59-.11-.25-.22-.5-.34-.74-.09-.19-.18-.38-.28-.57-.05-.09-.09-.19-.14-.28,.1,0,.2,0,.3,0,.21,.01,.41,.03,.62,.04,.26,.02,.51,.05,.76,.08,.21,.02,.41,.05,.62,.08,.25,.04,.5,.08,.75,.12,.2,.04,.41,.08,.61,.12,.25,.05,.49,.11,.73,.17,.2,.05,.4,.1,.6,.16,.24,.07,.48,.14,.72,.22,.2,.06,.39,.12,.58,.19,.24,.08,.48,.18,.71,.27,.19,.07,.38,.14,.56,.22,.24,.1,.48,.21,.71,.32,.18,.08,.35,.16,.53,.24,.25,.12,.49,.26,.73,.39,.16,.08,.31,.16,.47,.25,.29,.17,.57,.34,.85,.52,.1,.07,.21,.12,.31,.19,.38,.25,.75,.51,1.11,.78,.11,.08,.22,.17,.33,.26,.25,.19,.5,.39,.74,.59,.14,.12,.27,.24,.4,.36,.21,.18,.41,.37,.61,.56,.14,.13,.27,.27,.41,.41,.18,.19,.37,.38,.55,.57,.13,.15,.26,.3,.39,.45,.17,.2,.34,.39,.5,.59,.13,.16,.25,.32,.37,.49,.15,.2,.31,.41,.46,.62,.12,.17,.23,.34,.35,.52,.08,.12,.16,.25,.24,.37-.13,0-.25,.02-.38,.02Zm-15.63,.47c0,3.55-.86,7.03-2.49,10.14-1.63-3.11-2.49-6.6-2.49-10.14s.86-7.03,2.49-10.14c1.63,3.11,2.49,6.6,2.49,10.14Zm-3.5-10.38c-.1,.19-.19,.38-.28,.57-.12,.24-.23,.49-.33,.74-.08,.2-.17,.39-.25,.59-.1,.25-.19,.5-.28,.75-.07,.2-.14,.4-.21,.6-.08,.26-.16,.52-.24,.78-.06,.2-.12,.4-.17,.61-.07,.27-.13,.54-.19,.81-.04,.2-.09,.4-.13,.6-.05,.29-.1,.57-.14,.86-.03,.19-.06,.38-.09,.57-.04,.32-.07,.64-.09,.96-.01,.16-.03,.32-.04,.48-.03,.48-.05,.97-.05,1.45,0,.45,.02,.91,.04,1.36,0,.08,0,.17,.01,.25,.03,.43,.07,.86,.13,1.29,.01,.09,.02,.17,.04,.26,.06,.44,.13,.88,.22,1.32,0,.02,0,.04,.01,.05,.09,.43,.19,.85,.3,1.27,.02,.08,.04,.16,.06,.24,.09,.34,.19,.68,.3,1.02-.26-.28-.52-.56-.79-.83,0,0-.02-.02-.03-.03-.04-.04-.08-.08-.13-.12-.27-.26-.55-.52-.83-.77-.05-.04-.09-.08-.13-.12-.07-.06-.15-.12-.22-.18-.23-.2-.46-.39-.7-.57-.08-.06-.15-.13-.23-.19-.05-.04-.1-.07-.15-.11-.28-.21-.56-.41-.84-.61-.07-.05-.14-.1-.21-.15-.01,0-.03-.02-.04-.03,0,0,0,0,0,0-.35-.24-.72-.46-1.08-.68-.04-.03-.09-.05-.13-.08-.08-.05-.17-.09-.25-.14-.26-.15-.53-.29-.8-.43-.08-.04-.17-.09-.25-.13-.07-.03-.13-.06-.2-.09-.28-.13-.56-.26-.84-.38-.1-.05-.21-.09-.31-.14-.03-.01-.06-.02-.09-.04-.39-.16-.78-.31-1.18-.45-.04-.01-.08-.03-.12-.04-.09-.03-.19-.06-.28-.09-.29-.1-.58-.19-.88-.27-.09-.03-.17-.05-.26-.08-.08-.02-.17-.04-.25-.07-.28-.07-.55-.14-.83-.2-.12-.03-.24-.06-.36-.08-.05-.01-.1-.02-.15-.03-.37-.07-.75-.14-1.12-.19-.04,0-.07-.01-.1-.02-.04,0-.09-.01-.13-.02-.09-.01-.18-.02-.27-.03-.31-.04-.63-.07-.95-.1-.08,0-.16-.01-.25-.02-.11,0-.22-.01-.33-.02-.13,0-.26-.02-.39-.03,.08-.13,.16-.25,.24-.38,.11-.17,.23-.34,.35-.51,.15-.21,.31-.42,.46-.63,.12-.16,.24-.32,.37-.48,.16-.2,.33-.4,.5-.6,.13-.15,.26-.3,.39-.45,.18-.19,.36-.38,.55-.57,.14-.14,.27-.28,.41-.41,.2-.19,.4-.37,.6-.55,.14-.12,.27-.25,.41-.37,.23-.2,.47-.38,.7-.57,.12-.09,.24-.2,.36-.29,.36-.27,.72-.53,1.1-.77,.15-.1,.3-.18,.44-.27,.24-.15,.47-.3,.71-.44,.18-.1,.37-.2,.55-.3,.21-.11,.43-.23,.64-.34,.2-.1,.4-.19,.6-.28,.21-.1,.42-.19,.63-.28,.21-.09,.42-.17,.64-.25,.21-.08,.42-.16,.63-.24,.22-.08,.44-.14,.66-.21,.21-.07,.43-.13,.65-.2,.22-.06,.45-.12,.67-.17,.22-.05,.44-.11,.66-.15,.22-.05,.45-.09,.68-.13,.23-.04,.45-.08,.68-.11,.22-.03,.45-.06,.67-.09,.24-.03,.47-.05,.71-.07,.22-.02,.44-.04,.66-.05,.09,0,.19,0,.28,0-.05,.09-.09,.19-.14,.28Zm19.36,55.95c-.12,.18-.25,.37-.37,.55-.15,.21-.29,.41-.44,.62-.13,.18-.27,.35-.41,.52-.16,.2-.32,.39-.48,.58-.14,.17-.29,.33-.44,.49-.17,.19-.34,.37-.52,.55-.15,.16-.31,.31-.46,.46-.18,.17-.36,.34-.55,.51-.16,.14-.32,.29-.48,.43-.19,.16-.39,.32-.59,.48-.17,.13-.33,.26-.5,.39-.21,.15-.41,.3-.62,.45-.17,.12-.34,.24-.52,.35-.22,.14-.44,.28-.66,.41-.17,.11-.35,.21-.53,.31-.23,.13-.47,.25-.71,.38-.17,.09-.35,.18-.53,.27-.25,.12-.5,.23-.75,.34-.17,.08-.34,.15-.52,.23-.27,.11-.54,.21-.81,.31-.17,.06-.33,.13-.5,.18-.29,.1-.58,.18-.87,.27-.16,.05-.31,.1-.46,.14-.32,.09-.64,.16-.97,.23-.13,.03-.27,.06-.4,.09-.37,.07-.74,.13-1.12,.19-.09,.01-.18,.03-.27,.04-.94,.13-1.9,.19-2.87,.19s-1.93-.07-2.88-.19c-.05,0-.1-.02-.15-.02-.42-.06-.84-.13-1.25-.21-.09-.02-.18-.04-.26-.06-.37-.08-.74-.16-1.11-.26-.11-.03-.21-.06-.32-.09-.34-.1-.69-.2-1.02-.31-.12-.04-.24-.09-.36-.13-.32-.11-.64-.23-.95-.36-.13-.05-.25-.11-.38-.16-.3-.13-.6-.26-.9-.41-.13-.06-.26-.13-.39-.2-.29-.15-.57-.3-.85-.45-.13-.08-.26-.16-.39-.23-.27-.16-.54-.32-.8-.49-.13-.09-.26-.18-.39-.27-.25-.17-.5-.35-.75-.53-.13-.1-.26-.2-.39-.31-.23-.18-.47-.37-.69-.57-.13-.11-.26-.23-.39-.34-.22-.19-.43-.39-.64-.6-.13-.13-.26-.26-.39-.39-.2-.2-.39-.41-.58-.62-.13-.14-.26-.29-.38-.43-.18-.21-.35-.42-.52-.63-.13-.16-.25-.32-.37-.48-.16-.21-.31-.43-.47-.65-.12-.18-.24-.35-.36-.53-.05-.08-.11-.17-.16-.25,.13,0,.25-.02,.38-.03,.18,0,.35-.02,.53-.04,.32-.03,.63-.06,.94-.1,.17-.02,.35-.04,.52-.07,.32-.05,.63-.1,.94-.16,.16-.03,.33-.06,.49-.1,.32-.07,.64-.14,.95-.23,.15-.04,.31-.08,.46-.12,.33-.09,.65-.19,.98-.3,.13-.04,.27-.08,.4-.13,.35-.12,.69-.25,1.03-.39,.1-.04,.21-.08,.31-.12,.4-.17,.79-.35,1.17-.53,.05-.02,.09-.04,.14-.06,1.31-.65,2.56-1.42,3.73-2.31,.08-.06,.17-.13,.25-.2,.29-.23,.58-.46,.87-.71,.11-.1,.22-.2,.34-.3,.24-.22,.49-.44,.72-.67,.13-.12,.25-.25,.37-.38,.21-.22,.42-.44,.63-.66,.13-.14,.26-.29,.38-.44,.19-.22,.37-.44,.55-.66,.13-.16,.26-.33,.38-.5,.16-.22,.32-.44,.48-.66,.13-.19,.25-.37,.38-.56,.06-.1,.13-.19,.19-.29,.08,.12,.16,.24,.24,.36,.09,.14,.18,.28,.28,.41,.18,.27,.37,.53,.57,.79,.1,.13,.2,.27,.31,.4,.2,.25,.41,.5,.62,.75,.11,.12,.21,.25,.32,.37,.22,.24,.45,.48,.68,.72,.11,.11,.22,.23,.33,.34,.24,.24,.49,.47,.75,.7,.11,.1,.21,.19,.32,.29,.28,.24,.57,.47,.86,.7,.09,.07,.17,.14,.26,.21,.36,.28,.73,.54,1.11,.79,.02,.01,.04,.03,.06,.04,.81,.54,1.66,1.03,2.54,1.47,.07,.03,.14,.06,.21,.1,.36,.18,.73,.34,1.1,.5,.12,.05,.24,.1,.37,.14,.32,.13,.65,.26,.98,.37,.15,.05,.29,.1,.44,.14,.31,.1,.62,.2,.94,.29,.16,.04,.32,.08,.48,.13,.31,.08,.62,.15,.93,.22,.17,.04,.34,.07,.51,.1,.31,.06,.62,.11,.93,.16,.18,.03,.35,.05,.53,.07,.31,.04,.62,.07,.94,.09,.18,.01,.35,.03,.53,.04,.12,0,.25,.02,.37,.03-.05,.08-.1,.17-.16,.25Zm1.67-3.08c-.1,.23-.2,.47-.32,.7-.1,.2-.2,.39-.31,.59-.09,.18-.18,.35-.28,.53-.16,0-.33-.01-.49-.02-.27,0-.54-.02-.81-.04-.19-.01-.38-.04-.57-.06-.28-.03-.55-.05-.83-.09-.17-.02-.33-.06-.5-.08-.29-.05-.59-.09-.88-.15-.07-.01-.14-.03-.21-.05-.77-.17-1.53-.37-2.27-.62-.05-.02-.1-.03-.15-.04-.28-.09-.55-.2-.82-.31-.16-.06-.32-.12-.47-.18-.25-.1-.5-.22-.74-.33-.17-.08-.35-.15-.52-.24-.23-.11-.46-.24-.69-.36-.18-.09-.36-.18-.53-.28-.22-.13-.44-.26-.66-.4-.18-.11-.35-.21-.52-.33-.21-.14-.42-.28-.62-.43-.17-.12-.34-.24-.51-.36-.2-.15-.4-.31-.59-.47-.16-.13-.33-.26-.49-.4-.19-.16-.38-.33-.57-.5-.16-.14-.31-.28-.46-.43-.18-.18-.36-.36-.54-.54-.15-.15-.29-.3-.43-.46-.17-.19-.34-.38-.51-.58-.14-.16-.27-.32-.4-.48-.16-.2-.32-.41-.48-.61-.12-.17-.24-.34-.36-.51-.15-.22-.3-.43-.44-.65-.04-.07-.08-.14-.13-.2,.11,0,.21-.02,.32-.02,.22-.01,.43-.03,.65-.05,.27-.02,.54-.05,.81-.08,.21-.03,.43-.05,.64-.09,.27-.04,.53-.08,.8-.13,.21-.04,.42-.08,.63-.12,.27-.06,.53-.12,.79-.19,.2-.05,.41-.1,.61-.16,.27-.07,.53-.16,.79-.24,.19-.06,.39-.12,.58-.19,.27-.09,.54-.2,.81-.3,.18-.07,.36-.14,.53-.21,.29-.12,.57-.25,.85-.38,.15-.07,.3-.14,.45-.21,.35-.17,.69-.36,1.03-.55,.08-.04,.15-.08,.23-.12,.42-.24,.82-.49,1.22-.76,.09-.06,.19-.13,.28-.2,.3-.21,.6-.41,.89-.63,.14-.1,.27-.21,.4-.32,.24-.19,.48-.38,.71-.58,.15-.12,.29-.26,.43-.38,.21-.19,.43-.39,.63-.59,.14-.14,.28-.29,.43-.43,.2-.2,.39-.4,.58-.61,.14-.15,.27-.31,.41-.47,.18-.21,.36-.42,.53-.64,.13-.17,.26-.33,.39-.5,.17-.22,.33-.44,.48-.67,.12-.18,.24-.35,.36-.53,.07-.1,.14-.2,.21-.31,.06,.11,.12,.22,.18,.33,.09,.18,.18,.37,.27,.55,.11,.23,.21,.46,.31,.69,.08,.19,.16,.38,.24,.57,.09,.23,.18,.47,.26,.71,.07,.19,.14,.38,.2,.58,.08,.24,.15,.49,.22,.73,.05,.19,.11,.39,.16,.58,.06,.25,.12,.51,.18,.76,.04,.19,.09,.38,.12,.57,.05,.27,.09,.54,.13,.81,.03,.18,.06,.36,.08,.54,.04,.3,.06,.61,.09,.91,.01,.15,.03,.3,.04,.46,.03,.46,.04,.92,.04,1.37s-.02,.95-.05,1.42c-.01,.15-.03,.31-.04,.46-.03,.32-.05,.64-.09,.95-.02,.18-.06,.36-.09,.54-.04,.29-.09,.57-.14,.86-.04,.19-.09,.38-.13,.57-.06,.27-.12,.54-.19,.8-.05,.2-.12,.39-.17,.59-.08,.26-.15,.51-.23,.77-.07,.2-.14,.39-.22,.59-.09,.25-.18,.49-.28,.73-.08,.2-.17,.39-.26,.59Zm19.51-28.72c.08,.19,.16,.37,.23,.56,.09,.24,.18,.48,.27,.72,.07,.19,.14,.38,.2,.57,.08,.25,.15,.49,.22,.74,.06,.19,.11,.38,.16,.58,.07,.26,.12,.52,.18,.77,.04,.19,.09,.38,.12,.57,.05,.27,.09,.55,.14,.82,.03,.18,.06,.36,.08,.54,.04,.3,.06,.61,.09,.92,.01,.15,.03,.3,.04,.46,.03,.46,.05,.92,.05,1.38,0,1.44-.14,2.87-.42,4.26-.46,2.33-1.3,4.57-2.48,6.63-.01,.02-.03,.04-.04,.06-.24,.41-.49,.82-.76,1.21-.09,.13-.19,.26-.28,.39-.18,.26-.36,.52-.55,.77-.12,.15-.24,.29-.36,.44-.18,.22-.35,.44-.54,.65-.13,.15-.27,.3-.41,.45-.18,.2-.36,.39-.55,.58-.15,.15-.3,.29-.45,.43-.19,.18-.37,.36-.56,.53-.16,.14-.33,.28-.49,.41-.19,.16-.39,.32-.58,.48-.17,.13-.35,.26-.53,.39-.2,.15-.4,.29-.6,.43-.18,.12-.37,.24-.56,.36-.2,.13-.41,.26-.62,.38-.19,.11-.39,.22-.58,.33-.21,.12-.42,.23-.64,.34-.2,.1-.41,.2-.61,.3-.22,.1-.43,.2-.65,.3-.21,.09-.42,.18-.63,.26-.22,.09-.44,.17-.66,.25-.22,.08-.43,.15-.65,.22-.22,.07-.45,.14-.68,.21-.22,.06-.45,.12-.67,.18-.23,.06-.46,.11-.69,.16-.23,.05-.45,.1-.68,.14-.23,.04-.47,.08-.7,.12-.23,.03-.46,.07-.69,.09-.24,.03-.48,.05-.72,.07-.23,.02-.46,.04-.69,.05-.1,0-.19,0-.29,0,.05-.09,.09-.19,.14-.28,.1-.19,.19-.38,.28-.58,.12-.24,.23-.49,.33-.74,.09-.2,.17-.4,.25-.59,.1-.25,.19-.5,.28-.75,.07-.2,.14-.4,.21-.61,.08-.26,.16-.52,.24-.78,.06-.2,.12-.4,.17-.61,.07-.27,.13-.54,.19-.81,.04-.2,.09-.4,.13-.6,.05-.28,.1-.57,.14-.86,.03-.19,.06-.38,.09-.57,.04-.32,.07-.64,.09-.96,.01-.16,.03-.32,.04-.48,.03-.48,.05-.97,.05-1.45s-.02-.96-.05-1.44c0-.16-.03-.31-.04-.47-.03-.32-.05-.64-.09-.96-.02-.19-.06-.37-.09-.56-.04-.29-.09-.58-.14-.86-.04-.2-.08-.39-.13-.59-.06-.27-.12-.54-.19-.81-.05-.2-.11-.4-.17-.6-.07-.26-.15-.52-.23-.78-.06-.2-.14-.4-.21-.59-.09-.25-.18-.51-.28-.76-.08-.2-.16-.39-.24-.59-.11-.25-.21-.49-.33-.73-.09-.19-.19-.38-.28-.57-.07-.13-.12-.26-.19-.39,.12,0,.24-.02,.36-.02,.22-.01,.43-.03,.65-.04,.27-.02,.54-.05,.81-.08,.21-.03,.43-.05,.64-.08,.27-.04,.54-.09,.81-.14,.21-.04,.41-.08,.62-.12,.27-.06,.54-.12,.81-.19,.2-.05,.4-.1,.6-.15,.27-.08,.55-.16,.82-.25,.19-.06,.37-.12,.56-.18,.28-.1,.56-.21,.84-.32,.17-.07,.33-.13,.5-.2,.32-.13,.63-.28,.93-.43,.12-.06,.25-.11,.37-.17,.43-.21,.86-.44,1.27-.68,.02-.01,.04-.02,.05-.03,.4-.23,.78-.47,1.16-.72,.13-.09,.25-.18,.38-.27,.27-.18,.53-.37,.79-.57,.15-.11,.29-.23,.44-.35,.23-.18,.46-.37,.68-.56,.15-.13,.3-.27,.44-.4,.21-.19,.42-.38,.62-.57,.15-.14,.29-.29,.44-.44,.19-.2,.38-.4,.57-.6,.14-.16,.28-.32,.42-.48,.18-.21,.35-.42,.52-.63,.13-.17,.27-.34,.4-.51,.16-.22,.32-.44,.48-.66,.12-.18,.25-.36,.37-.54,.06-.09,.12-.18,.18-.27,.05,.1,.1,.19,.15,.29,.09,.18,.18,.36,.27,.55,.11,.23,.22,.47,.32,.7ZM62.85,12.26c.28,.01,.55,.04,.82,.06,.2,.02,.39,.04,.59,.06,.27,.03,.54,.07,.81,.11,.2,.03,.39,.06,.58,.1,.26,.05,.53,.1,.79,.16,.19,.04,.39,.09,.58,.14,.26,.06,.52,.13,.77,.21,.19,.06,.38,.11,.57,.17,.25,.08,.51,.16,.76,.25,.19,.07,.37,.14,.56,.21,.25,.1,.49,.19,.73,.3,.18,.08,.36,.16,.54,.25,.24,.11,.48,.22,.71,.34,.18,.09,.35,.19,.53,.28,.23,.13,.46,.25,.69,.39,.17,.1,.34,.21,.51,.32,.22,.14,.44,.28,.66,.42,.17,.11,.33,.24,.5,.35,.21,.15,.42,.3,.63,.46,.16,.13,.32,.26,.48,.39,.2,.16,.4,.32,.59,.49,.16,.14,.31,.29,.47,.44,.18,.17,.37,.34,.54,.52,.16,.16,.31,.33,.47,.49,.16,.17,.33,.35,.49,.53,.16,.19,.32,.38,.47,.57,.14,.17,.28,.34,.42,.51,.19,.24,.36,.49,.54,.74,.1,.14,.2,.27,.29,.4,.26,.39,.52,.8,.76,1.21,.01,.03,.03,.06,.05,.08,1.07,1.86,1.85,3.88,2.33,5.97,.37,1.61,.57,3.27,.57,4.94,0,.06,0,.11,0,.17,0,.4-.01,.81-.04,1.21-.01,.17-.03,.34-.05,.51-.03,.29-.05,.58-.09,.87-.02,.19-.06,.37-.09,.56-.04,.27-.08,.54-.13,.81-.04,.19-.08,.38-.12,.57-.06,.26-.12,.52-.18,.78-.05,.19-.1,.37-.16,.56-.07,.26-.15,.52-.24,.78-.06,.18-.12,.36-.18,.53-.09,.26-.19,.52-.29,.78-.07,.17-.13,.33-.2,.49-.12,.27-.24,.54-.37,.81-.07,.15-.14,.29-.21,.44-.05,.1-.11,.21-.17,.31-.06-.1-.13-.19-.19-.28-.11-.18-.23-.35-.35-.52-.16-.23-.32-.45-.48-.67-.13-.17-.26-.35-.4-.52-.16-.21-.33-.41-.51-.61-.15-.17-.29-.34-.44-.51-.17-.19-.35-.38-.53-.56-.16-.16-.32-.33-.48-.49-.18-.17-.36-.34-.55-.51-.17-.16-.34-.31-.52-.47-.19-.16-.38-.31-.57-.46-.18-.15-.36-.3-.55-.44-.19-.15-.39-.28-.59-.42-.19-.14-.39-.28-.58-.41-.2-.13-.4-.25-.61-.38-.4-.25-.81-.48-1.23-.71-.2-.11-.4-.22-.6-.32-.23-.11-.46-.21-.69-.32-.2-.09-.41-.19-.62-.28-.23-.1-.47-.18-.7-.28-.21-.08-.42-.17-.64-.24-.24-.08-.48-.16-.72-.23-.22-.07-.43-.14-.65-.2-.24-.07-.49-.13-.73-.19-.22-.05-.44-.11-.67-.16-.25-.05-.5-.1-.75-.14-.23-.04-.45-.08-.68-.11-.25-.04-.51-.07-.76-.1-.23-.03-.45-.05-.68-.07-.26-.02-.52-.04-.78-.05-.1,0-.2-.02-.29-.02,.07-.13,.12-.26,.19-.38,.11-.21,.21-.42,.31-.63,.1-.22,.2-.44,.29-.66,.09-.22,.18-.43,.27-.65,.09-.22,.17-.45,.25-.68,.08-.22,.16-.44,.23-.67,.07-.23,.14-.45,.2-.68,.07-.23,.14-.46,.19-.69,.06-.22,.1-.45,.15-.68,.05-.24,.11-.48,.16-.72,.04-.22,.07-.44,.11-.65,.04-.25,.09-.51,.12-.76,.02-.2,.04-.4,.06-.59,.03-.28,.06-.56,.08-.84,0-.1,0-.19,0-.29,.02-.37,.04-.75,.04-1.12,0-.31-.02-.61-.03-.91,0-.17,0-.33-.02-.5-.02-.28-.05-.55-.08-.83-.02-.2-.03-.41-.06-.61-.03-.26-.08-.52-.12-.79-.03-.21-.06-.43-.11-.64-.05-.25-.11-.5-.16-.75-.05-.22-.1-.44-.15-.66-.06-.24-.13-.48-.2-.72-.07-.22-.13-.45-.2-.67-.07-.23-.15-.45-.23-.68-.08-.23-.17-.46-.26-.69-.08-.21-.17-.42-.26-.63-.1-.24-.21-.47-.32-.7-.09-.2-.19-.39-.29-.58-.05-.1-.1-.21-.15-.31,.08,0,.15,0,.23,0Zm-1.41-.02c.1,.18,.19,.36,.29,.54,.1,.19,.2,.38,.3,.57,.12,.25,.23,.5,.34,.76,.08,.17,.16,.35,.23,.52,.12,.28,.22,.57,.32,.86,.05,.15,.12,.3,.17,.45,.11,.32,.2,.65,.3,.98,.03,.12,.07,.24,.11,.36,.1,.38,.19,.76,.27,1.15,.02,.08,.04,.15,.05,.23,.09,.46,.17,.92,.23,1.39,0,0,0,0,0,.01,.12,.95,.19,1.91,.19,2.87,0,.47-.02,.94-.05,1.4,0,.04,0,.08-.01,.12-.03,.41-.07,.83-.12,1.24-.02,.12-.04,.24-.06,.36-.05,.33-.1,.66-.16,.98-.03,.16-.07,.31-.1,.47-.06,.29-.12,.58-.2,.86-.04,.17-.1,.34-.14,.52-.07,.26-.15,.53-.23,.79-.06,.18-.12,.36-.19,.54-.09,.25-.18,.5-.27,.74-.07,.18-.15,.36-.22,.54-.1,.24-.2,.48-.31,.71-.08,.18-.17,.36-.26,.53-.06,.12-.13,.24-.19,.37-.08-.13-.17-.24-.25-.37-.12-.18-.24-.37-.37-.55-.15-.22-.31-.43-.47-.65-.13-.17-.26-.35-.4-.51-.17-.21-.35-.42-.52-.62-.14-.16-.27-.32-.42-.48-.19-.2-.38-.4-.57-.6-.14-.14-.28-.29-.43-.43-.21-.2-.43-.4-.65-.59-.14-.12-.27-.25-.41-.37-.26-.22-.52-.43-.79-.64-.11-.08-.21-.18-.32-.26-.38-.29-.77-.56-1.17-.83-.04-.03-.08-.05-.12-.08-.36-.23-.72-.46-1.1-.67-.13-.07-.26-.14-.39-.21-.29-.16-.58-.32-.88-.46-.15-.08-.31-.14-.47-.22-.28-.13-.55-.26-.84-.38-.17-.07-.34-.13-.51-.2-.27-.11-.55-.21-.83-.31-.18-.06-.36-.12-.54-.18-.28-.09-.55-.17-.83-.25-.19-.05-.38-.1-.56-.15-.28-.07-.55-.14-.83-.2-.19-.04-.39-.08-.58-.11-.28-.05-.56-.1-.84-.14-.2-.03-.4-.06-.6-.08-.28-.03-.55-.06-.83-.08-.21-.02-.42-.03-.63-.04-.11,0-.21-.02-.32-.02,.05-.08,.1-.17,.16-.25,.12-.18,.24-.36,.37-.54,.15-.21,.3-.42,.45-.63,.12-.17,.25-.33,.38-.49,.17-.21,.34-.42,.51-.62,.13-.15,.26-.3,.39-.44,.19-.2,.38-.4,.57-.6,.13-.13,.26-.27,.4-.4,.2-.2,.41-.39,.63-.58,.13-.12,.26-.24,.4-.35,.22-.19,.45-.38,.69-.56,.13-.1,.26-.21,.39-.31,.25-.19,.5-.36,.75-.54,.13-.09,.25-.18,.38-.26,.27-.18,.55-.35,.83-.52,.12-.07,.23-.14,.35-.21,.31-.18,.62-.34,.94-.5,.1-.05,.19-.1,.29-.15,.36-.18,.73-.34,1.1-.5,.06-.02,.11-.05,.17-.07,1.73-.72,3.57-1.22,5.45-1.48,.07-.01,.15-.02,.22-.02,.39-.05,.79-.09,1.18-.12,.11,0,.23,0,.35-.02,.29-.02,.58-.03,.87-.03Zm-37.48-1.22c.14-.22,.29-.44,.44-.65,.12-.18,.25-.35,.38-.52,.15-.2,.3-.4,.46-.59,.14-.18,.28-.35,.43-.52,.16-.18,.31-.36,.48-.54,.16-.17,.32-.34,.48-.51,.16-.16,.32-.33,.48-.48,.18-.17,.36-.34,.54-.5,.16-.15,.32-.29,.49-.43,.2-.17,.39-.33,.6-.49,.16-.13,.32-.25,.49-.38,.21-.16,.43-.31,.65-.47,.16-.11,.32-.22,.48-.33,.23-.15,.47-.3,.71-.44,.16-.09,.31-.19,.47-.28,.26-.14,.52-.28,.78-.42,.15-.08,.3-.16,.45-.23,.28-.14,.56-.26,.85-.38,.14-.06,.28-.13,.42-.18,.3-.12,.61-.24,.92-.35,.13-.05,.26-.1,.38-.14,.33-.11,.67-.21,1.01-.31,.11-.03,.22-.07,.33-.1,.37-.1,.75-.19,1.13-.27,.08-.02,.16-.04,.24-.05,.44-.09,.87-.16,1.32-.22,.03,0,.05,0,.08-.01,.95-.13,1.91-.19,2.88-.19s1.93,.07,2.87,.19c.08,.01,.15,.03,.23,.04,.39,.06,.77,.12,1.15,.19,.13,.03,.26,.06,.4,.09,.32,.07,.65,.14,.97,.23,.16,.04,.32,.1,.49,.14,.28,.08,.57,.17,.85,.26,.18,.06,.36,.13,.54,.2,.25,.09,.51,.18,.76,.29,.2,.08,.39,.17,.58,.25,.23,.1,.46,.2,.68,.31,.2,.1,.4,.2,.6,.31,.21,.11,.42,.22,.62,.33,.21,.12,.41,.24,.61,.36,.19,.12,.38,.23,.57,.35,.21,.13,.41,.27,.61,.42,.18,.12,.35,.25,.52,.37,.2,.15,.4,.31,.6,.47,.16,.13,.32,.26,.48,.39,.2,.17,.39,.34,.58,.51,.15,.14,.3,.28,.45,.42,.19,.18,.38,.37,.56,.56,.14,.14,.28,.29,.42,.44,.18,.2,.36,.4,.53,.6,.13,.15,.26,.31,.39,.47,.17,.21,.33,.42,.49,.63,.12,.16,.24,.33,.36,.5,.15,.22,.3,.43,.45,.66,.04,.07,.09,.14,.13,.21-.09,0-.17,.01-.25,.02-.27,.01-.54,.03-.8,.06-.22,.02-.43,.04-.65,.07-.27,.03-.53,.07-.79,.11-.21,.03-.43,.07-.64,.11-.26,.05-.52,.1-.79,.15-.21,.05-.41,.1-.62,.15-.26,.06-.52,.13-.78,.2-.2,.06-.4,.12-.6,.18-.26,.08-.52,.16-.77,.25-.19,.07-.38,.14-.57,.22-.26,.1-.52,.2-.77,.3-.18,.07-.35,.16-.52,.24-.26,.12-.52,.23-.78,.36-.13,.07-.26,.14-.39,.21-.65,.34-1.29,.71-1.9,1.11-.04,.03-.08,.05-.12,.07-.23,.16-.46,.32-.69,.49-.16,.11-.32,.22-.48,.34-.21,.16-.41,.33-.61,.49-.17,.14-.34,.27-.51,.41-.19,.16-.37,.34-.56,.51-.17,.16-.34,.31-.51,.47-.17,.17-.34,.35-.51,.52-.17,.17-.33,.35-.49,.52-.16,.18-.31,.36-.47,.54-.16,.19-.32,.38-.48,.58-.14,.18-.28,.36-.42,.55-.16,.21-.31,.42-.46,.64-.13,.18-.25,.36-.37,.55-.07,.1-.14,.2-.2,.3-.05-.08-.11-.15-.16-.23-.15-.23-.3-.46-.46-.68-.12-.18-.25-.35-.38-.52-.16-.22-.32-.43-.49-.64-.14-.17-.28-.34-.42-.5-.17-.2-.34-.4-.52-.6-.15-.16-.3-.32-.45-.48-.18-.19-.36-.37-.54-.55-.16-.16-.32-.3-.49-.45-.19-.17-.38-.35-.57-.52-.17-.15-.35-.28-.52-.42-.2-.16-.39-.32-.6-.48-.18-.14-.37-.26-.55-.39-.21-.15-.41-.3-.62-.44-.18-.12-.38-.23-.57-.35-.41-.26-.84-.5-1.27-.73-.2-.11-.4-.22-.6-.32-.22-.11-.45-.21-.68-.32-.21-.1-.41-.19-.62-.28-.23-.1-.47-.19-.7-.28-.21-.08-.42-.17-.63-.24-.24-.08-.48-.16-.72-.24-.21-.07-.43-.14-.65-.2-.25-.07-.49-.13-.74-.19-.22-.05-.43-.11-.65-.15-.25-.05-.51-.1-.76-.15-.22-.04-.44-.08-.66-.11-.26-.04-.52-.07-.78-.1-.22-.03-.44-.05-.66-.07-.26-.02-.53-.04-.8-.06-.09,0-.17-.01-.26-.02,.04-.07,.08-.14,.13-.21Zm-1.6,2.96c.09-.2,.18-.41,.28-.61,.1-.21,.21-.41,.32-.62,.09-.17,.18-.34,.27-.51,.29,0,.57,.01,.86,.03,.12,0,.24,0,.35,.02,.39,.03,.77,.07,1.15,.12,.08,.01,.17,.02,.25,.03,.45,.06,.9,.14,1.35,.23,.01,0,.02,0,.04,0,.94,.19,1.85,.44,2.75,.75,0,0,0,0,.01,0,.43,.15,.86,.31,1.29,.49,.09,.04,.18,.08,.27,.12,.33,.14,.67,.29,.99,.45,.12,.06,.24,.13,.36,.19,.29,.15,.58,.3,.86,.46,.13,.08,.27,.16,.4,.24,.26,.16,.53,.32,.78,.49,.14,.09,.27,.19,.41,.28,.24,.17,.49,.34,.73,.52,.14,.1,.27,.21,.41,.32,.23,.18,.46,.36,.68,.55,.13,.11,.26,.23,.4,.35,.22,.19,.43,.39,.64,.59,.13,.12,.25,.25,.38,.38,.2,.21,.4,.42,.6,.64,.12,.13,.24,.26,.35,.4,.19,.22,.38,.45,.56,.68,.11,.14,.22,.28,.32,.41,.18,.24,.36,.48,.53,.73,.1,.14,.19,.28,.29,.43,.07,.1,.13,.2,.19,.3-.1,0-.2,.02-.31,.02-.22,.01-.44,.03-.66,.05-.27,.02-.53,.05-.79,.08-.22,.03-.43,.05-.65,.09-.26,.04-.52,.08-.79,.13-.21,.04-.42,.08-.64,.12-.26,.06-.52,.12-.78,.18-.21,.05-.41,.1-.62,.16-.26,.07-.52,.15-.77,.23-.2,.06-.4,.13-.6,.19-.26,.09-.51,.19-.77,.29-.19,.07-.38,.14-.57,.22-.26,.11-.52,.23-.78,.35-.17,.08-.35,.16-.52,.24-.28,.14-.55,.28-.82,.43-.15,.08-.3,.16-.44,.24-.34,.2-.68,.41-1.01,.62-.07,.04-.14,.08-.2,.13-.4,.26-.79,.54-1.17,.82-.11,.08-.22,.18-.33,.26-.26,.21-.53,.41-.78,.63-.14,.12-.27,.25-.41,.37-.22,.2-.44,.39-.65,.6-.14,.14-.28,.28-.42,.43-.2,.2-.39,.4-.58,.61-.14,.15-.27,.31-.41,.47-.18,.21-.36,.41-.53,.63-.13,.17-.26,.34-.39,.51-.16,.22-.32,.43-.48,.65-.12,.18-.24,.36-.36,.54-.08,.13-.17,.25-.25,.37-.06-.11-.12-.22-.17-.33-.09-.18-.18-.36-.26-.54-.11-.24-.22-.48-.32-.72-.08-.18-.15-.36-.22-.54-.1-.24-.19-.49-.27-.74-.07-.19-.13-.37-.19-.56-.08-.24-.15-.49-.22-.74-.06-.2-.11-.39-.16-.59-.06-.24-.11-.48-.16-.71-.05-.21-.1-.42-.14-.63-.04-.22-.07-.45-.11-.67-.04-.23-.08-.46-.11-.69-.02-.2-.04-.39-.06-.59-.03-.26-.05-.52-.07-.78,0-.12,0-.24-.01-.37-.01-.33-.03-.65-.03-.98,0-.88,.06-1.75,.16-2.62,0-.06,.01-.12,.02-.19,.04-.33,.1-.67,.16-1,.02-.13,.04-.27,.07-.4,.06-.3,.13-.6,.2-.89,.04-.16,.07-.33,.11-.49,.07-.27,.16-.54,.24-.82,.05-.18,.1-.36,.16-.54,.08-.25,.18-.5,.27-.75,.07-.19,.14-.39,.22-.58,.09-.23,.2-.46,.3-.69ZM2.81,42.77c-.08-.18-.15-.36-.23-.54-.1-.24-.19-.49-.28-.73-.07-.19-.14-.39-.2-.58-.08-.24-.15-.48-.22-.73-.06-.2-.12-.4-.17-.6-.06-.24-.12-.49-.17-.73-.05-.2-.09-.41-.13-.61-.05-.25-.09-.5-.12-.75-.03-.2-.07-.41-.09-.61-.03-.26-.05-.53-.08-.8-.02-.19-.04-.39-.05-.58-.02-.33-.03-.67-.03-1.01,0-.12-.01-.24-.01-.37,0-3.84,1-7.61,2.91-10.9,.02-.02,.03-.04,.04-.07,.1-.18,.22-.34,.32-.52,.14-.23,.28-.46,.43-.68,.15-.23,.32-.44,.48-.67,.12-.16,.23-.32,.35-.48,.17-.22,.36-.44,.54-.66,.12-.14,.23-.29,.35-.43,.19-.22,.39-.42,.58-.63,.12-.13,.24-.27,.37-.39,.2-.2,.41-.4,.62-.59,.13-.12,.26-.24,.39-.36,.22-.19,.44-.37,.66-.56,.13-.11,.27-.22,.4-.33,.23-.18,.46-.35,.7-.51,.14-.1,.28-.2,.42-.3,.24-.16,.48-.32,.73-.47,.15-.09,.29-.18,.44-.27,.25-.15,.5-.29,.76-.42,.15-.08,.3-.17,.46-.24,.26-.13,.52-.26,.78-.38,.16-.07,.31-.15,.47-.22,.26-.11,.53-.22,.8-.33,.16-.06,.32-.13,.49-.19,.27-.1,.54-.19,.82-.28,.17-.05,.34-.11,.5-.15,.28-.08,.55-.15,.83-.22,.17-.04,.35-.08,.52-.12,.28-.06,.56-.12,.84-.17,.18-.03,.36-.06,.54-.09,.28-.04,.56-.08,.84-.12,.19-.02,.38-.04,.56-.06,.28-.03,.56-.05,.84-.06,.08,0,.15,0,.23,0-.05,.1-.1,.21-.15,.31-.09,.18-.18,.36-.27,.54-.12,.26-.24,.52-.35,.78-.08,.18-.15,.35-.22,.53-.11,.28-.21,.55-.31,.83-.06,.17-.12,.34-.18,.52-.1,.29-.18,.59-.27,.89-.05,.17-.1,.33-.14,.5-.08,.31-.15,.63-.22,.95-.03,.15-.07,.31-.1,.46-.07,.35-.12,.69-.17,1.04-.02,.13-.04,.26-.06,.38-.05,.42-.09,.83-.12,1.25,0,.06-.01,.13-.02,.19-.03,.49-.05,.99-.05,1.49s.02,.99,.05,1.48c0,.04,0,.08,.01,.12,.03,.44,.07,.88,.13,1.31,.02,.14,.04,.27,.06,.4,.05,.34,.1,.67,.16,1.01,.03,.18,.08,.36,.12,.54,.06,.29,.12,.57,.2,.85,.05,.2,.11,.4,.17,.61,.07,.25,.15,.51,.23,.76,.07,.21,.14,.42,.22,.64,.08,.24,.17,.47,.26,.71,.08,.21,.17,.42,.26,.63,.1,.23,.2,.46,.31,.69,.1,.2,.19,.4,.3,.6,.06,.12,.12,.25,.18,.37-.09,0-.19,.01-.28,.02-.27,.01-.54,.03-.81,.06-.21,.02-.43,.04-.64,.06-.27,.03-.54,.07-.8,.11-.21,.03-.42,.07-.63,.11-.27,.05-.53,.1-.8,.16-.2,.04-.4,.09-.6,.14-.27,.07-.53,.13-.8,.21-.19,.05-.38,.12-.57,.18-.27,.08-.53,.17-.8,.26-.18,.06-.35,.13-.53,.2-.27,.1-.54,.2-.81,.32-.15,.06-.29,.13-.44,.2-1.03,.46-2.03,1-2.98,1.61-.09,.06-.19,.11-.28,.18-.24,.16-.48,.34-.72,.51-.15,.11-.3,.21-.45,.32-.22,.16-.43,.34-.64,.51-.16,.13-.32,.26-.48,.39-.2,.17-.39,.35-.59,.53-.16,.15-.32,.29-.48,.44-.18,.18-.36,.36-.54,.55-.16,.16-.31,.33-.46,.49-.17,.19-.33,.38-.5,.57-.15,.18-.3,.36-.45,.54-.15,.19-.3,.39-.45,.59-.15,.2-.29,.39-.43,.59-.14,.2-.27,.4-.4,.6-.05,.08-.11,.16-.17,.25-.05-.1-.1-.19-.15-.29-.08-.16-.16-.33-.24-.49-.12-.25-.23-.5-.34-.75Zm.31,4.43c.09-.19,.18-.38,.27-.56,.05-.1,.1-.19,.15-.28,.06,.09,.12,.18,.18,.27,.12,.19,.24,.37,.37,.55,.15,.22,.31,.44,.47,.65,.13,.18,.26,.35,.4,.52,.17,.21,.34,.42,.51,.62,.14,.16,.28,.33,.43,.49,.18,.2,.37,.4,.56,.59,.15,.15,.29,.3,.45,.45,.2,.19,.4,.38,.61,.56,.15,.14,.3,.28,.46,.41,.22,.19,.44,.37,.67,.54,.15,.12,.3,.24,.45,.36,.25,.19,.51,.37,.76,.55,.14,.09,.27,.19,.41,.29,.35,.24,.72,.46,1.08,.67,.05,.03,.09,.06,.13,.08,.41,.24,.84,.46,1.26,.68,.14,.07,.28,.13,.41,.19,.3,.14,.59,.28,.89,.41,.17,.07,.35,.14,.52,.21,.27,.11,.54,.21,.82,.31,.19,.07,.38,.12,.58,.19,.27,.09,.53,.17,.8,.25,.2,.06,.41,.11,.61,.16,.26,.07,.53,.13,.8,.19,.21,.04,.42,.08,.63,.12,.27,.05,.53,.1,.8,.13,.21,.03,.43,.06,.64,.08,.27,.03,.54,.06,.81,.08,.22,.02,.43,.03,.65,.04,.12,0,.24,.02,.36,.02-.07,.12-.12,.25-.19,.38-.1,.2-.2,.39-.29,.59-.11,.24-.21,.47-.32,.71-.09,.2-.17,.4-.25,.6-.1,.24-.19,.49-.27,.74-.07,.2-.14,.4-.21,.61-.08,.25-.16,.51-.23,.77-.06,.2-.12,.4-.17,.61-.07,.27-.13,.54-.18,.8-.04,.2-.09,.4-.13,.6-.05,.28-.1,.57-.14,.85-.03,.19-.06,.37-.09,.56-.04,.32-.07,.64-.09,.96-.01,.16-.03,.32-.04,.47-.03,.48-.05,.96-.05,1.44s.02,.97,.05,1.45c.01,.16,.03,.32,.04,.48,.03,.32,.05,.65,.1,.97,.02,.19,.06,.37,.09,.56,.04,.29,.09,.58,.14,.87,.04,.2,.08,.39,.13,.59,.06,.27,.12,.55,.19,.82,.05,.2,.11,.4,.17,.6,.08,.26,.15,.53,.24,.79,.07,.2,.14,.4,.21,.6,.09,.26,.19,.51,.29,.76,.08,.2,.16,.39,.24,.59,.11,.25,.22,.5,.33,.74,.09,.19,.18,.38,.28,.57,.05,.09,.09,.19,.14,.28-.11,0-.22,0-.32-.01-.23-.01-.45-.03-.68-.05-.24-.02-.49-.05-.73-.08-.23-.03-.45-.06-.67-.09-.24-.04-.48-.08-.72-.12-.22-.04-.44-.09-.66-.13-.24-.05-.47-.11-.71-.17-.22-.06-.43-.11-.65-.17-.23-.07-.46-.14-.69-.21-.21-.07-.42-.14-.63-.21-.23-.08-.45-.17-.68-.26-.21-.08-.41-.16-.62-.25-.22-.1-.44-.2-.66-.3-.2-.09-.4-.19-.6-.29-.22-.11-.43-.23-.64-.35-.19-.11-.39-.21-.57-.32-.21-.12-.42-.26-.63-.39-.18-.12-.37-.23-.55-.36-.21-.14-.4-.29-.6-.43-.17-.13-.35-.25-.52-.39-.2-.15-.39-.32-.58-.48-.16-.14-.33-.27-.49-.41-.19-.17-.38-.35-.56-.52-.15-.14-.31-.29-.46-.43-.19-.19-.36-.38-.54-.58-.14-.15-.28-.29-.42-.45-.18-.21-.36-.43-.53-.64-.12-.15-.25-.29-.36-.45-.19-.25-.37-.5-.55-.76-.09-.13-.19-.26-.28-.39-.26-.39-.52-.8-.75-1.21-.01-.02-.02-.04-.04-.06-1.9-3.29-2.9-7.05-2.9-10.89,0-.46,.02-.92,.05-1.38,0-.15,.03-.3,.04-.46,.03-.31,.05-.61,.09-.92,.02-.18,.06-.36,.08-.54,.04-.27,.08-.54,.13-.81,.04-.19,.08-.38,.12-.58,.06-.26,.11-.51,.18-.77,.05-.2,.11-.39,.16-.58,.07-.25,.14-.49,.22-.74,.06-.2,.13-.39,.2-.58,.08-.24,.17-.48,.27-.71,.08-.19,.16-.38,.24-.57,.1-.23,.2-.46,.31-.69Z"/>
  </g>
</svg>