<?xml version="1.0" encoding="UTF-8"?>
<svg id="katman_1" xmlns="http://www.w3.org/2000/svg" version="1.1" viewBox="0 0 612 792">
  <!-- Generator: Adobe Illustrator 29.1.0, SVG Export Plug-In . SVG Version: 2.1.0 Build 142)  -->
  <defs>
    <style>
      .st0 {
        fill: #1d1d1b;
      }
    </style>
  </defs>
  <path class="st0" d="M567.28,466.34c0-26.02-7.13-50.39-19.5-71.32,11.67-20.49,18.37-44.15,18.37-69.36,0-77.06-62.3-139.81-139.18-140.6-24.53-41.28-69.56-69.02-120.97-69.02s-96.44,27.74-120.97,69.02c-76.88.79-139.18,63.54-139.18,140.6,0,25.21,6.7,48.88,18.37,69.36-12.37,20.93-19.5,45.3-19.5,71.32,0,77.44,62.92,140.46,140.32,140.63,24.54,41.27,69.56,68.99,120.96,68.99s96.42-27.73,120.96-68.99c77.4-.17,140.32-63.19,140.32-140.63ZM561.74,325.66c0,23.56-6.02,45.74-16.59,65.1-24.71-38.6-67.72-64.39-116.71-65.01,11.57-20.42,18.21-43.98,18.21-69.08s-6.2-47.17-17.09-67.14c73.25,2.15,132.19,62.36,132.19,136.12ZM424.43,602.51c-48.53-.78-90.98-27.03-114.49-65.97,48.76-1.35,91.39-27.61,115.57-66.52,10.65,19.4,16.71,41.66,16.71,65.31s-6.49,47.34-17.79,67.18ZM169.78,535.33c0-23.65,6.07-45.91,16.71-65.31,24.18,38.9,66.81,65.17,115.57,66.52-23.51,38.94-65.96,65.19-114.49,65.97-11.3-19.84-17.79-42.76-17.79-67.18ZM187.58,189.46c48.98.39,91.89,26.75,115.58,65.97-49.22.98-92.31,27.35-116.68,66.55-10.65-19.4-16.71-41.66-16.71-65.31s6.5-47.36,17.81-67.21ZM442.22,256.67c0,23.65-6.07,45.91-16.71,65.31-24.37-39.2-67.46-65.57-116.68-66.55,23.7-39.22,66.6-65.58,115.58-65.97,11.31,19.85,17.81,42.78,17.81,67.21ZM316.64,378.86c6.74-16.42,10.48-34.38,10.48-53.2,0-23.75-5.94-46.12-16.37-65.76,47.47,1.64,88.85,27.65,111.95,65.91-42.89,1.19-81.03,21.66-106.05,53.05ZM420.54,330.27c-23.23,36.03-62.96,60.45-108.44,62.47,23.23-36.03,62.96-60.45,108.44-62.47ZM306,390.96c-10.64-19.4-16.71-41.66-16.71-65.3s6.07-45.9,16.71-65.3c10.64,19.4,16.71,41.66,16.71,65.3s-6.07,45.9-16.71,65.3ZM284.88,325.66c0,18.82,3.74,36.78,10.48,53.2-25.02-31.4-63.16-51.86-106.05-53.05,23.1-38.26,64.48-64.27,111.95-65.91-10.43,19.64-16.37,42.02-16.37,65.76ZM299.9,392.74c-45.48-2.02-85.2-26.44-108.44-62.47,45.48,2.02,85.2,26.44,108.44,62.47ZM186.49,330.69c21.67,34.86,58.15,59.57,100.58,65.31-42.43,5.74-78.91,30.45-100.58,65.31-10.64-19.4-16.71-41.66-16.71-65.31s6.07-45.9,16.71-65.31ZM301.04,399.23c-23.42,36.35-63.64,60.87-109.6,62.53,23.42-36.35,63.64-60.87,109.6-62.53ZM296.48,413.14c-6.74,16.42-10.48,34.38-10.48,53.2,0,23.76,5.94,46.14,16.39,65.79-47.93-1.26-89.78-27.36-113.07-65.91,43.34-.86,81.92-21.41,107.16-53.08ZM306,403.18c9.93,18.89,15.58,40.37,15.58,63.16s-5.65,44.27-15.58,63.16c-9.93-18.89-15.58-40.37-15.58-63.16s5.65-44.27,15.58-63.16ZM326,466.34c0-18.82-3.74-36.78-10.48-53.2,25.24,31.67,63.82,52.22,107.16,53.08-23.29,38.55-65.14,64.65-113.07,65.91,10.44-19.64,16.39-42.03,16.39-65.79ZM310.96,399.23c45.97,1.65,86.18,26.18,109.6,62.53-45.97-1.65-86.18-26.18-109.6-62.53ZM324.93,396c42.43-5.74,78.91-30.45,100.58-65.31,10.64,19.4,16.71,41.66,16.71,65.31s-6.07,45.9-16.71,65.31c-21.67-34.86-58.15-59.57-100.58-65.31ZM165.36,396c0,23.75,5.94,46.12,16.37,65.76-47.79-1.65-89.4-28.01-112.4-66.7,23.41-37.97,64.92-63.61,112.42-64.85-10.44,19.64-16.39,42.03-16.39,65.79ZM446.64,396c0-23.76-5.94-46.14-16.39-65.79,47.49,1.25,89,26.88,112.42,64.85-23.01,38.69-64.61,65.05-112.4,66.7,10.44-19.64,16.37-42.02,16.37-65.76ZM306,120.45c48.88,0,91.81,25.89,115.85,64.66-48.88,1.26-91.62,27.55-115.85,66.53-24.23-38.98-66.97-65.27-115.85-66.53,24.04-38.77,66.97-64.66,115.85-64.66ZM50.26,325.66c0-73.76,58.94-133.97,132.19-136.12-10.89,19.96-17.09,42.84-17.09,67.14s6.64,48.66,18.21,69.08c-48.99.62-92,26.4-116.71,65.01-10.57-19.35-16.59-41.53-16.59-65.1ZM49.14,466.34c0-24.32,6.44-47.16,17.66-66.95,24.32,39.34,67.48,65.82,116.79,66.83-11.58,20.43-18.22,44-18.22,69.1s6.2,47.2,17.1,67.17c-73.78-1.55-133.33-62.01-133.33-136.15ZM306,671.55c-48.89,0-91.83-25.9-115.87-64.69,49.18-1.65,92.03-28.64,115.87-68.33,23.84,39.69,66.69,66.67,115.87,68.33-24.04,38.79-66.98,64.69-115.87,64.69ZM429.53,602.49c10.9-19.97,17.1-42.86,17.1-67.17s-6.64-48.68-18.22-69.1c49.31-1.01,92.47-27.49,116.79-66.83,11.22,19.79,17.66,42.62,17.66,66.95,0,74.14-59.55,134.6-133.33,136.15Z"/>
</svg>