<?xml version="1.0" encoding="UTF-8"?>
<svg id="Layer_2" data-name="Layer 2" xmlns="http://www.w3.org/2000/svg" viewBox="0 0 88.65 99.17">
  <defs>
    <style>
      .cls-1 {
        fill: #201600;
      }
    </style>
  </defs>
  <g id="Layer_2_copy_2" data-name="Layer 2 copy 2">
    <path class="cls-1" d="M83.49,38.9c4.93-2.85,6.63-9.17,3.78-14.11-1.38-2.39-3.61-4.1-6.27-4.81-2.66-.71-5.45-.35-7.84,1.03-1.47,.85-2.64,2.01-3.5,3.35l-16.15-9.33c.73-1.41,1.15-3.01,1.15-4.71,0-5.69-4.63-10.33-10.33-10.33s-10.33,4.63-10.33,10.33c0,1.7,.42,3.3,1.15,4.71l-16.15,9.33c-.86-1.34-2.03-2.5-3.5-3.35-4.93-2.85-11.26-1.15-14.11,3.78-2.85,4.93-1.15,11.26,3.78,14.11,1.44,.83,3.03,1.28,4.65,1.36v18.66c-1.59,.08-3.18,.51-4.65,1.36-4.93,2.85-6.63,9.18-3.78,14.11,1.91,3.31,5.39,5.16,8.96,5.16,1.75,0,3.52-.44,5.15-1.38,1.47-.85,2.64-2.01,3.5-3.35l16.15,9.33c-.73,1.41-1.15,3.01-1.15,4.71,0,5.69,4.63,10.33,10.33,10.33s10.33-4.63,10.33-10.33c0-1.7-.42-3.3-1.15-4.71l16.15-9.33c.86,1.34,2.03,2.5,3.5,3.35,1.59,.92,3.36,1.39,5.15,1.39,.9,0,1.8-.12,2.69-.36,2.66-.71,4.89-2.42,6.27-4.81,2.85-4.93,1.15-11.26-3.78-14.11-1.47-.85-3.06-1.28-4.65-1.36v-18.66c1.62-.08,3.21-.52,4.65-1.36Zm-13.46-13.14l7.27,4.2-7.27,4.2c-1.38-2.72-1.3-5.83,0-8.39Zm-6.3,42.63c-2.4,.64-4.91,.31-7.06-.93-2.15-1.24-3.69-3.25-4.33-5.65-.17-.63-.27-1.26-.3-1.9h9.46l7.66,4.5c-1.25,1.96-3.16,3.37-5.42,3.97Zm4.49-1.31c-.11,.54-.18,1.08-.21,1.63h-2.22c.89-.42,1.7-.97,2.43-1.63Zm-11.33,1.63h-2.27c-.03-.55-.09-1.09-.2-1.62,.53,.47,1.11,.9,1.73,1.26,.24,.14,.49,.24,.73,.36Zm-24.92-1.25c-4.32,2.49-9.81,1.11-12.48-3.04l7.65-4.5h9.46c-.04,.63-.13,1.27-.3,1.9-.64,2.4-2.18,4.41-4.33,5.65Zm2.25-.37c-.11,.53-.17,1.07-.2,1.62h-2.27c.25-.12,.49-.22,.73-.36,.63-.36,1.21-.79,1.73-1.26Zm-11.32,1.62h-2.27c-.03-.55-.09-1.1-.21-1.65,.75,.68,1.59,1.23,2.48,1.65Zm11.32-36.62c-.4-.36-.84-.68-1.3-.98l1.12-1.94c-.02,.26-.04,.52-.04,.79,0,.73,.08,1.44,.22,2.13Zm2.02,10.32l-.83,1.44-7.38-4.26,4.38-7.59c3.48,2.27,4.97,6.55,3.83,10.41Zm9.48-30.68l6.39,3.69c-.7,1.07-1.62,1.99-2.7,2.7l-3.69-6.39Zm4.43,9.71c-.8-.55-1.69-.99-2.63-1.3,.53-.17,1.03-.39,1.52-.64l1.12,1.93Zm-1.63-2.82c-1.12,.57-2.37,.91-3.69,.99v-7.37l3.69,6.38Zm5.11,11.34c0,3.16-1.59,5.95-4,7.63l-4.79-8.3v-8.61c4.89,.27,8.79,4.32,8.79,9.28Zm.98-.79l1.12,1.94c-.46,.3-.9,.62-1.3,.98,.15-.69,.22-1.4,.22-2.13,0-.27-.02-.53-.04-.79Zm1.63,2.83l4.38,7.59-7.38,4.26-.83-1.44c-1.14-3.87,.35-8.14,3.83-10.41Zm-5.23,27.92c.03,.55,.11,1.11,.23,1.66-.73-.67-1.56-1.22-2.47-1.66h2.24Zm-2.21-1.02c.12-.06,.23-.12,.35-.18,.08-.04,.15-.08,.22-.12,.04-.02,.08-.04,.12-.06,.03-.02,.06-.04,.08-.05,.16-.1,.32-.2,.48-.3,.04-.02,.07-.05,.1-.07,.01,0,.03-.02,.04-.03,.08-.05,.16-.1,.23-.16,.15-.11,.3-.23,.45-.35,.02-.01,.03-.03,.05-.04,.01,0,.02-.02,.04-.03,.09-.08,.18-.15,.27-.23-.11,.53-.19,1.08-.21,1.62h-2.21Zm2.14-2.77s-.02,.02-.03,.03c-.02,.02-.03,.03-.05,.05-.18,.18-.37,.36-.57,.52-.05,.04-.1,.08-.15,.12-.17,.14-.35,.27-.53,.4-.09,.06-.19,.12-.28,.18-.14,.09-.29,.18-.44,.27-.02,.01-.04,.02-.06,.04-.11,.06-.22,.11-.33,.17-.11,.06-.23,.11-.35,.17-.08,.04-.17,.08-.26,.11-.07,.03-.13,.05-.2,.08-.11,.04-.22,.08-.33,.12-.15,.05-.29,.1-.44,.14-.02,0-.03,0-.05,.01-.13,.04-.26,.07-.38,.1-.16,.04-.32,.07-.48,.1-.16,.03-.33,.05-.49,.07-.12,.02-.25,.03-.37,.04-.01,0-.02,0-.03,0-.09,0-.19,0-.28,.01v-8.98l7.78-4.49s.01,.02,.02,.03c.04,.09,.08,.17,.12,.26,.08,.17,.16,.35,.23,.53,0,0,0,.01,0,.02,.03,.08,.06,.16,.09,.24,.07,.2,.14,.41,.2,.61,.02,.08,.04,.16,.06,.23,.05,.21,.1,.42,.14,.64,.02,.09,.03,.18,.04,.27,.03,.2,.06,.4,.07,.6,0,.12,.01,.25,.02,.37,0,.16,.01,.33,.01,.5,0,.02,0,.05,0,.07,0,.14-.01,.27-.02,.4,0,.12-.01,.23-.03,.35,0,.09-.02,.17-.03,.26-.01,.11-.03,.21-.05,.31-.01,.09-.03,.17-.05,.26-.03,.13-.05,.26-.08,.39-.02,.08-.04,.16-.06,.24-.02,.08-.04,.16-.07,.25-.04,.13-.08,.25-.12,.38-.03,.08-.06,.17-.09,.25-.04,.1-.07,.2-.11,.29-.03,.08-.07,.16-.1,.24-.05,.11-.1,.21-.15,.32-.06,.12-.12,.24-.18,.36-.01,.02-.02,.04-.04,.06-.09,.15-.18,.3-.27,.45-.06,.09-.11,.18-.17,.27-.13,.19-.27,.37-.41,.54-.04,.05-.07,.1-.11,.14-.17,.2-.34,.4-.53,.58Zm2.33-1.37c.79-1.37,1.89-2.48,3.19-3.28l4.29,7.42h-8.71c.08-1.44,.49-2.85,1.23-4.14Zm1.32-8.58l-.83-1.44,7.38-4.26,4.38,7.59c-3.71,1.88-8.16,1.03-10.94-1.89Zm3.59,3.41c-.46,.15-.9,.31-1.33,.52l-.87-1.51c.69,.42,1.43,.75,2.2,.99Zm-3.53-.09c0-.19,0-.38-.02-.56,0-.04,0-.09-.01-.13,0-.03,0-.06,0-.09,0-.08-.01-.16-.02-.24-.01-.1-.02-.2-.03-.29l1.4,2.42c-.54,.33-1.05,.71-1.53,1.14,.02-.09,.03-.18,.05-.27,.03-.14,.05-.28,.07-.41,.01-.09,.03-.19,.04-.28,.01-.09,.02-.18,.03-.28,.02-.17,.03-.34,.03-.51,0-.08,0-.15,0-.23,0-.05,0-.11,0-.16,0-.03,0-.07,0-.1Zm2.72,1.5c.5-.23,1.01-.43,1.55-.57,.8-.21,1.61-.32,2.41-.32,0,0,.01,0,.02,0,0,0,0,0,.01,0,1.61,0,3.19,.42,4.62,1.25,2.15,1.24,3.69,3.25,4.33,5.65,.59,2.21,.35,4.5-.66,6.53l-7.65-4.5-4.64-8.04Zm9.12-.53c-.64-.37-1.31-.66-1.99-.88,.52-.17,1.03-.38,1.53-.64l1.12,1.95c-.22-.15-.43-.29-.66-.43Zm-4.46-10.5l7.59-4.38c2.14,4.22,.75,9.39-3.21,11.98l-4.38-7.59Zm-.51-.89l-4.38-7.59c1.31-.67,2.73-1.02,4.18-1.02,.81,0,1.62,.11,2.42,.32,2.23,.6,4.12,1.98,5.37,3.9l-7.59,4.38Zm-11.37-.59c.39-.27,.75-.57,1.1-.88-.17,.78-.26,1.57-.24,2.38l-.86-1.49Zm.54,2.98c-.07-.06-.14-.11-.21-.17-.09-.07-.18-.13-.28-.19-.09-.06-.18-.12-.26-.17-.1-.07-.2-.13-.31-.19-.05-.03-.09-.06-.14-.09-.05-.03-.1-.05-.14-.07-.11-.06-.22-.12-.33-.17-.08-.04-.16-.09-.25-.12-.11-.05-.22-.1-.33-.15-.12-.05-.25-.1-.38-.15-.06-.02-.12-.05-.17-.07-.12-.04-.24-.09-.36-.13,.61-.2,1.2-.45,1.75-.75l1.41,2.44Zm-1.92-3.33c-1.32,.72-2.83,1.13-4.44,1.13s-3.12-.41-4.44-1.13l4.44-7.69,4.44,7.69Zm-9.39,.88c.55,.3,1.14,.55,1.75,.75-.09,.03-.17,.06-.25,.09-.13,.05-.26,.1-.39,.15-.09,.04-.18,.07-.27,.11-.08,.04-.17,.08-.25,.11-.15,.07-.3,.15-.45,.22-.07,.04-.14,.07-.21,.11-.05,.03-.09,.05-.14,.07-.03,.02-.06,.04-.09,.06-.16,.09-.32,.19-.47,.3-.04,.03-.08,.06-.12,.08,0,0-.01,0-.02,.01-.08,.06-.17,.11-.25,.17-.08,.06-.16,.11-.24,.18l1.4-2.42Zm-1.73,.96c.01-.8-.07-1.6-.24-2.37,.35,.32,.71,.62,1.1,.88l-.86,1.49Zm6.17-20.37c-1.32-.07-2.57-.42-3.69-.99l3.69-6.38v7.37Zm-4.57-1.5c-1.07-.7-1.99-1.62-2.7-2.7l6.39-3.69-3.69,6.39Zm.37,1.4c.48,.25,.99,.46,1.52,.64-.94,.31-1.83,.75-2.63,1.3l1.12-1.93Zm4.2,1.17v8.61l-4.79,8.3c-2.41-1.68-4-4.47-4-7.63,0-4.96,3.9-9.01,8.79-9.28Zm-21.14,30.67c2.73-1.58,5.94-1.6,8.61-.35l-4.64,8.04-7.65,4.5c-1.01-2.03-1.25-4.32-.66-6.53,.64-2.4,2.18-4.41,4.33-5.65Zm-1.17-.46l1.12-1.95c.5,.26,1.01,.47,1.53,.64-.68,.22-1.35,.51-1.99,.88-.23,.13-.45,.28-.66,.43Zm8.97-1.3c.77-.25,1.51-.58,2.21-1l-.87,1.51c-.43-.21-.88-.37-1.33-.52Zm1.72,1.89c1.28,.78,2.39,1.89,3.2,3.28,.74,1.29,1.15,2.7,1.23,4.14h-8.71l4.28-7.42Zm1.82-1.79c0,.14,0,.29,.01,.43,0,.12,.02,.25,.03,.37,0,.08,.01,.15,.02,.23,.02,.15,.04,.3,.06,.45,.01,.09,.03,.19,.05,.28,0,.01,0,.02,0,.04,.02,.08,.03,.17,.04,.25-.48-.43-.99-.81-1.53-1.14l1.4-2.42c-.01,.1-.02,.2-.03,.3,0,.07-.01,.15-.02,.23-.01,.12-.02,.25-.03,.37,0,.14,0,.29-.01,.43,0,.03,0,.06,0,.1s0,.06,0,.1Zm.06-3.51c-2.78,2.92-7.23,3.77-10.93,1.89l4.38-7.59,7.38,4.26-.83,1.44Zm-6.93-7.1l-7.58-4.38c1.77-2.7,4.73-4.22,7.79-4.22,1.42,0,2.84,.34,4.18,1.02l-4.38,7.58Zm-.51,.89l-4.38,7.59c-3.96-2.58-5.35-7.76-3.21-11.98l7.59,4.38Zm-13.89-1.01c-.63,.17-1.26,.27-1.9,.3v-8.4l7.27,4.2c-1.25,1.92-3.14,3.31-5.37,3.9Zm.26,.99c1.6-.43,3.03-1.22,4.23-2.3-.86,4.09,.84,8.44,4.5,10.8l-6.7,11.6c-1.3-.67-2.74-1.05-4.2-1.12v-18.66c.72-.04,1.45-.13,2.16-.32Zm4.23,21.61c-.41-.37-.85-.7-1.31-.99l1.11-1.92c-.08,.98,0,1.96,.2,2.92Zm-2.7-.62l-3.69,6.39v-7.37c1.28,.07,2.54,.41,3.69,.99Zm.88,.51c1.03,.67,1.94,1.56,2.66,2.64l-6.33,3.72,3.67-6.36Zm3.17,3.52c.62,1.2,.95,2.47,1.02,3.75h-7.4l6.38-3.75Zm16.47,3.75c.26-4.72,4.05-8.51,8.77-8.77v8.77h-8.77Zm8.77,1.02v8.77c-4.72-.26-8.51-4.05-8.77-8.77h8.77Zm-6.18-9.82h2.24c-.9,.43-1.73,.99-2.47,1.66,.12-.55,.2-1.1,.23-1.66Zm-.21-2.65c.09,.08,.18,.15,.27,.23,0,0,.02,.02,.03,.02,.02,.01,.03,.03,.05,.04,.15,.12,.29,.24,.44,.35,.08,.06,.16,.11,.24,.16,.01,0,.02,.02,.03,.02,.04,.02,.07,.05,.11,.07,.16,.1,.32,.21,.48,.3,.03,.02,.06,.04,.09,.05,.04,.02,.08,.04,.12,.06,.07,.04,.15,.08,.22,.12,.11,.06,.23,.12,.35,.18h-2.21c-.03-.55-.1-1.09-.21-1.62Zm6.1,1.58s-.01,0-.02,0c-.13-.01-.25-.03-.38-.04-.16-.02-.33-.04-.49-.07-.16-.03-.32-.07-.48-.1-.13-.03-.26-.06-.39-.1-.01,0-.03,0-.04-.01-.15-.04-.29-.09-.44-.14-.11-.04-.22-.08-.33-.12-.07-.03-.13-.05-.2-.08-.09-.04-.17-.07-.26-.11-.12-.05-.23-.11-.35-.17-.11-.05-.22-.11-.32-.17-.02-.01-.04-.02-.06-.04-.15-.08-.3-.18-.44-.27-.09-.06-.19-.12-.28-.18-.18-.13-.36-.26-.54-.4-.05-.04-.1-.08-.15-.12-.2-.17-.39-.34-.58-.53-.01-.01-.03-.03-.04-.04-.01-.01-.03-.03-.04-.04-.18-.19-.36-.38-.53-.58-.04-.05-.08-.1-.11-.14-.14-.18-.28-.36-.41-.54-.06-.09-.12-.18-.17-.27-.09-.15-.19-.3-.27-.45-.01-.02-.02-.04-.04-.06-.06-.1-.11-.21-.16-.31-.06-.12-.12-.24-.17-.36-.04-.08-.07-.17-.11-.25-.03-.06-.05-.13-.08-.19-.04-.11-.08-.22-.12-.34-.05-.14-.1-.29-.14-.43,0-.01,0-.03-.01-.04-.04-.13-.07-.26-.1-.39-.04-.16-.07-.31-.1-.47-.03-.16-.05-.33-.08-.5-.02-.12-.03-.25-.04-.37,0,0,0-.01,0-.02-.02-.21-.03-.41-.03-.62,0-.06,0-.12,0-.18,0-.06,0-.12,0-.18,0-.21,.01-.42,.03-.62,0,0,0-.01,0-.02,.01-.12,.03-.25,.04-.37,.02-.17,.05-.33,.08-.5,.03-.16,.06-.31,.1-.47,.03-.13,.06-.26,.1-.39,0-.02,0-.03,.01-.05,.04-.15,.09-.29,.14-.43,.04-.11,.08-.22,.12-.33,.03-.07,.05-.14,.08-.2,.03-.08,.07-.17,.11-.25,.05-.12,.11-.24,.17-.35,0-.01,.01-.02,.02-.03l7.78,4.49v8.98c-.09,0-.19,0-.28-.01Zm-6.98-14.35c.04-.06,.08-.13,.12-.19,.13-.18,.26-.36,.4-.53,.04-.05,.08-.11,.12-.16,.16-.2,.34-.39,.52-.57,.02-.02,.03-.03,.05-.05,.01-.01,.02-.02,.03-.03,.19-.18,.38-.36,.58-.53,.05-.04,.1-.08,.15-.12,.17-.14,.35-.27,.54-.4,.09-.06,.19-.12,.28-.18,.14-.09,.29-.18,.44-.27,.02-.01,.04-.02,.06-.03,.12-.07,.25-.13,.37-.19,.1-.05,.2-.1,.3-.15,.08-.04,.16-.07,.24-.1,.1-.04,.2-.08,.31-.12,.08-.03,.16-.06,.24-.09,.12-.04,.25-.08,.38-.12,.08-.02,.17-.05,.25-.07,.06-.02,.11-.03,.17-.04,.27-.07,.54-.12,.81-.16,.11-.02,.22-.04,.34-.05,.29-.04,.59-.05,.88-.06,.02,0,.04,0,.05,0,.17,0,.34,0,.51,.01,.17,0,.34,.02,.51,.03,.16,.02,.32,.03,.48,.06,.06,0,.12,.02,.17,.03,.13,.02,.26,.05,.39,.08,.12,.02,.23,.05,.35,.08,.08,.02,.16,.04,.24,.06,.1,.03,.19,.06,.29,.09,.19,.06,.38,.12,.56,.19,0,0,0,0,.01,0,.14,.06,.28,.12,.42,.18,.22,.1,.43,.2,.64,.32,.07,.04,.14,.08,.21,.12,.11,.06,.21,.13,.32,.19,.06,.04,.13,.08,.19,.12,.07,.04,.13,.09,.2,.14,.14,.1,.27,.2,.41,.3,.05,.04,.09,.07,.14,.11,.04,.04,.09,.07,.13,.11,.15,.13,.29,.26,.43,.39,.04,.04,.08,.07,.11,.11,.03,.03,.07,.07,.1,.1,.14,.14,.27,.28,.39,.43,.04,.05,.08,.09,.12,.14,.03,.04,.07,.08,.1,.13,.1,.13,.21,.27,.3,.41,.05,.07,.1,.14,.14,.21,.01,.02,.03,.04,.04,.06l-7.78,4.49-7.78-4.49Zm8.29,35.07c3.04,.17,5.7,1.79,7.27,4.19l-7.27,4.2v-8.39Zm0-9.84h8.77c-.26,4.72-4.05,8.51-8.77,8.77v-8.77Zm0-1.02v-8.77c4.72,.26,8.51,4.05,8.77,8.77h-8.77Zm25.23-3.75l6.38,3.75h-7.4c.07-1.28,.4-2.55,1.02-3.75Zm.53-.88c.72-1.08,1.62-1.96,2.65-2.63l3.66,6.35-6.32-3.72Zm1.03-5.45l1.11,1.92c-.46,.29-.9,.62-1.31,.99,.2-.96,.27-1.93,.2-2.92Zm2.51,2.31c1.15-.58,2.4-.91,3.68-.99v7.36l-3.68-6.37Zm-.52-.9l-6.7-11.6c3.66-2.36,5.37-6.71,4.5-10.8,1.2,1.08,2.63,1.87,4.23,2.3,.72,.19,1.44,.28,2.16,.32v18.66c-1.46,.08-2.89,.46-4.2,1.12Zm2.3-21.09c-2.23-.6-4.12-1.98-5.37-3.9l7.27-4.2v8.4c-.63-.04-1.27-.13-1.9-.3Zm-6.77-13.7c-1.07,2.09-1.41,4.51-.92,6.85-1.2-1.08-2.63-1.87-4.23-2.3-2.5-.67-5.1-.38-7.38,.8l-6.7-11.6c1.23-.8,2.28-1.84,3.07-3.07l16.15,9.33ZM35.02,10.33c0-5.13,4.17-9.3,9.3-9.3s9.3,4.17,9.3,9.3c0,1.51-.37,2.93-1.01,4.2l-8.04-4.64s-.02,0-.02,0c-.07-.04-.15-.06-.23-.06s-.16,.03-.23,.06c0,0-.02,0-.02,0l-8.04,4.64c-.64-1.26-1.01-2.69-1.01-4.2Zm.64,5.59c.8,1.23,1.84,2.28,3.07,3.07l-6.7,11.6c-3.88-1.99-8.5-1.29-11.61,1.5,.49-2.34,.15-4.76-.92-6.85l16.15-9.33Zm-17.04,18.23l-7.27-4.2,7.27-4.2c1.29,2.57,1.37,5.68,0,8.39Zm-12.94,3.86C1.23,35.45-.3,29.75,2.27,25.3c1.72-2.98,4.85-4.65,8.07-4.65,1.58,0,3.18,.4,4.64,1.24,1.31,.76,2.36,1.79,3.13,2.97l-8.04,4.64s-.01,.01-.02,.02c-.07,.04-.13,.1-.17,.17-.04,.07-.06,.15-.06,.23,0,0,0,.02,0,.02v9.29c-1.44-.08-2.85-.49-4.14-1.23Zm9.3,39.26c-4.44,2.56-10.14,1.04-12.71-3.41-2.57-4.44-1.04-10.14,3.41-12.71,1.31-.76,2.73-1.15,4.14-1.22v9.28s0,.02,0,.03c0,.07,.02,.15,.06,.22,0,0,0,0,0,.01h0s0,0,0,0,0,0,0,0c.02,.03,.05,.04,.07,.07,.04,.04,.07,.09,.12,.12l8.04,4.64c-.77,1.19-1.82,2.22-3.13,2.97Zm3.64-3.86l-6.39-3.69h7.37c-.07,1.28-.41,2.54-.99,3.69Zm.88,.51c.67-1.3,1.05-2.74,1.12-4.2h13.4c.21,4.35,3.13,8.01,7.11,9.3-2.27,.74-4.2,2.25-5.47,4.22l-16.16-9.33Zm24.31,5.64v8.39l-7.27-4.2c1.58-2.4,4.23-4.03,7.27-4.19Zm9.82,9.28c0,5.13-4.17,9.3-9.3,9.3s-9.3-4.17-9.3-9.3c0-1.51,.37-2.93,1.01-4.2l8.04,4.64s.02,0,.02,0c.07,.04,.15,.06,.23,.06s.16-.03,.23-.06c0,0,.02,0,.02,0l8.04-4.64c.64,1.26,1.01,2.69,1.01,4.2Zm-.64-5.59c-1.28-1.97-3.2-3.48-5.47-4.22,3.98-1.3,6.89-4.95,7.11-9.3h6.62s.04,0,.06,0,.04,0,.06,0h6.65c.07,1.46,.46,2.89,1.12,4.2l-16.16,9.33Zm16.05-13.52h7.37l-6.39,3.69c-.58-1.15-.92-2.4-.99-3.69Zm13.93-8.57c4.44,2.57,5.97,8.27,3.41,12.71-1.24,2.15-3.25,3.69-5.65,4.34-2.4,.64-4.91,.31-7.06-.93-1.31-.76-2.36-1.79-3.13-2.97l8.03-4.64h0s0,0,0,0c.05-.03,.08-.08,.12-.12,.02-.02,.05-.04,.07-.06,0,0,0,0,0,0,0,0,0,0,0,0h0s0,0,0-.01c.04-.07,.05-.14,.06-.22,0,0,0-.02,0-.03v-9.27c1.41,.08,2.83,.46,4.14,1.21Zm-4.15-31.23c0-.08-.02-.16-.06-.23-.04-.07-.1-.13-.17-.17,0,0-.01-.01-.02-.02l-8.04-4.64c.77-1.19,1.82-2.22,3.13-2.97,1.43-.83,3.02-1.25,4.64-1.25,.81,0,1.62,.11,2.42,.32,2.4,.64,4.41,2.18,5.65,4.34,2.57,4.44,1.04,10.14-3.41,12.71-1.29,.74-2.7,1.15-4.14,1.23v-9.29s0-.02,0-.02Z"/>
  </g>
</svg>