<?xml version="1.0" encoding="UTF-8"?>
<svg id="Layer_2" data-name="Layer 2" xmlns="http://www.w3.org/2000/svg" viewBox="0 0 512 512">
  <defs>
    <style>
      .cls-1 {
        fill: #201600;
      }
    </style>
  </defs>
  <g id="Layer_2_copy_2" data-name="Layer 2 copy 2" transform="scale(6.062)">
    <path class="cls-1" d="M42.24,84.47c23.29,0,42.24-18.95,42.24-42.24S65.53,0,42.24,0,0,18.95,0,42.24s18.95,42.24,42.24,42.24ZM5.58,54.62c-.07-2.06-.13-4,2.5-5.05,.91,4.2,2.58,8.13,4.87,11.62,0,0,0,0,0,0-2.63,1.15-3.97-.27-5.38-1.79-.72-.77-1.46-1.56-2.34-1.83,.44-.82,.4-1.89,.36-2.95Zm-.36-27.72c.89-.27,1.62-1.06,2.34-1.83,1.41-1.51,2.75-2.94,5.38-1.79,0,0,0,0,0,0-2.29,3.49-3.96,7.41-4.87,11.62-2.63-1.05-2.57-3-2.5-5.05,.04-1.05,.07-2.13-.36-2.95Zm73.67,2.95c.07,2.06,.13,4-2.5,5.05-.91-4.2-2.58-8.13-4.87-11.62h0c2.63-1.15,3.97,.27,5.38,1.79,.72,.77,1.46,1.56,2.34,1.83-.44,.82-.4,1.89-.36,2.95Zm.36,27.72c-.89,.27-1.62,1.06-2.34,1.83-1.41,1.51-2.75,2.94-5.38,1.79,0,0,0,0,0,0,2.29-3.49,3.96-7.41,4.87-11.62,2.63,1.05,2.57,3,2.5,5.05-.04,1.05-.07,2.13,.36,2.95Zm-2.66-9.03c.38-2.04,.58-4.15,.58-6.3s-.21-4.25-.58-6.3c2.83-.03,3.52,1.78,4.24,3.71,.37,.99,.75,2,1.46,2.58-.72,.59-1.09,1.6-1.46,2.59-.72,1.93-1.41,3.74-4.24,3.71Zm-.44-6.3c0,9.15-3.68,17.46-9.64,23.55-1.13-1.19-.18-2.76,1.5-5.18,1.56-2.24,3.29-4.74,1.81-6.94,2.6-.51,3.15-3.5,3.63-6.18,.53-2.94,.97-4.73,2.67-4.73h0v-1.02h0c-1.7,0-2.14-1.79-2.67-4.73-.48-2.68-1.02-5.67-3.63-6.19,1.48-2.2-.25-4.7-1.81-6.94-1.68-2.42-2.62-3.99-1.5-5.18,5.96,6.09,9.63,14.4,9.63,23.55Zm-61.23,6.52c-.5-2.09-.78-4.28-.78-6.52,0-2.12,.25-4.18,.69-6.16l4.91,6.35-4.82,6.33Zm.16,3.93c-1.97-.24-2.51-2.33-3.06-5.39-.37-2.04-.74-4.13-2.02-5.06,1.27-.94,1.65-3.02,2.02-5.06,.55-3.07,1.08-5.16,3.06-5.4-1.26,3.25-1.97,6.77-1.97,10.46s.7,7.21,1.97,10.46Zm54.55-16.62c.45,1.98,.69,4.04,.69,6.16,0,2.25-.27,4.43-.78,6.52l-4.82-6.33,4.91-6.35Zm-.25-4.3c1.97,.24,2.51,2.33,3.06,5.4,.37,2.04,.74,4.12,2.02,5.06-1.27,.94-1.65,3.02-2.02,5.06-.55,3.07-1.08,5.16-3.06,5.4,1.26-3.25,1.97-6.77,1.97-10.46s-.7-7.21-1.97-10.46Zm-9.86,3.82h9.18l-4.62,5.98-4.56-5.98Zm9.19,13.75h-9.33l4.7-6.08,4.63,6.08Zm-5.28-6.93l-5.07,6.57-3.46-6.52,3.52-6.63,5.01,6.58Zm-26.61-3.94l1.52,2.24h-2.94l1.42-2.24Zm-.73-2.89h1.35l-.65,1.02-.7-1.02Zm7.35,2.74l1.34,2.39h-5.11l1.34-2.39h2.43Zm-1.86-1.02l.64-1.15,.64,1.15h-1.29Zm6.05,1.17l1.42,2.24h-2.94l1.52-2.24Zm-.62-2.89h1.35l-.7,1.02-.65-1.02Zm-7.94,6.2l2.19,3.22h-2.68l-.81-.9,1.3-2.32Zm-.08-1.94l-1.03-1.52h1.88l-.85,1.52Zm7.69,4.26l-.81,.9h-2.68l2.19-3.22,1.3,2.32Zm-2.07-5.78h1.88l-1.03,1.52-.85-1.52Zm-2.39,6.28l-1.95-2.87h3.9l-1.95,2.87Zm-5.18-1.3l-1.42-1.57h2.3l-.88,1.57Zm1.08,2.72l2.98,3.3h-1.85l-1.75-3.3h.62Zm1.38,0h5.44l-2.72,3.02-2.72-3.02Zm6.82,0h.62l-1.75,3.3h-1.85l2.98-3.3Zm.2-4.29h2.3l-1.42,1.57-.88-1.57Zm3.54,.57l1.71,2.7h-3.14l1.43-2.7Zm-6.03-5l-.96-1.72h2.72l1.09,1.72h-2.85Zm-3.63,0h-2.85l1.09-1.72h2.72l-.96,1.72Zm-4.6,7.7h-3.14l1.71-2.7,1.43,2.7Zm-.29,1.02l-1.5,2.67-1.42-2.67h2.91Zm1,.31l1.58,2.99h-3.26l1.68-2.99Zm2.13,4.02l2.67,5.05h-3.73l-2.68-5.05h3.74Zm1.16,0h4.85l-2.42,4.58-2.42-4.58Zm6.01,0h3.74l-2.68,5.05h-3.73l2.67-5.05Zm.54-1.02l1.58-2.99,1.68,2.99h-3.26Zm2.58-3.3h2.91l-1.42,2.67-1.5-2.67Zm5.39-2.48l3.07,5.79h-6.14l3.07-5.79Zm0-2.18l-3.07-5.78h6.14l-3.07,5.78Zm-2.46-2.45l1.88,3.54-1.08,2.03-2.04-3.22,1.24-2.35Zm-1.87,1.36l-1.24-1.95h2.27l-1.03,1.95Zm-1.56-2.97l1.17-1.72h.5l.91,1.72h-2.58Zm1.55-4.11l-1.96-3.69h4.46l-2.51,3.69Zm-.65,.96l-.28,.41h-2.69l-3.21-5.05h3.71l2.47,4.64Zm-4.18,.41h-5.85l2.93-4.61,2.93,4.61Zm-7.06,0h-2.69l-.28-.41,2.47-4.64h3.71l-3.21,5.05Zm-3.62-1.37l-2.51-3.69h4.46l-1.96,3.69Zm.39,2.39l1.17,1.72h-2.58l.91-1.72h.5Zm.84,2.74l-1.24,1.95-1.03-1.95h2.27Zm-1.87,2.94l-2.04,3.22-1.08-2.03,1.88-3.54,1.24,2.35Zm-3.7,.1l-3.07-5.78h6.14l-3.07,5.78Zm3.07,7.97h-6.14l3.07-5.79,3.07,5.79Zm-6.05,1.02h5.94l-2.5,4.46-3.44-4.46Zm2.61,5.05h-5.93l2.42-4.55,3.51,4.55Zm4.23-4.57l2.43,4.57h-4.99l2.56-4.57Zm2.97,5.6l4.4,8.29h-3.12l-6.4-8.29h5.12Zm1.16,0h8.2l-4.1,7.72-4.1-7.72Zm9.35,0h5.12l-6.4,8.29h-3.12l4.4-8.29Zm.54-1.02l2.43-4.57,2.56,4.57h-4.99Zm3.33-5.05h5.94l-3.44,4.46-2.5-4.46Zm6.84,.5l2.42,4.55h-5.93l3.51-4.55Zm.06-16.92l-3.37-4.42h5.72l-2.35,4.42Zm-.81,.63h-6.75l-.18-.34,3.15-4.63,3.79,4.97Zm-9.98-6.07l-4.4-8.29h3.44l6.32,8.29h-5.35Zm-1.16,0h-8.19l4.1-7.71,4.1,7.71Zm-9.35,0h-5.35l6.32-8.29h3.44l-4.4,8.29Zm-3.04,5.73l-.18,.34h-6.75l3.79-4.97,3.15,4.63Zm-7.74-.28l-2.35-4.42h5.72l-3.37,4.42Zm3.36,8.52l-3.46,6.52-5.07-6.57,5.01-6.58,3.52,6.63Zm-9.18-.89l-4.62-5.98h9.18l-4.56,5.98Zm0,1.68l4.7,6.08H15.76l4.63-6.08Zm4.98,7.11l-3.23,6.07h7.56l-4.5,8.02c-4.62-3.52-8.11-8.43-9.85-14.09h10.01Zm5.37,6.31l6.22,8.06h-10.74l4.52-8.06Zm7.01,9.08l3.42,4.43c-5.19-.19-10.02-1.79-14.12-4.43h10.7Zm1.29,0h6.38l-3.19,4.13-3.19-4.13Zm7.67,0h10.7c-4.1,2.63-8.93,4.23-14.12,4.43l3.42-4.43Zm.79-1.02l6.22-8.06,4.52,8.06h-10.74Zm7.27-8.29h7.56l-3.23-6.07h10.01c-1.73,5.67-5.23,10.58-9.85,14.09l-4.5-8.02Zm4.33-21.87l3.22-6.07h-7.89l5.45-8.02c4.44,3.58,7.77,8.48,9.37,14.1h-10.16Zm-5.47-6.72l-5.82-7.64h11.02l-5.2,7.64Zm-6.6-8.67l-3.74-4.91c5.5,.2,10.61,1.99,14.86,4.91h-11.12Zm-1.29,0h-7.02l3.51-4.61,3.51,4.61Zm-8.3,0h-11.12c4.26-2.93,9.36-4.71,14.86-4.91l-3.74,4.91Zm-.78,1.02l-5.82,7.64-5.2-7.64h11.02Zm-6.62,8.29h-7.89l3.22,6.07H15.22c1.61-5.62,4.93-10.52,9.37-14.1l5.45,8.02Zm-14.4,25.53c2.94,6.56,8.26,11.83,14.86,14.74-1.58,1.32-3.45,.21-6.05-1.59-1.7-1.18-3.44-2.39-5-2.15,.24-1.56-.97-3.3-2.15-5-1.78-2.56-2.88-4.42-1.65-5.99Zm8.22,13.98c1.64,1.14,3.42,2.38,5.12,2.38,.62,0,1.23-.17,1.82-.57,.51,2.6,3.5,3.14,6.19,3.63,2.87,.52,4.63,.96,4.72,2.55-8.93-.14-17.04-3.73-23.03-9.49,1.19-1.12,2.76-.18,5.18,1.5Zm13.31,4.43c-3.12-.56-5.23-1.11-5.41-3.16,3.25,1.25,6.78,1.95,10.47,1.95s7.22-.69,10.47-1.95c-.18,2.05-2.29,2.6-5.41,3.16-2.04,.37-4.12,.74-5.06,2.01-.94-1.27-3.02-1.65-5.06-2.01Zm10.3,1.01c2.68-.48,5.68-1.03,6.19-3.63,.59,.4,1.2,.57,1.82,.57,1.7,0,3.48-1.24,5.12-2.38,2.42-1.68,3.98-2.62,5.18-1.5-5.99,5.76-14.09,9.35-23.03,9.49,.09-1.59,1.85-2.03,4.72-2.55Zm17.55-8.43c-1.56-.24-3.3,.97-5,2.15-2.6,1.81-4.48,2.91-6.05,1.59,6.6-2.91,11.91-8.18,14.86-14.74,1.23,1.56,.13,3.42-1.65,5.99-1.18,1.7-2.39,3.44-2.15,5Zm2.15-40.57c1.78,2.56,2.88,4.42,1.65,5.99-2.94-6.56-8.26-11.83-14.86-14.74,1.58-1.32,3.45-.21,6.05,1.59,1.55,1.08,3.15,2.19,4.6,2.19,.14,0,.27-.01,.4-.03-.24,1.56,.97,3.3,2.15,5Zm-6.57-8c-2.24-1.56-4.74-3.29-6.94-1.81-.51-2.6-3.5-3.14-6.19-3.63-2.87-.52-4.63-.96-4.72-2.55,8.93,.14,17.04,3.73,23.03,9.49-1.19,1.12-2.76,.18-5.18-1.5Zm-13.31-4.43c3.12,.56,5.23,1.11,5.41,3.16-3.25-1.25-6.78-1.95-10.47-1.95s-7.22,.69-10.47,1.95c.18-2.05,2.29-2.59,5.41-3.16,2.04-.37,4.13-.74,5.06-2.02,.94,1.27,3.02,1.65,5.06,2.02Zm-10.3-1.01c-2.68,.48-5.68,1.03-6.19,3.63-2.2-1.48-4.7,.26-6.94,1.81-2.42,1.68-3.98,2.62-5.18,1.5,5.99-5.76,14.09-9.35,23.03-9.49-.09,1.59-1.85,2.03-4.72,2.55Zm-17.55,8.43c.13,.02,.27,.03,.4,.03,1.45,0,3.05-1.11,4.6-2.19,2.6-1.81,4.48-2.91,6.05-1.59-6.6,2.91-11.91,8.18-14.86,14.74-1.23-1.56-.13-3.42,1.65-5.98,1.18-1.7,2.39-3.44,2.15-5Zm-2.99,4.42c-1.56,2.24-3.29,4.74-1.81,6.94-2.59,.51-3.14,3.51-3.63,6.19-.53,2.94-.97,4.73-2.67,4.73h0v1.02h0c1.7,0,2.14,1.79,2.67,4.73,.48,2.68,1.03,5.67,3.63,6.18-1.48,2.2,.25,4.7,1.81,6.94,1.68,2.42,2.63,3.99,1.5,5.18-5.96-6.09-9.64-14.4-9.64-23.55s3.68-17.46,9.64-23.55c1.13,1.19,.18,2.76-1.5,5.18Zm-8.58,12.07c-.38,2.04-.58,4.15-.58,6.3s.21,4.25,.58,6.3c-2.82,.03-3.52-1.78-4.24-3.71-.37-.99-.75-2-1.46-2.59,.72-.59,1.09-1.6,1.46-2.59,.72-1.93,1.42-3.74,4.24-3.71Zm5.64,26.11s0,0,0,0c2.41,3.46,5.44,6.47,8.92,8.86,0,.02-.01,.03-.02,.05-1.99,2.07-3.78,1.27-5.66,.41-.96-.44-1.94-.89-2.86-.79,.09-.92-.36-1.9-.79-2.86-.86-1.88-1.66-3.67,.41-5.66Zm12.44,18.05c-4.65-2.01-8.86-4.85-12.45-8.34,.69-.4,1.53-.06,2.83,.54,.98,.45,2.15,.98,3.41,.98,.69,0,1.41-.17,2.14-.59-.32,2.36,1.26,3.84,2.49,4.98,1.06,.99,1.7,1.64,1.58,2.44Zm-.88-3.18c-1.51-1.41-2.94-2.75-1.79-5.38,.01-.02,.03-.03,.04-.04,3.49,2.25,7.4,3.89,11.6,4.79,0,.03,0,.05,0,.08-1.05,2.67-3,2.61-5.07,2.54-1.06-.04-2.13-.07-2.95,.36-.27-.89-1.06-1.62-1.83-2.34Zm1.91,3.6c.48-.65,1.39-.65,2.84-.6,1.67,.06,3.84,.13,5.28-1.76,.61,2.3,2.64,3.06,4.2,3.64,1.36,.51,2.2,.86,2.39,1.64-5.19-.07-10.14-1.1-14.7-2.93Zm12.67,.33c-1.94-.72-3.77-1.42-3.71-4.29,.01-.03,.02-.05,.03-.08,2.03,.37,4.13,.57,6.27,.57s4.23-.2,6.27-.57c.01,.03,.02,.05,.03,.08,.06,2.87-1.77,3.56-3.71,4.29-.99,.37-2,.75-2.59,1.46-.59-.72-1.6-1.09-2.59-1.46Zm3.14,2.6c.19-.78,1.03-1.14,2.39-1.64,1.56-.59,3.59-1.35,4.2-3.65,1.44,1.89,3.61,1.82,5.28,1.76,1.45-.05,2.36-.04,2.84,.6-4.56,1.82-9.52,2.86-14.7,2.93Zm11.83-4.55c-2.07,.08-4.02,.13-5.07-2.54,0-.03,0-.05,0-.08,4.19-.89,8.11-2.54,11.6-4.79,.01,.02,.03,.03,.04,.04,1.15,2.63-.28,3.97-1.79,5.38-.77,.72-1.56,1.46-1.83,2.34-.82-.44-1.89-.4-2.95-.36Zm3.89,1.2c-.12-.8,.52-1.45,1.58-2.44,1.22-1.14,2.81-2.62,2.49-4.98,.73,.42,1.45,.59,2.14,.59,1.26,0,2.43-.53,3.41-.98,1.31-.59,2.15-.94,2.83-.54-3.58,3.49-7.79,6.33-12.45,8.34Zm12.05-9.53c-.92-.09-1.9,.36-2.86,.79-1.88,.86-3.67,1.66-5.66-.41,0-.02-.01-.03-.02-.05,3.48-2.39,6.51-5.4,8.92-8.86,0,0,0,0,0,0,2.07,1.99,1.27,3.77,.41,5.66-.44,.96-.88,1.94-.79,2.86Zm1.18,.39c-.4-.68-.06-1.53,.54-2.83,.69-1.52,1.59-3.49,.39-5.55,.21,.03,.41,.04,.61,.04,2.01,0,3.33-1.42,4.37-2.53,.99-1.06,1.64-1.7,2.44-1.58-2.01,4.65-4.85,8.86-8.34,12.45Zm8.76-13.47c-.65-.48-.65-1.39-.6-2.84,.06-1.67,.13-3.84-1.76-5.28,2.3-.61,3.07-2.63,3.65-4.2,.51-1.36,.86-2.2,1.64-2.39-.07,5.19-1.1,10.14-2.93,14.7Zm0-30.51c1.82,4.56,2.86,9.52,2.93,14.7-.78-.19-1.13-1.03-1.64-2.39-.58-1.56-1.34-3.6-3.64-4.2,1.89-1.44,1.82-3.61,1.76-5.28-.05-1.45-.05-2.36,.6-2.84Zm-8.76-13.47c3.49,3.58,6.33,7.79,8.34,12.45-.8,.12-1.45-.52-2.44-1.58-1.14-1.22-2.62-2.8-4.98-2.49,1.2-2.05,.3-4.03-.39-5.55-.6-1.31-.94-2.15-.54-2.83Zm-.8,8.91s0,0,0,0c-2.41-3.46-5.44-6.47-8.92-8.86,0-.02,.01-.03,.02-.05,1.99-2.07,3.77-1.26,5.66-.41,.96,.44,1.94,.88,2.86,.79-.09,.92,.36,1.9,.79,2.86,.86,1.88,1.66,3.67-.41,5.66ZM58.51,4.38c4.65,2.01,8.86,4.85,12.45,8.34-.69,.4-1.53,.06-2.83-.54-1.52-.69-3.49-1.59-5.55-.39,.32-2.36-1.27-3.84-2.49-4.98-1.06-.99-1.7-1.64-1.58-2.44Zm.88,3.18c1.51,1.41,2.94,2.75,1.79,5.38-.01,.02-.03,.03-.04,.04-3.49-2.25-7.4-3.89-11.6-4.79,0-.03,0-.05,0-.08,1.05-2.67,3-2.61,5.07-2.54,1.05,.04,2.13,.08,2.95-.36,.27,.89,1.06,1.62,1.83,2.34Zm-1.91-3.6c-.48,.65-1.39,.65-2.84,.6-1.67-.06-3.84-.13-5.28,1.76-.61-2.3-2.64-3.06-4.2-3.64-1.36-.51-2.2-.86-2.39-1.64,5.19,.07,10.14,1.1,14.7,2.93Zm-12.67-.33c1.94,.72,3.77,1.42,3.71,4.29-.01,.03-.02,.05-.03,.08-2.03-.37-4.13-.57-6.27-.57s-4.23,.2-6.27,.57c-.01-.03-.02-.05-.03-.08-.05-2.87,1.77-3.56,3.71-4.29,.99-.37,2-.75,2.59-1.46,.59,.72,1.6,1.09,2.59,1.46Zm-3.14-2.6c-.19,.78-1.03,1.13-2.39,1.64-1.56,.59-3.59,1.35-4.2,3.64-1.44-1.89-3.61-1.82-5.28-1.76-1.44,.05-2.36,.05-2.83-.6,4.56-1.82,9.52-2.86,14.7-2.93Zm-11.83,4.55c2.07-.07,4.02-.13,5.07,2.54,0,.03,0,.05,0,.08-4.19,.89-8.11,2.54-11.6,4.79-.01-.02-.03-.03-.04-.04-1.15-2.63,.27-3.97,1.79-5.38,.77-.72,1.56-1.46,1.83-2.34,.81,.44,1.89,.4,2.95,.36Zm-3.89-1.2c.12,.8-.52,1.45-1.58,2.44-1.22,1.14-2.81,2.62-2.49,4.98-2.05-1.2-4.03-.3-5.55,.39-1.31,.6-2.15,.94-2.83,.54,3.58-3.49,7.79-6.33,12.45-8.34ZM13.91,13.91c.92,.09,1.9-.36,2.86-.79,1.88-.86,3.67-1.66,5.66,.41,0,.02,.01,.03,.02,.05-3.48,2.39-6.51,5.4-8.92,8.86,0,0,0,0,0,0-2.07-1.99-1.27-3.77-.41-5.66,.44-.96,.88-1.94,.79-2.86Zm-1.18-.39c.4,.68,.06,1.53-.54,2.83-.69,1.52-1.59,3.49-.39,5.55-2.36-.32-3.84,1.26-4.98,2.49-.99,1.06-1.64,1.7-2.44,1.58,2.01-4.65,4.85-8.86,8.34-12.45ZM3.96,26.98c.65,.48,.65,1.39,.6,2.84-.06,1.67-.13,3.83,1.76,5.27-2.3,.61-3.06,2.64-3.64,4.2-.51,1.36-.86,2.2-1.64,2.39,.07-5.19,1.1-10.14,2.93-14.7Zm0,30.51c-1.82-4.56-2.86-9.52-2.93-14.7,.78,.19,1.13,1.03,1.64,2.39,.58,1.57,1.35,3.59,3.65,4.2-1.9,1.44-1.82,3.61-1.76,5.28,.05,1.45,.04,2.36-.6,2.84Zm2.85,2.6c1.04,1.11,2.36,2.53,4.37,2.53,.19,0,.4-.02,.61-.04-1.2,2.05-.3,4.03,.39,5.55,.6,1.31,.94,2.15,.54,2.83-3.49-3.58-6.33-7.79-8.34-12.45,.8-.12,1.45,.52,2.44,1.58Z"/>
  </g>
</svg>
