<?xml version="1.0" encoding="UTF-8"?>
<svg id="Layer_2" data-name="Layer 2" xmlns="http://www.w3.org/2000/svg" viewBox="0 0 77.65 80.35">
  <defs>
    <style>
      .cls-1 {
        fill: #201600;
      }
    </style>
  </defs>
  <g id="Layer_2_copy_2" data-name="Layer 2 copy 2">
    <path class="cls-1" d="M.07,51.04c.11,.23,.33,.37,.59,.37H14.63l-4.52,7.42c-.14,.2-.15,.46-.02,.68,.12,.21,.33,.33,.57,.33h11.6l-4.77,8.88c-.1,.2-.09,.43,.02,.63,.12,.2,.33,.32,.56,.32h12.18l8.07,10.45c.13,.15,.31,.23,.5,.23,.21,0,.4-.1,.52-.25l8.06-10.44h12.19c.36,0,.65-.29,.65-.65,0-.14-.04-.27-.12-.38l-4.72-8.8h11.61c.36,0,.65-.29,.65-.65,0-.14-.05-.29-.14-.4l-4.5-7.37h13.98c.36,0,.65-.29,.65-.65,0-.16-.06-.32-.18-.45l-7.52-9.86,7.54-9.78c.16-.2,.19-.48,.08-.68-.11-.23-.34-.37-.59-.37h-15.13l4.21-7.44c.12-.21,.12-.46,.02-.63-.11-.21-.33-.35-.58-.35h-8.92l5.61-7.79c.14-.21,.16-.47,.05-.65-.11-.23-.34-.37-.59-.37h-13.09L39.34,.25c-.12-.16-.31-.25-.51-.25-.2,0-.39,.09-.53,.25l-9.23,12.12H15.99c-.25,0-.48,.15-.57,.34-.12,.22-.11,.48,.04,.69l5.6,7.78H12.13c-.23,0-.45,.13-.56,.32-.12,.2-.12,.46,0,.65l4.22,7.46H.65c-.26,0-.5,.15-.58,.35-.12,.22-.1,.48,.06,.7l7.55,9.78L.12,50.38c-.14,.2-.16,.46-.05,.66ZM29.72,13.68h7.94l-4.58,7.51h-9.08l5.72-7.51Zm18.21,0l5.72,7.51h-9.08l-4.59-7.51h7.94Zm-1.17,54.69h-6.82l4.82-8.53h8.58l-6.58,8.53Zm-15.87,0l-6.58-8.53h8.57l4.83,8.53h-6.82Zm7.93-54.09l4.22,6.91h-8.44l4.22-6.91Zm11.44,35.83l2.83-5.01s0-.02,.01-.03c0,0,.01-.01,.02-.02l2.15-3.81,5.41,8.86h-10.43Zm-11.44,17.58l-4.44-7.85h8.89l-4.45,7.85Zm-5.02-45.2h3.87l-4.27,7.12h-3.94l4.34-7.12Zm10.03,0l4.35,7.12h-3.95l-4.27-7.12h3.86Zm.17,36.04h-4.15l3.87-7.12h4.31l-4.03,7.12Zm-10.36,0l-4.03-7.12h4.32l3.87,7.12h-4.15Zm5.18-35.42l3.9,6.51h-7.8l3.9-6.51Zm5.6,27l2.15-3.96,2.12,3.96h-4.27Zm-5.6,7.59l-3.41-6.28h6.82l-3.41,6.28Zm-4.68-26.77h3.62l-1.68,3.13h-3.81l1.87-3.13Zm9.36,0l1.87,3.13h-3.81l-1.68-3.13h3.62Zm-.56,19.19h-2.87l3.47-4.7h1.95l-2.56,4.7Zm-4.12-18.41l1.26,2.35h-2.52l1.26-2.35Zm-4.06,12.4l-1.5-2.03,1.21-2.25,3.08,4.28h-2.79Zm2.1-8.75h3.92l.89,1.65h-5.69l.88-1.65Zm1.96,8.29l-3.67-5.1,.13-.24h7.08l.13,.24-3.67,5.1Zm4.36-3.82l1.21,2.25-1.5,2.03h-2.79l3.08-4.28Zm1.89,3.52l.41,.76h-.97l.56-.76Zm.18-2.43l-1.22-2.27,.25-.34h2.9l-1.92,2.61Zm-1.64-3.91h-.46l-.88-1.65h2.53l-1.19,1.65Zm-9.1,0h-.46l-1.19-1.65h2.53l-.89,1.65Zm-1.12,1.3l.24,.34-1.22,2.27-1.92-2.61h2.9Zm-.8,5.04l.56,.76h-.97l.41-.76Zm6.24,2.06h3.1l-3.1,4.2-3.1-4.2h3.1Zm7.1-3.22l2.39-3.23,.36,.6-2.09,3.85-.66-1.22Zm-.72-5.18l1.06-1.47,.88,1.47h-1.93Zm-13.82-1.47l1.06,1.47h-1.94l.88-1.47Zm-2.05,3.42l2.39,3.23-.66,1.22-2.09-3.85,.36-.6Zm4.77,6.46l3.47,4.7h-2.87l-2.55-4.7h1.95Zm15.35-4.55l1.95,3.25h-3.71l1.76-3.25Zm-.06-2.63l-.29-.49c.02-.13,0-.27-.06-.38-.07-.14-.2-.23-.34-.29l-1.03-1.72h3.28l-1.56,2.87Zm-3.03-5.06l-1.35-2.24h2.96l-1.61,2.24Zm-15.08,0l-1.61-2.24h2.96l-1.34,2.24Zm-2.34,3.91c-.15,.06-.27,.15-.34,.29-.06,.12-.07,.24-.06,.37l-.3,.49-1.56-2.87h3.28l-1.03,1.72Zm-.75,3.78l1.76,3.25h-3.71l1.95-3.25Zm5.02,9.25h-4.27l2.12-3.96,2.15,3.96Zm16.27-1.28l-1.84-3.43h3.78l-1.94,3.43Zm3.04-5.37l-2.36-3.94,1.91-3.52,2.42,3.97-1.97,3.49Zm-5.2-9.41l1.93-2.67,1.63,2.67h-3.56Zm-18.94-2.67l1.93,2.67h-3.56l1.63-2.67Zm-2.83,4.63l1.91,3.52-2.36,3.94-1.97-3.49,2.42-3.97Zm4.43,9.4l-1.84,3.43-1.94-3.43h3.78Zm-1.81,6.13l3.96,7h-7.72l3.75-7Zm21.28,0l3.75,7h-7.71l3.96-7Zm5.78-12.86l-2.62-4.29s0,0,0,0c0,0-.01-.02-.02-.03l-2.09-3.43h9.12l-4.38,7.75Zm-9.87-16.18h8.68l-4.7,6.52-3.98-6.52Zm-17.07,6.52l-4.69-6.52h8.68l-3.98,6.52Zm-3.26,5.34s0,.01-.01,.02l-2.63,4.3-4.38-7.75h9.11l-2.09,3.43Zm-2.68,6.89l2.16,3.82s0,0,0,0c0,0,0,0,0,0l2.84,5.03h-10.43l5.41-8.86Zm4.41,10.17l-3.68,6.86-5.29-6.86h8.97Zm27.78,6.86l-3.68-6.86h8.97l-5.29,6.86Zm7.06-9.15l-5.6-9.17,5.08-8.98,7.22,9.48-6.7,8.67Zm-11.09-19.5l4.64-6.44,4.91,6.44h-9.54Zm-28.03-6.44l4.63,6.44h-9.55l4.91-6.44Zm-5.94,7.79l5.08,8.98-5.6,9.17-6.7-8.67,7.22-9.48Zm-.39,20.45l5.5,7.12H11.81l4.34-7.12Zm7.13,9.24l5.95,7.71h-10.09l4.13-7.71Zm15.53,17.98l-6.92-8.97h13.86l-6.93,8.97Zm9.58-10.27l5.95-7.71,4.14,7.71h-10.09Zm7.59-9.83l5.5-7.12,4.34,7.12h-9.84Zm6.51-8.43l6.63-8.59,6.55,8.59h-13.17Zm6.64-10.73l-6.44-8.45h12.96l-6.53,8.45Zm-8.2-10.77l-4.66-6.11h8.11l-3.46,6.11Zm-5.81-7.62l-5.57-7.31h10.82l-5.26,7.31ZM38.82,1.72l8.11,10.65H30.71L38.82,1.72Zm-10.74,11.95l-5.56,7.3-5.26-7.3h10.82Zm-6.71,8.82l-4.65,6.11-3.45-6.11h8.11Zm-6.42,8.43l-6.44,8.45L1.98,30.92H14.95Zm-6.43,10.6l6.64,8.59H1.97l6.54-8.59Z"/>
  </g>
</svg>