<?xml version="1.0" encoding="UTF-8"?>
<svg id="katman_1" xmlns="http://www.w3.org/2000/svg" version="1.1" viewBox="0 0 612 792">
  <!-- Generator: Adobe Illustrator 29.1.0, SVG Export Plug-In . SVG Version: 2.1.0 Build 142)  -->
  <defs>
    <style>
      .st0 {
        fill: #1d1d1b;
      }
    </style>
  </defs>
  <path class="st0" d="M462.16,396l75.87-131.41,1.91-3.31h-155.56l-78.38-135.75-78.38,135.75H72.06l77.78,134.72-75.87,131.41-1.91,3.31h155.56l78.38,135.75,78.38-135.75h155.56l-77.78-134.72ZM530.11,522.51l-105.88-60.81,35.38-61.29,70.5,122.1ZM308.21,271.66l108.12,185.51-108.12-62.1v-123.41ZM303.79,395.07l-108.12,62.1,108.12-185.51v123.41ZM306,398.89l106.79,61.33h-213.57l106.79-61.33ZM309.84,265.69h71.99l75.23,130.31-35.47,61.43-111.75-191.74ZM190.41,457.43l-35.47-61.43,75.23-130.31h71.99l-111.75,191.74ZM417.43,464.64l-35.6,61.67h-151.66l-35.6-61.67h222.87ZM532.29,265.69l-72.68,125.89-72.68-125.89h145.37ZM308.21,261.28v-123.1l71.07,123.1h-71.07ZM303.79,138.18v123.1h-71.07l71.07-123.1ZM79.71,265.69h145.37l-72.68,125.89-72.68-125.89ZM187.77,461.7l-105.88,60.81,70.49-122.1,35.38,61.29ZM84.16,526.3l105.82-60.78,35.09,60.78H84.16ZM306,657.65l-73.28-126.93h146.56l-73.28,126.93ZM422.02,465.52l105.83,60.78h-140.92l35.09-60.78Z"/>
</svg>