<?xml version="1.0" encoding="UTF-8"?>
<svg id="katman_1" xmlns="http://www.w3.org/2000/svg" version="1.1" viewBox="0 0 612 792">
  <!-- Generator: Adobe Illustrator 29.1.0, SVG Export Plug-In . SVG Version: 2.1.0 Build 142)  -->
  <defs>
    <style>
      .st0 {
        fill: #1d1d1b;
      }
    </style>
  </defs>
  <path class="st0" d="M435.25,337.5c0-14.75-11.41-26.87-25.87-28.03v-60.64c14.46-1.16,25.87-13.28,25.87-28.03,0-15.52-12.63-28.15-28.15-28.15-10.78,0-20.15,6.09-24.87,15.01l-51.33-31.98c2.07-3.91,3.25-8.37,3.25-13.09,0-15.52-12.63-28.15-28.14-28.15s-28.15,12.63-28.15,28.15c0,5,1.33,9.7,3.63,13.77l-51.71,31.28c-4.73-8.91-14.1-15-24.87-15-15.52,0-28.15,12.63-28.15,28.15s11.45,26.9,25.94,28.03v60.64c-14.49,1.13-25.94,13.26-25.94,28.03s11.46,26.92,25.97,28.04l.8,60.87c-14.88.73-26.76,13.02-26.76,28.08s12.63,28.15,28.15,28.15c3.81,0,7.44-.77,10.75-2.14l75.69,124.95c-8.07,4.95-13.48,13.83-13.48,23.98,0,15.52,12.63,28.15,28.15,28.15s28.14-12.63,28.14-28.15c0-10.12-5.39-18.99-13.43-23.95l75.69-124.96c3.3,1.36,6.91,2.12,10.7,2.12,15.52,0,28.15-12.63,28.15-28.15s-11.41-26.87-25.87-28.03v-60.92c14.46-1.16,25.87-13.28,25.87-28.03ZM382.25,441.29l-51.17-31.66c1.94-3.82,3.06-8.13,3.06-12.71s-1.08-8.69-2.94-12.45l53.42-30.11c4.74,6.29,12.03,10.54,20.34,11.17v60.9c-9.85.75-18.29,6.56-22.71,14.85ZM379.07,452.27h-70.86v-27.31c8.45-.66,15.85-5.07,20.57-11.56l51.72,31.99c-.75,2.19-1.23,4.49-1.42,6.88ZM232.93,452.27c-.19-2.4-.68-4.7-1.43-6.9l52.19-31.36c4.73,6.16,11.92,10.3,20.1,10.94v27.31h-70.86ZM207.93,426.5l-.8-60.97c8.25-.65,15.5-4.88,20.22-11.13l53.76,29.43c-2.07,3.92-3.25,8.37-3.25,13.1s1.23,9.42,3.4,13.4l-51.51,30.95c-4.29-8.04-12.35-13.76-21.81-14.78ZM216.7,246.31l49.97,88.98h-33.74c-1.08-13.76-12.07-24.75-25.83-25.83v-60.64c3.4-.27,6.63-1.14,9.59-2.52ZM232.93,223h70.86v112.29h-32.06l-51.18-91.12c6.95-4.67,11.69-12.36,12.38-21.17ZM379.07,223c.69,8.83,5.45,16.52,12.41,21.19l-51.16,91.1h-32.11v-112.29h70.86ZM379.07,335.29h-33.69l49.96-88.96c2.97,1.37,6.21,2.24,9.62,2.5v60.63c-13.79,1.05-24.82,12.05-25.89,25.83ZM306,420.66c-13.09,0-23.73-10.65-23.73-23.73s10.65-23.73,23.73-23.73,23.73,10.65,23.73,23.73-10.65,23.73-23.73,23.73ZM308.21,368.89v-29.19h29.63l-18.29,32.57c-3.41-1.88-7.26-3.06-11.34-3.38ZM303.79,368.89c-4.07.32-7.9,1.48-11.31,3.36l-18.28-32.54h29.58v29.19ZM323.24,374.72l19.67-35.02h36.17c.31,3.93,1.41,7.63,3.17,10.94l-53.29,30.04c-1.6-2.26-3.53-4.26-5.71-5.96ZM232.93,339.7h36.22l19.65,34.99c-2.01,1.55-3.79,3.37-5.31,5.4l-53.75-29.42c1.77-3.32,2.88-7.04,3.19-10.98ZM430.84,337.5c0,13.09-10.65,23.73-23.73,23.73s-23.73-10.65-23.73-23.73,10.65-23.73,23.73-23.73,23.73,10.65,23.73,23.73ZM407.1,197.06c13.09,0,23.73,10.65,23.73,23.73s-10.65,23.73-23.73,23.73-23.73-10.65-23.73-23.73,10.65-23.73,23.73-23.73ZM380.47,211.76c-.74,2.17-1.22,4.45-1.4,6.83h-70.86v-27.96c8.3-.65,15.59-4.91,20.31-11.22l51.95,32.36ZM306,138.86c13.09,0,23.73,10.65,23.73,23.73s-10.65,23.73-23.73,23.73-23.73-10.65-23.73-23.73,10.65-23.73,23.73-23.73ZM283.95,180.03c4.73,5.97,11.81,9.97,19.85,10.6v27.96h-70.86c-.19-2.38-.67-4.67-1.41-6.84l52.43-31.71ZM181.16,220.79c0-13.09,10.65-23.73,23.73-23.73s23.73,10.65,23.73,23.73-10.65,23.73-23.73,23.73-23.73-10.65-23.73-23.73ZM181.16,337.5c0-13.09,10.65-23.73,23.73-23.73s23.73,10.65,23.73,23.73-10.65,23.73-23.73,23.73-23.73-10.65-23.73-23.73ZM181.16,454.48c0-13.09,10.65-23.73,23.73-23.73s23.73,10.65,23.73,23.73-10.65,23.73-23.73,23.73-23.73-10.65-23.73-23.73ZM219.58,478.45c7.47-4.59,12.63-12.55,13.35-21.76h70.86v28.01c-14.49,1.13-25.94,13.26-25.94,28.03s11.45,26.9,25.94,28.03v60.62c-3,.23-5.86.92-8.53,2.03l-75.69-124.96ZM306,536.46c-13.09,0-23.73-10.65-23.73-23.73s10.65-23.73,23.73-23.73,23.73,10.65,23.73,23.73-10.65,23.73-23.73,23.73ZM329.73,629.41c0,13.09-10.65,23.73-23.73,23.73s-23.73-10.65-23.73-23.73,10.65-23.73,23.73-23.73,23.73,10.65,23.73,23.73ZM316.79,603.42c-2.68-1.11-5.56-1.81-8.58-2.05v-60.62c14.49-1.13,25.94-13.26,25.94-28.03s-11.45-26.9-25.94-28.03v-28.01h70.86c.72,9.23,5.91,17.2,13.4,21.79l-75.68,124.95ZM430.84,454.48c0,13.09-10.65,23.73-23.73,23.73s-23.73-10.65-23.73-23.73,10.65-23.73,23.73-23.73,23.73,10.65,23.73,23.73Z"/>
</svg>