<?xml version="1.0" encoding="UTF-8"?>
<svg id="Layer_2" data-name="Layer 2" xmlns="http://www.w3.org/2000/svg" viewBox="0 0 88.65 99.17">
  <defs>
    <style>
      .cls-1 {
        fill: #201600;
      }
    </style>
  </defs>
  <g id="Layer_2_copy_2" data-name="Layer 2 copy 2">
    <path class="cls-1" d="M78.34,40.29c1.79,0,3.56-.47,5.15-1.39,4.93-2.85,6.63-9.17,3.78-14.11-1.38-2.39-3.61-4.1-6.27-4.81-2.66-.71-5.45-.35-7.84,1.03-3.96,2.29-5.83,6.83-4.93,11.08-1.2-1.08-2.63-1.87-4.23-2.3-2.66-.71-5.45-.35-7.84,1.03-.63,.37-1.21,.79-1.73,1.26,.15-.69,.22-1.4,.22-2.13,0-4.58-3-8.47-7.13-9.82,4.13-1.35,7.13-5.24,7.13-9.82,0-5.69-4.63-10.33-10.33-10.33s-10.33,4.63-10.33,10.33c0,4.58,3,8.47,7.13,9.82-4.13,1.35-7.13,5.24-7.13,9.82,0,.73,.08,1.44,.22,2.13-.52-.47-1.1-.89-1.73-1.26-3.96-2.29-8.83-1.64-12.06,1.27,.34-1.57,.3-3.21-.13-4.81-.71-2.66-2.42-4.89-4.81-6.27-4.93-2.85-11.26-1.15-14.11,3.78-2.85,4.93-1.15,11.26,3.78,14.11,1.59,.92,3.36,1.39,5.15,1.39,.9,0,1.8-.12,2.69-.36,1.6-.43,3.03-1.22,4.23-2.3-.9,4.25,.97,8.79,4.93,11.08,.64,.37,1.31,.64,1.99,.86-.68,.22-1.35,.51-1.99,.88-2.39,1.38-4.1,3.61-4.81,6.27-.43,1.6-.46,3.24-.13,4.81-3.24-2.9-8.1-3.56-12.06-1.27-4.93,2.85-6.63,9.18-3.78,14.11,1.91,3.31,5.39,5.16,8.96,5.16,1.75,0,3.52-.44,5.15-1.38,2.39-1.38,4.1-3.61,4.81-6.27,.43-1.61,.46-3.25,.12-4.83,1.91,1.72,4.39,2.67,6.92,2.67,1.75,0,3.52-.44,5.15-1.38,.63-.36,1.21-.79,1.73-1.26-.15,.69-.22,1.4-.22,2.13,0,4.58,3,8.47,7.13,9.82-4.13,1.35-7.13,5.24-7.13,9.81,0,5.69,4.63,10.33,10.33,10.33s10.33-4.63,10.33-10.33c0-4.58-3-8.47-7.13-9.81,4.13-1.35,7.13-5.24,7.13-9.82,0-.73-.08-1.44-.22-2.13,.53,.47,1.11,.9,1.73,1.26,1.59,.92,3.36,1.39,5.15,1.39,.9,0,1.8-.12,2.69-.36,1.6-.43,3.03-1.22,4.23-2.3-.9,4.25,.97,8.79,4.93,11.08,1.59,.92,3.36,1.39,5.15,1.39,.9,0,1.8-.12,2.69-.36,2.66-.71,4.89-2.42,6.27-4.81,2.85-4.93,1.15-11.26-3.78-14.11-3.96-2.29-8.83-1.64-12.06,1.27,.34-1.57,.3-3.21-.12-4.81-.71-2.66-2.42-4.89-4.81-6.27-.64-.37-1.31-.66-1.99-.88,.68-.22,1.35-.49,1.99-.86,3.96-2.29,5.83-6.83,4.93-11.08,1.2,1.08,2.63,1.87,4.23,2.3,.89,.24,1.79,.36,2.69,.36Zm-44.12,11.44c-1.1-.99-2.38-1.7-3.76-2.14,1.38-.44,2.67-1.17,3.77-2.16-.15,.7-.23,1.42-.23,2.16s.08,1.45,.23,2.14Zm3.2,5.52c1.06,.96,2.32,1.7,3.71,2.16-1.4,.46-2.66,1.21-3.72,2.17,.31-1.45,.32-2.91,.01-4.33Zm-2.4-7.66c0-5.13,4.17-9.3,9.3-9.3s9.3,4.17,9.3,9.3-4.17,9.3-9.3,9.3-9.3-4.17-9.3-9.3Zm2.4-7.65c.31-1.45,.29-2.92-.02-4.33,1.07,.97,2.33,1.72,3.73,2.17-1.39,.45-2.65,1.2-3.71,2.16Zm10.1-2.16c1.4-.46,2.66-1.21,3.73-2.17-.31,1.41-.32,2.89-.02,4.34-1.06-.96-2.32-1.71-3.71-2.16Zm3.71,17.47c-.3,1.41-.3,2.88,.01,4.33-1.07-.96-2.33-1.71-3.72-2.17,1.39-.45,2.65-1.2,3.71-2.16Zm3.19-9.82c1.1,.99,2.38,1.71,3.76,2.16-1.41,.45-2.68,1.18-3.75,2.14,.15-.69,.22-1.4,.22-2.14s-.08-1.46-.23-2.16ZM35.02,10.33c0-5.13,4.17-9.3,9.3-9.3s9.3,4.17,9.3,9.3-4.17,9.3-9.3,9.3-9.3-4.17-9.3-9.3Zm9.3,10.33c5.13,0,9.3,4.17,9.3,9.3s-4.17,9.3-9.3,9.3-9.3-4.17-9.3-9.3,4.17-9.3,9.3-9.3ZM12.73,38.94c-2.4,.64-4.91,.31-7.06-.93C1.23,35.45-.3,29.75,2.27,25.3c1.72-2.98,4.85-4.65,8.07-4.65,1.58,0,3.18,.4,4.64,1.24,2.15,1.24,3.69,3.25,4.33,5.65,.64,2.4,.31,4.91-.93,7.06-1.24,2.15-3.25,3.69-5.65,4.34Zm6.53-3.82c1.72-2.98,4.85-4.65,8.07-4.65,1.58,0,3.17,.4,4.64,1.24,4.44,2.57,5.97,8.27,3.41,12.71-2.57,4.44-8.27,5.97-12.71,3.41-4.44-2.57-5.97-8.27-3.41-12.71Zm.04,36.5c-.64,2.4-2.18,4.41-4.33,5.65-4.44,2.56-10.14,1.04-12.71-3.41-2.56-4.44-1.04-10.14,3.41-12.71,4.44-2.57,10.14-1.04,12.71,3.41,1.24,2.15,1.57,4.66,.93,7.06Zm12.67-4.17c-4.44,2.56-10.14,1.04-12.71-3.41-1.24-2.15-1.57-4.66-.93-7.06,.64-2.4,2.18-4.41,4.33-5.65,4.44-2.56,10.14-1.04,12.71,3.41,1.24,2.15,1.57,4.66,.93,7.06-.64,2.4-2.18,4.41-4.33,5.65Zm21.65,21.39c0,5.13-4.17,9.3-9.3,9.3s-9.3-4.17-9.3-9.3,4.17-9.3,9.3-9.3,9.3,4.17,9.3,9.3Zm-9.3-10.33c-5.13,0-9.3-4.17-9.3-9.3s4.17-9.3,9.3-9.3,9.3,4.17,9.3,9.3-4.17,9.3-9.3,9.3Zm34.02-18.61c1.58,0,3.17,.4,4.64,1.24,4.44,2.57,5.97,8.27,3.41,12.71-1.24,2.15-3.25,3.69-5.65,4.34-2.4,.64-4.91,.31-7.06-.93-4.44-2.57-5.97-8.27-3.41-12.71,1.72-2.98,4.85-4.65,8.07-4.65Zm-12.36-8.57c2.15,1.24,3.69,3.25,4.33,5.65,.64,2.4,.31,4.91-.93,7.06-1.24,2.15-3.25,3.69-5.65,4.34-2.4,.64-4.91,.31-7.06-.93-2.15-1.24-3.69-3.25-4.33-5.65-.64-2.4-.31-4.91,.93-7.06,1.24-2.15,3.25-3.69,5.65-4.34,.8-.21,1.61-.32,2.41-.32,0,0,.01,0,.02,0,0,0,0,0,.01,0,1.61,0,3.19,.42,4.62,1.25Zm0-3.52c-4.44,2.57-10.14,1.04-12.71-3.41-2.57-4.44-1.04-10.14,3.41-12.71,1.43-.83,3.02-1.25,4.64-1.25,.81,0,1.62,.11,2.42,.32,2.4,.64,4.41,2.18,5.65,4.34,2.57,4.44,1.04,10.14-3.41,12.71Zm4.29-13.22c-2.57-4.44-1.04-10.14,3.41-12.71,1.43-.83,3.02-1.25,4.64-1.25,.81,0,1.62,.11,2.42,.32,2.4,.64,4.41,2.18,5.65,4.34,2.57,4.44,1.04,10.14-3.41,12.71-2.15,1.24-4.66,1.57-7.06,.93-2.4-.64-4.41-2.18-5.65-4.34Z"/>
  </g>
</svg>