<?xml version="1.0" encoding="UTF-8"?>
<svg id="katman_1" xmlns="http://www.w3.org/2000/svg" version="1.1" viewBox="0 0 612 792">
  <!-- Generator: Adobe Illustrator 29.1.0, SVG Export Plug-In . SVG Version: 2.1.0 Build 142)  -->
  <defs>
    <style>
      .st0 {
        fill: #1d1d1b;
      }
    </style>
  </defs>
  <path class="st0" d="M550.93,396c0-48.99-38.92-88.95-87.45-90.86,6.86-13.01,10.51-27.58,10.51-42.39,0-50.2-40.84-91.04-91.04-91.04-31.22,0-60.38,16.23-76.99,42.53-16.15-25.51-44.54-42.53-76.9-42.53-50.2,0-91.04,40.84-91.04,91.04,0,15.3,3.84,29.72,10.54,42.39-48.54,1.89-87.48,41.86-87.48,90.86s38.94,88.97,87.48,90.86c-6.7,12.67-10.54,27.09-10.54,42.39,0,50.2,40.84,91.04,91.04,91.04,32.36,0,60.75-17.02,76.9-42.53,16.61,26.3,45.77,42.53,76.99,42.53,50.2,0,91.04-40.84,91.04-91.04,0-14.81-3.65-29.38-10.51-42.39,48.53-1.9,87.45-41.87,87.45-90.86ZM382.95,176.13c47.76,0,86.62,38.86,86.62,86.62,0,14.83-3.83,29.4-11.02,42.25-30.7.46-59.25,16.57-75.63,42.51-15.54-24.57-42.47-41.16-73.34-42.37,6.87-13.03,10.52-27.59,10.52-42.39,0-16.08-4.23-31.17-11.57-44.29,15.59-26.13,43.98-42.33,74.42-42.33ZM306,482.62c-47.76,0-86.62-38.86-86.62-86.62s38.86-86.62,86.62-86.62,86.62,38.86,86.62,86.62-38.86,86.62-86.62,86.62ZM229.05,176.13c47.76,0,86.62,38.86,86.62,86.62,0,14.82-3.84,29.4-11.05,42.28-32.55.49-60.94,18.14-76.64,44.29-47.27-.58-85.55-39.17-85.55-86.57s38.86-86.62,86.62-86.62ZM65.48,396c0-47.4,38.29-85.99,85.55-86.57,15.35,25.55,42.82,42.94,74.46,44.18-6.7,12.67-10.54,27.08-10.54,42.39s3.84,29.72,10.54,42.39c-31.63,1.23-59.11,18.62-74.46,44.18-47.27-.58-85.56-39.16-85.56-86.57ZM229.05,615.87c-47.76,0-86.62-38.86-86.62-86.62s38.29-85.99,85.56-86.57c15.7,26.14,44.09,43.79,76.62,44.29,7.23,12.89,11.07,27.47,11.07,42.28,0,47.76-38.86,86.62-86.62,86.62ZM382.95,615.87c-30.44,0-58.84-16.2-74.42-42.33,7.34-13.12,11.57-28.21,11.57-44.29,0-14.79-3.66-29.36-10.54-42.39,30.88-1.2,57.81-17.8,73.36-42.37,16.38,25.94,44.94,42.05,75.64,42.51,7.19,12.85,11.02,27.43,11.02,42.26,0,47.76-38.86,86.62-86.62,86.62ZM459.89,482.62c-30.43,0-58.82-16.21-74.41-42.36,7.33-13.12,11.56-28.2,11.56-44.27s-4.22-31.15-11.56-44.26c15.59-26.15,43.98-42.36,74.41-42.36,47.76,0,86.62,38.86,86.62,86.62s-38.86,86.62-86.62,86.62Z"/>
</svg>