<?xml version="1.0" encoding="UTF-8" standalone="no"?><!DOCTYPE svg PUBLIC "-//W3C//DTD SVG 1.1//EN" "http://www.w3.org/Graphics/SVG/1.1/DTD/svg11.dtd"><svg width="100%" height="100%" viewBox="0 0 732 832" version="1.1" xmlns="http://www.w3.org/2000/svg" xmlns:xlink="http://www.w3.org/1999/xlink" xml:space="preserve" xmlns:serif="http://www.serif.com/" style="fill-rule:evenodd;clip-rule:evenodd;stroke-linejoin:round;stroke-miterlimit:2;"><g><g><path d="M297.241,71.83c0,-38.078 30.869,-68.947 68.947,-68.947c38.081,0.003 68.937,30.872 68.944,68.947c-0.007,38.078 -30.863,68.944 -68.944,68.947c-38.078,-0.003 -68.947,-30.872 -68.947,-68.947Zm20.878,-48.069c-12.303,12.303 -19.912,29.297 -19.912,48.069c0,18.772 7.609,35.762 19.912,48.065c12.303,12.304 29.297,19.91 48.066,19.91c18.772,0 35.759,-7.61 48.062,-19.91c12.303,-12.306 19.913,-29.296 19.913,-48.065c0,-18.772 -7.613,-35.766 -19.913,-48.069c-12.303,-12.303 -29.29,-19.909 -48.062,-19.909c-18.769,0 -35.763,7.606 -48.066,19.909Z" style="fill:#231f20;fill-rule:nonzero;"/><path d="M297.241,759.774c0,-38.079 30.869,-68.944 68.947,-68.944c38.081,0 68.937,30.869 68.937,68.944l0.007,0c-0.007,38.075 -30.863,68.946 -68.944,68.946c-38.078,-0.003 -68.947,-30.871 -68.947,-68.946Zm20.878,-48.063c-12.303,12.3 -19.912,29.291 -19.912,48.063c0,18.771 7.609,35.762 19.912,48.068c12.303,12.303 29.297,19.91 48.066,19.91c18.772,0 35.759,-7.61 48.062,-19.91c12.303,-12.306 19.913,-29.297 19.913,-48.068c0,-18.772 -7.613,-35.763 -19.913,-48.063c-12.303,-12.303 -29.29,-19.912 -48.062,-19.912c-18.769,0 -35.763,7.612 -48.066,19.912Z" style="fill:#231f20;fill-rule:nonzero;"/><path d="M355.35,105.892c0,-38.078 30.869,-68.943 68.95,-68.947c38.072,0.004 68.941,30.866 68.941,68.947c0,38.078 -30.869,68.944 -68.941,68.947c-38.081,-0.003 -68.95,-30.869 -68.95,-68.947Zm20.879,-48.068c-12.3,12.306 -19.91,29.296 -19.91,48.068c0,18.772 7.613,35.763 19.91,48.066c12.303,12.303 29.293,19.912 48.071,19.912c18.772,0 35.76,-7.609 48.06,-19.912c12.306,-12.303 19.912,-29.294 19.919,-48.066c-0.007,-18.772 -7.613,-35.762 -19.919,-48.068c-12.3,-12.3 -29.288,-19.91 -48.06,-19.91c-18.778,0.003 -35.771,7.61 -48.071,19.91Z" style="fill:#231f20;fill-rule:nonzero;"/><path d="M355.35,725.045c0,-38.081 30.869,-68.946 68.95,-68.946c38.072,0 68.941,30.871 68.941,68.946c0,38.075 -30.869,68.944 -68.941,68.947c-38.087,-0.003 -68.95,-30.872 -68.95,-68.947Zm20.879,-48.065c-12.3,12.303 -19.91,29.29 -19.91,48.065c0,18.772 7.613,35.763 19.91,48.069c12.303,12.3 29.293,19.91 48.071,19.91c18.772,0 35.76,-7.61 48.06,-19.91c12.306,-12.306 19.912,-29.297 19.919,-48.069c-0.007,-18.775 -7.613,-35.762 -19.919,-48.065c-12.3,-12.303 -29.288,-19.913 -48.06,-19.913c-18.778,0.003 -35.771,7.613 -48.071,19.913Z" style="fill:#231f20;fill-rule:nonzero;"/><path d="M237.132,105.892c0,-38.072 30.862,-68.94 68.943,-68.943c38.075,0.003 68.944,30.871 68.944,68.943c0,38.082 -30.869,68.947 -68.944,68.947c-38.081,-0.003 -68.943,-30.869 -68.943,-68.947Zm20.878,-48.065c-12.303,12.303 -19.913,29.293 -19.913,48.062c0,18.772 7.61,35.763 19.913,48.066c12.303,12.303 29.297,19.909 48.065,19.909c18.772,0 35.763,-7.606 48.066,-19.909c12.303,-12.303 19.913,-29.294 19.913,-48.066c0,-18.772 -7.61,-35.762 -19.913,-48.062c-12.303,-12.303 -29.294,-19.913 -48.066,-19.913c-18.768,0.003 -35.765,7.61 -48.065,19.913Z" style="fill:#231f20;fill-rule:nonzero;"/><path d="M237.132,725.045c0,-38.078 30.862,-68.946 68.943,-68.946c38.075,0 68.944,30.868 68.944,68.946c0,38.075 -30.869,68.947 -68.944,68.947c-38.081,0 -68.943,-30.872 -68.943,-68.947Zm20.878,-48.068c-12.303,12.303 -19.913,29.293 -19.913,48.068c0,18.772 7.61,35.763 19.913,48.066c12.303,12.303 29.297,19.909 48.065,19.909c18.772,0 35.763,-7.606 48.066,-19.909c12.303,-12.303 19.913,-29.294 19.913,-48.066c0,-18.775 -7.61,-35.765 -19.913,-48.068c-12.303,-12.303 -29.294,-19.913 -48.066,-19.913c-18.768,0.003 -35.765,7.613 -48.065,19.913Z" style="fill:#231f20;fill-rule:nonzero;"/><path d="M474.666,657.361c0,-38.075 30.869,-68.944 68.947,-68.944c38.075,0 68.944,30.869 68.944,68.944c0,38.081 -30.869,68.941 -68.944,68.941c-38.078,0 -68.947,-30.863 -68.947,-68.941Zm20.878,-48.062c-12.306,12.3 -19.912,29.293 -19.912,48.062c0,18.775 7.606,35.766 19.912,48.066c12.3,12.303 29.288,19.906 48.066,19.906c18.772,0 35.762,-7.603 48.062,-19.906c12.307,-12.3 19.913,-29.291 19.913,-48.066c0,-18.769 -7.606,-35.762 -19.913,-48.062c-12.3,-12.304 -29.29,-19.913 -48.062,-19.913c-18.778,0 -35.766,7.609 -48.066,19.913Z" style="fill:#231f20;fill-rule:nonzero;"/><path d="M474.666,175.799c0,-38.075 30.869,-68.941 68.947,-68.941c38.075,0 68.944,30.866 68.944,68.941c0,38.075 -30.869,68.946 -68.944,68.946c-38.078,-0.003 -68.947,-30.871 -68.947,-68.946Zm20.878,-48.066c-12.306,12.306 -19.912,29.294 -19.912,48.066c0,18.768 7.606,35.759 19.912,48.065c12.3,12.303 29.288,19.91 48.066,19.91c18.772,0 35.762,-7.61 48.062,-19.91c12.307,-12.306 19.913,-29.297 19.913,-48.065c0,-18.772 -7.606,-35.76 -19.913,-48.066c-12.3,-12.303 -29.29,-19.906 -48.062,-19.913c-18.778,0.007 -35.766,7.61 -48.066,19.913Z" style="fill:#231f20;fill-rule:nonzero;"/><path d="M532.772,209.861c0.007,-38.075 30.869,-68.944 68.947,-68.947c38.081,0.003 68.944,30.872 68.944,68.947c0,38.078 -30.863,68.947 -68.944,68.95c-38.078,-0.003 -68.94,-30.872 -68.947,-68.95Zm20.882,-48.066c-12.307,12.307 -19.913,29.297 -19.913,48.066c0,18.772 7.606,35.763 19.913,48.069c12.306,12.303 29.293,19.909 48.065,19.909c18.778,0 35.76,-7.609 48.069,-19.909c12.303,-12.306 19.903,-29.297 19.903,-48.069c0,-18.769 -7.603,-35.759 -19.903,-48.066c-12.306,-12.3 -29.291,-19.906 -48.069,-19.906c-18.772,0 -35.759,7.606 -48.065,19.906Z" style="fill:#231f20;fill-rule:nonzero;"/><path d="M532.772,622.63c0.007,-38.078 30.869,-68.947 68.947,-68.947c38.081,0 68.944,30.869 68.944,68.947c0,38.081 -30.863,68.944 -68.944,68.947c-38.078,-0.007 -68.94,-30.869 -68.947,-68.947Zm20.882,-48.069c-12.307,12.303 -19.913,29.294 -19.913,48.066c0,18.775 7.606,35.762 19.913,48.065c12.306,12.3 29.293,19.91 48.065,19.91c18.778,0 35.76,-7.61 48.069,-19.91c12.303,-12.303 19.903,-29.29 19.903,-48.065c0,-18.775 -7.603,-35.763 -19.903,-48.066c-12.306,-12.306 -29.291,-19.912 -48.069,-19.912c-18.772,0.003 -35.759,7.609 -48.065,19.912Z" style="fill:#231f20;fill-rule:nonzero;"/><path d="M592.885,314.061c0,-38.078 30.869,-68.947 68.944,-68.947c38.081,0 68.946,30.869 68.946,68.947l0.007,0c-0.007,38.075 -30.875,68.944 -68.953,68.944c-38.075,-0.003 -68.944,-30.872 -68.944,-68.944Zm20.872,-48.072c-12.3,12.306 -19.903,29.297 -19.903,48.069c0,18.772 7.606,35.759 19.903,48.059c12.306,12.303 29.297,19.91 48.068,19.916c18.772,-0.003 35.766,-7.613 48.069,-19.916c12.306,-12.303 19.91,-29.29 19.91,-48.059c0,-18.775 -7.607,-35.763 -19.91,-48.069c-12.303,-12.303 -29.297,-19.909 -48.069,-19.909c-18.771,0 -35.759,7.609 -48.068,19.909Z" style="fill:#231f20;fill-rule:nonzero;"/><path d="M592.885,451.649c0,-38.082 30.869,-68.944 68.944,-68.944c38.081,0 68.946,30.859 68.946,68.944l0.007,0c-0.007,38.078 -30.875,68.943 -68.953,68.943c-38.075,-0.003 -68.944,-30.872 -68.944,-68.943Zm20.872,-48.072c-12.3,12.303 -19.903,29.297 -19.903,48.068c0,18.772 7.606,35.763 19.903,48.063c12.306,12.306 29.297,19.912 48.068,19.912c18.772,0 35.766,-7.606 48.069,-19.912c12.306,-12.3 19.91,-29.294 19.91,-48.063c0,-18.775 -7.607,-35.765 -19.91,-48.068c-12.303,-12.303 -29.297,-19.907 -48.069,-19.907c-18.771,0.004 -35.759,7.607 -48.068,19.907Z" style="fill:#231f20;fill-rule:nonzero;"/><path d="M592.885,589.233c0,-38.078 30.869,-68.944 68.944,-68.944c38.081,0 68.946,30.866 68.946,68.944l0.007,0c-0.007,38.078 -30.875,68.947 -68.953,68.947c-38.075,-0.003 -68.944,-30.869 -68.944,-68.947Zm20.872,-48.066c-12.3,12.303 -19.903,29.294 -19.903,48.063c0,18.775 7.606,35.765 19.903,48.065c12.306,12.307 29.297,19.91 48.068,19.913c18.772,-0.003 35.766,-7.606 48.069,-19.913c12.306,-12.303 19.91,-29.293 19.91,-48.065c0,-18.772 -7.607,-35.763 -19.91,-48.063c-12.303,-12.303 -29.297,-19.912 -48.069,-19.912c-18.771,0.003 -35.759,7.609 -48.068,19.912Z" style="fill:#231f20;fill-rule:nonzero;"/><path d="M592.885,245.264c0,-38.084 30.869,-68.947 68.944,-68.947c38.081,0 68.946,30.863 68.946,68.947c0,38.075 -30.868,68.938 -68.946,68.944c-38.075,-0.006 -68.944,-30.869 -68.944,-68.944Zm20.878,-48.069c-12.3,12.304 -19.909,29.297 -19.916,48.069c0.007,18.769 7.619,35.76 19.916,48.066c12.303,12.297 29.291,19.906 48.062,19.906c18.772,0 35.766,-7.609 48.069,-19.906c12.306,-12.306 19.91,-29.297 19.916,-48.066c-0.006,-18.775 -7.613,-35.769 -19.916,-48.069c-12.303,-12.303 -29.297,-19.906 -48.069,-19.906c-18.771,0 -35.759,7.603 -48.062,19.906Z" style="fill:#231f20;fill-rule:nonzero;"/><path d="M592.885,382.849c0,-38.075 30.869,-68.944 68.944,-68.944c38.081,0 68.946,30.869 68.953,68.944c-0.007,38.081 -30.875,68.95 -68.953,68.95c-38.075,0 -68.944,-30.869 -68.944,-68.95Zm20.872,-48.063c-12.3,12.303 -19.903,29.291 -19.903,48.059c0,18.775 7.606,35.766 19.903,48.069c12.306,12.303 29.297,19.91 48.068,19.916c18.772,-0.006 35.766,-7.613 48.069,-19.916c12.306,-12.303 19.91,-29.297 19.91,-48.069c0,-18.768 -7.607,-35.759 -19.91,-48.059c-12.303,-12.303 -29.297,-19.916 -48.069,-19.916c-18.771,0.004 -35.759,7.616 -48.068,19.916Z" style="fill:#231f20;fill-rule:nonzero;"/><path d="M592.885,520.439c0,-38.078 30.869,-68.944 68.944,-68.944c38.081,0 68.946,30.866 68.946,68.944c0,38.078 -30.868,68.947 -68.946,68.947c-38.075,0 -68.944,-30.869 -68.944,-68.947Zm20.878,-48.065c-12.3,12.303 -19.909,29.293 -19.916,48.065c0.007,18.775 7.619,35.766 19.916,48.069c12.303,12.303 29.291,19.909 48.062,19.909c18.772,0 35.766,-7.609 48.069,-19.909c12.306,-12.303 19.91,-29.294 19.916,-48.069c-0.006,-18.775 -7.613,-35.762 -19.916,-48.065c-12.303,-12.304 -29.297,-19.91 -48.069,-19.91c-18.771,0 -35.759,7.606 -48.062,19.91Z" style="fill:#231f20;fill-rule:nonzero;"/><path d="M414.55,141.07c0,-38.078 30.869,-68.946 68.954,-68.946c38.068,0 68.937,30.868 68.937,68.946c0,38.075 -30.869,68.947 -68.937,68.947c-38.085,-0.003 -68.954,-30.875 -68.954,-68.947Zm20.882,-48.068c-12.307,12.303 -19.91,29.293 -19.91,48.068c0,18.772 7.607,35.763 19.91,48.063c12.303,12.306 29.297,19.912 48.075,19.912c18.765,0 35.753,-7.609 48.056,-19.912c12.306,-12.3 19.909,-29.291 19.909,-48.063c0,-18.775 -7.606,-35.765 -19.909,-48.068c-12.303,-12.3 -29.291,-19.91 -48.056,-19.913c-18.778,0.003 -35.772,7.613 -48.075,19.913Z" style="fill:#231f20;fill-rule:nonzero;"/><path d="M414.55,691.424c0,-38.079 30.869,-68.947 68.954,-68.947c38.068,0 68.937,30.872 68.937,68.947c0,38.078 -30.869,68.946 -68.937,68.946c-38.085,-0.003 -68.954,-30.865 -68.954,-68.946Zm20.882,-48.066c-12.307,12.3 -19.91,29.291 -19.91,48.062c0,18.775 7.607,35.766 19.91,48.069c12.303,12.303 29.297,19.913 48.075,19.913c18.765,0 35.753,-7.61 48.056,-19.913c12.306,-12.303 19.909,-29.294 19.909,-48.069c0,-18.771 -7.606,-35.762 -19.909,-48.062c-12.303,-12.303 -29.291,-19.913 -48.056,-19.913c-18.778,0 -35.772,7.61 -48.075,19.913Z" style="fill:#231f20;fill-rule:nonzero;"/><path d="M118.479,657.364c0,-38.078 30.865,-68.947 68.946,-68.947c38.075,0 68.944,30.869 68.944,68.947c0,38.078 -30.869,68.941 -68.944,68.941c-38.081,-0.003 -68.946,-30.866 -68.946,-68.941Zm20.878,48.066c12.303,12.303 29.293,19.906 48.068,19.906c18.769,0 35.76,-7.606 48.066,-19.906c12.303,-12.303 19.906,-29.297 19.906,-48.066c0,-18.775 -7.606,-35.765 -19.906,-48.065c-12.306,-12.304 -29.297,-19.91 -48.066,-19.913c-18.775,0.003 -35.765,7.613 -48.068,19.913c-12.3,12.3 -19.91,29.293 -19.91,48.065l-0.003,0c0.006,18.769 7.613,35.763 19.913,48.066Z" style="fill:#231f20;fill-rule:nonzero;"/><path d="M118.482,175.799c0,-38.075 30.865,-68.944 68.943,-68.944c38.075,0 68.944,30.865 68.944,68.944c0,38.075 -30.869,68.946 -68.944,68.946c-38.078,-0.003 -68.943,-30.875 -68.943,-68.946Zm0.965,0c0,18.775 7.607,35.765 19.91,48.065c12.306,12.303 29.293,19.906 48.068,19.906c18.769,0 35.763,-7.606 48.066,-19.906c12.3,-12.3 19.909,-29.29 19.909,-48.065c0,-18.769 -7.609,-35.763 -19.909,-48.063c-12.303,-12.3 -29.297,-19.912 -48.066,-19.912c-18.775,0 -35.762,7.612 -48.068,19.912c-12.303,12.3 -19.91,29.294 -19.91,48.063Z" style="fill:#231f20;fill-rule:nonzero;"/><path d="M60.369,209.861c0.003,-38.075 30.866,-68.947 68.947,-68.947c38.078,0 68.944,30.869 68.947,68.947c-0.003,38.078 -30.869,68.947 -68.947,68.947c-38.081,0 -68.944,-30.869 -68.947,-68.947Zm0.972,0c0,18.772 7.606,35.766 19.909,48.066c12.3,12.303 29.288,19.912 48.066,19.912c18.769,0 35.763,-7.609 48.066,-19.912c12.303,-12.303 19.909,-29.297 19.909,-48.066c0,-18.772 -7.606,-35.759 -19.909,-48.066c-12.303,-12.303 -29.297,-19.912 -48.066,-19.912c-18.778,0 -35.766,7.609 -48.066,19.912c-12.303,12.307 -19.909,29.294 -19.909,48.066Z" style="fill:#231f20;fill-rule:nonzero;"/><path d="M60.372,622.63c0,-38.078 30.863,-68.944 68.944,-68.947c38.078,0.003 68.944,30.869 68.944,68.947c0,38.075 -30.866,68.944 -68.944,68.944c-38.081,0 -68.944,-30.869 -68.944,-68.944Zm0.969,0c0,18.772 7.606,35.762 19.909,48.062c12.3,12.307 29.288,19.91 48.066,19.91c18.769,0 35.763,-7.607 48.066,-19.91c12.303,-12.3 19.909,-29.293 19.909,-48.062c0,-18.775 -7.606,-35.763 -19.909,-48.069c-12.303,-12.303 -29.297,-19.909 -48.066,-19.909c-18.778,0 -35.766,7.606 -48.066,19.909c-12.303,12.306 -19.909,29.294 -19.909,48.069Z" style="fill:#231f20;fill-rule:nonzero;"/><path d="M0.257,314.061c0,-38.081 30.868,-68.947 68.947,-68.95c38.078,0.003 68.943,30.869 68.943,68.95c0,38.069 -30.865,68.941 -68.943,68.941c-38.075,0 -68.947,-30.872 -68.947,-68.941Zm0.968,0c0,18.769 7.61,35.756 19.913,48.059c12.303,12.304 29.294,19.91 48.066,19.91c18.775,0 35.765,-7.61 48.065,-19.91c12.303,-12.303 19.91,-29.29 19.91,-48.059c0,-18.775 -7.607,-35.766 -19.91,-48.072c-12.3,-12.3 -29.29,-19.909 -48.065,-19.909c-18.775,0 -35.763,7.609 -48.066,19.909c-12.306,12.306 -19.913,29.297 -19.913,48.072Z" style="fill:#231f20;fill-rule:nonzero;"/><path d="M0.257,451.649c0,-38.082 30.868,-68.947 68.947,-68.947c38.078,0 68.943,30.862 68.943,68.947c0,38.071 -30.865,68.943 -68.943,68.943c-38.075,-0.003 -68.947,-30.872 -68.947,-68.943Zm0.968,0c0,18.768 7.61,35.759 19.913,48.062c12.303,12.306 29.294,19.906 48.066,19.906c18.775,0 35.765,-7.603 48.065,-19.906c12.303,-12.303 19.91,-29.294 19.91,-48.062c0,-18.775 -7.607,-35.766 -19.91,-48.069c-12.3,-12.303 -29.29,-19.906 -48.065,-19.91c-18.775,0.004 -35.763,7.607 -48.066,19.91c-12.306,12.303 -19.913,29.294 -19.913,48.069Z" style="fill:#231f20;fill-rule:nonzero;"/><path d="M0.257,589.236c0,-38.078 30.868,-68.947 68.947,-68.947c38.078,0 68.943,30.869 68.943,68.947c0,38.078 -30.865,68.944 -68.943,68.944c-38.075,0 -68.947,-30.869 -68.947,-68.944Zm0.968,0c0,18.769 7.61,35.763 19.913,48.066c12.303,12.303 29.294,19.909 48.066,19.909c18.775,0 35.765,-7.606 48.065,-19.909c12.303,-12.303 19.91,-29.297 19.91,-48.066c0,-18.775 -7.607,-35.762 -19.91,-48.066c-12.3,-12.303 -29.29,-19.912 -48.065,-19.912c-18.775,0 -35.763,7.609 -48.066,19.912c-12.306,12.3 -19.913,29.291 -19.913,48.066Z" style="fill:#231f20;fill-rule:nonzero;"/><path d="M0.257,245.261c0,-38.081 30.868,-68.941 68.947,-68.941c38.078,0 68.943,30.86 68.943,68.941c0,38.078 -30.865,68.944 -68.943,68.944c-38.079,0 -68.947,-30.866 -68.947,-68.944Zm0.968,0c0.004,18.775 7.613,35.766 19.913,48.063c12.306,12.303 29.297,19.912 48.066,19.912c18.771,0 35.765,-7.609 48.068,-19.912c12.3,-12.3 19.907,-29.291 19.907,-48.063c0,-18.772 -7.61,-35.766 -19.907,-48.066c-12.303,-12.3 -29.297,-19.906 -48.068,-19.906c-18.772,0 -35.76,7.606 -48.066,19.906c-12.303,12.304 -19.909,29.294 -19.913,48.066Z" style="fill:#231f20;fill-rule:nonzero;"/><path d="M0.257,382.852c0,-38.078 30.868,-68.947 68.947,-68.947c38.078,0 68.943,30.872 68.943,68.947c0,38.078 -30.865,68.947 -68.943,68.947c-38.075,0 -68.947,-30.872 -68.947,-68.947Zm0.968,0c0,18.768 7.61,35.765 19.913,48.068c12.303,12.304 29.294,19.913 48.066,19.913c18.775,0 35.765,-7.609 48.065,-19.913c12.303,-12.303 19.91,-29.296 19.91,-48.068c0,-18.775 -7.607,-35.766 -19.91,-48.066c-12.3,-12.3 -29.29,-19.912 -48.065,-19.912c-18.775,0 -35.763,7.612 -48.066,19.912c-12.306,12.3 -19.913,29.291 -19.913,48.066Z" style="fill:#231f20;fill-rule:nonzero;"/><path d="M0.257,520.436c0,-38.078 30.868,-68.944 68.947,-68.944c38.078,0 68.943,30.866 68.943,68.944c0,38.081 -30.865,68.95 -68.943,68.95c-38.079,0 -68.947,-30.869 -68.947,-68.95Zm0.968,0c0.004,18.775 7.613,35.766 19.913,48.072c12.306,12.3 29.297,19.909 48.066,19.909c18.771,0 35.765,-7.609 48.068,-19.909c12.3,-12.306 19.907,-29.297 19.907,-48.072c0,-18.769 -7.61,-35.759 -19.907,-48.062c-12.303,-12.304 -29.297,-19.907 -48.068,-19.913c-18.772,0.006 -35.76,7.609 -48.066,19.913c-12.303,12.303 -19.909,29.293 -19.913,48.062Z" style="fill:#231f20;fill-rule:nonzero;"/><path d="M178.591,141.07c0,-38.081 30.869,-68.946 68.944,-68.946c38.078,0 68.94,30.862 68.947,68.946c-0.007,38.072 -30.869,68.947 -68.947,68.947c-38.078,-0.003 -68.944,-30.878 -68.944,-68.947Zm0.966,0c0,18.769 7.609,35.76 19.912,48.066c12.3,12.3 29.291,19.913 48.063,19.913c18.772,0 35.765,-7.613 48.068,-19.913c12.3,-12.306 19.91,-29.297 19.91,-48.066c0,-18.775 -7.61,-35.765 -19.91,-48.065c-12.303,-12.306 -29.296,-19.913 -48.068,-19.913c-18.772,0 -35.763,7.607 -48.063,19.913c-12.303,12.3 -19.912,29.287 -19.912,48.065Z" style="fill:#231f20;fill-rule:nonzero;"/><path d="M178.591,691.424c0,-38.079 30.869,-68.944 68.944,-68.944c38.078,0 68.94,30.869 68.947,68.944c-0.007,38.078 -30.869,68.946 -68.947,68.946c-38.078,0 -68.944,-30.868 -68.944,-68.946Zm0.966,0c0,18.775 7.609,35.762 19.912,48.068c12.3,12.303 29.291,19.91 48.063,19.913c18.772,-0.003 35.765,-7.613 48.068,-19.913c12.3,-12.306 19.91,-29.293 19.91,-48.068c0,-18.772 -7.61,-35.763 -19.91,-48.063c-12.303,-12.306 -29.296,-19.916 -48.068,-19.916c-18.772,0 -35.763,7.61 -48.063,19.916c-12.303,12.3 -19.912,29.291 -19.912,48.063Z" style="fill:#231f20;fill-rule:nonzero;"/></g><g><path d="M296.757,209.42c0,-38.346 31.087,-69.428 69.431,-69.428c38.347,0 69.422,31.082 69.428,69.428l-0.006,0c0,38.344 -31.075,69.429 -69.422,69.429c-38.344,0 -69.431,-31.088 -69.431,-69.429Zm21.703,-47.725c-12.216,12.219 -19.766,29.085 -19.766,47.725c0,18.641 7.553,35.507 19.766,47.722c12.219,12.219 29.084,19.766 47.725,19.766c18.644,0 35.506,-7.55 47.722,-19.766c12.212,-12.212 19.759,-29.081 19.765,-47.722l-0.006,0c0,-18.643 -7.547,-35.509 -19.759,-47.725c-12.216,-12.212 -29.082,-19.768 -47.722,-19.768c-18.641,0 -35.503,7.553 -47.725,19.768Z" style="fill:#231f20;fill-rule:nonzero;"/><path d="M296.757,347.005c0,-38.344 31.087,-69.425 69.431,-69.428c38.347,0.003 69.422,31.087 69.428,69.428c-0.006,38.347 -31.081,69.428 -69.428,69.428c-38.344,0.003 -69.431,-31.081 -69.431,-69.428Zm21.703,-47.722c-12.216,12.219 -19.766,29.081 -19.766,47.722c0,18.644 7.553,35.506 19.766,47.725c12.219,12.212 29.084,19.765 47.725,19.765c18.644,0 35.506,-7.553 47.722,-19.765c12.212,-12.219 19.759,-29.085 19.759,-47.725c0,-18.641 -7.547,-35.506 -19.759,-47.722c-12.216,-12.213 -29.085,-19.766 -47.722,-19.766c-18.641,0.003 -35.503,7.553 -47.725,19.766Z" style="fill:#231f20;fill-rule:nonzero;"/><path d="M296.757,484.595c0,-38.343 31.087,-69.428 69.431,-69.428c38.347,0 69.422,31.085 69.428,69.428l-0.006,0c0,38.347 -31.075,69.429 -69.422,69.429c-38.344,0 -69.431,-31.082 -69.431,-69.429Zm21.703,-47.721c-12.216,12.212 -19.766,29.081 -19.766,47.721c0,18.641 7.553,35.507 19.766,47.725c12.219,12.213 29.084,19.766 47.725,19.766c18.644,0 35.506,-7.553 47.722,-19.766c12.212,-12.218 19.759,-29.084 19.765,-47.725l-0.006,0c0,-18.64 -7.547,-35.506 -19.759,-47.721c-12.216,-12.219 -29.085,-19.769 -47.722,-19.769c-18.641,0 -35.503,7.55 -47.725,19.769Z" style="fill:#231f20;fill-rule:nonzero;"/><path d="M296.757,622.186c0,-38.344 31.087,-69.434 69.431,-69.434c38.347,0 69.422,31.09 69.428,69.434c-0.006,38.344 -31.081,69.428 -69.428,69.428c-38.344,0 -69.431,-31.084 -69.431,-69.428Zm21.703,-47.725c-12.216,12.216 -19.766,29.084 -19.766,47.725c0,18.638 7.553,35.506 19.766,47.725c12.219,12.216 29.084,19.769 47.725,19.769c18.64,0 35.506,-7.553 47.722,-19.769c12.212,-12.219 19.759,-29.084 19.759,-47.725c0,-18.641 -7.547,-35.509 -19.759,-47.725c-12.216,-12.219 -29.085,-19.772 -47.722,-19.772c-18.641,0 -35.503,7.556 -47.725,19.772Z" style="fill:#231f20;fill-rule:nonzero;"/><path d="M354.866,243.48c0,-38.341 31.081,-69.422 69.434,-69.428c38.341,0.006 69.425,31.084 69.432,69.428l-0.007,0c0,38.347 -31.084,69.428 -69.425,69.428c-38.353,0 -69.434,-31.081 -69.434,-69.428Zm21.706,-47.722c-12.215,12.219 -19.768,29.084 -19.768,47.722c0,18.64 7.553,35.506 19.768,47.725c12.213,12.212 29.085,19.765 47.725,19.765c18.635,0 35.503,-7.553 47.722,-19.765c12.213,-12.219 19.772,-29.085 19.772,-47.725c0,-18.638 -7.559,-35.503 -19.772,-47.722c-12.215,-12.216 -29.087,-19.766 -47.722,-19.766c-18.64,0 -35.512,7.55 -47.725,19.766Z" style="fill:#231f20;fill-rule:nonzero;"/><path d="M354.866,381.074c0,-38.344 31.084,-69.432 69.431,-69.435c38.341,0.003 69.425,31.091 69.425,69.435c0,38.343 -31.084,69.431 -69.425,69.431c-38.347,0 -69.431,-31.091 -69.431,-69.431Zm21.703,-47.729c-12.212,12.219 -19.765,29.088 -19.765,47.725c0,18.641 7.553,35.507 19.765,47.722c12.219,12.213 29.085,19.766 47.728,19.766c18.641,0 35.503,-7.553 47.722,-19.766c12.213,-12.218 19.766,-29.084 19.772,-47.722c-0.006,-18.64 -7.559,-35.509 -19.772,-47.725c-12.215,-12.215 -29.081,-19.768 -47.722,-19.768c-18.643,0.003 -35.509,7.556 -47.728,19.768Z" style="fill:#231f20;fill-rule:nonzero;"/><path d="M354.866,518.661c0,-38.347 31.081,-69.431 69.434,-69.431c38.341,0 69.425,31.084 69.432,69.431l-0.007,0c0,38.344 -31.084,69.428 -69.425,69.428c-38.353,0 -69.434,-31.087 -69.434,-69.428Zm21.706,-47.725c-12.215,12.213 -19.768,29.084 -19.768,47.722c0,18.637 7.553,35.509 19.768,47.722c12.213,12.219 29.085,19.772 47.725,19.772c18.635,0 35.503,-7.553 47.722,-19.772c12.213,-12.213 19.772,-29.085 19.772,-47.722c0,-18.641 -7.559,-35.509 -19.772,-47.722c-12.215,-12.219 -29.087,-19.769 -47.722,-19.769c-18.64,0 -35.512,7.553 -47.725,19.769Z" style="fill:#231f20;fill-rule:nonzero;"/><path d="M354.866,656.249c0,-38.341 31.084,-69.425 69.431,-69.425c38.341,0 69.425,31.081 69.425,69.425c0,38.346 -31.084,69.431 -69.425,69.434c-38.347,-0.006 -69.431,-31.091 -69.431,-69.434Zm21.703,-47.725c-12.212,12.218 -19.765,29.087 -19.765,47.721c0,18.644 7.553,35.507 19.765,47.725c12.219,12.216 29.085,19.769 47.728,19.769c18.641,0 35.503,-7.553 47.722,-19.769c12.213,-12.218 19.766,-29.081 19.772,-47.725c-0.006,-18.634 -7.559,-35.503 -19.772,-47.721c-12.215,-12.216 -29.081,-19.766 -47.722,-19.766c-18.643,0 -35.509,7.55 -47.728,19.766Z" style="fill:#231f20;fill-rule:nonzero;"/><path d="M354.866,174.689c0,-38.347 31.081,-69.434 69.434,-69.434c38.341,0 69.425,31.084 69.432,69.434l-0.007,0c0,38.341 -31.084,69.425 -69.425,69.425c-38.353,0.003 -69.434,-31.084 -69.434,-69.425Zm21.706,-47.728c-12.215,12.219 -19.768,29.084 -19.768,47.728c0,18.635 7.553,35.503 19.768,47.719c12.213,12.212 29.085,19.769 47.725,19.769c18.635,0 35.503,-7.557 47.722,-19.769c12.213,-12.216 19.772,-29.084 19.772,-47.719c0,-18.644 -7.559,-35.509 -19.772,-47.728c-12.215,-12.212 -29.087,-19.766 -47.722,-19.766c-18.64,0 -35.512,7.554 -47.725,19.766Z" style="fill:#231f20;fill-rule:nonzero;"/><path d="M354.866,312.28c0,-38.347 31.081,-69.431 69.434,-69.431c38.341,0 69.425,31.084 69.425,69.431l0.007,0c-0.007,38.337 -31.091,69.425 -69.432,69.425c-38.353,-0.003 -69.434,-31.088 -69.434,-69.425Zm21.706,-47.728c-12.215,12.218 -19.768,29.087 -19.768,47.728c0,18.634 7.553,35.5 19.768,47.719c12.213,12.212 29.085,19.771 47.725,19.771c18.635,0 35.503,-7.556 47.722,-19.771c12.213,-12.219 19.772,-29.085 19.772,-47.719c0,-18.641 -7.559,-35.51 -19.772,-47.728c-12.215,-12.213 -29.087,-19.766 -47.722,-19.766c-18.64,0 -35.512,7.553 -47.725,19.766Z" style="fill:#231f20;fill-rule:nonzero;"/><path d="M354.866,449.864c0,-38.344 31.084,-69.428 69.431,-69.428c38.341,0 69.425,31.084 69.425,69.428c0,38.344 -31.084,69.431 -69.425,69.431c-38.35,0 -69.431,-31.087 -69.431,-69.431Zm21.703,-47.722c-12.212,12.213 -19.765,29.082 -19.765,47.722c0,18.644 7.553,35.506 19.765,47.725c12.219,12.219 29.085,19.769 47.728,19.769c18.641,0 35.503,-7.553 47.722,-19.769c12.213,-12.219 19.766,-29.081 19.772,-47.725c-0.006,-18.64 -7.559,-35.509 -19.772,-47.722c-12.215,-12.218 -29.081,-19.772 -47.722,-19.772c-18.643,0 -35.509,7.554 -47.728,19.772Z" style="fill:#231f20;fill-rule:nonzero;"/><path d="M354.866,587.452c0,-38.344 31.081,-69.425 69.434,-69.432c38.341,0.004 69.425,31.088 69.425,69.432l0.007,0c-0.007,38.35 -31.091,69.428 -69.432,69.428c-38.353,0.003 -69.434,-31.078 -69.434,-69.428Zm21.706,-47.722c-12.215,12.219 -19.768,29.084 -19.768,47.722c0,18.643 7.553,35.509 19.768,47.725c12.213,12.212 29.085,19.765 47.725,19.765c18.635,0 35.503,-7.553 47.722,-19.765c12.213,-12.219 19.772,-29.082 19.772,-47.725c0,-18.641 -7.559,-35.507 -19.772,-47.722c-12.215,-12.216 -29.087,-19.769 -47.722,-19.769c-18.64,0 -35.512,7.553 -47.725,19.769Z" style="fill:#231f20;fill-rule:nonzero;"/><path d="M236.644,243.48c0,-38.344 31.085,-69.422 69.431,-69.428c38.344,0.006 69.425,31.084 69.432,69.428l-0.007,0c0,38.347 -31.081,69.425 -69.425,69.425c-38.346,0 -69.431,-31.078 -69.431,-69.425Zm21.706,-47.722c-12.215,12.222 -19.768,29.087 -19.768,47.722c0,18.64 7.553,35.509 19.768,47.725c12.216,12.215 29.085,19.762 47.725,19.762c18.638,0 35.504,-7.55 47.722,-19.762c12.216,-12.219 19.769,-29.085 19.772,-47.725l-0.003,0c0,-18.641 -7.553,-35.503 -19.769,-47.722c-12.215,-12.216 -29.081,-19.766 -47.722,-19.766c-18.64,-0.003 -35.509,7.55 -47.725,19.766Z" style="fill:#231f20;fill-rule:nonzero;"/><path d="M236.644,381.07c0,-38.343 31.085,-69.428 69.431,-69.428c38.344,0 69.425,31.088 69.425,69.428c0,38.344 -31.081,69.429 -69.425,69.429c-38.346,0.003 -69.431,-31.085 -69.431,-69.429Zm21.706,-47.725c-12.215,12.216 -19.768,29.088 -19.768,47.725c0,18.641 7.553,35.51 19.768,47.722c12.219,12.216 29.085,19.772 47.725,19.772c18.638,0 35.504,-7.556 47.722,-19.772c12.216,-12.215 19.769,-29.081 19.772,-47.722c-0.003,-18.64 -7.556,-35.509 -19.772,-47.725c-12.215,-12.215 -29.081,-19.768 -47.722,-19.768c-18.64,0.003 -35.506,7.553 -47.725,19.768Z" style="fill:#231f20;fill-rule:nonzero;"/><path d="M236.644,518.661c0,-38.347 31.085,-69.428 69.431,-69.434c38.344,0.003 69.425,31.087 69.432,69.434l-0.007,0c0,38.347 -31.081,69.428 -69.425,69.428c-38.346,0 -69.431,-31.084 -69.431,-69.428Zm21.706,-47.725c-12.215,12.216 -19.768,29.081 -19.768,47.722c0,18.641 7.553,35.509 19.768,47.722c12.219,12.215 29.085,19.769 47.725,19.769c18.638,0 35.504,-7.554 47.722,-19.769c12.216,-12.216 19.769,-29.081 19.772,-47.722l-0.003,0c0,-18.641 -7.553,-35.509 -19.769,-47.722c-12.215,-12.216 -29.081,-19.769 -47.722,-19.772c-18.64,0.006 -35.506,7.556 -47.725,19.772Z" style="fill:#231f20;fill-rule:nonzero;"/><path d="M236.644,656.249c0,-38.344 31.085,-69.429 69.431,-69.429c38.344,0 69.425,31.088 69.425,69.429c0,38.346 -31.081,69.428 -69.425,69.428c-38.346,0.003 -69.431,-31.082 -69.431,-69.428Zm21.706,-47.722c-12.215,12.218 -19.768,29.087 -19.768,47.725c0,18.64 7.553,35.506 19.768,47.722c12.216,12.215 29.085,19.768 47.725,19.768c18.638,0 35.504,-7.553 47.722,-19.768c12.216,-12.216 19.769,-29.085 19.772,-47.722c-0.003,-18.644 -7.556,-35.507 -19.772,-47.725c-12.215,-12.216 -29.081,-19.769 -47.722,-19.769c-18.64,0 -35.506,7.55 -47.725,19.769Z" style="fill:#231f20;fill-rule:nonzero;"/><path d="M236.644,174.689c0,-38.347 31.085,-69.431 69.431,-69.431c38.344,0 69.425,31.087 69.432,69.431l-0.007,0c0,38.341 -31.081,69.425 -69.425,69.425c-38.346,0 -69.431,-31.084 -69.431,-69.425Zm21.706,-47.728c-12.215,12.219 -19.768,29.088 -19.768,47.728c0,18.638 7.553,35.506 19.768,47.722c12.216,12.216 29.085,19.769 47.725,19.769c18.638,0 35.504,-7.553 47.722,-19.769c12.216,-12.216 19.769,-29.081 19.772,-47.722l-0.003,0c0,-18.64 -7.553,-35.509 -19.769,-47.728c-12.215,-12.216 -29.081,-19.769 -47.722,-19.769c-18.64,0 -35.506,7.553 -47.725,19.769Z" style="fill:#231f20;fill-rule:nonzero;"/><path d="M236.644,312.28c0,-38.347 31.085,-69.431 69.431,-69.431c38.344,0 69.425,31.084 69.425,69.431l0.007,0c-0.007,38.337 -31.088,69.425 -69.432,69.425c-38.346,-0.003 -69.431,-31.091 -69.431,-69.425Zm21.706,-47.725c-12.215,12.215 -19.768,29.081 -19.768,47.725c0,18.637 7.553,35.503 19.768,47.719c12.219,12.215 29.085,19.768 47.725,19.768c18.638,0 35.504,-7.553 47.722,-19.768c12.216,-12.216 19.769,-29.082 19.769,-47.719l0.003,0c-0.003,-18.644 -7.556,-35.51 -19.772,-47.725c-12.215,-12.216 -29.081,-19.766 -47.722,-19.772c-18.64,0.006 -35.506,7.556 -47.725,19.772Z" style="fill:#231f20;fill-rule:nonzero;"/><path d="M236.644,449.864c0,-38.34 31.085,-69.428 69.431,-69.428c38.344,0 69.425,31.088 69.425,69.428c0,38.347 -31.081,69.435 -69.425,69.435c-38.346,0 -69.431,-31.088 -69.431,-69.435Zm21.706,-47.725c-12.215,12.216 -19.768,29.088 -19.768,47.722c0,18.641 7.553,35.509 19.768,47.725c12.219,12.219 29.085,19.772 47.725,19.772c18.638,0 35.504,-7.553 47.722,-19.772c12.216,-12.216 19.769,-29.084 19.772,-47.725c-0.003,-18.641 -7.556,-35.503 -19.772,-47.722c-12.215,-12.215 -29.081,-19.769 -47.722,-19.769c-18.64,0 -35.506,7.554 -47.725,19.769Z" style="fill:#231f20;fill-rule:nonzero;"/><path d="M236.644,587.452c0,-38.347 31.085,-69.428 69.431,-69.428c38.344,0 69.425,31.084 69.425,69.428l0.007,0c-0.007,38.35 -31.088,69.428 -69.432,69.428c-38.346,0.003 -69.431,-31.078 -69.431,-69.428Zm21.706,-47.722c-12.215,12.215 -19.768,29.081 -19.768,47.722c0,18.64 7.553,35.509 19.768,47.728c12.216,12.209 29.085,19.762 47.725,19.762c18.638,0 35.504,-7.553 47.722,-19.762c12.216,-12.219 19.769,-29.088 19.769,-47.728l0.003,0c-0.003,-18.641 -7.556,-35.51 -19.772,-47.722c-12.215,-12.216 -29.081,-19.769 -47.722,-19.769c-18.64,0 -35.506,7.553 -47.725,19.769Z" style="fill:#231f20;fill-rule:nonzero;"/><path d="M474.179,244.595c0,-38.346 31.084,-69.431 69.431,-69.431c38.344,0 69.428,31.088 69.428,69.431c0,38.344 -31.084,69.429 -69.428,69.429c-38.344,0 -69.431,-31.085 -69.431,-69.429Zm21.706,-47.725c-12.213,12.216 -19.766,29.085 -19.766,47.729c0,18.637 7.553,35.503 19.766,47.718c12.215,12.216 29.087,19.772 47.725,19.772c18.634,0 35.506,-7.553 47.722,-19.772c12.212,-12.215 19.765,-29.081 19.765,-47.718c0,-18.644 -7.553,-35.513 -19.765,-47.729c-12.216,-12.212 -29.091,-19.765 -47.722,-19.765c-18.641,0 -35.51,7.55 -47.725,19.765Z" style="fill:#231f20;fill-rule:nonzero;"/><path d="M474.179,382.177c0,-38.341 31.084,-69.428 69.431,-69.428c38.344,0 69.428,31.087 69.428,69.428c0,38.347 -31.084,69.431 -69.428,69.431c-38.344,0.003 -69.431,-31.081 -69.431,-69.431Zm21.706,-47.719c-12.213,12.219 -19.766,29.081 -19.766,47.719c0,18.643 7.553,35.512 19.766,47.728c12.215,12.215 29.087,19.769 47.725,19.769c18.634,0 35.506,-7.554 47.722,-19.769c12.212,-12.216 19.765,-29.088 19.765,-47.728c0,-18.638 -7.553,-35.5 -19.765,-47.719c-12.216,-12.216 -29.091,-19.769 -47.722,-19.769c-18.641,0 -35.51,7.553 -47.725,19.769Z" style="fill:#231f20;fill-rule:nonzero;"/><path d="M474.179,519.774c0,-38.347 31.084,-69.429 69.431,-69.429c38.344,0 69.428,31.082 69.428,69.429c0,38.343 -31.084,69.428 -69.428,69.428c-38.344,0 -69.431,-31.085 -69.431,-69.428Zm21.706,-47.722c-12.213,12.212 -19.766,29.081 -19.772,47.722c0.006,18.643 7.559,35.509 19.772,47.721c12.215,12.213 29.087,19.766 47.725,19.772c18.634,-0.003 35.506,-7.556 47.722,-19.772c12.212,-12.215 19.765,-29.081 19.765,-47.721c0,-18.641 -7.553,-35.51 -19.765,-47.722c-12.216,-12.219 -29.091,-19.769 -47.722,-19.769c-18.641,-0.003 -35.51,7.55 -47.725,19.769Z" style="fill:#231f20;fill-rule:nonzero;"/><path d="M474.179,313.389c0,-38.344 31.084,-69.428 69.431,-69.428c38.344,0 69.428,31.084 69.428,69.428c0,38.344 -31.084,69.428 -69.428,69.428c-38.344,-0.003 -69.431,-31.087 -69.431,-69.428Zm21.706,-47.725c-12.213,12.216 -19.766,29.085 -19.766,47.722c0,18.638 7.553,35.506 19.766,47.722c12.215,12.219 29.081,19.769 47.725,19.769c18.64,0 35.5,-7.553 47.722,-19.769c12.212,-12.216 19.765,-29.084 19.765,-47.722c0,-18.641 -7.553,-35.506 -19.765,-47.722c-12.222,-12.215 -29.085,-19.765 -47.722,-19.765c-18.647,0 -35.51,7.55 -47.725,19.765Z" style="fill:#231f20;fill-rule:nonzero;"/><path d="M474.179,450.977c0,-38.341 31.084,-69.428 69.431,-69.428c38.344,0 69.428,31.087 69.428,69.428c0,38.347 -31.084,69.428 -69.428,69.428c-38.344,0 -69.431,-31.081 -69.431,-69.428Zm21.706,-47.725c-12.213,12.215 -19.766,29.084 -19.766,47.722c0,18.64 7.553,35.506 19.766,47.721c12.215,12.219 29.087,19.772 47.725,19.772c18.634,0 35.506,-7.553 47.722,-19.772c12.212,-12.215 19.765,-29.081 19.765,-47.721c0,-18.638 -7.553,-35.507 -19.765,-47.722c-12.216,-12.213 -29.091,-19.772 -47.722,-19.772c-18.641,0.003 -35.51,7.559 -47.725,19.772Z" style="fill:#231f20;fill-rule:nonzero;"/><path d="M474.179,588.567c0,-38.347 31.084,-69.434 69.431,-69.434c38.344,0 69.428,31.087 69.428,69.434c0,38.347 -31.084,69.425 -69.428,69.425c-38.344,0.003 -69.431,-31.078 -69.431,-69.425Zm21.706,-47.725c-12.213,12.213 -19.766,29.082 -19.766,47.725c0,18.644 7.553,35.507 19.766,47.722c12.215,12.219 29.087,19.766 47.725,19.769c18.634,-0.003 35.506,-7.553 47.722,-19.769c12.212,-12.219 19.765,-29.081 19.765,-47.722c0,-18.643 -7.553,-35.512 -19.765,-47.725c-12.216,-12.215 -29.091,-19.768 -47.722,-19.768c-18.641,0.003 -35.51,7.553 -47.725,19.768Z" style="fill:#231f20;fill-rule:nonzero;"/><path d="M532.288,416.245c0,-38.346 31.084,-69.428 69.441,-69.428c38.334,0 69.418,31.082 69.418,69.428c0,38.347 -31.084,69.429 -69.418,69.429c-38.357,0 -69.441,-31.079 -69.441,-69.429Zm21.703,-47.725c-12.212,12.216 -19.766,29.085 -19.766,47.725c0,18.641 7.554,35.507 19.766,47.722c12.216,12.216 29.088,19.766 47.734,19.766c18.632,0 35.497,-7.55 47.713,-19.766c12.216,-12.215 19.769,-29.081 19.769,-47.722c0,-18.64 -7.553,-35.509 -19.769,-47.725c-12.213,-12.218 -29.081,-19.768 -47.713,-19.768c-18.646,0.003 -35.515,7.553 -47.734,19.768Z" style="fill:#231f20;fill-rule:nonzero;"/><path d="M532.288,347.452c0,-38.347 31.084,-69.428 69.441,-69.428c38.334,0 69.418,31.078 69.418,69.428c0,38.347 -31.084,69.431 -69.418,69.431c-38.357,0 -69.441,-31.084 -69.441,-69.431Zm21.703,-47.722c-12.212,12.212 -19.766,29.081 -19.766,47.722c0,18.64 7.554,35.506 19.766,47.725c12.216,12.212 29.088,19.768 47.734,19.768c18.632,0 35.497,-7.553 47.713,-19.768c12.216,-12.219 19.769,-29.088 19.769,-47.725c0,-18.641 -7.553,-35.51 -19.769,-47.722c-12.213,-12.216 -29.081,-19.766 -47.713,-19.766c-18.646,0 -35.515,7.55 -47.734,19.766Z" style="fill:#231f20;fill-rule:nonzero;"/><path d="M532.288,485.045c0.006,-38.346 31.084,-69.431 69.431,-69.431c38.344,0 69.428,31.085 69.428,69.431c0,38.341 -31.084,69.425 -69.428,69.425c-38.347,0 -69.425,-31.084 -69.431,-69.425Zm21.703,-47.728c-12.212,12.219 -19.766,29.088 -19.766,47.728c0,18.635 7.554,35.507 19.766,47.722c12.222,12.213 29.088,19.769 47.725,19.769c18.641,0 35.506,-7.553 47.722,-19.769c12.216,-12.215 19.769,-29.084 19.775,-47.722l-0.006,0c0,-18.646 -7.553,-35.509 -19.769,-47.728c-12.213,-12.215 -29.081,-19.768 -47.722,-19.768c-18.637,0 -35.5,7.553 -47.725,19.768Z" style="fill:#231f20;fill-rule:nonzero;"/><path d="M414.066,278.661c0,-38.347 31.084,-69.428 69.434,-69.428c38.344,0 69.425,31.081 69.432,69.428l-0.007,0c0,38.344 -31.081,69.425 -69.425,69.425c-38.35,0 -69.434,-31.084 -69.434,-69.425Zm21.706,-47.728c-12.215,12.219 -19.765,29.087 -19.765,47.728c0,18.634 7.55,35.506 19.765,47.722c12.219,12.216 29.088,19.769 47.725,19.769c18.641,0 35.503,-7.553 47.722,-19.769c12.216,-12.216 19.766,-29.088 19.766,-47.722c0,-18.647 -7.55,-35.509 -19.766,-47.728c-12.215,-12.216 -29.081,-19.766 -47.722,-19.766c-18.637,0 -35.503,7.55 -47.725,19.766Z" style="fill:#231f20;fill-rule:nonzero;"/><path d="M414.066,416.245c0,-38.346 31.091,-69.428 69.434,-69.428c38.344,0 69.425,31.082 69.425,69.428c0,38.347 -31.081,69.429 -69.425,69.429c-38.343,0 -69.434,-31.079 -69.434,-69.429Zm21.706,-47.721c-12.215,12.215 -19.765,29.084 -19.775,47.721c0.01,18.641 7.56,35.507 19.775,47.722c12.219,12.213 29.088,19.766 47.725,19.766c18.641,0 35.503,-7.553 47.722,-19.766c12.216,-12.215 19.766,-29.081 19.766,-47.722c0,-18.64 -7.55,-35.506 -19.766,-47.721c-12.215,-12.216 -29.081,-19.769 -47.722,-19.772c-18.637,0.003 -35.503,7.556 -47.725,19.772Z" style="fill:#231f20;fill-rule:nonzero;"/><path d="M414.066,553.839c0,-38.347 31.084,-69.434 69.434,-69.434c38.344,0 69.425,31.087 69.432,69.434c-0.007,38.341 -31.088,69.422 -69.432,69.422c-38.35,0 -69.434,-31.081 -69.434,-69.422Zm21.706,-47.725c-12.215,12.216 -19.765,29.085 -19.765,47.725c0,18.638 7.55,35.503 19.765,47.719c12.219,12.216 29.088,19.769 47.725,19.769c18.641,0 35.503,-7.553 47.722,-19.769c12.216,-12.216 19.766,-29.081 19.766,-47.719c0,-18.644 -7.55,-35.512 -19.766,-47.725c-12.215,-12.215 -29.081,-19.769 -47.722,-19.772c-18.637,0.003 -35.503,7.553 -47.725,19.772Z" style="fill:#231f20;fill-rule:nonzero;"/><path d="M414.066,209.861c0,-38.341 31.084,-69.428 69.434,-69.428c38.347,0 69.425,31.087 69.432,69.428c-0.007,38.347 -31.082,69.434 -69.432,69.434c-38.35,0 -69.434,-31.084 -69.434,-69.434Zm21.706,-47.722c-12.215,12.216 -19.765,29.085 -19.765,47.722c0,18.641 7.55,35.509 19.765,47.725c12.219,12.216 29.088,19.769 47.725,19.769c18.641,0 35.503,-7.553 47.722,-19.769c12.216,-12.219 19.766,-29.084 19.766,-47.725c0,-18.637 -7.55,-35.506 -19.766,-47.722c-12.215,-12.215 -29.081,-19.769 -47.722,-19.769c-18.637,0 -35.503,7.554 -47.725,19.769Z" style="fill:#231f20;fill-rule:nonzero;"/><path d="M414.066,622.63c0,-38.35 31.084,-69.431 69.434,-69.431c38.344,0 69.425,31.081 69.432,69.431l-0.007,0c0,38.344 -31.081,69.428 -69.425,69.428c-38.35,0 -69.434,-31.084 -69.434,-69.428Zm21.706,-47.725c-12.215,12.219 -19.765,29.084 -19.765,47.725c0,18.64 7.55,35.506 19.765,47.722c12.219,12.215 29.088,19.765 47.725,19.765c18.641,0 35.503,-7.553 47.722,-19.765c12.216,-12.216 19.766,-29.082 19.766,-47.722c0,-18.641 -7.55,-35.51 -19.766,-47.725c-12.215,-12.216 -29.081,-19.766 -47.722,-19.769c-18.637,0.003 -35.503,7.553 -47.725,19.769Z" style="fill:#231f20;fill-rule:nonzero;"/><path d="M117.991,244.595c0.003,-38.35 31.084,-69.431 69.431,-69.434c38.344,0.003 69.428,31.084 69.432,69.434c-0.004,38.341 -31.088,69.425 -69.432,69.425c-38.343,0 -69.425,-31.081 -69.431,-69.425Zm1.941,0c0,18.638 7.553,35.504 19.768,47.719c12.216,12.216 29.082,19.772 47.722,19.772c18.641,0 35.507,-7.556 47.722,-19.772c12.216,-12.215 19.769,-29.081 19.769,-47.719c0,-18.643 -7.553,-35.509 -19.769,-47.728c-12.215,-12.212 -29.084,-19.768 -47.722,-19.768c-18.64,0 -35.506,7.556 -47.722,19.768c-12.212,12.219 -19.768,29.088 -19.768,47.728Z" style="fill:#231f20;fill-rule:nonzero;"/><path d="M117.991,382.18c0.003,-38.344 31.084,-69.425 69.431,-69.425c38.344,0 69.428,31.084 69.432,69.425c-0.004,38.347 -31.088,69.431 -69.432,69.431c-38.343,0 -69.425,-31.084 -69.431,-69.431Zm1.941,0c0,18.644 7.553,35.506 19.768,47.728c12.216,12.212 29.082,19.769 47.722,19.769c18.641,0 35.507,-7.557 47.722,-19.769c12.216,-12.222 19.769,-29.088 19.769,-47.728c0,-18.641 -7.553,-35.506 -19.769,-47.722c-12.215,-12.216 -29.084,-19.766 -47.722,-19.769c-18.64,0.003 -35.506,7.553 -47.722,19.769c-12.212,12.216 -19.768,29.081 -19.768,47.722Z" style="fill:#231f20;fill-rule:nonzero;"/><path d="M117.997,519.774l-0.003,0c0.003,-38.347 31.085,-69.432 69.431,-69.432c38.344,0 69.429,31.085 69.429,69.432c0,38.343 -31.085,69.428 -69.429,69.428c-38.346,0 -69.428,-31.085 -69.428,-69.428Zm1.935,0c0,18.64 7.553,35.509 19.768,47.721c12.216,12.213 29.082,19.769 47.722,19.769c18.641,0 35.507,-7.553 47.722,-19.769c12.216,-12.215 19.769,-29.081 19.769,-47.721c0,-18.644 -7.553,-35.51 -19.769,-47.725c-12.215,-12.216 -29.084,-19.769 -47.722,-19.769c-18.64,0 -35.506,7.553 -47.722,19.769c-12.212,12.215 -19.768,29.081 -19.768,47.725Z" style="fill:#231f20;fill-rule:nonzero;"/><path d="M117.997,313.389c0,-38.344 31.082,-69.428 69.425,-69.428c38.344,0 69.428,31.078 69.428,69.428c0,38.344 -31.084,69.428 -69.428,69.428c-38.343,0 -69.425,-31.084 -69.425,-69.428Zm1.935,0c0,18.635 7.553,35.503 19.768,47.722c12.216,12.216 29.082,19.769 47.722,19.769c18.641,0 35.507,-7.553 47.722,-19.769c12.216,-12.219 19.769,-29.087 19.769,-47.722c0,-18.64 -7.553,-35.506 -19.769,-47.722c-12.215,-12.215 -29.084,-19.768 -47.722,-19.768c-18.64,0 -35.506,7.553 -47.722,19.768c-12.212,12.216 -19.768,29.082 -19.768,47.722Z" style="fill:#231f20;fill-rule:nonzero;"/><path d="M117.991,450.977l0.003,0c0,-38.347 31.081,-69.428 69.425,-69.428c38.344,0 69.428,31.084 69.431,69.428c-0.003,38.347 -31.087,69.428 -69.431,69.428c-38.34,0 -69.422,-31.081 -69.428,-69.428Zm1.941,0c0,18.64 7.553,35.509 19.768,47.722c12.216,12.212 29.082,19.765 47.722,19.765c18.641,0 35.507,-7.553 47.722,-19.765c12.216,-12.216 19.769,-29.082 19.769,-47.722c0,-18.638 -7.553,-35.507 -19.769,-47.725c-12.215,-12.216 -29.084,-19.766 -47.722,-19.772c-18.64,0.003 -35.506,7.556 -47.722,19.772c-12.212,12.218 -19.768,29.087 -19.768,47.725Z" style="fill:#231f20;fill-rule:nonzero;"/><path d="M117.991,588.57c0.003,-38.35 31.084,-69.431 69.431,-69.434c38.344,0.003 69.428,31.084 69.432,69.434c-0.004,38.344 -31.088,69.429 -69.432,69.429c-38.343,0 -69.425,-31.088 -69.431,-69.429Zm1.941,0c0,18.641 7.553,35.504 19.768,47.722c12.216,12.216 29.082,19.766 47.722,19.766c18.641,0 35.507,-7.553 47.722,-19.766c12.216,-12.218 19.769,-29.087 19.769,-47.722c0,-18.643 -7.553,-35.509 -19.769,-47.725c-12.215,-12.218 -29.084,-19.768 -47.722,-19.768c-18.64,0 -35.506,7.553 -47.722,19.768c-12.212,12.213 -19.768,29.079 -19.768,47.725Z" style="fill:#231f20;fill-rule:nonzero;"/><path d="M59.891,416.249c0,-38.35 31.078,-69.432 69.422,-69.435c38.35,0.003 69.431,31.081 69.431,69.435c0,38.343 -31.081,69.425 -69.431,69.425c-38.344,0 -69.422,-31.082 -69.422,-69.425Zm1.934,0c0,18.637 7.554,35.506 19.769,47.721c12.216,12.216 29.078,19.763 47.719,19.763c18.641,0 35.509,-7.55 47.728,-19.763c12.219,-12.215 19.766,-29.084 19.766,-47.721c0,-18.641 -7.55,-35.51 -19.766,-47.725c-12.219,-12.219 -29.087,-19.769 -47.728,-19.769c-18.641,0 -35.503,7.553 -47.719,19.769c-12.219,12.215 -19.769,29.084 -19.769,47.725Z" style="fill:#231f20;fill-rule:nonzero;"/><path d="M59.891,347.452c0,-38.347 31.078,-69.428 69.422,-69.428c38.35,0 69.431,31.081 69.431,69.428c0,38.347 -31.081,69.431 -69.431,69.431c-38.347,0 -69.422,-31.084 -69.422,-69.431Zm1.934,0c0,18.637 7.554,35.506 19.769,47.722c12.216,12.218 29.081,19.771 47.719,19.771c18.641,0 35.509,-7.553 47.728,-19.771c12.219,-12.216 19.766,-29.085 19.766,-47.722c0,-18.641 -7.55,-35.51 -19.766,-47.722c-12.219,-12.213 -29.087,-19.766 -47.728,-19.766c-18.641,0 -35.503,7.553 -47.719,19.766c-12.219,12.212 -19.769,29.081 -19.769,47.722Z" style="fill:#231f20;fill-rule:nonzero;"/><path d="M59.891,485.042l-0.003,0c0.003,-38.347 31.084,-69.428 69.425,-69.428c38.35,0 69.431,31.081 69.431,69.428c0,38.344 -31.081,69.425 -69.431,69.425c-38.344,0 -69.422,-31.081 -69.422,-69.425Zm1.934,0c0,18.638 7.554,35.507 19.769,47.722c12.216,12.213 29.081,19.769 47.719,19.769c18.641,0 35.509,-7.553 47.728,-19.769c12.219,-12.219 19.766,-29.084 19.766,-47.722c0,-18.643 -7.55,-35.506 -19.766,-47.722c-12.219,-12.218 -29.087,-19.765 -47.728,-19.765c-18.641,0 -35.503,7.55 -47.719,19.765c-12.219,12.216 -19.769,29.079 -19.769,47.722Z" style="fill:#231f20;fill-rule:nonzero;"/><path d="M178.104,278.655c0,-38.344 31.087,-69.425 69.428,-69.425c38.347,0 69.431,31.081 69.431,69.425c0,38.347 -31.084,69.431 -69.431,69.431c-38.341,0.003 -69.428,-31.084 -69.428,-69.431Zm21.706,47.728c12.219,12.216 29.081,19.766 47.722,19.769c18.643,-0.003 35.509,-7.553 47.728,-19.769c12.212,-12.219 19.765,-29.081 19.765,-47.725c0,-18.641 -7.553,-35.503 -19.765,-47.722c-12.219,-12.212 -29.085,-19.766 -47.728,-19.769c-18.641,0.003 -35.503,7.553 -47.722,19.769c-12.213,12.219 -19.766,29.084 -19.766,47.722l-0.003,0c0.003,18.644 7.556,35.506 19.769,47.725Z" style="fill:#231f20;fill-rule:nonzero;"/><path d="M178.104,416.249c0,-38.35 31.087,-69.432 69.428,-69.432c38.347,0 69.431,31.078 69.431,69.432c0,38.343 -31.084,69.425 -69.431,69.425c-38.341,0 -69.428,-31.082 -69.428,-69.425Zm1.937,0c0.003,18.64 7.556,35.503 19.769,47.721c12.219,12.216 29.081,19.766 47.722,19.766c18.643,0 35.509,-7.553 47.728,-19.766c12.212,-12.218 19.765,-29.081 19.765,-47.721c0,-18.644 -7.553,-35.513 -19.765,-47.725c-12.219,-12.219 -29.085,-19.772 -47.728,-19.772c-18.641,0 -35.503,7.553 -47.722,19.772c-12.213,12.212 -19.766,29.081 -19.769,47.725Z" style="fill:#231f20;fill-rule:nonzero;"/><path d="M178.104,553.839c0.003,-38.344 31.084,-69.431 69.431,-69.431c38.347,0 69.428,31.087 69.428,69.431c0,38.341 -31.081,69.425 -69.428,69.425c-38.347,-0.003 -69.428,-31.084 -69.431,-69.425Zm1.937,0c0,18.638 7.553,35.506 19.769,47.722c12.215,12.216 29.081,19.766 47.722,19.769c18.64,-0.003 35.509,-7.553 47.722,-19.769c12.215,-12.216 19.768,-29.084 19.768,-47.722c0,-18.64 -7.553,-35.506 -19.768,-47.725c-12.213,-12.219 -29.082,-19.769 -47.722,-19.769c-18.641,0 -35.507,7.554 -47.722,19.769c-12.216,12.219 -19.769,29.081 -19.769,47.725Z" style="fill:#231f20;fill-rule:nonzero;"/><path d="M178.104,209.861c0.003,-38.344 31.084,-69.428 69.431,-69.428c38.347,0 69.428,31.084 69.428,69.428c0,38.347 -31.081,69.431 -69.428,69.431c-38.347,0 -69.428,-31.084 -69.431,-69.431Zm1.937,0c0,18.641 7.553,35.509 19.769,47.725c12.215,12.213 29.081,19.769 47.722,19.769c18.64,0 35.509,-7.556 47.722,-19.769c12.215,-12.219 19.768,-29.087 19.768,-47.725c0,-18.641 -7.553,-35.503 -19.768,-47.722c-12.213,-12.215 -29.082,-19.772 -47.722,-19.772c-18.641,0 -35.507,7.553 -47.722,19.772c-12.216,12.219 -19.769,29.081 -19.769,47.722Z" style="fill:#231f20;fill-rule:nonzero;"/><path d="M178.104,622.63c0,-38.347 31.087,-69.431 69.428,-69.431c38.347,0 69.431,31.084 69.431,69.431c0,38.34 -31.084,69.425 -69.431,69.425c-38.341,0 -69.428,-31.085 -69.428,-69.425Zm21.706,47.722c12.219,12.212 29.081,19.768 47.722,19.768c18.643,0 35.509,-7.556 47.728,-19.768c12.212,-12.216 19.765,-29.082 19.765,-47.722c0,-18.644 -7.553,-35.51 -19.765,-47.725c-12.219,-12.216 -29.085,-19.766 -47.728,-19.766c-18.641,0 -35.503,7.553 -47.722,19.766c-12.213,12.219 -19.766,29.087 -19.766,47.725l-0.003,0c0.003,18.64 7.556,35.506 19.769,47.722Z" style="fill:#231f20;fill-rule:nonzero;"/></g><g><path d="M293.85,140.62c0.004,-39.946 32.385,-72.328 72.335,-72.334c39.95,0.006 72.331,32.388 72.331,72.334c0,39.957 -32.378,72.338 -72.331,72.338c-39.95,0 -72.331,-32.381 -72.335,-72.338Zm7.75,0c0.063,35.675 28.916,64.525 64.585,64.588c35.669,-0.063 64.519,-28.913 64.587,-64.588l-0.006,0c-0.066,-35.665 -28.912,-64.518 -64.581,-64.584c-35.666,0.066 -64.522,28.919 -64.585,64.584Z" style="fill:#231f20;fill-rule:nonzero;"/><path d="M293.85,278.211c0.004,-39.953 32.385,-72.331 72.335,-72.331c39.95,0 72.331,32.381 72.331,72.331c0,39.953 -32.378,72.334 -72.331,72.338c-39.95,-0.004 -72.331,-32.385 -72.335,-72.338Zm7.75,0c0.063,35.672 28.916,64.522 64.585,64.588c35.669,-0.066 64.519,-28.919 64.581,-64.588c-0.066,-35.672 -28.912,-64.519 -64.581,-64.584c-35.666,0.065 -64.522,28.915 -64.585,64.584Z" style="fill:#231f20;fill-rule:nonzero;"/><path d="M293.85,415.802c0.004,-39.95 32.385,-72.332 72.335,-72.332c39.95,0 72.331,32.382 72.331,72.332c0,39.953 -32.378,72.337 -72.331,72.337c-39.95,0 -72.331,-32.387 -72.335,-72.337Zm7.75,0c0.063,35.672 28.916,64.525 64.585,64.587c35.669,-0.062 64.519,-28.915 64.587,-64.587l-0.006,0c-0.066,-35.669 -28.912,-64.519 -64.581,-64.585c-35.666,0.066 -64.522,28.916 -64.585,64.585Z" style="fill:#231f20;fill-rule:nonzero;"/><path d="M293.854,553.389c0,-39.95 32.381,-72.334 72.334,-72.334c39.95,0 72.331,32.384 72.331,72.334c0,39.95 -32.378,72.331 -72.331,72.335c-39.953,-0.004 -72.334,-32.382 -72.334,-72.335Zm7.743,0c0.069,35.666 28.919,64.519 64.591,64.585c35.669,-0.066 64.519,-28.919 64.581,-64.585c-0.065,-35.669 -28.912,-64.522 -64.581,-64.584c-35.672,0.062 -64.522,28.915 -64.591,64.584Z" style="fill:#231f20;fill-rule:nonzero;"/><path d="M293.85,690.98c0.004,-39.953 32.385,-72.331 72.335,-72.331c39.95,0 72.331,32.375 72.331,72.331c0,39.956 -32.378,72.331 -72.331,72.337c-39.95,-0.006 -72.331,-32.384 -72.335,-72.337Zm7.75,0c0.063,35.675 28.916,64.525 64.585,64.587c35.669,-0.062 64.519,-28.912 64.581,-64.587c-0.066,-35.672 -28.912,-64.516 -64.581,-64.581c-35.666,0.065 -64.522,28.909 -64.585,64.581Z" style="fill:#231f20;fill-rule:nonzero;"/><path d="M529.385,278.655c0,-39.95 32.381,-72.331 72.34,-72.331c39.938,0.003 72.322,32.381 72.329,72.331l-0.007,0c0,39.953 -32.381,72.334 -72.322,72.337c-39.956,-0.003 -72.34,-32.384 -72.34,-72.337Zm7.744,0c0.068,35.672 28.915,64.522 64.6,64.587c35.653,-0.065 64.512,-28.915 64.578,-64.587l-0.007,0c-0.062,-35.666 -28.912,-64.519 -64.571,-64.581c-35.685,0.065 -64.532,28.915 -64.6,64.581Z" style="fill:#231f20;fill-rule:nonzero;"/><path d="M529.385,553.839c0,-39.956 32.381,-72.334 72.34,-72.34c39.938,0.006 72.322,32.387 72.329,72.34c-0.007,39.944 -32.388,72.328 -72.329,72.331c-39.956,-0.003 -72.34,-32.387 -72.34,-72.331Zm7.75,0c0.065,35.663 28.909,64.516 64.594,64.581c35.659,-0.065 64.512,-28.915 64.571,-64.581c-0.062,-35.675 -28.918,-64.525 -64.571,-64.59c-35.685,0.065 -64.532,28.915 -64.594,64.59Z" style="fill:#231f20;fill-rule:nonzero;"/><path d="M411.16,347.452c0.003,-39.953 32.384,-72.332 72.337,-72.332c39.953,0 72.328,32.379 72.328,72.332c0,39.953 -32.371,72.334 -72.328,72.334c-39.95,0.003 -72.334,-32.381 -72.337,-72.334Zm7.747,0c0.065,35.672 28.925,64.518 64.593,64.587c35.669,-0.069 64.519,-28.919 64.579,-64.587c-0.06,-35.672 -28.91,-64.519 -64.579,-64.585c-35.668,0.066 -64.528,28.913 -64.593,64.585Z" style="fill:#231f20;fill-rule:nonzero;"/><path d="M411.157,485.042c0.003,-39.953 32.393,-72.334 72.34,-72.334c39.944,0 72.328,32.381 72.332,72.334c-0.007,39.95 -32.388,72.332 -72.332,72.332c-39.943,0 -72.337,-32.379 -72.34,-72.332Zm7.75,0c0.065,35.669 28.925,64.516 64.593,64.585c35.669,-0.066 64.516,-28.916 64.585,-64.585l-0.006,0c-0.066,-35.672 -28.91,-64.518 -64.579,-64.587c-35.668,0.069 -64.528,28.915 -64.593,64.587Z" style="fill:#231f20;fill-rule:nonzero;"/><path d="M56.982,278.655c0.003,-39.95 32.378,-72.331 72.331,-72.331c39.959,0.003 72.337,32.381 72.337,72.331c0,39.953 -32.378,72.334 -72.337,72.337c-39.953,-0.003 -72.328,-32.381 -72.331,-72.337Zm72.331,64.59c35.675,-0.065 64.525,-28.915 64.587,-64.587c-0.062,-35.669 -28.912,-64.519 -64.587,-64.581c-35.669,0.065 -64.516,28.912 -64.578,64.581l-0.003,0c0.065,35.669 28.909,64.519 64.581,64.587Z" style="fill:#231f20;fill-rule:nonzero;"/><path d="M56.982,553.836c0.003,-39.95 32.378,-72.334 72.331,-72.337c39.959,0.003 72.337,32.387 72.341,72.337c-0.004,39.947 -32.382,72.331 -72.341,72.331c-39.953,0 -72.328,-32.384 -72.331,-72.331Zm7.75,0c0.065,35.669 28.909,64.519 64.578,64.584c35.675,-0.065 64.525,-28.915 64.587,-64.584c-0.062,-35.669 -28.912,-64.522 -64.587,-64.584c-35.669,0.062 -64.513,28.915 -64.578,64.584Z" style="fill:#231f20;fill-rule:nonzero;"/><path d="M175.204,347.452c0,-39.95 32.381,-72.328 72.331,-72.335c39.953,0.007 72.331,32.385 72.334,72.335c-0.003,39.953 -32.381,72.334 -72.334,72.337c-39.953,-0.003 -72.331,-32.387 -72.331,-72.337Zm7.743,0c0.066,35.668 28.919,64.522 64.585,64.59c35.672,-0.065 64.518,-28.922 64.587,-64.59c-0.069,-35.669 -28.915,-64.519 -64.587,-64.585c-35.666,0.066 -64.519,28.913 -64.585,64.585Z" style="fill:#231f20;fill-rule:nonzero;"/><path d="M175.204,485.042c0,-39.953 32.381,-72.334 72.331,-72.334c39.953,0 72.331,32.381 72.334,72.334c-0.003,39.95 -32.381,72.332 -72.334,72.332c-39.953,-0.004 -72.331,-32.382 -72.331,-72.332Zm7.743,0c0.066,35.669 28.919,64.519 64.585,64.585c35.672,-0.066 64.518,-28.916 64.584,-64.585c-0.066,-35.672 -28.912,-64.518 -64.584,-64.584c-35.666,0.066 -64.519,28.912 -64.585,64.584Z" style="fill:#231f20;fill-rule:nonzero;"/></g></g></svg>