<?xml version="1.0" encoding="UTF-8"?>
<svg id="Layer_2" data-name="Layer 2" xmlns="http://www.w3.org/2000/svg" viewBox="0 0 512 512">
  <defs>
    <style>
      .cls-1 {
        fill: #201600;
      }
    </style>
  </defs>
  <g id="Layer_2_copy_2" data-name="Layer 2 copy 2" transform="translate(0, 9) scale(5.052)">
    <path class="cls-1" d="M88.55,27.96c-1.85,0-3.6,.4-5.19,1.11-4.91-6.8-11.89-12.02-20.01-14.72,.06-.51,.1-1.02,.1-1.54,0-7.06-5.75-12.81-12.81-12.81s-12.81,5.75-12.81,12.81c0,.53,.04,1.05,.11,1.57-8.09,2.7-15.04,7.91-19.94,14.69-1.59-.71-3.34-1.11-5.19-1.11-7.06,0-12.81,5.75-12.81,12.81,0,6.24,4.49,11.45,10.4,12.58,.16,8.49,2.95,16.34,7.59,22.77-2.14,2.29-3.46,5.35-3.46,8.73,0,7.06,5.75,12.81,12.81,12.81,4.82,0,9.03-2.68,11.21-6.63,3.83,1.21,7.9,1.87,12.13,1.87s8.25-.65,12.06-1.85c2.19,3.94,6.39,6.61,11.2,6.61,7.06,0,12.81-5.75,12.81-12.81,0-3.35-1.3-6.4-3.42-8.68,4.66-6.44,7.46-14.31,7.62-22.82,5.92-1.13,10.4-6.34,10.4-12.58,0-7.06-5.75-12.81-12.81-12.81Zm-6.12,1.56c-1.43,.78-2.69,1.82-3.72,3.06l-17.41-12.67c.91-1.35,1.56-2.89,1.9-4.54,7.79,2.63,14.49,7.63,19.24,14.14Zm-42.31,54.8c-.1-2.43-.87-4.69-2.14-6.59l12.66-9.2,12.65,9.2c-1.27,1.9-2.04,4.16-2.14,6.6h-21.03Zm.91-43.45l-5.08,15.69-12.32-8.97c1.24-1.95,1.97-4.25,1.99-6.73h15.42Zm12.76-16.72c-1,.28-2.06,.44-3.15,.44s-2.13-.16-3.12-.43l3.14-9.69,3.13,9.69Zm-3.15,1.46c1.2,0,2.36-.18,3.46-.49l4.76,14.73h-16.43l4.77-14.72c1.1,.31,2.25,.48,3.44,.48Zm8.55,15.26l5.28,16.34-13.83,10.04-13.83-10.06,5.29-16.32h17.09Zm16.55,0c.02,2.47,.75,4.77,1.98,6.72l-12.38,8.99-5.08-15.71h15.47Zm-25.97,27.01l-12.4,9.01c-1.45-1.83-3.39-3.25-5.62-4.07l4.73-14.61,13.29,9.67Zm-18.33,5.91c2.02,.75,3.78,2.04,5.1,3.7l-8.24,5.98,3.13-9.68Zm33.29,3.7c1.32-1.66,3.09-2.95,5.11-3.7l3.14,9.7-8.24-6Zm-.83-.6l-12.39-9.01,13.29-9.65,4.72,14.59c-2.23,.82-4.17,2.24-5.62,4.07Zm14.65-29.91c-1.11-1.78-1.77-3.87-1.79-6.11h10.21l-8.42,6.11Zm-55.76,0l-8.42-6.12h10.21c-.02,2.25-.68,4.34-1.8,6.12Zm54.01-7.15c.17-2.17,.92-4.18,2.11-5.86l8.06,5.86h-10.17Zm-1.02,0h-15.85l-4.86-15.05c2.23-.83,4.16-2.25,5.61-4.08l17.4,12.66c-1.31,1.85-2.14,4.07-2.31,6.46Zm-21.02-16.02l-3.13-9.69,8.23,5.99c-1.32,1.66-3.08,2.95-5.1,3.7Zm-2.48-10.48c3.44,.14,6.77,.72,9.93,1.69-.3,1.55-.9,2.99-1.75,4.26l-8.18-5.95Zm-2.6,.79l-3.14,9.7c-2.02-.75-3.78-2.04-5.11-3.69l8.25-6.01Zm-8.86,5.18c-.85-1.27-1.45-2.71-1.75-4.26,3.17-.98,6.5-1.57,9.95-1.71l-8.2,5.97Zm5.4,5.49l-4.87,15.04h-15.79c-.17-2.4-1-4.61-2.31-6.47l17.35-12.63c1.45,1.83,3.39,3.24,5.62,4.06Zm-21.68,15.04H14.38l8.06-5.87c1.19,1.69,1.95,3.69,2.11,5.87Zm-10.72-.87c1.14-3.08,2.66-5.97,4.49-8.63,1.34,.71,2.52,1.67,3.49,2.82l-7.98,5.81Zm-1,3.11l3.26,9.98c-1.05,.3-2.15,.48-3.29,.48-.48,0-.94-.04-1.4-.09,.01-3.59,.51-7.06,1.43-10.36Zm.95-.39l8.43,6.13c-1.31,1.74-3.09,3.1-5.15,3.91l-3.28-10.04Zm9.26,6.73l12.58,9.15-4.83,14.92c-1.1-.31-2.25-.48-3.45-.48s-2.37,.18-3.48,.49l-6.47-19.8c2.27-.87,4.22-2.37,5.66-4.28Zm4.3,24.61c1.09,0,2.13,.16,3.13,.44l-3.13,9.68-3.16-9.67c1.01-.28,2.07-.44,3.16-.44Zm-1.01,10.33c-2.63-2.08-4.98-4.48-7-7.16,1.11-1.04,2.43-1.86,3.88-2.4l3.13,9.56Zm2.58,.93l8.24-5.99c1.15,1.73,1.85,3.78,1.95,5.99h-10.19Zm10.19,1.02c-.07,1.58-.44,3.07-1.07,4.43-3.21-1.1-6.24-2.59-9.02-4.44h10.09Zm25.02-7l8.25,6h-10.19c.1-2.21,.79-4.27,1.94-6Zm8.19,7.02c-2.79,1.85-5.83,3.35-9.05,4.44-.63-1.36-1.01-2.86-1.08-4.44h10.13Zm1.64-2.16l-3.14-9.7c1-.28,2.05-.44,3.13-.44s2.17,.16,3.19,.45l-3.18,9.69Zm4.15-9.37c1.46,.55,2.78,1.38,3.9,2.43-2.04,2.69-4.41,5.1-7.06,7.19l3.16-9.62Zm-4.16-1.79c-1.2,0-2.35,.18-3.45,.48l-4.82-14.91,12.63-9.17c1.43,1.91,3.38,3.41,5.65,4.28l-6.51,19.82c-1.12-.32-2.29-.5-3.51-.5Zm5.19-24.19l8.43-6.12-3.29,10.03c-2.06-.8-3.83-2.17-5.14-3.91Zm9.38-5.74c.92,3.3,1.42,6.78,1.43,10.37-.46,.05-.93,.09-1.4,.09-1.15,0-2.26-.17-3.31-.48l3.28-9.98Zm-8.98-8.92c.97-1.15,2.15-2.11,3.49-2.82,1.83,2.66,3.35,5.55,4.49,8.63l-7.98-5.81ZM38.86,12.81c0-6.5,5.29-11.79,11.79-11.79s11.79,5.29,11.79,11.79c0,.41-.02,.82-.06,1.22-3.7-1.12-7.62-1.73-11.69-1.73,0,0-.01,0-.02,0,0,0,0,0,0,0,0,0,0,0,0,0-4.08,0-8.02,.62-11.74,1.75-.04-.41-.07-.82-.07-1.24Zm-.76,2.59c.34,1.65,1,3.18,1.91,4.54l-17.36,12.64c-1.03-1.24-2.29-2.28-3.72-3.06,4.73-6.5,11.41-11.49,19.17-14.12ZM1.02,40.77c0-6.5,5.29-11.79,11.79-11.79,1.63,0,3.18,.33,4.59,.93-2.14,3.13-3.85,6.59-5.05,10.27,0,.01-.02,.02-.02,.03,0,0,0,0,0,0,0,.01,0,.03,0,.04-1.23,3.81-1.9,7.85-1.93,12.06-5.34-1.12-9.37-5.87-9.37-11.54Zm11.79,12.81c1.25,0,2.46-.19,3.61-.53l6.47,19.79c-1.55,.58-2.96,1.45-4.16,2.54-4.44-6.2-7.11-13.74-7.3-21.89,.45,.05,.92,.08,1.38,.08Zm14.53,43.05c-6.5,0-11.79-5.29-11.79-11.79,0-3.04,1.16-5.8,3.05-7.89,2.38,3.13,5.21,5.9,8.39,8.21,.02,.02,.03,.05,.05,.07,0,0,0,0,0,0,.02,.02,.06,.01,.08,.03,3.17,2.29,6.68,4.13,10.44,5.43-2.04,3.54-5.85,5.94-10.22,5.94Zm23.34-4.76c-4.06,0-7.98-.62-11.67-1.77,.66-1.46,1.05-3.07,1.12-4.76h21.03c.07,1.71,.46,3.32,1.13,4.78-3.67,1.14-7.57,1.75-11.6,1.75Zm35.06-7.03c0,6.5-5.29,11.79-11.79,11.79-4.36,0-8.17-2.39-10.21-5.92,3.79-1.3,7.32-3.15,10.5-5.45,0,0,0,0,0,0,0,0,0,0,0,0,0,0,0,0,0,0,3.21-2.32,6.07-5.11,8.47-8.25,1.87,2.09,3.01,4.83,3.01,7.84Zm-3.13-9.41c-1.21-1.11-2.62-1.99-4.19-2.58l6.5-19.8c1.15,.34,2.37,.53,3.63,.53,.47,0,.93-.03,1.38-.08-.19,8.16-2.87,15.72-7.33,21.93Zm8.37-23.12c-.03-4.2-.71-8.25-1.93-12.06,0-.01,0-.03,0-.04h0s-.02-.02-.02-.03c-1.2-3.68-2.9-7.13-5.05-10.27,1.41-.6,2.96-.93,4.59-.93,6.5,0,11.79,5.29,11.79,11.79,0,5.67-4.03,10.42-9.37,11.54Z"/>
  </g>
</svg>